<?xml version="1.0" encoding="utf-8"?>
<!-- Generator: Adobe Illustrator 16.0.0, SVG Export Plug-In . SVG Version: 6.00 Build 0)  -->
<!DOCTYPE svg PUBLIC "-//W3C//DTD SVG 1.1//EN" "http://www.w3.org/Graphics/SVG/1.1/DTD/svg11.dtd">
<svg version="1.1" id="Layer_1" xmlns="http://www.w3.org/2000/svg" xmlns:xlink="http://www.w3.org/1999/xlink" x="0px" y="0px"
	 width="360px" height="373.429px" viewBox="0 0 360 373.429" enable-background="new 0 0 360 373.429" xml:space="preserve">
<g>
	<g>
		<polygon fill="#FFFFFF" points="355.223,371.429 349.596,371.429 349.596,194.798 10.404,194.798 10.404,371.429 4.777,371.429 
			4.777,189.173 355.223,189.173 		"/>
	</g>
	<g>
		
			<rect x="64.431" y="300.583" transform="matrix(0.9999 0.0101 -0.0101 0.9999 3.3848 -0.6602)" fill="#FFFFFF" width="5.624" height="70.314"/>
	</g>
	<g>
		
			<rect x="292.833" y="300.577" transform="matrix(0.9999 0.0101 -0.0101 0.9999 3.3955 -2.9598)" fill="#FFFFFF" width="5.625" height="70.318"/>
	</g>
	<g enable-background="new    ">
		<path fill="#FFFFFF" d="M88.988,26.409L79.64,32.85l-8.797-13.668L90.559,6.614h17.281v55.614H88.988V26.409z"/>
		<path fill="#FFFFFF" d="M172.409,43.533c0,3.876-0.707,7.109-2.121,9.701c-1.414,2.592-3.234,4.674-5.459,6.245
			c-2.227,1.57-4.713,2.684-7.462,3.338c-2.75,0.654-5.459,0.982-8.13,0.982c-2.828,0-5.604-0.381-8.327-1.14
			c-2.724-0.758-5.211-1.871-7.462-3.338c-2.252-1.466-4.163-3.26-5.734-5.381c-1.571-2.121-2.619-4.542-3.142-7.266l17.281-4.399
			c0.314,1.52,1.086,2.842,2.317,3.967c1.23,1.127,2.71,1.689,4.438,1.689c1.361,0,2.565-0.314,3.613-0.943
			c1.047-0.628,1.571-1.728,1.571-3.299c0-0.942-0.302-1.715-0.903-2.317c-0.603-0.602-1.375-1.086-2.317-1.453
			c-0.942-0.365-2.003-0.614-3.181-0.746c-1.178-0.13-2.344-0.196-3.496-0.196c-0.838,0-1.846,0.039-3.024,0.118
			c-1.178,0.078-2.423,0.196-3.731,0.354c-1.31,0.156-2.631,0.341-3.967,0.55c-1.335,0.21-2.605,0.419-3.81,0.628l1.964-34.013
			h37.783v15.554h-21.994l-0.314,4.006c0.732-0.104,1.465-0.196,2.199-0.275c0.733-0.078,1.387-0.117,1.964-0.117
			c2.879,0,5.616,0.341,8.208,1.021c2.592,0.682,4.87,1.742,6.834,3.182c1.964,1.441,3.521,3.287,4.674,5.538
			C171.832,37.773,172.409,40.444,172.409,43.533z"/>
		<path fill="#FFFFFF" d="M209.17,24.052c2.408,0,4.752,0.406,7.031,1.218c2.277,0.812,4.307,2.003,6.087,3.574
			c1.78,1.57,3.207,3.509,4.281,5.812c1.073,2.305,1.61,4.948,1.61,7.934c0,3.509-0.656,6.586-1.964,9.229
			c-1.31,2.646-3.091,4.858-5.342,6.638c-2.252,1.781-4.845,3.116-7.776,4.006c-2.934,0.89-6.022,1.336-9.27,1.336
			s-6.336-0.433-9.269-1.296c-2.933-0.864-5.525-2.16-7.776-3.889c-2.252-1.729-4.033-3.914-5.342-6.559
			c-1.309-2.645-1.963-5.747-1.963-9.309c0-3.508,0.693-6.795,2.082-9.858c1.387-3.063,2.997-5.878,4.831-8.444l12.725-17.831
			h22.701l-12.803,16.574l-0.707,0.864H209.17z M203.828,37.091c-1.676,0-3.051,0.542-4.123,1.622
			c-1.074,1.081-1.61,2.413-1.61,3.995c0,1.635,0.536,3.006,1.61,4.112c1.072,1.107,2.447,1.661,4.123,1.661
			c1.78,0,3.207-0.554,4.281-1.661c1.073-1.106,1.611-2.478,1.611-4.112c0-1.582-0.538-2.914-1.611-3.995
			C207.035,37.633,205.608,37.091,203.828,37.091z"/>
		<path fill="#FFFFFF" d="M282.379,43.533c0,3.876-0.707,7.109-2.12,9.701c-1.414,2.592-3.234,4.674-5.46,6.245
			c-2.227,1.57-4.713,2.684-7.462,3.338s-5.459,0.982-8.13,0.982c-2.828,0-5.604-0.381-8.326-1.14
			c-2.724-0.758-5.212-1.871-7.463-3.338c-2.252-1.466-4.163-3.26-5.734-5.381c-1.57-2.121-2.619-4.542-3.142-7.266l17.281-4.399
			c0.314,1.52,1.086,2.842,2.317,3.967c1.229,1.127,2.71,1.689,4.438,1.689c1.361,0,2.565-0.314,3.613-0.943
			c1.047-0.628,1.571-1.728,1.571-3.299c0-0.942-0.302-1.715-0.903-2.317c-0.603-0.602-1.375-1.086-2.317-1.453
			c-0.942-0.365-2.003-0.614-3.181-0.746c-1.179-0.13-2.345-0.196-3.496-0.196c-0.838,0-1.846,0.039-3.024,0.118
			c-1.178,0.078-2.423,0.196-3.73,0.354c-1.31,0.156-2.632,0.341-3.967,0.55c-1.336,0.21-2.606,0.419-3.811,0.628l1.964-34.013
			h37.783v15.554h-21.994l-0.314,4.006c0.733-0.104,1.466-0.196,2.199-0.275c0.733-0.078,1.388-0.117,1.964-0.117
			c2.88,0,5.617,0.341,8.209,1.021c2.592,0.682,4.87,1.742,6.834,3.182c1.964,1.441,3.521,3.287,4.674,5.538
			C281.803,37.773,282.379,40.444,282.379,43.533z"/>
	</g>
	<g enable-background="new    ">
		<path fill="#FFFFFF" d="M80.843,131.96c-1.889,0-3.745-0.164-5.567-0.491c-1.823-0.328-3.58-0.809-5.271-1.441
			c-1.691-0.635-3.284-1.377-4.776-2.229c-1.494-0.853-2.833-1.803-4.019-2.852l9.553-10.38c1.097,1.186,2.558,2.24,4.381,3.162
			c1.822,0.923,3.699,1.384,5.633,1.384c0.878,0,1.68-0.153,2.404-0.462c0.725-0.308,1.087-0.88,1.087-1.716
			c0-0.44-0.122-0.813-0.362-1.122c-0.242-0.309-0.67-0.627-1.285-0.957c-0.616-0.329-1.461-0.692-2.537-1.089
			c-1.077-0.396-2.427-0.857-4.052-1.387c-1.581-0.526-3.096-1.153-4.546-1.881c-1.449-0.726-2.734-1.617-3.854-2.673
			c-1.12-1.057-2.009-2.32-2.668-3.795c-0.659-1.474-0.988-3.244-0.988-5.313c0-2.902,0.593-5.367,1.779-7.391
			c1.186-2.024,2.711-3.686,4.579-4.983c1.866-1.298,3.963-2.232,6.292-2.806c2.328-0.572,4.633-0.858,6.918-0.858
			c3.074,0,6.203,0.593,9.388,1.779c3.184,1.186,5.984,2.898,8.4,5.139l-9.75,9.948c-1.054-1.318-2.35-2.316-3.887-2.998
			c-1.538-0.681-2.921-1.021-4.15-1.021c-1.143,0-2.065,0.164-2.767,0.493c-0.703,0.33-1.054,0.868-1.054,1.614
			c0,0.703,0.362,1.23,1.087,1.581c0.725,0.353,1.899,0.791,3.525,1.318c1.668,0.526,3.426,1.143,5.271,1.845
			c1.845,0.703,3.546,1.613,5.105,2.733c1.559,1.12,2.843,2.493,3.854,4.118c1.01,1.625,1.516,3.646,1.516,6.061
			c0,2.812-0.56,5.261-1.68,7.346c-1.12,2.087-2.592,3.821-4.414,5.205c-1.823,1.384-3.876,2.416-6.16,3.097
			C85.542,131.62,83.214,131.96,80.843,131.96z"/>
		<path fill="#FFFFFF" d="M141.519,113.646c0,0.571-0.011,1.152-0.033,1.745c-0.022,0.594-0.056,1.088-0.099,1.482h-23.322
			c0.043,0.616,0.252,1.165,0.625,1.647c0.373,0.483,0.834,0.9,1.384,1.252c0.548,0.352,1.163,0.615,1.845,0.79
			c0.68,0.176,1.372,0.264,2.075,0.264c1.405,0,2.58-0.252,3.524-0.758c0.944-0.504,1.657-1.064,2.141-1.68l10.805,5.468
			c-1.538,2.504-3.767,4.48-6.687,5.93c-2.921,1.449-6.314,2.174-10.179,2.174c-2.503,0-4.941-0.396-7.312-1.186
			c-2.372-0.791-4.47-1.965-6.292-3.524c-1.823-1.559-3.284-3.502-4.381-5.831c-1.099-2.327-1.647-5.028-1.647-8.104
			c0-2.854,0.504-5.435,1.515-7.74c1.01-2.307,2.382-4.26,4.118-5.864c1.734-1.603,3.777-2.843,6.127-3.722
			c2.349-0.878,4.864-1.317,7.543-1.317c2.723,0,5.205,0.472,7.444,1.416c2.24,0.945,4.161,2.263,5.765,3.953
			c1.603,1.691,2.843,3.7,3.722,6.028C141.079,108.398,141.519,110.923,141.519,113.646z M128.408,108.705
			c0-1.229-0.451-2.24-1.351-3.03c-0.901-0.791-2.12-1.187-3.657-1.187c-1.669,0-2.964,0.462-3.887,1.384
			c-0.922,0.923-1.449,1.867-1.581,2.833H128.408z"/>
		<path fill="#FFFFFF" d="M146.854,80.836h15.548v49.807h-15.548V80.836z"/>
		<path fill="#FFFFFF" d="M192.642,90.818c-0.527-0.109-1.054-0.165-1.581-0.165c-1.494,0-2.537,0.462-3.13,1.384
			s-0.89,2.087-0.89,3.492v0.461h7.313v10.87h-7.313v23.783h-15.218V106.86h-5.929V95.99h5.929v-0.791
			c0-2.151,0.253-4.216,0.761-6.192c0.506-1.977,1.378-3.723,2.614-5.238c1.235-1.515,2.9-2.711,4.996-3.59
			c2.094-0.878,4.729-1.317,7.903-1.317c1.01,0,2.184,0.077,3.524,0.23c1.339,0.154,2.471,0.406,3.394,0.757l-0.988,11.397
			C193.629,91.071,193.168,90.928,192.642,90.818z"/>
		<path fill="#FFFFFF" d="M197.121,85.975c0-1.054,0.208-2.052,0.626-2.997c0.417-0.944,0.988-1.768,1.713-2.471
			c0.725-0.702,1.569-1.262,2.536-1.68c0.966-0.417,1.998-0.626,3.097-0.626c1.054,0,2.042,0.209,2.965,0.626
			c0.923,0.418,1.745,0.978,2.47,1.68c0.726,0.703,1.296,1.526,1.714,2.471c0.417,0.945,0.626,1.943,0.626,2.997
			c0,1.099-0.209,2.12-0.626,3.063c-0.418,0.945-0.988,1.758-1.714,2.438c-0.725,0.681-1.547,1.219-2.47,1.613
			c-0.923,0.396-1.911,0.594-2.965,0.594c-1.099,0-2.131-0.198-3.097-0.594c-0.967-0.395-1.812-0.933-2.536-1.613
			s-1.296-1.493-1.713-2.438C197.329,88.095,197.121,87.074,197.121,85.975z M197.385,95.99h15.219v34.653h-15.219V95.99z"/>
		<path fill="#FFFFFF" d="M255.82,113.646c0,0.571-0.011,1.152-0.032,1.745c-0.023,0.594-0.056,1.088-0.1,1.482h-23.321
			c0.043,0.616,0.252,1.165,0.626,1.647c0.372,0.483,0.833,0.9,1.383,1.252c0.549,0.352,1.164,0.615,1.845,0.79
			c0.681,0.176,1.372,0.264,2.075,0.264c1.405,0,2.58-0.252,3.525-0.758c0.943-0.504,1.657-1.064,2.141-1.68l10.805,5.468
			c-1.538,2.504-3.767,4.48-6.687,5.93c-2.922,1.449-6.314,2.174-10.179,2.174c-2.504,0-4.941-0.396-7.313-1.186
			c-2.371-0.791-4.47-1.965-6.291-3.524c-1.823-1.559-3.284-3.502-4.381-5.831c-1.1-2.327-1.647-5.028-1.647-8.104
			c0-2.854,0.505-5.435,1.515-7.74c1.01-2.307,2.383-4.26,4.118-5.864c1.734-1.603,3.776-2.843,6.127-3.722
			c2.349-0.878,4.863-1.317,7.543-1.317c2.723,0,5.205,0.472,7.445,1.416c2.239,0.945,4.16,2.263,5.765,3.953
			c1.603,1.691,2.843,3.7,3.722,6.028C255.381,108.398,255.82,110.923,255.82,113.646z M242.71,108.705
			c0-1.229-0.45-2.24-1.351-3.03c-0.9-0.791-2.119-1.187-3.656-1.187c-1.67,0-2.965,0.462-3.887,1.384
			c-0.923,0.923-1.449,1.867-1.581,2.833H242.71z"/>
		<path fill="#FFFFFF" d="M289.485,119.641c0,2.328-0.491,4.282-1.476,5.863s-2.229,2.844-3.738,3.788
			c-1.508,0.945-3.158,1.624-4.95,2.042c-1.793,0.417-3.5,0.626-5.12,0.626c-2.987,0-5.919-0.428-8.795-1.284
			c-2.877-0.856-5.369-2.075-7.478-3.656l7.444-8.631c1.055,0.967,2.295,1.746,3.723,2.339c1.427,0.593,2.8,0.89,4.117,0.89
			c0.527,0,1.021-0.1,1.482-0.297s0.691-0.56,0.691-1.087c0-0.57-0.406-1.021-1.219-1.351s-2.229-0.735-4.249-1.219
			c-1.099-0.264-2.219-0.647-3.36-1.153c-1.143-0.504-2.185-1.174-3.129-2.009c-0.945-0.834-1.725-1.855-2.339-3.063
			c-0.615-1.208-0.922-2.646-0.922-4.315c0-2.24,0.494-4.15,1.481-5.731c0.988-1.581,2.24-2.866,3.756-3.854
			c1.515-0.988,3.162-1.713,4.941-2.174c1.778-0.461,3.458-0.691,5.039-0.691c2.679,0,5.337,0.395,7.972,1.186
			c2.636,0.79,5.008,1.889,7.115,3.294l-7.115,8.499c-1.098-0.702-2.218-1.252-3.359-1.647c-1.143-0.396-2.263-0.593-3.36-0.593
			c-0.747,0-1.361,0.099-1.845,0.296c-0.483,0.198-0.725,0.583-0.725,1.153c0,0.439,0.272,0.78,0.819,1.021s1.805,0.56,3.772,0.955
			c1.355,0.264,2.678,0.67,3.969,1.219c1.29,0.55,2.449,1.252,3.478,2.108c1.027,0.856,1.848,1.9,2.46,3.129
			C289.179,116.523,289.485,117.972,289.485,119.641z"/>
	</g>
</g>
</svg>
