<?xml version="1.0" encoding="utf-8"?>
<!-- Generator: Adobe Illustrator 16.0.0, SVG Export Plug-In . SVG Version: 6.00 Build 0)  -->
<!DOCTYPE svg PUBLIC "-//W3C//DTD SVG 1.1//EN" "http://www.w3.org/Graphics/SVG/1.1/DTD/svg11.dtd">
<svg version="1.1" id="Layer_1" xmlns="http://www.w3.org/2000/svg" xmlns:xlink="http://www.w3.org/1999/xlink" x="0px" y="0px"
	 width="360px" height="373.429px" viewBox="0 0 360 373.429" enable-background="new 0 0 360 373.429" xml:space="preserve">
<g>
	<g>
		<g>
			<polygon fill="#FFFFFF" points="343.792,370.966 338.589,370.966 338.589,207.66 24.98,207.66 24.98,370.966 19.775,370.966 
				19.775,202.458 343.792,202.458 			"/>
		</g>
		<g>
			<polygon fill="#FFFFFF" points="75.231,305.427 80.425,305.475 79.792,370.488 74.596,370.433 			"/>
		</g>
		<g>
			<polygon fill="#FFFFFF" points="286.396,305.427 291.596,305.475 290.958,370.488 285.764,370.44 			"/>
		</g>
	</g>
	<g enable-background="new    ">
		<path fill="#FFFFFF" d="M240.867,116.056c-2.386,7.648-6.148,15.296-11.287,22.943c-7.893,11.99-15.756,17.987-23.586,17.987
			c-2.999,0-7.282-0.979-12.849-2.937c-5.263-1.959-9.882-2.937-13.858-2.937c-3.732,0-8.076,1.009-13.032,3.028
			c-4.956,2.079-8.994,3.12-12.114,3.12c-9.301,0-18.508-7.924-27.624-23.77c-8.994-15.969-13.491-31.355-13.491-46.162
			c0-13.949,3.456-25.39,10.371-34.323c6.852-8.811,15.54-13.216,26.063-13.216c4.405,0,9.82,0.918,16.244,2.753
			c6.362,1.836,10.584,2.754,12.665,2.754c2.753,0,7.126-1.04,13.125-3.12c6.24-2.08,11.531-3.121,15.876-3.121
			c7.28,0,13.796,1.989,19.548,5.966c3.181,2.202,6.363,5.263,9.545,9.177c-4.834,4.101-8.322,7.71-10.463,10.83
			c-3.978,5.751-5.965,12.084-5.965,18.997c0,7.587,2.111,14.408,6.332,20.466C230.59,110.549,235.422,114.404,240.867,116.056z
			 M206.361,8.405c0,3.732-0.889,7.893-2.662,12.481c-1.836,4.589-4.68,8.811-8.535,12.665c-3.304,3.304-6.607,5.506-9.911,6.607
			c-2.265,0.674-5.446,1.193-9.544,1.561c0.184-9.116,2.569-16.979,7.159-23.586c4.526-6.546,12.174-11.073,22.943-13.583
			c0.061,0.184,0.137,0.521,0.229,1.01c0.092,0.49,0.168,0.826,0.23,1.01c0,0.245,0.014,0.551,0.045,0.918
			C206.346,7.854,206.361,8.162,206.361,8.405z"/>
	</g>
</g>
</svg>
