<?xml version="1.0" encoding="utf-8"?>
<!-- Generator: Adobe Illustrator 16.0.0, SVG Export Plug-In . SVG Version: 6.00 Build 0)  -->
<!DOCTYPE svg PUBLIC "-//W3C//DTD SVG 1.1//EN" "http://www.w3.org/Graphics/SVG/1.1/DTD/svg11.dtd">
<svg version="1.1" id="Layer_1" xmlns="http://www.w3.org/2000/svg" xmlns:xlink="http://www.w3.org/1999/xlink" x="0px" y="0px"
	 width="360px" height="373.429px" viewBox="0 0 360 373.429" enable-background="new 0 0 360 373.429" xml:space="preserve">
<g>
	<g>
		<polygon fill="#FFFFFF" points="351.389,370.738 345.885,370.738 345.885,197.974 14.116,197.974 14.116,370.738 8.612,370.738 
			8.612,192.472 351.389,192.472 		"/>
	</g>
	<g>
		
			<rect x="66.93" y="301.414" transform="matrix(1 0.0099 -0.0099 1 3.3411 -0.676)" fill="#FFFFFF" width="5.502" height="68.783"/>
	</g>
	<g>
		
			<rect x="290.312" y="301.424" transform="matrix(1 0.0099 -0.0099 1 3.3522 -2.8962)" fill="#FFFFFF" width="5.502" height="68.788"/>
	</g>
	<g enable-background="new    ">
		<path fill="#FFFFFF" d="M125.708,40.029c1.28,0.308,2.536,0.807,3.765,1.498c1.229,0.692,2.331,1.563,3.304,2.612
			c0.972,1.051,1.741,2.267,2.305,3.65c0.563,1.383,0.845,2.919,0.845,4.609c0,2.972-0.603,5.469-1.806,7.491
			c-1.204,2.024-2.792,3.663-4.764,4.917c-1.972,1.256-4.226,2.151-6.761,2.689c-2.535,0.538-5.136,0.807-7.798,0.807H90.135V13.906
			h22.358c2.202,0,4.545,0.167,7.03,0.5c2.484,0.334,4.776,0.999,6.876,1.997c2.1,0.999,3.842,2.459,5.225,4.38
			c1.383,1.921,2.075,4.444,2.075,7.567c0,2.92-0.73,5.328-2.19,7.223c-1.459,1.896-3.394,3.304-5.801,4.226V40.029z M107.192,28.12
			v6.685h4.917c1.28,0,2.33-0.294,3.15-0.883c0.819-0.589,1.229-1.499,1.229-2.728c0-1.024-0.436-1.793-1.306-2.306
			c-0.872-0.511-2.024-0.769-3.458-0.769H107.192z M107.192,46.56v7.376h5.455c1.434,0,2.599-0.319,3.496-0.961
			c0.896-0.64,1.345-1.575,1.345-2.805c0-0.716-0.192-1.306-0.577-1.767c-0.384-0.461-0.858-0.832-1.421-1.114
			c-0.564-0.281-1.166-0.473-1.805-0.576c-0.641-0.102-1.243-0.153-1.806-0.153H107.192z"/>
		<path fill="#FFFFFF" d="M185.176,68.303h-17.287v-4.456h-0.153c-1.025,1.486-2.549,2.779-4.572,3.88
			c-2.024,1.101-4.341,1.651-6.953,1.651c-2.869,0-5.225-0.499-7.068-1.498c-1.844-0.999-3.317-2.305-4.418-3.918
			c-1.102-1.613-1.871-3.432-2.305-5.455c-0.436-2.023-0.653-4.034-0.653-6.031V27.889h17.748v21.359c0,2.05,0.323,3.484,0.97,4.303
			c0.646,0.82,1.616,1.229,2.909,1.229c1.189,0,2.16-0.473,2.91-1.421c0.749-0.947,1.125-2.317,1.125-4.111V27.889h17.748V68.303z"
			/>
		<path fill="#FFFFFF" d="M204.998,66.698l-16.365-38.809h19.669l5.993,21.283h0.307l5.302-21.283h18.978l-16.596,42.873
			c-0.974,2.509-2.074,4.75-3.304,6.723c-1.229,1.971-2.663,3.649-4.303,5.032s-3.572,2.433-5.801,3.15
			c-2.228,0.717-4.828,1.075-7.798,1.075c-0.922,0-1.871-0.039-2.844-0.115c-0.973-0.078-1.908-0.181-2.804-0.31
			c-0.897-0.13-1.729-0.258-2.497-0.386c-0.769-0.129-1.41-0.271-1.921-0.425l2.228-14.669c0.666,0.256,1.473,0.474,2.421,0.653
			c0.947,0.179,1.806,0.269,2.573,0.269c1.947,0,3.393-0.396,4.342-1.188c0.947-0.793,1.652-1.803,2.113-3.029L204.998,66.698z"/>
		<path fill="#FFFFFF" d="M275.375,55.472c0,2.716-0.574,4.994-1.721,6.838c-1.148,1.844-2.602,3.317-4.359,4.418
			c-1.76,1.103-3.684,1.895-5.773,2.382c-2.092,0.486-4.082,0.73-5.971,0.73c-3.484,0-6.904-0.5-10.258-1.499
			c-3.355-0.998-6.262-2.42-8.721-4.264l8.682-10.065c1.23,1.128,2.676,2.036,4.342,2.728c1.664,0.691,3.266,1.037,4.803,1.037
			c0.613,0,1.189-0.115,1.729-0.346c0.537-0.23,0.807-0.652,0.807-1.268c0-0.665-0.475-1.19-1.422-1.575
			c-0.949-0.384-2.6-0.856-4.955-1.421c-1.281-0.308-2.588-0.755-3.92-1.345c-1.332-0.588-2.548-1.37-3.648-2.344
			c-1.103-0.972-2.012-2.163-2.729-3.572c-0.717-1.408-1.075-3.085-1.075-5.032c0-2.612,0.577-4.841,1.729-6.685
			s2.611-3.343,4.379-4.495s3.688-1.997,5.762-2.535s4.035-0.807,5.879-0.807c3.123,0,6.223,0.461,9.297,1.383
			c3.072,0.922,5.838,2.203,8.297,3.842l-8.297,9.911c-1.281-0.818-2.588-1.46-3.92-1.921s-2.639-0.691-3.918-0.691
			c-0.871,0-1.588,0.115-2.15,0.346c-0.564,0.23-0.846,0.68-0.846,1.345c0,0.513,0.318,0.91,0.955,1.19
			c0.639,0.282,2.105,0.653,4.4,1.114c1.58,0.308,3.123,0.782,4.627,1.422c1.506,0.641,2.857,1.46,4.057,2.458
			c1.197,0.999,2.154,2.217,2.869,3.649C275.018,51.836,275.375,53.526,275.375,55.472z"/>
	</g>
	<g enable-background="new    ">
		<path fill="#FFFFFF" d="M98.895,125.753c-1.351,0-2.677-0.117-3.979-0.351c-1.303-0.234-2.559-0.578-3.767-1.031
			c-1.209-0.453-2.347-0.983-3.414-1.593c-1.068-0.609-2.025-1.288-2.873-2.038l6.828-7.419c0.784,0.848,1.829,1.602,3.131,2.261
			s2.645,0.988,4.026,0.988c0.628,0,1.201-0.109,1.719-0.33c0.518-0.22,0.777-0.629,0.777-1.227c0-0.314-0.087-0.581-0.259-0.802
			c-0.173-0.22-0.479-0.448-0.918-0.684c-0.44-0.235-1.044-0.495-1.813-0.778c-0.77-0.283-1.735-0.613-2.896-0.991
			c-1.13-0.377-2.213-0.825-3.249-1.345c-1.036-0.519-1.954-1.155-2.755-1.91c-0.8-0.755-1.436-1.659-1.907-2.713
			c-0.471-1.054-0.706-2.319-0.706-3.798c0-2.075,0.424-3.836,1.271-5.283c0.848-1.446,1.938-2.634,3.273-3.562
			c1.334-0.928,2.833-1.596,4.497-2.005c1.664-0.409,3.312-0.614,4.945-0.614c2.197,0,4.434,0.424,6.71,1.271
			c2.275,0.848,4.277,2.072,6.004,3.673l-6.969,7.111c-0.754-0.942-1.68-1.655-2.778-2.143c-1.1-0.486-2.088-0.73-2.967-0.73
			c-0.817,0-1.476,0.118-1.978,0.354c-0.502,0.235-0.753,0.62-0.753,1.153c0,0.503,0.259,0.88,0.777,1.131
			c0.518,0.251,1.358,0.564,2.52,0.941c1.193,0.377,2.449,0.816,3.767,1.318c1.319,0.503,2.535,1.154,3.65,1.954
			c1.114,0.801,2.032,1.782,2.754,2.943c0.722,1.162,1.083,2.606,1.083,4.333c0,2.009-0.4,3.76-1.201,5.25
			c-0.8,1.491-1.853,2.731-3.155,3.721c-1.303,0.988-2.771,1.727-4.403,2.213S100.589,125.753,98.895,125.753z"/>
		<path fill="#FFFFFF" d="M133.835,125.471c-1.225,0-2.434-0.228-3.626-0.683c-1.193-0.455-2.167-1.091-2.92-1.907h-0.094v13.232
			h-10.784v-36.071h10.219v2.496h0.094c0.91-1.036,2.009-1.82,3.296-2.354c1.287-0.534,2.543-0.801,3.767-0.801
			c1.852,0,3.485,0.377,4.897,1.13c1.413,0.754,2.59,1.742,3.532,2.967c0.942,1.225,1.656,2.606,2.143,4.144
			c0.487,1.539,0.73,3.108,0.73,4.709c0,1.633-0.243,3.234-0.73,4.804c-0.487,1.57-1.201,2.975-2.143,4.215
			c-0.941,1.24-2.111,2.236-3.508,2.99C137.312,125.094,135.687,125.471,133.835,125.471z M135.012,112.333
			c0-1.098-0.346-2.056-1.036-2.872c-0.691-0.816-1.695-1.225-3.014-1.225c-1.288,0-2.315,0.408-3.084,1.225
			c-0.77,0.816-1.154,1.774-1.154,2.872c0,1.162,0.384,2.151,1.154,2.967c0.769,0.817,1.797,1.225,3.084,1.225
			c1.318,0,2.323-0.4,3.014-1.2C134.667,114.523,135.012,113.527,135.012,112.333z"/>
		<path fill="#FFFFFF" d="M148.95,92.884c0-0.753,0.148-1.467,0.447-2.143c0.298-0.675,0.707-1.263,1.225-1.766
			c0.518-0.502,1.122-0.902,1.813-1.201c0.69-0.298,1.428-0.447,2.213-0.447c0.753,0,1.459,0.149,2.119,0.447
			c0.66,0.299,1.248,0.699,1.766,1.201c0.518,0.503,0.926,1.091,1.224,1.766c0.298,0.676,0.448,1.39,0.448,2.143
			c0,0.785-0.149,1.516-0.448,2.19s-0.706,1.256-1.224,1.742c-0.518,0.487-1.106,0.871-1.766,1.153
			c-0.659,0.282-1.365,0.424-2.119,0.424c-0.785,0-1.523-0.142-2.213-0.424c-0.691-0.282-1.295-0.666-1.813-1.153
			c-0.518-0.486-0.926-1.067-1.225-1.742C149.099,94.4,148.95,93.669,148.95,92.884z M149.139,100.042h10.878v24.77h-10.878V100.042
			z"/>
		<path fill="#FFFFFF" d="M165.055,100.042h10.596v2.731h0.094c0.625-0.91,1.557-1.703,2.793-2.378
			c1.236-0.675,2.654-1.013,4.25-1.013c1.721,0,3.153,0.314,4.296,0.941c1.142,0.629,2.05,1.437,2.724,2.426
			c0.672,0.988,1.142,2.095,1.408,3.319c0.266,1.225,0.398,2.449,0.398,3.673v15.069h-10.877v-13.186
			c0-1.255-0.197-2.135-0.589-2.637c-0.393-0.502-0.981-0.754-1.766-0.754c-0.722,0-1.311,0.291-1.766,0.871
			c-0.456,0.582-0.683,1.421-0.683,2.52v13.186h-10.878V100.042z"/>
		<path fill="#FFFFFF" d="M209.555,109.083c0-0.753-0.259-1.311-0.777-1.672c-0.518-0.36-1.2-0.541-2.048-0.541
			c-1.005,0-1.954,0.212-2.849,0.636s-1.688,0.918-2.379,1.483l-5.415-5.368c1.507-1.444,3.296-2.559,5.368-3.344
			c2.072-0.784,4.207-1.178,6.404-1.178c2.355,0,4.301,0.33,5.84,0.989c1.537,0.659,2.754,1.57,3.649,2.731
			c0.895,1.162,1.522,2.512,1.884,4.05c0.36,1.538,0.541,3.171,0.541,4.897v13.044h-9.842v-1.978h-0.094
			c-0.629,0.941-1.523,1.617-2.685,2.024c-1.161,0.408-2.292,0.612-3.391,0.612c-0.974,0-1.97-0.142-2.99-0.424
			s-1.946-0.737-2.778-1.365s-1.516-1.444-2.049-2.449c-0.533-1.004-0.801-2.244-0.801-3.72c0-1.727,0.448-3.132,1.343-4.215
			s2.032-1.931,3.414-2.543s2.927-1.027,4.639-1.248c1.71-0.219,3.382-0.329,5.015-0.329V109.083z M209.648,114.546
			c-1.601,0-2.889,0.173-3.861,0.518c-0.973,0.346-1.459,0.989-1.459,1.931c0,0.346,0.078,0.636,0.235,0.871
			c0.157,0.236,0.36,0.433,0.612,0.589c0.25,0.157,0.525,0.275,0.824,0.354c0.298,0.078,0.572,0.117,0.824,0.117
			c1.035,0,1.867-0.329,2.495-0.988s0.942-1.507,0.942-2.543v-0.848H209.648z"/>
		<path fill="#FFFFFF" d="M237.715,125.753c-2.104,0-4.035-0.313-5.793-0.941s-3.281-1.522-4.567-2.685
			c-1.288-1.161-2.292-2.558-3.015-4.19c-0.722-1.632-1.082-3.469-1.082-5.51c0-2.009,0.368-3.838,1.106-5.486
			c0.737-1.648,1.766-3.053,3.084-4.215c1.319-1.16,2.864-2.056,4.639-2.684c1.773-0.628,3.696-0.942,5.769-0.942
			c0.848,0,1.703,0.071,2.566,0.212c0.863,0.142,1.695,0.338,2.496,0.589c0.801,0.252,1.537,0.534,2.213,0.848
			c0.675,0.314,1.248,0.659,1.719,1.036l-5.415,7.817c-0.377-0.424-0.872-0.75-1.483-0.978c-0.612-0.228-1.201-0.341-1.766-0.341
			c-0.535,0-1.053,0.086-1.555,0.259s-0.949,0.439-1.342,0.8c-0.393,0.361-0.715,0.801-0.965,1.319
			c-0.252,0.518-0.377,1.122-0.377,1.812c0,0.691,0.125,1.295,0.377,1.813c0.25,0.518,0.572,0.941,0.965,1.271
			c0.393,0.329,0.84,0.581,1.342,0.753c0.502,0.173,1.02,0.259,1.555,0.259c0.627,0,1.239-0.117,1.836-0.353
			c0.596-0.235,1.083-0.558,1.46-0.966l5.462,7.597c-1.035,0.812-2.377,1.499-4.025,2.062S239.535,125.753,237.715,125.753z"/>
		<path fill="#FFFFFF" d="M266.748,99.383c1.722,0,3.153,0.314,4.296,0.941c1.143,0.629,2.05,1.437,2.723,2.426
			c0.673,0.988,1.142,2.095,1.408,3.319s0.399,2.449,0.399,3.673v15.069h-10.878v-13.186c0-1.255-0.196-2.135-0.589-2.637
			s-0.981-0.754-1.766-0.754c-0.628,0-1.193,0.275-1.695,0.824c-0.502,0.55-0.753,1.421-0.753,2.613v13.139h-10.878V89.211h10.878
			v13.562h0.094c0.626-0.91,1.519-1.703,2.676-2.378C263.821,99.721,265.183,99.383,266.748,99.383z"/>
	</g>
</g>
</svg>
