<?xml version="1.0" encoding="utf-8"?>
<!-- Generator: Adobe Illustrator 16.0.0, SVG Export Plug-In . SVG Version: 6.00 Build 0)  -->
<!DOCTYPE svg PUBLIC "-//W3C//DTD SVG 1.1//EN" "http://www.w3.org/Graphics/SVG/1.1/DTD/svg11.dtd">
<svg version="1.1" id="Layer_1" xmlns="http://www.w3.org/2000/svg" xmlns:xlink="http://www.w3.org/1999/xlink" x="0px" y="0px"
	 width="360px" height="373.429px" viewBox="0 0 360 373.429" enable-background="new 0 0 360 373.429" xml:space="preserve">
<g>
	<g>
		<polygon fill="#FFFFFF" points="354.972,371.346 349.352,371.346 349.352,194.966 10.647,194.966 10.647,371.346 5.028,371.346 
			5.028,189.351 354.972,189.351 		"/>
	</g>
	<g>
		
			<rect x="64.591" y="300.604" transform="matrix(0.9999 0.0101 -0.0101 0.9999 3.389 -0.6626)" fill="#FFFFFF" width="5.616" height="70.211"/>
	</g>
	<g>
		
			<rect x="292.667" y="300.6" transform="matrix(0.9999 0.0101 -0.0101 0.9999 3.4005 -2.9627)" fill="#FFFFFF" width="5.616" height="70.216"/>
	</g>
	<g enable-background="new    ">
		<path fill="#FFFFFF" d="M64.894,62.585v-50.16h18.704c3.967,0,7.758,0.39,11.371,1.169c3.613,0.779,6.801,2.126,9.564,4.038
			c2.763,1.913,4.971,4.453,6.625,7.616c1.653,3.165,2.479,7.156,2.479,11.974c0,4.393-0.792,8.195-2.373,11.406
			c-1.583,3.213-3.696,5.845-6.341,7.899c-2.646,2.055-5.692,3.578-9.14,4.569c-3.448,0.992-7.038,1.488-10.769,1.488H64.894z
			 M81.118,26.737v21.325h3.118c3.967,0,7.014-0.859,9.139-2.577c2.125-1.719,3.188-4.531,3.188-8.438
			c0-3.248-1.062-5.777-3.188-7.591c-2.125-1.812-4.959-2.719-8.502-2.719H81.118z"/>
		<path fill="#FFFFFF" d="M119.8,25.32h15.728v4.251h0.142c0.802-1.512,1.995-2.764,3.578-3.755
			c1.582-0.992,3.436-1.488,5.562-1.488c1.275,0,2.313,0.118,3.117,0.354l-1.275,13.886c-0.52-0.142-1.098-0.248-1.735-0.318
			c-0.638-0.071-1.217-0.106-1.736-0.106c-2.125,0-3.826,0.614-5.101,1.842c-1.275,1.229-1.913,2.74-1.913,4.534v18.066H119.8V25.32
			z"/>
		<path fill="#FFFFFF" d="M151.114,14.55c0-1.133,0.224-2.207,0.673-3.223c0.448-1.016,1.063-1.901,1.842-2.657
			c0.779-0.755,1.688-1.357,2.728-1.807c1.038-0.448,2.148-0.673,3.33-0.673c1.134,0,2.196,0.225,3.188,0.673
			c0.992,0.449,1.877,1.052,2.657,1.807c0.779,0.756,1.393,1.642,1.842,2.657c0.448,1.016,0.673,2.09,0.673,3.223
			c0,1.182-0.225,2.279-0.673,3.295c-0.449,1.017-1.062,1.89-1.842,2.621c-0.779,0.733-1.665,1.311-2.657,1.736
			c-0.992,0.425-2.055,0.638-3.188,0.638c-1.181,0-2.292-0.213-3.33-0.638c-1.04-0.426-1.948-1.003-2.728-1.736
			c-0.779-0.731-1.394-1.604-1.842-2.621C151.338,16.83,151.114,15.732,151.114,14.55z M151.397,25.32h16.366v37.266h-16.366V25.32z
			"/>
		<path fill="#FFFFFF" d="M175.343,25.32h15.941v4.109h0.142c0.941-1.37,2.342-2.562,4.202-3.578s3.991-1.523,6.394-1.523
			c2.59,0,4.744,0.473,6.463,1.417c1.719,0.945,3.084,2.161,4.098,3.648c1.012,1.488,1.717,3.153,2.118,4.995
			s0.601,3.684,0.601,5.526v22.671h-16.365V42.749c0-1.889-0.295-3.212-0.886-3.968c-0.591-0.755-1.477-1.134-2.657-1.134
			c-1.086,0-1.973,0.438-2.656,1.311c-0.686,0.875-1.027,2.138-1.027,3.791v19.837h-16.366V25.32z"/>
		<path fill="#FFFFFF" d="M238.894,46.362v16.224h-16.367V9.025h16.367V39.56h0.211l8.857-14.24h18.986l-12.045,16.791
			l11.975,20.475h-19.059l-8.715-16.224H238.894z"/>
		<path fill="#FFFFFF" d="M300.034,50.753c0,2.505-0.529,4.605-1.588,6.306s-2.397,3.059-4.02,4.074s-3.396,1.747-5.323,2.196
			c-1.929,0.448-3.764,0.673-5.506,0.673c-3.213,0-6.365-0.461-9.459-1.382s-5.773-2.231-8.041-3.932l8.006-9.281
			c1.134,1.039,2.468,1.878,4.003,2.516c1.534,0.637,3.011,0.956,4.428,0.956c0.567,0,1.099-0.106,1.595-0.319
			c0.495-0.212,0.743-0.602,0.743-1.169c0-0.613-0.437-1.098-1.311-1.452s-2.397-0.79-4.569-1.311
			c-1.182-0.283-2.386-0.696-3.613-1.24c-1.229-0.542-2.351-1.263-3.365-2.16c-1.017-0.896-1.854-1.995-2.516-3.295
			c-0.661-1.298-0.991-2.845-0.991-4.641c0-2.408,0.531-4.463,1.594-6.163s2.409-3.082,4.038-4.145
			c1.63-1.063,3.401-1.843,5.313-2.338c1.913-0.496,3.72-0.744,5.42-0.744c2.881,0,5.739,0.425,8.573,1.275
			c2.834,0.85,5.384,2.031,7.651,3.542l-7.651,9.14c-1.182-0.755-2.386-1.347-3.613-1.771c-1.229-0.425-2.434-0.638-3.613-0.638
			c-0.804,0-1.465,0.106-1.984,0.319c-0.52,0.212-0.779,0.626-0.779,1.239c0,0.473,0.294,0.839,0.882,1.099s1.94,0.602,4.057,1.027
			c1.457,0.283,2.88,0.721,4.268,1.311c1.387,0.591,2.634,1.346,3.739,2.267s1.987,2.044,2.646,3.365
			C299.704,47.401,300.034,48.959,300.034,50.753z"/>
	</g>
	<g enable-background="new    ">
		<path fill="#FFFFFF" d="M70.352,120.782V72.414h18.036c3.826,0,7.48,0.375,10.965,1.127c3.484,0.751,6.558,2.05,9.223,3.894
			c2.665,1.845,4.793,4.294,6.388,7.345c1.594,3.052,2.391,6.899,2.391,11.545c0,4.236-0.763,7.902-2.289,10.999
			c-1.526,3.099-3.564,5.637-6.114,7.618c-2.551,1.98-5.489,3.45-8.813,4.406c-3.325,0.956-6.787,1.435-10.384,1.435H70.352z
			 M85.997,86.213v20.563h3.006c3.826,0,6.763-0.828,8.813-2.485c2.049-1.656,3.074-4.369,3.074-8.137
			c0-3.132-1.025-5.571-3.074-7.32c-2.05-1.747-4.782-2.621-8.198-2.621H85.997z"/>
		<path fill="#FFFFFF" d="M160.803,103.156c0,0.593-0.012,1.195-0.034,1.811c-0.023,0.615-0.058,1.127-0.103,1.537h-24.184
			c0.045,0.639,0.261,1.207,0.649,1.708c0.386,0.502,0.865,0.934,1.435,1.298c0.569,0.365,1.207,0.639,1.913,0.82
			c0.706,0.183,1.423,0.272,2.152,0.272c1.457,0,2.675-0.261,3.655-0.785c0.979-0.523,1.719-1.104,2.221-1.742l11.204,5.67
			c-1.595,2.597-3.906,4.646-6.935,6.149c-3.029,1.503-6.548,2.254-10.555,2.254c-2.596,0-5.124-0.41-7.583-1.229
			c-2.459-0.82-4.635-2.038-6.524-3.655c-1.89-1.616-3.405-3.631-4.543-6.046c-1.139-2.413-1.708-5.215-1.708-8.403
			c0-2.96,0.523-5.636,1.571-8.027c1.047-2.391,2.47-4.417,4.27-6.08c1.799-1.662,3.917-2.948,6.354-3.859
			c2.436-0.911,5.043-1.366,7.822-1.366c2.823,0,5.397,0.489,7.72,1.469s4.315,2.346,5.978,4.099
			c1.662,1.754,2.948,3.838,3.86,6.251C160.348,97.714,160.803,100.333,160.803,103.156z M147.208,98.032
			c0-1.274-0.467-2.322-1.4-3.143c-0.934-0.819-2.198-1.229-3.792-1.229c-1.731,0-3.074,0.479-4.031,1.435
			c-0.957,0.957-1.503,1.937-1.64,2.938H147.208z"/>
		<path fill="#FFFFFF" d="M185.875,122.148c-3.051,0-5.853-0.456-8.403-1.366c-2.551-0.91-4.76-2.209-6.626-3.895
			c-1.868-1.684-3.325-3.711-4.373-6.08c-1.048-2.367-1.571-5.031-1.571-7.993c0-2.914,0.535-5.567,1.605-7.959
			c1.07-2.391,2.562-4.429,4.475-6.114c1.913-1.685,4.155-2.982,6.729-3.894c2.573-0.911,5.363-1.366,8.369-1.366
			c1.23,0,2.471,0.102,3.724,0.307c1.252,0.205,2.46,0.49,3.62,0.854c1.162,0.365,2.231,0.774,3.211,1.229
			c0.979,0.456,1.811,0.956,2.494,1.503l-7.856,11.341c-0.546-0.615-1.264-1.088-2.151-1.418c-0.889-0.329-1.742-0.495-2.562-0.495
			c-0.775,0-1.526,0.126-2.254,0.376c-0.729,0.251-1.379,0.639-1.947,1.161c-0.57,0.524-1.037,1.161-1.4,1.913
			c-0.365,0.751-0.547,1.629-0.547,2.63c0,1.003,0.182,1.879,0.547,2.631c0.363,0.751,0.83,1.366,1.4,1.844
			c0.568,0.479,1.218,0.844,1.947,1.094c0.728,0.251,1.479,0.376,2.254,0.376c0.91,0,1.799-0.171,2.664-0.513s1.572-0.809,2.118-1.4
			l7.925,11.021c-1.503,1.178-3.45,2.175-5.842,2.99C191.033,121.741,188.516,122.148,185.875,122.148z"/>
		<path fill="#FFFFFF" d="M221.33,97.963c0-1.093-0.375-1.9-1.127-2.425c-0.751-0.523-1.742-0.786-2.971-0.786
			c-1.459,0-2.836,0.308-4.134,0.923c-1.298,0.614-2.448,1.332-3.45,2.151l-7.856-7.788c2.187-2.094,4.782-3.711,7.788-4.851
			c3.006-1.138,6.103-1.707,9.291-1.707c3.416,0,6.24,0.478,8.472,1.435c2.23,0.956,3.996,2.277,5.295,3.962
			c1.298,1.686,2.208,3.645,2.732,5.875c0.522,2.232,0.785,4.602,0.785,7.105v18.924h-14.278v-2.869h-0.137
			c-0.911,1.366-2.209,2.346-3.894,2.938c-1.686,0.592-3.325,0.888-4.919,0.888c-1.412,0-2.859-0.204-4.338-0.614
			c-1.48-0.41-2.824-1.069-4.031-1.981c-1.207-0.91-2.197-2.095-2.972-3.553c-0.774-1.457-1.161-3.256-1.161-5.396
			c0-2.505,0.648-4.543,1.947-6.114c1.298-1.571,2.947-2.802,4.953-3.689c2.003-0.889,4.246-1.491,6.729-1.811
			c2.482-0.318,4.907-0.479,7.275-0.479V97.963z M221.467,105.888c-2.322,0-4.19,0.251-5.602,0.752
			c-1.412,0.502-2.117,1.435-2.117,2.801c0,0.502,0.113,0.923,0.342,1.264c0.227,0.342,0.522,0.627,0.887,0.854
			c0.365,0.229,0.763,0.399,1.196,0.512c0.433,0.114,0.831,0.171,1.195,0.171c1.503,0,2.71-0.478,3.621-1.435
			c0.911-0.956,1.366-2.186,1.366-3.688v-1.23H221.467z"/>
		<path fill="#FFFFFF" d="M266.762,79.484c-0.547-0.113-1.094-0.171-1.64-0.171c-1.55,0-2.631,0.479-3.245,1.435
			c-0.615,0.957-0.923,2.164-0.923,3.621v0.479h7.583V96.12h-7.583v24.662h-15.781V96.12h-6.148V84.847h6.148v-0.82
			c0-2.23,0.263-4.372,0.789-6.422c0.525-2.049,1.43-3.859,2.71-5.431c1.281-1.571,3.007-2.812,5.181-3.724
			c2.172-0.91,4.904-1.366,8.194-1.366c1.048,0,2.266,0.08,3.655,0.239c1.389,0.16,2.562,0.421,3.519,0.785l-1.024,11.819
			C267.786,79.747,267.308,79.598,266.762,79.484z"/>
		<path fill="#FFFFFF" d="M293.269,79.484c-0.547-0.113-1.094-0.171-1.64-0.171c-1.55,0-2.631,0.479-3.245,1.435
			c-0.615,0.957-0.923,2.164-0.923,3.621v0.479h7.583V96.12h-7.583v24.662H271.68V96.12h-6.148V84.847h6.148v-0.82
			c0-2.23,0.263-4.372,0.789-6.422c0.525-2.049,1.43-3.859,2.71-5.431c1.281-1.571,3.007-2.812,5.181-3.724
			c2.172-0.91,4.904-1.366,8.194-1.366c1.048,0,2.266,0.08,3.655,0.239c1.389,0.16,2.562,0.421,3.519,0.785l-1.024,11.819
			C294.293,79.747,293.814,79.598,293.269,79.484z"/>
	</g>
</g>
</svg>
