<?xml version="1.0" encoding="utf-8"?>
<!-- Generator: Adobe Illustrator 16.0.0, SVG Export Plug-In . SVG Version: 6.00 Build 0)  -->
<!DOCTYPE svg PUBLIC "-//W3C//DTD SVG 1.1//EN" "http://www.w3.org/Graphics/SVG/1.1/DTD/svg11.dtd">
<svg version="1.1" id="Layer_1" xmlns="http://www.w3.org/2000/svg" xmlns:xlink="http://www.w3.org/1999/xlink" x="0px" y="0px"
	 width="360px" height="373.429px" viewBox="0 0 360 373.429" enable-background="new 0 0 360 373.429" xml:space="preserve">
<g>
	<g>
		<g>
			<polygon fill="#FFFFFF" points="347.68,371.339 342.275,371.339 342.275,201.689 16.492,201.689 16.492,371.339 11.085,371.339 
				11.085,196.285 347.68,196.285 			"/>
		</g>
		<g>
			<polygon fill="#FFFFFF" points="68.696,303.248 74.095,303.314 73.435,370.841 68.045,370.785 			"/>
		</g>
		<g>
			<polygon fill="#FFFFFF" points="288.064,303.248 293.461,303.314 292.8,370.846 287.402,370.791 			"/>
		</g>
	</g>
	<g enable-background="new    ">
		<path fill="#FFFFFF" d="M254.416,30.37v91.523c0,7.564-2.686,14.031-8.055,19.401c-5.373,5.37-11.839,8.056-19.402,8.056h-91.523
			c-7.564,0-14.031-2.686-19.401-8.056c-5.372-5.37-8.056-11.837-8.056-19.401V30.37c0-7.563,2.685-14.029,8.056-19.401
			c5.37-5.37,11.836-8.056,19.401-8.056h91.523c7.563,0,14.029,2.686,19.402,8.056C251.73,16.34,254.416,22.806,254.416,30.37z
			 M154.027,38.95c-0.064-3.304-1.208-6.037-3.432-8.199c-2.226-2.159-5.181-3.241-8.866-3.241c-3.687,0-6.69,1.082-9.01,3.241
			c-2.321,2.162-3.479,4.896-3.479,8.199c0,3.241,1.127,5.959,3.384,8.151c2.255,2.192,5.196,3.289,8.819,3.289h0.095
			c3.75,0,6.769-1.097,9.057-3.289S154.027,42.191,154.027,38.95z M130.574,125.516h22.023V59.352h-22.023V125.516z
			 M209.799,125.516h22.023V87.572c0-9.787-2.321-17.192-6.96-22.214c-4.64-5.02-10.773-7.531-18.4-7.531
			c-8.644,0-15.286,3.718-19.925,11.154h0.19v-9.629h-22.023c0.19,4.194,0.19,26.25,0,66.164h22.023V88.525
			c0-2.414,0.222-4.194,0.667-5.339c0.953-2.224,2.384-4.114,4.291-5.672c1.906-1.558,4.257-2.336,7.055-2.336
			c7.371,0,11.059,4.99,11.059,14.968V125.516z"/>
	</g>
</g>
</svg>
