<?xml version="1.0" encoding="utf-8"?>
<!-- Generator: Adobe Illustrator 16.0.0, SVG Export Plug-In . SVG Version: 6.00 Build 0)  -->
<!DOCTYPE svg PUBLIC "-//W3C//DTD SVG 1.1//EN" "http://www.w3.org/Graphics/SVG/1.1/DTD/svg11.dtd">
<svg version="1.1" id="Layer_1" xmlns="http://www.w3.org/2000/svg" xmlns:xlink="http://www.w3.org/1999/xlink" x="0px" y="0px"
	 width="360px" height="373.429px" viewBox="0 0 360 373.429" enable-background="new 0 0 360 373.429" xml:space="preserve">
<g>
	<g>
		<g>
			<polygon fill="#FFFFFF" points="356.316,367.636 350.653,367.636 350.653,189.908 9.346,189.908 9.346,367.636 3.684,367.636 
				3.684,184.244 356.316,184.244 			"/>
		</g>
		<g>
			
				<rect x="63.705" y="296.357" transform="matrix(0.9999 0.0102 -0.0102 0.9999 3.3804 -0.6601)" fill="#FFFFFF" width="5.66" height="70.747"/>
		</g>
		<g>
			
				<rect x="293.537" y="296.353" transform="matrix(0.9999 0.0104 -0.0104 0.9999 3.4509 -3.0511)" fill="#FFFFFF" width="5.659" height="70.752"/>
		</g>
		<g enable-background="new    ">
			<path fill="#FFFFFF" d="M91.29,7.472h18.61l15.862,28.19h0.314l-0.786-28.19h17.747v55.596h-19.081l-15.391-26.541h-0.314
				l0.785,26.541H91.29V7.472z"/>
			<path fill="#FFFFFF" d="M195.491,42.808c0,0.682-0.014,1.375-0.04,2.081c-0.026,0.707-0.065,1.296-0.117,1.767h-27.798
				c0.052,0.734,0.301,1.388,0.746,1.964c0.444,0.576,0.994,1.073,1.649,1.491c0.654,0.42,1.387,0.734,2.199,0.942
				c0.811,0.21,1.636,0.314,2.474,0.314c1.675,0,3.075-0.301,4.201-0.903c1.125-0.601,1.975-1.269,2.552-2.002l12.878,6.518
				c-1.832,2.983-4.489,5.34-7.97,7.067c-3.482,1.728-7.526,2.591-12.132,2.591c-2.984,0-5.889-0.471-8.716-1.413
				c-2.827-0.942-5.327-2.343-7.499-4.201c-2.173-1.857-3.914-4.174-5.222-6.949c-1.309-2.774-1.963-5.994-1.963-9.659
				c0-3.402,0.601-6.478,1.806-9.227c1.204-2.748,2.839-5.077,4.908-6.988c2.067-1.91,4.502-3.389,7.303-4.437
				c2.8-1.047,5.797-1.57,8.991-1.57c3.245,0,6.204,0.562,8.874,1.688c2.67,1.127,4.959,2.697,6.871,4.712
				c1.91,2.016,3.389,4.411,4.436,7.185C194.967,36.553,195.491,39.563,195.491,42.808z M179.865,36.919
				c0-1.465-0.538-2.67-1.61-3.612c-1.074-0.942-2.526-1.413-4.358-1.413c-1.99,0-3.534,0.549-4.633,1.648
				c-1.099,1.1-1.728,2.226-1.884,3.377H179.865z"/>
			<path fill="#FFFFFF" d="M229.413,63.068h-17.982l-14.134-41.304h19.395l5.184,21.358h0.313l5.34-21.358h17.433l5.732,21.358
				h0.234l5.027-21.358h18.531l-14.291,41.304h-18.062l-6.36-21.202h-0.157L229.413,63.068z"/>
		</g>
		<g enable-background="new    ">
			<path fill="#FFFFFF" d="M110.394,139.155c-3.109,0-6.057-0.454-8.841-1.36c-2.786-0.906-5.295-2.138-7.529-3.692
				c-2.234-1.554-4.163-3.399-5.781-5.537c-1.62-2.138-2.752-4.436-3.4-6.898l19.819-7.577c0.258,1.036,0.729,1.959,1.409,2.769
				c0.68,0.811,1.603,1.214,2.769,1.214c1.489,0,2.493-0.5,3.012-1.506c0.518-1.003,0.777-2.282,0.777-3.837V68.427h23.22v43.33
				c0,3.108-0.34,6.283-1.021,9.521c-0.68,3.24-1.959,6.187-3.837,8.842c-1.879,2.656-4.469,4.825-7.772,6.509
				C119.916,138.312,115.641,139.155,110.394,139.155z"/>
			<path fill="#FFFFFF" d="M203.369,111.466c0,4.405-0.793,8.323-2.38,11.755c-1.588,3.434-3.726,6.332-6.412,8.695
				c-2.688,2.365-5.798,4.162-9.327,5.392c-3.53,1.23-7.237,1.847-11.124,1.847c-3.822,0-7.498-0.616-11.027-1.847
				c-3.531-1.229-6.623-3.026-9.278-5.392c-2.656-2.363-4.777-5.262-6.363-8.695c-1.588-3.432-2.38-7.35-2.38-11.755
				c0-4.339,0.792-8.21,2.38-11.61c1.586-3.4,3.707-6.267,6.363-8.598c2.655-2.332,5.748-4.096,9.278-5.295
				c3.529-1.198,7.205-1.798,11.027-1.798c3.886,0,7.593,0.6,11.124,1.798c3.529,1.199,6.639,2.963,9.327,5.295
				c2.687,2.331,4.824,5.197,6.412,8.598C202.576,103.256,203.369,107.127,203.369,111.466z M174.126,103.111
				c-2.462,0-4.454,0.843-5.975,2.525c-1.522,1.686-2.283,3.66-2.283,5.927c0,2.396,0.777,4.438,2.332,6.121
				c1.554,1.685,3.561,2.525,6.023,2.525c2.46,0,4.469-0.841,6.023-2.525c1.555-1.684,2.331-3.725,2.331-6.121
				c0-2.267-0.793-4.241-2.379-5.927C178.611,103.954,176.587,103.111,174.126,103.111z"/>
			<path fill="#FFFFFF" d="M270.793,111.466c0,3.368-0.502,6.671-1.504,9.909c-1.002,3.239-2.473,6.138-4.41,8.695
				c-1.939,2.56-4.361,4.614-7.27,6.169c-2.91,1.555-6.27,2.332-10.08,2.332c-3.167,0-6.173-0.6-9.016-1.798
				c-2.846-1.197-5.01-2.832-6.494-4.906h-0.195v5.344h-20.198V63.763h22.442v26.426h0.194c1.485-1.748,3.455-3.092,5.909-4.031
				c2.455-0.938,4.91-1.409,7.366-1.409c3.81,0,7.169,0.777,10.077,2.332c2.904,1.555,5.328,3.595,7.266,6.12
				c1.938,2.526,3.406,5.377,4.408,8.55C270.291,104.924,270.793,108.163,270.793,111.466z M250.002,111.466
				c0-2.267-0.713-4.242-2.138-5.927c-1.425-1.684-3.497-2.526-6.218-2.526c-2.656,0-4.777,0.843-6.363,2.526
				c-1.588,1.685-2.381,3.66-2.381,5.927c0,2.396,0.793,4.437,2.381,6.12c1.586,1.685,3.707,2.526,6.363,2.526
				c2.721,0,4.793-0.826,6.218-2.478S250.002,113.928,250.002,111.466z"/>
		</g>
	</g>
</g>
</svg>
