<?xml version="1.0" encoding="utf-8"?>
<!-- Generator: Adobe Illustrator 16.0.0, SVG Export Plug-In . SVG Version: 6.00 Build 0)  -->
<!DOCTYPE svg PUBLIC "-//W3C//DTD SVG 1.1//EN" "http://www.w3.org/Graphics/SVG/1.1/DTD/svg11.dtd">
<svg version="1.1" id="Layer_1" xmlns="http://www.w3.org/2000/svg" xmlns:xlink="http://www.w3.org/1999/xlink" x="0px" y="0px"
	 width="360px" height="373.429px" viewBox="0 0 360 373.429" enable-background="new 0 0 360 373.429" xml:space="preserve">
<g>
	<g>
		<g>
			<polygon fill="#FFFFFF" points="337.962,363.389 332.948,363.389 332.948,205.981 30.675,205.981 30.675,363.389 25.662,363.389 
				25.662,200.968 337.962,200.968 			"/>
		</g>
		<g>
			
				<rect x="78.821" y="300.221" transform="matrix(1 0.0094 -0.0094 1 3.1063 -0.7465)" fill="#FFFFFF" width="5.009" height="62.669"/>
		</g>
		<g>
			
				<rect x="282.342" y="300.209" transform="matrix(1 0.0094 -0.0094 1 3.1127 -2.6491)" fill="#FFFFFF" width="5.013" height="62.675"/>
		</g>
	</g>
	<g enable-background="new    ">
		<path fill="#FFFFFF" d="M242.311,55.385c6.074,10.409,9.111,21.775,9.111,34.1c0,12.326-3.037,23.692-9.111,34.101
			s-14.316,18.65-24.723,24.723c-10.409,6.073-21.775,9.111-34.1,9.111c-12.327,0-23.693-3.038-34.101-9.111
			c-10.409-6.072-18.65-14.314-24.724-24.723c-6.074-10.408-9.111-21.774-9.111-34.101c0-12.324,3.037-23.69,9.111-34.1
			c6.073-10.407,14.315-18.649,24.724-24.724c10.407-6.073,21.774-9.11,34.101-9.11c12.324,0,23.69,3.037,34.1,9.11
			C227.994,36.736,236.236,44.978,242.311,55.385z M233.289,76.305c0-2.771-1.182-4.835-3.539-6.191
			c-7.43-4.305-16.07-7.563-25.918-9.774c-9.849-2.212-19.961-3.317-30.34-3.317c-12.03,0-22.764,1.386-32.198,4.157
			c-1.357,0.413-2.492,1.165-3.406,2.256c-0.915,1.092-1.371,2.521-1.371,4.29c0,1.828,0.604,3.361,1.813,4.6
			c1.208,1.238,2.727,1.857,4.556,1.857c0.648,0,1.827-0.234,3.538-0.707c7.842-2.182,16.895-3.273,27.156-3.273
			c9.376,0,18.501,1.004,27.376,3.008c8.875,2.005,16.35,4.807,22.424,8.403c1.238,0.707,2.418,1.062,3.539,1.062
			c1.709,0,3.197-0.604,4.467-1.813C232.654,79.653,233.289,78.133,233.289,76.305z M223.735,98.243
			c0-2.358-1.032-4.158-3.097-5.396c-13.976-8.314-30.134-12.472-48.474-12.472c-9.022,0-17.957,1.238-26.802,3.715
			c-2.831,0.768-4.246,2.653-4.246,5.661c0,1.475,0.516,2.729,1.548,3.76c1.031,1.032,2.285,1.548,3.759,1.548
			c0.412,0,1.504-0.235,3.273-0.708c7.194-1.946,14.595-2.919,22.203-2.919c16.453,0,30.84,3.657,43.167,10.969
			c1.416,0.767,2.535,1.149,3.361,1.149c1.474,0,2.727-0.515,3.76-1.548C223.219,100.97,223.735,99.717,223.735,98.243z
			 M215.243,117.26c0-1.887-0.884-3.391-2.653-4.511c-11.382-6.781-24.562-10.173-39.54-10.173c-7.844,0-16.307,1.004-25.387,3.008
			c-2.477,0.53-3.715,2.064-3.715,4.6c0,1.181,0.398,2.197,1.194,3.052c0.796,0.855,1.843,1.282,3.141,1.282
			c0.294,0,1.385-0.234,3.272-0.707c7.784-1.593,14.949-2.389,21.495-2.389c13.327,0,25.033,3.038,35.117,9.111
			c1.12,0.649,2.093,0.973,2.919,0.973c1.119,0,2.092-0.398,2.919-1.194C214.83,119.516,215.243,118.499,215.243,117.26z"/>
	</g>
</g>
</svg>
