<?xml version="1.0" encoding="utf-8"?>
<!-- Generator: Adobe Illustrator 16.0.0, SVG Export Plug-In . SVG Version: 6.00 Build 0)  -->
<!DOCTYPE svg PUBLIC "-//W3C//DTD SVG 1.1//EN" "http://www.w3.org/Graphics/SVG/1.1/DTD/svg11.dtd">
<svg version="1.1" id="Layer_1" xmlns="http://www.w3.org/2000/svg" xmlns:xlink="http://www.w3.org/1999/xlink" x="0px" y="0px"
	 width="360px" height="373.429px" viewBox="0 0 360 373.429" enable-background="new 0 0 360 373.429" xml:space="preserve">
<g>
	<g>
		<g>
			<polygon fill="#FFFFFF" points="347.769,369.429 342.373,369.429 342.373,200.316 17.624,200.316 17.624,369.429 12.232,369.429 
				12.232,194.933 347.769,194.933 			"/>
		</g>
		<g>
			<polygon fill="#FFFFFF" points="69.66,301.561 75.038,301.615 74.382,368.934 69.004,368.876 			"/>
		</g>
		<g>
			<polygon fill="#FFFFFF" points="288.33,301.561 293.717,301.615 293.057,368.934 287.678,368.88 			"/>
		</g>
	</g>
	<g enable-background="new    ">
		<path fill="#FFFFFF" d="M254.774,29.527v91.233c0,7.541-2.677,13.987-8.03,19.34c-5.355,5.354-11.801,8.03-19.34,8.03H136.17
			c-7.541,0-13.986-2.677-19.34-8.03c-5.354-5.353-8.03-11.799-8.03-19.34V29.527c0-7.539,2.676-13.985,8.03-19.34
			c5.354-5.354,11.799-8.03,19.34-8.03h91.234c7.539,0,13.984,2.677,19.34,8.03C252.098,15.542,254.774,21.988,254.774,29.527z
			 M230.445,47.963c-3.549,1.584-7.382,2.661-11.5,3.231c4.309-2.533,7.254-6.24,8.839-11.119
			c-4.119,2.408-8.362,4.023-12.735,4.847c-3.865-4.182-8.711-6.272-14.539-6.272c-5.513,0-10.217,1.948-14.113,5.845
			s-5.845,8.601-5.845,14.112c0,1.839,0.157,3.359,0.476,4.562c-8.174-0.442-15.84-2.503-22.999-6.178
			c-7.161-3.674-13.243-8.584-18.247-14.73c-1.838,3.169-2.756,6.526-2.756,10.074c0,7.223,2.882,12.767,8.648,16.631
			c-2.979-0.062-6.146-0.887-9.504-2.471v0.189c0,4.752,1.583,8.981,4.752,12.688c3.167,3.706,7.064,6.004,11.689,6.891
			c-1.838,0.508-3.454,0.76-4.847,0.76c-0.824,0-2.06-0.126-3.706-0.38c1.331,3.991,3.69,7.286,7.08,9.884
			c3.389,2.599,7.237,3.929,11.547,3.991c-7.351,5.702-15.619,8.553-24.804,8.553c-1.648,0-3.231-0.095-4.752-0.284
			c9.376,5.956,19.577,8.933,30.602,8.933c7.095,0,13.748-1.124,19.957-3.373c6.209-2.249,11.531-5.259,15.967-9.029
			c4.434-3.769,8.252-8.108,11.451-13.02c3.199-4.909,5.574-10.041,7.128-15.396c1.552-5.354,2.328-10.691,2.328-16.014
			c0-1.141-0.032-1.996-0.095-2.566C224.458,55.471,227.784,52.019,230.445,47.963z"/>
	</g>
</g>
</svg>
