<?xml version="1.0" encoding="utf-8"?>
<!-- Generator: Adobe Illustrator 16.0.0, SVG Export Plug-In . SVG Version: 6.00 Build 0)  -->
<!DOCTYPE svg PUBLIC "-//W3C//DTD SVG 1.0//EN" "http://www.w3.org/TR/2001/REC-SVG-20010904/DTD/svg10.dtd">
<svg version="1.0" id="Layer_1" xmlns="http://www.w3.org/2000/svg" xmlns:xlink="http://www.w3.org/1999/xlink" x="0px" y="0px"
	 width="583.333px" height="94.667px" viewBox="0 0 583.333 94.667" enable-background="new 0 0 583.333 94.667"
	 xml:space="preserve">
<g>
	<g>
		<path fill="#FFFFFF" d="M112.305,26.716h2.365v15.373c-0.035,5.773,2.712,7.965,7.269,7.965c4.591,0,7.339-2.191,7.303-7.965
			V26.716h2.365v15.893c0,5.113-2.747,9.461-9.668,9.461c-6.886,0-9.633-4.348-9.633-9.461V26.716z"/>
		<path fill="#FFFFFF" d="M135.92,33.601h2.191v3.096h0.07c0.799-2.156,3.199-3.617,5.738-3.617c5.042,0,6.573,2.645,6.573,6.922
			v11.547h-2.191V40.349c0-3.096-1.009-5.426-4.556-5.426c-3.478,0-5.564,2.643-5.634,6.158v10.467h-2.191V33.601z"/>
		<path fill="#FFFFFF" d="M154.667,26.716h2.192v3.51h-2.192V26.716z M154.667,33.601h2.192v17.947h-2.192V33.601z"/>
		<path fill="#FFFFFF" d="M159.05,33.601h2.434l5.635,15.756h0.069l5.563-15.756h2.261l-6.712,17.947h-2.33L159.05,33.601z"/>
		<path fill="#FFFFFF" d="M178.458,43.167c0.034,3.197,1.704,7.061,5.912,7.061c3.199,0,4.938-1.881,5.634-4.594h2.19
			c-0.939,4.07-3.303,6.436-7.825,6.436c-5.704,0-8.104-4.383-8.104-9.496c0-4.73,2.399-9.494,8.104-9.494
			c5.774,0,8.068,5.043,7.895,10.088H178.458z M190.074,41.321c-0.105-3.305-2.157-6.398-5.704-6.398
			c-3.583,0-5.565,3.131-5.912,6.398H190.074z"/>
		<path fill="#FFFFFF" d="M195.222,33.601h2.018v4.209h0.069c1.112-2.887,3.547-4.592,6.782-4.451v2.189
			c-3.965-0.209-6.678,2.715-6.678,6.436v9.564h-2.191V33.601z"/>
		<path fill="#FFFFFF" d="M216.925,38.853c-0.105-2.711-2.192-3.93-4.696-3.93c-1.948,0-4.242,0.764-4.242,3.094
			c0,1.949,2.226,2.645,3.721,3.027l2.921,0.662c2.503,0.383,5.112,1.842,5.112,4.971c0,3.895-3.86,5.393-7.199,5.393
			c-4.173,0-7.025-1.949-7.372-6.33h2.19c0.173,2.957,2.365,4.488,5.285,4.488c2.055,0,4.905-0.906,4.905-3.41
			c0-2.088-1.947-2.783-3.929-3.27l-2.818-0.627c-2.852-0.764-5.008-1.738-5.008-4.799c0-3.652,3.582-5.043,6.747-5.043
			c3.582,0,6.435,1.879,6.573,5.773H216.925z"/>
		<path fill="#FFFFFF" d="M222.943,26.716h2.191v3.51h-2.191V26.716z M222.943,33.601h2.191v17.947h-2.191V33.601z"/>
		<path fill="#FFFFFF" d="M232.82,33.601h3.651v1.846h-3.651v12.1c0,1.428,0.208,2.262,1.774,2.365c0.625,0,1.251-0.033,1.877-0.104
			v1.881c-0.661,0-1.286,0.068-1.947,0.068c-2.92,0-3.93-0.973-3.895-4.035V35.446h-3.131v-1.846h3.131v-5.389h2.191V33.601z"/>
		<path fill="#FFFFFF" d="M237.621,33.601h2.329l5.912,15.303l5.53-15.303h2.19l-7.79,20.693c-1.252,3.027-1.981,3.895-4.729,3.895
			c-0.869-0.031-1.322-0.031-1.669-0.172v-1.844c0.521,0.104,1.008,0.174,1.495,0.174c1.947,0,2.399-1.15,3.129-2.816l0.765-2.053
			L237.621,33.601z"/>
		<path fill="#FFFFFF" d="M281.479,42.573c0,5.148-2.99,9.496-8.486,9.496c-5.494,0-8.486-4.348-8.486-9.496
			c0-5.146,2.992-9.494,8.486-9.494C278.488,33.079,281.479,37.427,281.479,42.573z M266.697,42.573
			c0,3.824,2.087,7.654,6.295,7.654s6.296-3.83,6.296-7.654s-2.088-7.65-6.296-7.65S266.697,38.749,266.697,42.573z"/>
		<path fill="#FFFFFF" d="M291.669,35.446h-3.547v16.102h-2.19V35.446h-3.061v-1.846h3.061v-1.635
			c-0.036-3.094,0.833-5.25,4.348-5.25c0.625,0,1.147,0.033,1.842,0.139v1.877c-0.592-0.104-1.077-0.172-1.6-0.172
			c-2.435,0-2.364,1.527-2.4,3.477v1.564h3.547V35.446z"/>
		<path fill="#FFFFFF" d="M321.999,34.228c-0.835-3.826-3.999-6.016-7.617-6.016c-6.573,0-9.355,5.492-9.355,10.92
			c0,5.426,2.782,10.922,9.355,10.922c4.59,0,7.512-3.551,7.964-7.965h2.364c-0.66,6.086-4.519,9.98-10.328,9.98
			c-7.825,0-11.721-6.158-11.721-12.938c0-6.781,3.896-12.939,11.721-12.939c4.695,0,9.355,2.818,9.982,8.035H321.999z"/>
		<path fill="#FFFFFF" d="M343.98,42.573c0,5.148-2.991,9.496-8.486,9.496s-8.486-4.348-8.486-9.496
			c0-5.146,2.991-9.494,8.486-9.494S343.98,37.427,343.98,42.573z M329.199,42.573c0,3.824,2.086,7.654,6.295,7.654
			c4.208,0,6.294-3.83,6.294-7.654s-2.085-7.65-6.294-7.65C331.286,34.923,329.199,38.749,329.199,42.573z"/>
		<path fill="#FFFFFF" d="M347.285,26.716h2.192v24.832h-2.192V26.716z"/>
		<path fill="#FFFFFF" d="M369.753,42.573c0,5.148-2.99,9.496-8.486,9.496c-5.494,0-8.485-4.348-8.485-9.496
			c0-5.146,2.991-9.494,8.485-9.494C366.763,33.079,369.753,37.427,369.753,42.573z M354.972,42.573
			c0,3.824,2.087,7.654,6.295,7.654s6.294-3.83,6.294-7.654s-2.086-7.65-6.294-7.65S354.972,38.749,354.972,42.573z"/>
		<path fill="#FFFFFF" d="M373.023,33.601h2.017v4.209h0.07c1.112-2.887,3.548-4.592,6.781-4.451v2.189
			c-3.964-0.209-6.677,2.715-6.677,6.436v9.564h-2.191V33.601z"/>
		<path fill="#FFFFFF" d="M383.771,39.097c0.21-4.209,3.166-6.018,7.268-6.018c3.166,0,6.609,0.975,6.609,5.773v9.529
			c0,0.834,0.417,1.322,1.286,1.322c0.245,0,0.522-0.07,0.696-0.141v1.846c-0.486,0.104-0.834,0.139-1.426,0.139
			c-2.226,0-2.574-1.254-2.574-3.131h-0.069c-1.53,2.33-3.095,3.652-6.538,3.652c-3.305,0-6.018-1.635-6.018-5.252
			c0-5.045,4.904-5.219,9.635-5.773c1.806-0.209,2.817-0.453,2.817-2.436c0-2.955-2.123-3.686-4.696-3.686
			c-2.713,0-4.73,1.254-4.799,4.174H383.771z M395.458,41.739h-0.071c-0.278,0.523-1.251,0.697-1.844,0.799
			c-3.72,0.66-8.346,0.629-8.346,4.139c0,2.193,1.948,3.551,4,3.551c3.338,0,6.294-2.125,6.261-5.635V41.739z"/>
		<path fill="#FFFFFF" d="M417.82,51.548h-2.017V48.14h-0.069c-0.939,2.328-3.792,3.93-6.399,3.93c-5.46,0-8.07-4.418-8.07-9.496
			c0-5.076,2.61-9.494,8.07-9.494c2.678,0,5.286,1.357,6.226,3.93h0.068V26.716h2.192V51.548z M409.335,50.228
			c4.659,0,6.293-3.932,6.293-7.654c0-3.721-1.635-7.65-6.293-7.65c-4.174,0-5.879,3.93-5.879,7.65
			C403.456,46.296,405.161,50.228,409.335,50.228z"/>
		<path fill="#FFFFFF" d="M438.062,42.573c0,5.148-2.99,9.496-8.486,9.496c-5.497,0-8.487-4.348-8.487-9.496
			c0-5.146,2.99-9.494,8.487-9.494C435.072,33.079,438.062,37.427,438.062,42.573z M423.28,42.573c0,3.824,2.087,7.654,6.296,7.654
			c4.207,0,6.294-3.83,6.294-7.654s-2.087-7.65-6.294-7.65C425.367,34.923,423.28,38.749,423.28,42.573z"/>
		<path fill="#FFFFFF" d="M451.314,26.716h11.684c4.73,0,7.931,1.529,7.931,6.156c0,2.434-1.219,4.137-3.376,5.182
			c3.027,0.869,4.557,3.199,4.557,6.295c0,5.041-4.276,7.199-8.764,7.199h-12.033V26.716z M456.773,36.765h5.529
			c1.914,0,3.339-0.867,3.339-2.955c0-2.363-1.809-2.852-3.755-2.852h-5.113V36.765z M456.773,47.302h5.843
			c2.156,0,4.033-0.693,4.033-3.268c0-2.539-1.599-3.547-3.929-3.547h-5.948V47.302z"/>
		<path fill="#FFFFFF" d="M484.008,33.079c5.667,0,9.322,3.756,9.322,9.494c0,5.705-3.654,9.459-9.322,9.459
			c-5.635,0-9.287-3.754-9.287-9.459C474.721,36.835,478.373,33.079,484.008,33.079z M484.008,48.312c3.372,0,4.38-2.885,4.38-5.738
			c0-2.885-1.008-5.771-4.38-5.771c-3.34,0-4.348,2.887-4.348,5.771C479.661,45.427,480.668,48.312,484.008,48.312z"/>
		<path fill="#FFFFFF" d="M513.396,51.548h-4.695v-2.504h-0.104c-1.254,2.018-3.408,2.988-5.496,2.988
			c-5.252,0-6.574-2.955-6.574-7.406V33.567h4.939v10.154c0,2.955,0.869,4.418,3.166,4.418c2.678,0,3.824-1.496,3.824-5.148v-9.424
			h4.939V51.548z"/>
		<path fill="#FFFFFF" d="M517.291,26.716h4.939v24.832h-4.939V26.716z"/>
		<path fill="#FFFFFF" d="M538.96,49.251h-0.07c-1.146,1.947-3.164,2.781-5.459,2.781c-5.426,0-8.07-4.658-8.07-9.633
			c0-4.834,2.68-9.32,7.965-9.32c2.121,0,4.207,0.906,5.322,2.678h0.066v-9.041h4.941v24.832h-4.695V49.251z M534.647,36.802
			c-3.234,0-4.348,2.781-4.348,5.736c0,2.818,1.287,5.773,4.348,5.773c3.27,0,4.242-2.85,4.242-5.807
			C538.89,39.583,537.845,36.802,534.647,36.802z"/>
		<path fill="#FFFFFF" d="M551.444,43.755c0.141,3.133,1.67,4.557,4.42,4.557c1.982,0,3.58-1.215,3.895-2.328h4.348
			c-1.393,4.244-4.348,6.049-8.418,6.049c-5.666,0-9.182-3.893-9.182-9.459c0-5.391,3.723-9.494,9.182-9.494
			c6.121,0,9.076,5.148,8.73,10.676H551.444z M559.481,40.628c-0.453-2.506-1.531-3.826-3.932-3.826
			c-3.131,0-4.035,2.434-4.105,3.826H559.481z"/>
		<path fill="#FFFFFF" d="M567.341,33.567h4.697v3.338h0.066c0.906-2.26,3.34-3.826,5.74-3.826c0.348,0,0.766,0.07,1.078,0.174v4.59
			c-0.451-0.104-1.184-0.172-1.773-0.172c-3.617,0-4.869,2.607-4.869,5.773v8.104h-4.939V33.567z"/>
	</g>
	<g>
		<polygon fill="#CFB87C" points="69.186,25.872 69.186,15.929 57.34,4.056 16.292,4.056 4.409,15.927 4.409,56.903 16.292,68.765 
			29.33,68.765 29.33,78.737 41.309,90.61 75.945,90.61 87.955,78.747 87.955,47.003 94.07,47.003 94.07,25.872 		"/>
		<polygon points="56.833,5.288 67.953,16.438 67.953,27.104 92.837,27.104 92.837,45.778 86.721,45.778 86.721,78.229 
			75.44,89.378 41.811,89.378 30.562,78.229 30.562,67.536 16.8,67.536 5.639,56.388 5.639,16.438 16.8,5.288 		"/>
		<polyline fill="#FFFFFF" points="18.076,64.452 33.639,64.452 33.639,76.946 43.08,86.3 74.177,86.3 83.643,76.946 83.643,42.696 
			89.764,42.696 89.764,30.183 70.99,30.183 70.99,73.8 46.151,73.8 46.151,64.452 55.55,64.452 64.879,55.112 64.879,42.696 
			52.367,42.696 52.367,51.972 46.151,51.972 46.151,30.183 27.431,30.183 27.431,42.696 33.639,42.696 33.639,51.972 
			21.201,51.972 21.201,20.761 52.367,20.761 52.367,30.183 64.879,30.183 64.879,17.718 55.55,8.366 18.076,8.366 8.714,17.712 
			8.714,55.112 18.076,64.452 		"/>
		<polygon fill="#CFB87C" points="44.607,62.917 54.914,62.917 63.337,54.478 63.337,44.237 53.911,44.237 53.911,53.511 
			44.607,53.511 44.607,31.726 28.971,31.726 28.971,41.161 35.18,41.161 35.18,53.511 19.663,53.511 19.663,19.226 53.911,19.226 
			53.911,28.644 63.337,28.644 63.337,18.351 54.914,9.905 18.714,9.905 10.255,18.351 10.255,54.478 18.711,62.917 35.18,62.917 
			35.18,76.302 43.716,84.765 73.542,84.765 82.106,76.298 82.106,41.161 88.219,41.161 88.219,31.726 72.529,31.726 72.529,75.335 
			44.607,75.335 		"/>
	</g>
</g>
</svg>
