<?xml version="1.0" encoding="utf-8"?>
<!-- Generator: Adobe Illustrator 16.0.0, SVG Export Plug-In . SVG Version: 6.00 Build 0)  -->
<!DOCTYPE svg PUBLIC "-//W3C//DTD SVG 1.0//EN" "http://www.w3.org/TR/2001/REC-SVG-20010904/DTD/svg10.dtd">
<svg version="1.0" id="Layer_1" xmlns="http://www.w3.org/2000/svg" xmlns:xlink="http://www.w3.org/1999/xlink" x="0px" y="0px"
	 width="389px" height="302px" viewBox="0 0 389 302" enable-background="new 0 0 389 302" xml:space="preserve">
<g>
	<path fill-rule="evenodd" clip-rule="evenodd" fill="#070707" d="M92.628,207.563c0.654-7.541,1.28-14.965,1.95-22.387
		c0.889-9.854,1.477-19.727,1.965-29.605c0.464-9.373,0.836-18.75,1.23-28.125c0.114-2.709,0.132-5.422,0.271-8.127
		c0.036-0.689-0.169-0.76-0.75-0.752c-2.206,0.023-4.412-0.002-6.617-0.01c-7.125-0.023-14.25-0.045-21.375-0.072
		c-6.582-0.023-13.164-0.135-19.744-0.059c-7.667,0.086-15.331,0.018-22.996,0.059c-6.649,0.035-13.298,0.051-19.949,0.107
		c-0.762,0.008-0.99-0.1-0.904-0.969C6.374,110.849,7,104.069,7.572,97.286c0.606-7.223,1.148-14.453,1.532-21.693
		c0.282-5.311,0.57-10.621,0.815-15.934c0.295-6.396,0.574-12.793,0.813-19.193c0.318-8.497,0.726-16.995,0.746-25.504
		c0.007-2.846,0.023-5.693-0.04-8.54c-0.019-0.829,0.244-0.986,1.014-0.982C26.942,5.504,41.43,5.566,55.919,5.58
		c13.472,0.015,26.945-0.022,40.417-0.047c2.237-0.003,4.476-0.021,6.711-0.093c0.739-0.026,0.909,0.213,0.863,0.914
		c-0.264,4.055-0.504,8.111-0.722,12.171c-0.189,3.552-0.387,7.104-0.471,10.659c-0.021,0.935-0.273,1.092-1.127,1.058
		c-10.909-0.438-21.821-0.708-32.74-0.655c-7.154,0.035-14.305,0.141-21.456,0.398c-0.582,0.021-0.696,0.181-0.723,0.738
		c-0.277,5.854-0.576,11.704-0.916,17.555c-0.035,0.602,0.068,0.751,0.658,0.764c8.479,0.182,16.96,0.266,25.439,0.173
		c6.745-0.074,13.486-0.291,20.226-0.505c0.979-0.031,1.094,0.304,1.024,1.132c-0.648,7.628-1.111,15.269-1.417,22.919
		c-0.039,0.979-0.304,1.27-1.33,1.252c-7.427-0.109-14.856-0.219-22.284-0.182c-7.829,0.043-15.657,0.234-23.481,0.543
		c-0.584,0.023-0.638,0.238-0.66,0.713c-0.152,3.418-0.333,6.834-0.499,10.25c-0.132,2.707-0.223,5.414-0.404,8.117
		c-0.057,0.863,0.1,1.121,1.041,1.121c19.107-0.033,38.215-0.027,57.321-0.025c18.529,0.006,37.059,0.02,55.588,0.018
		c8.79,0,17.578-0.025,26.367-0.051c2.205-0.006,4.408-0.025,6.61-0.092c0.679-0.02,0.957,0.113,0.908,0.873
		c-0.337,5.34-0.648,10.682-0.943,16.025c-0.126,2.301-0.254,4.604-0.257,6.904c-0.001,0.902-0.279,1.033-1.085,1
		c-10.942-0.439-21.888-0.707-32.843-0.656c-7.153,0.033-14.304,0.146-21.454,0.398c-0.562,0.02-0.634,0.203-0.658,0.699
		c-0.283,5.852-0.57,11.703-0.924,17.551c-0.048,0.797,0.244,0.801,0.827,0.805c2.339,0.018,4.677,0.092,7.018,0.105
		c6.105,0.039,12.213,0.137,18.319,0.066c6.744-0.076,13.486-0.291,20.226-0.5c0.937-0.029,1.029,0.307,0.963,1.088
		c-0.643,7.662-1.114,15.338-1.418,23.021c-0.038,0.947-0.321,1.203-1.289,1.189c-7.393-0.105-14.788-0.217-22.182-0.18
		c-7.863,0.041-15.726,0.227-23.584,0.547c-0.509,0.021-0.68,0.121-0.701,0.668c-0.143,3.588-0.326,7.174-0.5,10.76
		c-0.125,2.57-0.221,5.143-0.41,7.709c-0.062,0.854,0.148,1.057,1.009,1.055c28.779-0.025,57.557-0.02,86.337-0.02
		c10.994,0,21.99,0.002,32.984-0.002c5.022-0.002,10.046-0.012,15.068-0.031c2.203-0.01,4.407-0.021,6.608-0.094
		c0.737-0.023,1.002,0.123,0.944,0.936c-0.341,4.729-0.639,9.459-0.92,14.193c-0.17,2.908-0.4,5.82-0.304,8.734
		c0.03,0.938-0.229,1.188-1.159,1.152c-11.729-0.43-23.464-0.467-35.199-0.418c-4.849,0.021-9.695,0.115-14.545,0.16
		c-0.473,0.006-0.704,0.047-0.724,0.635c-0.216,5.924-0.455,11.848-0.722,17.768c-0.031,0.717,0.068,0.959,0.887,0.975
		c9.904,0.176,19.809,0.229,29.714,0.143c3.864-0.033,7.728-0.111,11.592-0.213c0.793-0.021,0.903,0.205,0.864,0.975
		c-0.272,5.346-0.622,10.688-0.711,16.043c-0.038,2.27-0.116,4.539-0.138,6.809c-0.006,0.52-0.122,0.684-0.672,0.668
		c-3.658-0.105-7.32-0.143-10.979-0.26c-5.458-0.176-10.916-0.176-16.375-0.059c-3.051,0.066-6.103,0.078-9.153,0.135
		c-1.963,0.037-3.928,0.137-5.894,0.156c-0.593,0.006-0.636,0.279-0.646,0.746c-0.099,4.373-0.197,8.742-0.332,13.111
		c-0.254,8.27-0.497,16.537-0.48,24.812c0.003,1.695-0.097,3.389-0.055,5.082c0.018,0.74-0.214,0.883-0.905,0.871
		c-5.868-0.086-11.734-0.178-17.601-0.178c-5.936,0.002-11.87,0.092-17.806,0.178c-0.746,0.012-0.933-0.113-0.847-0.924
		c0.65-6.266,1.295-12.533,1.825-18.809c0.436-5.164,0.765-10.338,1.043-15.514c0.396-7.303,0.746-14.613,1.03-21.924
		c0.332-8.533,0.571-17.07,0.852-25.604c0.06-1.795,0.08-3.594,0.203-5.383c0.054-0.771-0.225-0.871-0.896-0.857
		c-2.068,0.035-4.139,0.002-6.209-0.006c-5.395-0.023-10.789-0.053-16.183-0.07c-8.21-0.031-16.422-0.133-24.632-0.061
		c-7.77,0.068-15.54,0.02-23.31,0.057c-6.717,0.035-13.435,0.064-20.15,0.096C93.151,207.563,92.918,207.563,92.628,207.563z
		 M268.535,187.405c-0.348,0-0.685-0.002-1.018,0c-3.247,0.014-6.495,0.16-9.735,0.164c-42.623,0.059-85.249,0.031-127.872,0.072
		c-1.372,0-2.353-0.34-3.252-1.361c-0.533-0.604-0.83-1.145-0.775-1.955c0.096-1.41,0.096-2.826,0.171-4.238
		c0.15-2.857,0.328-5.719,0.41-8.574c0.068-2.432,0.308-4.854,0.267-7.291c-0.029-1.727,0.205-3.398,1.858-4.494
		c0.385-0.252,0.705-0.424,1.171-0.438c1.752-0.049,3.5,0,5.259-0.141c2.552-0.207,5.132-0.188,7.693-0.213
		c10.215-0.1,20.431-0.064,30.646-0.01c1.042,0.008,1.38-0.389,1.397-1.256c0.029-1.449,0.124-2.895,0.177-4.338
		c0.063-1.789,0.174-3.58,0.312-5.352c0.108-1.395,0.048-2.805,0.296-4.209c0.338-1.916,0.204-1.951-1.629-1.779
		c-0.066,0.008-0.135,0.004-0.203,0.004c-3.178,0.014-6.357,0.154-9.53,0.16c-10.507,0.02-21.016,0.229-31.523-0.125
		c-1.279-0.043-2.287-0.258-3.056-1.312c-0.345-0.471-0.876-0.748-0.872-1.5c0.021-3.645,0.157-7.279,0.383-10.92
		c0.188-2.988,0.468-5.99,0.398-8.979c-0.04-1.734,0.425-2.984,1.767-4.002c0.307-0.232,0.562-0.408,0.972-0.418
		c1.989-0.045,3.978-0.057,5.97-0.146c5.274-0.238,10.558-0.01,15.842-0.193c4.491-0.156,8.997-0.055,13.501,0.084
		c5.343,0.164,10.695,0.182,16.045,0.273c0.496,0.008,0.993-0.076,1.495,0.152c0.4,0.186,0.679,0.008,0.671-0.533
		c-0.052-2.867,0.177-5.721,0.383-8.576c0.147-2.053,0.149-4.113,0.222-6.17c0.006-0.166,0.005-0.35,0.072-0.496
		c0.388-0.826-0.069-0.891-0.727-0.883c-3.347,0.051-6.698,0.162-10.04,0.168c-44.456,0.064-88.912,0.041-133.367,0.041
		c-0.238,0-0.478-0.018-0.713,0.006c-0.37,0.035-0.606-0.146-0.89-0.363c-1.353-1.043-2.055-2.303-1.788-4.084
		c0.148-0.988,0.151-2.014,0.188-3.012c0.108-2.93,0.244-5.855,0.43-8.779c0.155-2.426,0.145-4.859,0.225-7.289
		c0.056-1.705,0.288-3.328,1.906-4.375c0.316-0.203,0.56-0.412,0.972-0.42c1.855-0.031,3.713-0.105,5.562-0.135
		c4.806-0.076,9.607-0.326,14.417-0.281c7.907,0.076,15.815,0.021,23.722,0.021c0.238,0,0.476-0.012,0.713,0.004
		c0.354,0.02,0.48-0.094,0.583-0.486c0.412-1.588,0.174-3.215,0.317-4.818c0.163-1.834,0.204-3.707,0.337-5.549
		c0.102-1.394,0.025-2.805,0.301-4.208c0.363-1.851,0.146-1.988-1.67-1.842c-0.032,0.002-0.067,0-0.101,0
		c-2.975,0.036-5.952,0.144-8.92,0.155c-11.083,0.049-22.17,0.229-33.252-0.151c-1.087-0.038-2.845-1.812-2.852-2.919
		c-0.026-3.611,0.152-7.213,0.36-10.816c0.181-3.16,0.473-6.324,0.418-9.49c-0.022-1.268,0.27-2.225,1.278-2.966
		c0.442-0.324,0.663-0.905,1.378-0.912c2.023-0.019,4.048-0.071,6.071-0.138c5.649-0.188,11.307-0.044,16.962-0.208
		c4.085-0.118,8.184-0.056,12.281,0.101c5.308,0.201,10.629,0.065,15.943,0.266c0.564,0.021,1.133-0.094,1.697,0.162
		c0.344,0.156,0.643,0.033,0.632-0.477c-0.059-2.969,0.266-5.921,0.367-8.881c0.068-1.988,0.377-3.97,0.243-5.967
		c-0.009-0.132-0.01-0.286,0.046-0.398c0.426-0.85-0.013-0.954-0.739-0.943C95.39,9.48,92.044,9.397,88.696,9.612
		c-2.299,0.147-4.614,0.042-6.921,0.025c-19.059-0.126-38.12,0.26-57.179-0.191c-2.712-0.064-5.429,0.01-8.144-0.023
		c-0.664-0.008-0.926,0.104-0.939,0.863c-0.065,4.127,0.204,8.255-0.162,12.385c-0.205,2.315,0.081,4.652-0.193,6.985
		c-0.228,1.937-0.088,3.907-0.182,5.866c-0.174,3.601-0.278,7.207-0.429,10.814c-0.134,3.23-0.264,6.463-0.408,9.693
		c-0.136,3.03-0.265,6.057-0.411,9.084c-0.125,2.588-0.29,5.176-0.401,7.762c-0.153,3.562-0.396,7.115-0.623,10.676
		c-0.183,2.881-0.404,5.758-0.608,8.637c-0.237,3.344-0.505,6.686-0.826,10.021c-0.259,2.703-0.356,5.426-0.66,8.123
		c-0.101,0.898-0.047,1.814-0.25,2.699c-0.322,1.412-0.287,1.473,1.163,1.473c29.151,0,58.302,0,87.453,0
		c1.386,0,3.092,1.701,3.098,3.076c0.019,4.121-0.188,8.232-0.374,12.346c-0.156,3.434-0.255,6.869-0.412,10.305
		c-0.139,3.098-0.256,6.195-0.405,9.289c-0.139,2.859-0.26,5.717-0.408,8.576c-0.134,2.586-0.274,5.174-0.412,7.76
		c-0.117,2.184-0.287,4.361-0.402,6.539c-0.157,2.953-0.414,5.895-0.623,8.842c-0.176,2.475-0.451,4.943-0.598,7.416
		c-0.209,3.551-0.641,7.082-0.891,10.627c-0.064,0.895-0.035,1.816-0.229,2.701c-0.323,1.475-0.315,1.506,1.111,1.506
		c28.745,0,57.487,0.014,86.232-0.029c1.428-0.002,2.519,0.264,3.435,1.406c0.447,0.555,0.751,1.018,0.736,1.768
		c-0.045,2.398-0.019,4.795-0.212,7.189c-0.141,1.748-0.092,3.506-0.159,5.258c-0.162,4.246-0.217,8.5-0.46,12.746
		c-0.095,1.648-0.077,3.301-0.151,4.951c-0.168,3.672-0.303,7.346-0.44,11.018c-0.102,2.693-0.292,5.379-0.396,8.066
		c-0.148,3.938-0.363,7.865-0.637,11.795c-0.179,2.551-0.213,5.111-0.452,7.656c-0.089,0.939-0.061,1.883-0.188,2.811
		c-0.384,2.822-0.506,5.668-0.791,8.498c-0.157,1.564-0.153,3.166-0.495,4.689c-0.24,1.076,0.047,1.178,0.964,1.176
		c8.823-0.021,17.646-0.025,26.47,0.006c0.89,0.004,1.176-0.172,1.187-1.137c0.06-5.146-0.22-10.291,0.151-15.439
		c0.194-2.691-0.05-5.402,0.2-8.105c0.229-2.486-0.001-4.99,0.182-7.496c0.219-2.992,0.019-6.014,0.227-9.021
		c0.052-0.758,0.172-1.357,0.784-1.844c0.421-0.336,0.788-0.748,1.155-1.148c0.267-0.289,0.55-0.432,0.965-0.43
		c2.907,0.008,5.814-0.127,8.717-0.158c9.399-0.1,18.8-0.029,28.201-0.045c1.114-0.004,2.217,0.07,3.319,0.211
		c0.441,0.055,0.686-0.057,0.672-0.592c-0.128-4.936,0.25-9.857,0.418-14.785c0.027-0.809-0.256-0.945-0.979-0.926
		c-3.854,0.117-7.712-0.119-11.568,0.191c-1.99,0.16-4.004,0.002-6.004,0.031c-7.151,0.111-14.294-0.35-21.443-0.213
		c-0.956,0.018-2.779-1.82-2.782-2.773c-0.017-3.51,0.237-7.01,0.365-10.512c0.137-3.74,0.276-7.48,0.438-11.221
		c0.054-1.232,1.761-2.979,2.999-2.98c6.346,0,12.692-0.047,19.038,0.012c9.624,0.088,19.252-0.275,28.873,0.195
		c0.397,0.02,0.604-0.061,0.625-0.539c0.111-2.387,0.34-4.766,0.37-7.152c0.024-1.822,0.193-3.639,0.293-5.453
		C268.361,189.938,268.286,188.692,268.535,187.405z"/>
	<path fill-rule="evenodd" clip-rule="evenodd" fill="#FFFFFF" d="M351.321,224.62c-2.203,0.043-4.407,0.037-6.61,0.004
		c-0.597-0.01-0.724,0.188-0.726,0.752c-0.006,1.725-0.085,3.451-0.115,5.176c-0.01,0.549-0.224,0.674-0.753,0.576
		c-1.679-0.305-3.385-0.271-5.068-0.123c-3.742,0.328-6.834,1.842-8.679,5.301c-1.491,2.797-2.039,5.771-1.468,8.922
		c0.771,4.234,4.094,7.01,8.398,7.045c2.695,0.021,5.013-0.859,7.088-3.01c-0.049,0.762-0.038,1.236-0.115,1.701
		c-0.106,0.631,0.102,0.814,0.745,0.801c1.999-0.043,4.001-0.029,6-0.006c0.5,0.006,0.704-0.086,0.699-0.654
		c-0.015-1.389,0.034-2.777,0.097-4.164c0.193-4.223,0.372-8.449,0.619-12.672c0.171-2.938,0.428-5.871,0.684-8.805
		C352.175,224.798,352.004,224.604,351.321,224.62z M342.936,242.72c-0.531,1.748-1.344,3.289-3.4,3.584
		c-1.98,0.281-3.596-0.953-3.914-2.939c-0.743-4.611,2.85-8.021,7.429-7.082c0.87,0.18,0.303,0.82,0.509,1.164
		C343.351,239.239,343.452,241.021,342.936,242.72z"/>
	<path fill-rule="evenodd" clip-rule="evenodd" fill="#FFFFFF" d="M114.07,55.454c1.243-1.244,2.548-2.142,4.165-2.525
		c2.288-0.543,4.565-0.543,6.816,0.111c2.586,0.754,4.057,2.729,3.993,5.545c-0.084,3.691-0.323,7.375-0.478,11.062
		c-0.046,1.049-0.049,2.104-0.032,3.152c0.008,0.441-0.125,0.586-0.572,0.584c-2.341-0.02-4.681-0.035-7.021,0.006
		c-0.698,0.012-0.558-0.393-0.536-0.777c0.172-3.008,0.332-6.018,0.537-9.021c0.057-0.826-0.028-1.637-0.203-2.418
		c-0.237-1.053-0.91-1.814-2.01-2.053c-1.455-0.32-2.672,0.145-3.632,1.258c-1.271,1.473-1.463,3.311-1.606,5.131
		c-0.19,2.43-0.297,4.865-0.407,7.301c-0.02,0.436-0.118,0.578-0.57,0.574c-2.375-0.021-4.75-0.031-7.123,0.006
		c-0.618,0.01-0.525-0.285-0.479-0.672c0.527-4.475,0.808-8.969,1.013-13.469c0.084-1.858,0.156-3.719,0.176-5.58
		c0.006-0.577,0.229-0.652,0.718-0.647c2.137,0.021,4.275,0.04,6.412-0.009c0.724-0.016,0.968,0.183,0.853,0.907
		C114.013,54.364,114.07,54.829,114.07,55.454z"/>
	<path fill-rule="evenodd" clip-rule="evenodd" fill="#FFFFFF" d="M313.28,162.562c0.573-4.547,0.882-9.006,1.06-13.473
		c0.082-2.064,0.155-4.131,0.194-6.193c0.01-0.533,0.18-0.695,0.706-0.688c2.206,0.025,4.41,0.039,6.615-0.006
		c0.696-0.016,0.796,0.26,0.701,0.834c-0.08,0.5-0.112,1.008-0.172,1.572c0.13-0.041,0.227-0.043,0.278-0.092
		c3.23-3.201,7.103-3.342,11.128-2.146c2.686,0.797,3.91,3.023,3.763,6.012c-0.221,4.465-0.41,8.93-0.572,13.395
		c-0.023,0.605-0.141,0.814-0.787,0.801c-2.238-0.041-4.477-0.033-6.715-0.002c-0.549,0.008-0.644-0.156-0.609-0.674
		c0.199-3.076,0.371-6.15,0.521-9.229c0.032-0.67-0.007-1.361-0.12-2.023c-0.198-1.145-0.808-2.031-1.987-2.324
		c-1.481-0.365-2.749,0.092-3.737,1.242c-1.163,1.357-1.383,3.047-1.556,4.732c-0.258,2.527-0.408,5.062-0.421,7.604
		c-0.004,0.438-0.05,0.676-0.59,0.67C318.439,162.548,315.897,162.562,313.28,162.562z"/>
	<path fill-rule="evenodd" clip-rule="evenodd" fill="#FFFFFF" d="M309.593,233.917c2.954-3.621,9.151-3.514,12.063-2.066
		c2.11,1.049,3.025,2.877,2.959,5.143c-0.11,3.826-0.341,7.646-0.515,11.471c-0.036,0.812-0.093,1.627-0.063,2.439
		c0.021,0.611-0.076,0.885-0.8,0.865c-2.205-0.055-4.412-0.047-6.617-0.004c-0.672,0.014-0.733-0.189-0.679-0.805
		c0.288-3.205,0.495-6.416,0.547-9.635c0.002-0.137,0.003-0.273-0.001-0.408c-0.054-1.861-0.806-3.061-2.139-3.418
		c-1.504-0.4-3.183,0.303-4.1,1.764c-1.029,1.637-1.145,3.516-1.283,5.363c-0.151,2.061-0.217,4.127-0.306,6.191
		c-0.027,0.645-0.146,0.992-0.975,0.961c-2.169-0.084-4.342-0.049-6.514-0.016c-0.591,0.008-0.843-0.068-0.751-0.762
		c0.82-6.223,1.056-12.484,1.188-18.752c0.014-0.627,0.111-0.879,0.817-0.861c2.138,0.051,4.277,0.053,6.413,0
		c0.719-0.018,0.855,0.225,0.768,0.865C309.539,232.739,309.593,233.243,309.593,233.917z"/>
	<path fill-rule="evenodd" clip-rule="evenodd" fill="#FFFFFF" d="M287.374,55.506c2.947-3.17,6.563-3.371,10.31-2.633
		c3.438,0.68,4.967,3.046,4.729,6.936c-0.258,4.262-0.525,8.518-0.573,12.783c-0.007,0.6-0.145,0.812-0.793,0.799
		c-2.103-0.045-4.208-0.068-6.309,0.006c-0.915,0.033-1.104-0.191-1.014-1.104c0.319-3.133,0.474-6.277,0.532-9.426
		c0.009-0.4-0.075-0.807-0.12-1.207c-0.334-2.967-3.476-3.18-5.078-1.902c-1.058,0.846-1.622,1.973-1.887,3.264
		c-0.647,3.133-0.608,6.328-0.762,9.502c-0.035,0.725-0.217,0.881-0.906,0.867c-2.205-0.045-4.409-0.037-6.612-0.004
		c-0.591,0.01-0.764-0.152-0.687-0.732c0.754-5.68,0.927-11.398,1.18-17.114c0.004-0.067,0.01-0.135,0.014-0.203
		c0.05-0.736-0.32-1.731,0.147-2.146c0.55-0.489,1.55-0.142,2.354-0.153c1.562-0.026,3.122,0.025,4.682-0.024
		c0.677-0.021,0.904,0.169,0.806,0.853C287.315,54.354,287.374,54.862,287.374,55.506z"/>
	<path fill-rule="evenodd" clip-rule="evenodd" fill="#FFFFFF" d="M181.285,55.524c2.663-2.972,6.032-3.359,9.547-2.774
		c4.154,0.688,5.76,2.896,5.493,7.101c-0.267,4.221-0.52,8.447-0.574,12.68c-0.008,0.611-0.124,0.881-0.83,0.863
		c-2.17-0.053-4.343-0.062-6.512,0.004c-0.811,0.021-0.859-0.301-0.791-0.941c0.336-3.133,0.453-6.277,0.558-9.422
		c0.003-0.137,0.003-0.271,0-0.408c-0.047-1.93-0.82-3.178-2.171-3.506c-1.618-0.395-3.27,0.387-4.188,1.961
		c-0.793,1.357-0.979,2.877-1.106,4.385c-0.202,2.395-0.308,4.797-0.396,7.199c-0.021,0.58-0.169,0.73-0.736,0.721
		c-2.239-0.029-4.478-0.035-6.716,0.004c-0.622,0.01-0.829-0.125-0.745-0.775c0.806-6.289,1.046-12.613,1.182-18.945
		c0.011-0.58,0.234-0.652,0.724-0.647c2.136,0.021,4.273,0.04,6.409-0.009c0.715-0.016,0.974,0.166,0.865,0.894
		C181.228,54.37,181.285,54.848,181.285,55.524z"/>
	<path fill-rule="evenodd" clip-rule="evenodd" fill="#FFFFFF" d="M288.425,249.335c-2.939,3.252-6.558,3.436-10.336,2.477
		c-2.913-0.74-4.288-2.971-4.06-6.082c0.334-4.527,0.644-9.057,0.703-13.596c0.007-0.564,0.141-0.75,0.728-0.74
		c2.205,0.033,4.411,0.039,6.617-0.002c0.721-0.014,0.803,0.221,0.747,0.885c-0.278,3.342-0.71,6.672-0.742,10.031
		c-0.018,1.986,0.682,3.041,2.131,3.336c1.693,0.348,3.188-0.441,3.933-2.121c0.699-1.586,0.707-3.299,0.812-4.982
		c0.135-2.129,0.203-4.264,0.25-6.395c0.013-0.57,0.16-0.76,0.745-0.752c2.207,0.029,4.412,0.031,6.616,0
		c0.575-0.008,0.651,0.182,0.614,0.705c-0.276,3.746-0.548,7.498-0.764,11.248c-0.142,2.504-0.209,5.012-0.262,7.518
		c-0.015,0.658-0.126,0.932-0.881,0.906c-1.966-0.064-3.936-0.053-5.901-0.004c-0.675,0.016-0.879-0.178-0.831-0.84
		C288.583,250.438,288.667,249.923,288.425,249.335z"/>
	<path fill-rule="evenodd" clip-rule="evenodd" fill="#FFFFFF" d="M216.86,162.562c-3.041,0-5.919-0.01-8.798,0.012
		c-0.48,0.004-0.599-0.256-0.771-0.619c-0.906-1.91-1.847-3.803-2.817-5.789c-1.22,1.932-2.406,3.76-3.532,5.625
		c-0.334,0.553-0.67,0.801-1.347,0.791c-2.668-0.045-5.337-0.02-8.158-0.02c1.914-2.574,3.745-5.027,5.572-7.486
		c0.604-0.814,1.166-1.664,1.812-2.445c0.449-0.543,0.379-0.939,0.006-1.502c-1.772-2.676-3.496-5.383-5.236-8.082
		c-0.142-0.221-0.262-0.457-0.474-0.828c2.612,0,5.105,0.102,7.586-0.039c1.369-0.076,2.065,0.354,2.525,1.615
		c0.501,1.385,1.202,2.693,1.876,4.164c1.097-1.756,2.141-3.385,3.134-5.043c0.315-0.529,0.679-0.721,1.298-0.711
		c2.542,0.037,5.084,0.014,7.832,0.014c-0.862,1.152-1.641,2.191-2.416,3.23c-1.438,1.926-2.858,3.863-4.323,5.768
		c-0.362,0.473-0.361,0.816-0.047,1.307c1.053,1.652,2.042,3.344,3.079,5.006C214.674,159.157,215.718,160.771,216.86,162.562z"/>
	<path fill-rule="evenodd" clip-rule="evenodd" fill="#FFFFFF" d="M381.467,156.546c-0.307,1.887-0.599,3.613-0.857,5.348
		c-0.062,0.395-0.291,0.467-0.611,0.529c-4.126,0.807-8.276,1.096-12.372,0.002c-3.589-0.957-5.617-3.494-6.189-7.125
		c-0.645-4.088,0.191-7.809,3.181-10.836c1.559-1.578,3.569-2.299,5.724-2.551c2.844-0.334,5.687-0.35,8.358,0.893
		c2.872,1.334,4.298,3.705,4.559,6.797c0.083,0.973,0.065,1.955-0.097,2.936c-0.095,0.57-0.311,0.672-0.834,0.67
		c-4.068-0.021-8.138,0.02-12.206-0.039c-0.908-0.012-1.072,0.291-0.99,1.084c0.219,2.119,2.028,3.527,4.774,3.621
		c2.292,0.074,4.484-0.506,6.672-1.086C380.834,156.72,381.089,156.649,381.467,156.546z M372.562,150.112c0.88,0,1.759,0,2.639,0
		c0.269,0,0.499,0.027,0.576-0.371c0.261-1.336-0.691-2.916-1.997-3.236c-2.08-0.51-4.021,0.834-4.369,2.98
		c-0.079,0.486-0.024,0.664,0.513,0.639C370.802,150.081,371.683,150.112,372.562,150.112z"/>
	<path fill-rule="evenodd" clip-rule="evenodd" fill="#FFFFFF" d="M358.704,148.606c-1.841-0.588-3.598-1.041-5.451-0.936
		c-1.813,0.102-3.36,0.705-4.104,2.461c-0.805,1.896-0.852,3.857,0.404,5.602c0.782,1.086,2.047,1.383,3.34,1.418
		c1.431,0.035,2.825-0.203,4.192-0.627c0.307-0.094,0.592-0.342,1.05-0.191c-0.306,1.883-0.627,3.773-0.908,5.668
		c-0.059,0.4-0.334,0.389-0.569,0.441c-3.102,0.682-6.242,1.029-9.351,0.227c-3.218-0.828-5.329-2.912-6.211-6.178
		c-0.643-2.373-0.669-4.756-0.082-7.125c1.118-4.506,3.941-7.043,8.559-7.518c2.73-0.281,5.481-0.186,8.175,0.523
		c0.345,0.09,0.653,0.107,0.673,0.576C358.503,144.798,358.604,146.647,358.704,148.606z"/>
	<path fill-rule="evenodd" clip-rule="evenodd" fill="#FFFFFF" d="M236.475,156.169c-0.331,1.996-0.653,3.885-0.953,5.775
		c-0.054,0.334-0.243,0.438-0.528,0.498c-3.171,0.684-6.374,1.053-9.545,0.176c-4.051-1.119-6.005-4.074-6.443-8.082
		c-0.354-3.238,0.12-6.355,2.08-9.082c1.678-2.33,4.086-3.404,6.854-3.623c2.74-0.213,5.479-0.137,8.179,0.533
		c0.505,0.127,0.558,0.35,0.582,0.746c0.097,1.623,0.176,3.244,0.325,4.861c0.057,0.613-0.152,0.613-0.611,0.463
		c-1.485-0.484-2.994-0.771-4.575-0.773c-3.667-0.002-5.188,2.549-4.875,5.652c0.258,2.562,1.737,3.793,4.345,3.842
		C233.05,157.187,234.717,156.784,236.475,156.169z"/>
	<path fill-rule="evenodd" clip-rule="evenodd" fill="#FFFFFF" d="M268.154,162.562c-0.947,0-1.907-0.078-2.845,0.021
		c-1.006,0.105-1.264-0.221-1.142-1.203c0.506-4.066,0.547-8.166,0.78-12.254c0.244-4.291,0.48-8.586,0.44-12.889
		c-0.005-0.635,0.215-0.807,0.824-0.799c2.272,0.027,4.542,0.012,6.813,0.01c0.383,0,0.679-0.047,0.624,0.559
		c-0.542,6-0.734,12.021-1.027,18.037c-0.125,2.602-0.217,5.205-0.271,7.811c-0.012,0.586-0.175,0.738-0.738,0.721
		C270.459,162.532,269.307,162.562,268.154,162.562z"/>
	<path fill-rule="evenodd" clip-rule="evenodd" fill="#FFFFFF" d="M280.785,162.562c-0.95,0-1.912-0.1-2.846,0.027
		c-1.158,0.154-1.261-0.387-1.142-1.295c0.371-2.826,0.425-5.674,0.569-8.512c0.281-5.549,0.645-11.094,0.646-16.652
		c0-0.529,0.142-0.699,0.68-0.691c2.307,0.027,4.615,0.021,6.921,0.002c0.547-0.004,0.651,0.148,0.611,0.707
		c-0.525,7.164-0.89,14.332-1.115,21.512c-0.044,1.352-0.139,2.703-0.138,4.055c0.001,0.711-0.232,0.908-0.931,0.865
		C282.959,162.513,281.871,162.562,280.785,162.562z"/>
	<path fill-rule="evenodd" clip-rule="evenodd" fill="#FFFFFF" d="M256.678,54.991c1.596-1.854,3.522-2.672,5.901-2.406
		c0.551,0.061,0.768,0.229,0.76,0.797c-0.024,1.961-0.008,3.922-0.008,5.979c-0.353,0.1-0.839-0.227-1.359-0.248
		c-3.223-0.145-5.235,1.658-5.554,4.982c-0.271,2.838-0.386,5.678-0.216,8.525c0.032,0.533-0.071,0.779-0.695,0.77
		c-2.238-0.037-4.477-0.033-6.717-0.004c-0.593,0.008-0.704-0.143-0.654-0.744c0.509-6.25,0.915-12.508,0.753-18.784
		c-0.02-0.674,0.142-0.859,0.815-0.843c1.933,0.045,3.869,0.071,5.8-0.009c0.915-0.037,1.219,0.215,1.042,1.108
		C256.5,54.35,256.418,54.641,256.678,54.991z"/>
	<path fill-rule="evenodd" clip-rule="evenodd" fill="#FFFFFF" d="M269.748,73.376c-1.119,0-2.245-0.078-3.356,0.021
		c-0.94,0.084-0.875-0.422-0.796-1.021c0.495-3.73,0.619-7.488,0.781-11.24c0.104-2.436,0.153-4.875,0.181-7.315
		c0.005-0.597,0.119-0.82,0.775-0.808c2.204,0.046,4.409,0.042,6.613,0.004c0.65-0.011,0.885,0.127,0.818,0.831
		c-0.592,6.284-0.689,12.586-0.637,18.891c0.006,0.586-0.234,0.652-0.717,0.645C272.19,73.356,270.969,73.376,269.748,73.376z"/>
	<path fill-rule="evenodd" clip-rule="evenodd" fill="#FFFFFF" d="M163.678,73.376c-1.017,0-2.043-0.08-3.051,0.021
		c-1.014,0.1-1.268-0.23-1.123-1.209c0.543-3.656,0.62-7.35,0.785-11.035c0.111-2.436,0.15-4.875,0.181-7.313
		c0.007-0.572,0.074-0.842,0.758-0.827c2.238,0.047,4.478,0.044,6.715,0c0.672-0.011,0.788,0.216,0.732,0.819
		c-0.577,6.284-0.692,12.583-0.635,18.889c0.005,0.562-0.192,0.676-0.699,0.662C166.121,73.354,164.899,73.376,163.678,73.376z"/>
	<path fill-rule="evenodd" clip-rule="evenodd" fill="#FFFFFF" d="M164.831,45.68c1.152,0,2.306,0.002,3.458-0.002
		c0.326-0.002,0.549-0.016,0.502,0.477c-0.121,1.244-0.185,2.496-0.207,3.747c-0.012,0.565-0.246,0.659-0.74,0.654
		c-2.136-0.022-4.272-0.022-6.408,0.001c-0.546,0.008-0.774-0.094-0.738-0.715c0.069-1.148,0.068-2.307,0.027-3.458
		c-0.023-0.603,0.195-0.735,0.75-0.716C162.591,45.708,163.712,45.68,164.831,45.68z"/>
	<path fill-rule="evenodd" clip-rule="evenodd" fill="#FFFFFF" d="M270.678,50.547c-1.053,0-2.104-0.024-3.154,0.01
		c-0.543,0.018-0.776-0.09-0.738-0.713c0.067-1.148,0.051-2.307,0.03-3.458c-0.009-0.483,0.055-0.73,0.643-0.722
		c2.305,0.033,4.61,0.018,6.915,0.014c0.323,0,0.552-0.021,0.504,0.473c-0.121,1.245-0.184,2.498-0.208,3.748
		c-0.011,0.563-0.239,0.672-0.738,0.657C272.848,50.526,271.762,50.547,270.678,50.547z"/>
	<path fill-rule="evenodd" clip-rule="evenodd" fill="#CA992C" d="M268.535,187.405c-0.249,1.287-0.174,2.533-0.242,3.756
		c-0.1,1.814-0.269,3.631-0.293,5.453c-0.03,2.387-0.259,4.766-0.37,7.152c-0.021,0.479-0.228,0.559-0.625,0.539
		c-9.621-0.471-19.249-0.107-28.873-0.195c-6.346-0.059-12.692-0.012-19.038-0.012c-1.238,0.002-2.945,1.748-2.999,2.98
		c-0.162,3.74-0.302,7.48-0.438,11.221c-0.128,3.502-0.382,7.002-0.365,10.512c0.003,0.953,1.826,2.791,2.782,2.773
		c7.149-0.137,14.292,0.324,21.443,0.213c2-0.029,4.014,0.129,6.004-0.031c3.856-0.311,7.714-0.074,11.568-0.191
		c0.723-0.02,1.006,0.117,0.979,0.926c-0.168,4.928-0.546,9.85-0.418,14.785c0.014,0.535-0.23,0.646-0.672,0.592
		c-1.103-0.141-2.205-0.215-3.319-0.211c-9.401,0.016-18.802-0.055-28.201,0.045c-2.902,0.031-5.81,0.166-8.717,0.158
		c-0.415-0.002-0.698,0.141-0.965,0.43c-0.367,0.4-0.734,0.812-1.155,1.148c-0.612,0.486-0.732,1.086-0.784,1.844
		c-0.208,3.008-0.008,6.029-0.227,9.021c-0.183,2.506,0.048,5.01-0.182,7.496c-0.25,2.703-0.006,5.414-0.2,8.105
		c-0.371,5.148-0.092,10.293-0.151,15.439c-0.011,0.965-0.297,1.141-1.187,1.137c-8.823-0.031-17.646-0.027-26.47-0.006
		c-0.917,0.002-1.204-0.1-0.964-1.176c0.342-1.523,0.338-3.125,0.495-4.689c0.285-2.83,0.407-5.676,0.791-8.498
		c0.128-0.928,0.1-1.871,0.188-2.811c0.239-2.545,0.273-5.105,0.452-7.656c0.273-3.93,0.488-7.857,0.637-11.795
		c0.104-2.688,0.294-5.373,0.396-8.066c0.138-3.672,0.272-7.346,0.44-11.018c0.074-1.65,0.057-3.303,0.151-4.951
		c0.243-4.246,0.298-8.5,0.46-12.746c0.067-1.752,0.019-3.51,0.159-5.258c0.193-2.395,0.167-4.791,0.212-7.189
		c0.015-0.75-0.289-1.213-0.736-1.768c-0.916-1.143-2.007-1.408-3.435-1.406c-28.745,0.043-57.487,0.029-86.232,0.029
		c-1.426,0-1.435-0.031-1.111-1.506c0.194-0.885,0.165-1.807,0.229-2.701c0.25-3.545,0.682-7.076,0.891-10.627
		c0.146-2.473,0.421-4.941,0.598-7.416c0.208-2.947,0.465-5.889,0.623-8.842c0.116-2.178,0.285-4.355,0.402-6.539
		c0.138-2.586,0.278-5.174,0.412-7.76c0.147-2.859,0.269-5.717,0.408-8.576c0.148-3.094,0.266-6.191,0.405-9.289
		c0.157-3.436,0.256-6.871,0.412-10.305c0.186-4.113,0.392-8.225,0.374-12.346c-0.005-1.375-1.711-3.076-3.098-3.076
		c-29.151,0-58.302,0-87.453,0c-1.45,0-1.485-0.061-1.163-1.473c0.203-0.885,0.148-1.801,0.25-2.699
		c0.303-2.697,0.4-5.42,0.66-8.123c0.321-3.336,0.589-6.678,0.826-10.021c0.205-2.879,0.425-5.756,0.608-8.637
		c0.227-3.561,0.47-7.113,0.623-10.676c0.112-2.586,0.277-5.174,0.401-7.762c0.146-3.027,0.275-6.055,0.411-9.084
		c0.144-3.23,0.274-6.463,0.408-9.693c0.15-3.607,0.254-7.214,0.429-10.814c0.094-1.959-0.046-3.93,0.182-5.866
		c0.274-2.333-0.012-4.67,0.193-6.985c0.366-4.13,0.096-8.258,0.162-12.385c0.013-0.76,0.275-0.871,0.939-0.863
		c2.715,0.033,5.432-0.041,8.144,0.023c19.059,0.451,38.12,0.065,57.179,0.191c2.307,0.017,4.623,0.122,6.921-0.025
		c3.348-0.215,6.694-0.132,10.041-0.184c0.726-0.011,1.165,0.094,0.739,0.943c-0.056,0.112-0.055,0.267-0.046,0.398
		c0.135,1.997-0.174,3.979-0.243,5.967c-0.101,2.96-0.425,5.912-0.367,8.881c0.01,0.51-0.289,0.633-0.632,0.477
		c-0.563-0.256-1.132-0.142-1.697-0.162c-5.314-0.2-10.635-0.064-15.943-0.266c-4.098-0.156-8.196-0.219-12.281-0.101
		c-5.655,0.164-11.312,0.021-16.962,0.208c-2.023,0.066-4.048,0.119-6.071,0.138c-0.715,0.007-0.936,0.588-1.378,0.912
		c-1.009,0.741-1.3,1.698-1.278,2.966c0.055,3.166-0.237,6.33-0.418,9.49c-0.208,3.604-0.386,7.205-0.36,10.816
		c0.007,1.106,1.765,2.881,2.852,2.919c11.083,0.38,22.169,0.2,33.252,0.151c2.969-0.012,5.945-0.119,8.92-0.155
		c0.034,0,0.069,0.002,0.101,0c1.817-0.146,2.033-0.009,1.67,1.842c-0.276,1.403-0.2,2.814-0.301,4.208
		c-0.134,1.842-0.174,3.715-0.337,5.549c-0.143,1.604,0.095,3.23-0.317,4.818c-0.103,0.393-0.228,0.506-0.583,0.486
		c-0.237-0.016-0.475-0.004-0.713-0.004c-7.907,0-15.815,0.055-23.722-0.021c-4.809-0.045-9.611,0.205-14.417,0.281
		c-1.848,0.029-3.706,0.104-5.562,0.135c-0.412,0.008-0.656,0.217-0.972,0.42c-1.618,1.047-1.85,2.67-1.906,4.375
		c-0.08,2.43-0.069,4.863-0.225,7.289c-0.187,2.924-0.322,5.85-0.43,8.779c-0.037,0.998-0.04,2.023-0.188,3.012
		c-0.268,1.781,0.435,3.041,1.788,4.084c0.283,0.217,0.52,0.398,0.89,0.363c0.235-0.023,0.475-0.006,0.713-0.006
		c44.455,0,88.911,0.023,133.367-0.041c3.342-0.006,6.693-0.117,10.04-0.168c0.657-0.008,1.114,0.057,0.727,0.883
		c-0.067,0.146-0.066,0.33-0.072,0.496c-0.072,2.057-0.074,4.117-0.222,6.17c-0.206,2.855-0.435,5.709-0.383,8.576
		c0.008,0.541-0.271,0.719-0.671,0.533c-0.502-0.229-0.999-0.145-1.495-0.152c-5.35-0.092-10.702-0.109-16.045-0.273
		c-4.504-0.139-9.01-0.24-13.501-0.084c-5.285,0.184-10.568-0.045-15.842,0.193c-1.992,0.09-3.981,0.102-5.97,0.146
		c-0.411,0.01-0.666,0.186-0.972,0.418c-1.341,1.018-1.807,2.268-1.767,4.002c0.07,2.988-0.21,5.99-0.398,8.979
		c-0.226,3.641-0.362,7.275-0.383,10.92c-0.004,0.752,0.527,1.029,0.872,1.5c0.769,1.055,1.776,1.27,3.056,1.312
		c10.508,0.354,21.016,0.145,31.523,0.125c3.173-0.006,6.353-0.146,9.53-0.16c0.068,0,0.137,0.004,0.203-0.004
		c1.833-0.172,1.967-0.137,1.629,1.779c-0.248,1.404-0.188,2.814-0.296,4.209c-0.138,1.771-0.248,3.562-0.312,5.352
		c-0.053,1.443-0.147,2.889-0.177,4.338c-0.018,0.867-0.355,1.264-1.397,1.256c-10.215-0.055-20.431-0.09-30.646,0.01
		c-2.561,0.025-5.141,0.006-7.693,0.213c-1.759,0.141-3.507,0.092-5.259,0.141c-0.466,0.014-0.786,0.186-1.171,0.438
		c-1.653,1.096-1.887,2.768-1.858,4.494c0.041,2.438-0.198,4.859-0.267,7.291c-0.082,2.855-0.259,5.717-0.41,8.574
		c-0.075,1.412-0.075,2.828-0.171,4.238c-0.055,0.811,0.242,1.352,0.775,1.955c0.899,1.021,1.88,1.361,3.252,1.361
		c42.623-0.041,85.249-0.014,127.872-0.072c3.24-0.004,6.488-0.15,9.735-0.164C267.85,187.403,268.187,187.405,268.535,187.405z"/>
	<path fill-rule="evenodd" clip-rule="evenodd" fill="#FFFFFF" d="M328.786,53.526c-4.278-0.783-8.569-1.314-12.924-0.737
		c-6.297,0.836-10.291,5.299-10.396,11.603c-0.106,6.227,4.375,10.062,10.501,9.01c1.744-0.299,3.203-1.145,4.65-2.412
		c-0.03,1.121-0.015,2.039-0.217,2.959c-0.425,1.959-1.507,3.01-3.472,3.295c-0.808,0.117-1.618,0.115-2.432,0.068
		c-2.338-0.135-4.569-0.785-6.885-1.514c0.107,1.902,0.223,3.717,0.307,5.533c0.021,0.482,0.344,0.521,0.675,0.584
		c1.328,0.248,2.648,0.555,3.988,0.723c3.127,0.389,6.264,0.705,9.404,0.096c3.971-0.77,6.221-3.176,6.3-6.922
		c0.151-7.182,0.548-14.35,1.083-21.511C329.411,53.75,329.263,53.614,328.786,53.526z M321.186,60.657
		c-0.049,1.186-0.13,2.705-0.629,4.158c-0.911,2.658-3.467,3.854-5.565,2.631c-1.492-0.869-2.109-2.953-1.495-5.055
		c0.717-2.449,2.592-3.871,5.15-3.902c0.237-0.004,0.475-0.002,0.712,0C321.23,58.497,321.23,58.499,321.186,60.657z"/>
	<path fill-rule="evenodd" clip-rule="evenodd" fill="#FFFFFF" d="M155.099,53.438c-1.842-0.252-3.679-0.599-5.529-0.74
		c-3.144-0.242-6.326-0.42-9.373,0.581c-5.81,1.909-8.8,6.933-7.894,13.093c0.69,4.699,3.94,7.236,8.692,7.205
		c2.362-0.016,4.399-0.875,6.255-2.559c0,0.799,0.05,1.41-0.009,2.01c-0.281,2.82-1.549,4.092-4.308,4.289
		c-1.114,0.078-2.227-0.025-3.338-0.184c-1.796-0.256-3.519-0.803-5.318-1.334c0.115,1.848,0.236,3.6,0.326,5.354
		c0.02,0.379,0.09,0.648,0.509,0.732c4.491,0.928,9.007,1.666,13.589,0.826c3.521-0.646,5.863-2.553,6.159-6.238
		c0.235-2.898,0.196-5.82,0.354-8.725c0.238-4.396,0.513-8.791,0.847-13.182C156.125,53.715,155.754,53.528,155.099,53.438z
		 M147.884,60.694c-0.113,1.332-0.145,2.996-0.813,4.541c-0.592,1.373-1.556,2.396-3.095,2.625c-2.25,0.334-3.895-1.178-4.023-3.604
		c-0.171-3.229,2.192-5.744,5.422-5.768c0.203-0.004,0.406-0.002,0.609,0C147.919,58.495,147.919,58.495,147.884,60.694z"/>
	<path fill-rule="evenodd" clip-rule="evenodd" fill="#FFFFFF" d="M239.554,53.069c-2.146-0.613-4.366-0.66-6.556-0.412
		c-2.644,0.299-5.098,1.172-6.82,3.359c-2.396,3.043-3.182,6.524-2.464,10.309c0.684,3.613,2.792,6.102,6.38,6.982
		c4.036,0.99,8.127,0.73,12.19-0.061c0.594-0.115,0.558-0.512,0.621-0.865c0.286-1.623,0.54-3.248,0.823-4.98
		c-1.49,0.35-2.857,0.723-4.247,0.988c-1.975,0.377-3.96,0.564-5.878-0.318c-1.386-0.637-2.12-1.707-2.236-3.234
		c-0.05-0.637,0.109-0.854,0.805-0.848c3.798,0.039,7.598,0.02,11.397,0.02c1.769,0,1.841,0.004,1.976-1.777
		C245.872,57.872,243.883,54.303,239.554,53.069z M237.45,60.933c-0.88-0.031-1.764-0.008-2.645-0.008
		c-0.916,0-1.834-0.006-2.749,0.004c-0.318,0.002-0.489-0.039-0.448-0.443c0.18-1.814,1.719-3.225,3.558-3.223
		c1.847,0.006,2.937,1.155,2.911,3.016C238.072,60.751,237.955,60.954,237.45,60.933z"/>
	<path fill-rule="evenodd" clip-rule="evenodd" fill="#FFFFFF" d="M304.507,142.167c-1.979-0.461-3.972-0.531-5.956-0.338
		c-3.109,0.301-5.868,1.42-7.637,4.18c-2.031,3.176-2.636,6.637-1.669,10.297c0.856,3.238,2.949,5.408,6.2,6.189
		c4.044,0.973,8.127,0.742,12.188-0.07c0.445-0.088,0.515-0.295,0.574-0.65c0.279-1.691,0.577-3.381,0.891-5.193
		c-1.508,0.355-2.875,0.738-4.263,0.996c-2.078,0.385-4.152,0.584-6.146-0.465c-1.265-0.664-1.85-1.699-1.96-3.082
		c-0.049-0.629,0.097-0.861,0.801-0.855c3.664,0.041,7.327,0.021,10.992,0.021c2.223,0,2.309,0.002,2.398-2.188
		C311.107,146.499,308.73,143.155,304.507,142.167z M302.74,150.122c-0.846-0.035-1.695-0.01-2.542-0.01
		c-0.916,0-1.832-0.012-2.747,0.006c-0.386,0.008-0.536-0.078-0.476-0.516c0.254-1.816,1.723-3.148,3.517-3.15
		c1.85,0,2.922,1.105,2.949,2.986C303.45,149.985,303.264,150.146,302.74,150.122z"/>
	<path fill-rule="evenodd" clip-rule="evenodd" fill="#FFFFFF" d="M255.208,142.171c-1.976-0.467-3.972-0.537-5.958-0.342
		c-2.99,0.293-5.674,1.326-7.474,3.918c-1.808,2.602-2.541,5.527-2.205,8.656c0.404,3.74,2.131,6.699,5.876,7.869
		c4.264,1.328,8.626,0.979,12.958,0.129c0.319-0.062,0.428-0.178,0.479-0.508c0.242-1.57,0.506-3.137,0.804-4.697
		c0.106-0.568-0.087-0.637-0.571-0.512c-1.206,0.312-2.409,0.654-3.631,0.893c-1.806,0.357-3.625,0.525-5.411-0.129
		c-1.686-0.617-2.552-1.768-2.646-3.355c-0.039-0.672,0.085-0.939,0.846-0.918c2.034,0.059,4.07,0.021,6.107,0.021
		c1.661,0,3.324,0,4.985,0c2.055,0,2.114,0.002,2.224-2.062C261.833,146.646,259.523,143.187,255.208,142.171z M254.084,149.696
		c-0.08,0.449-0.34,0.418-0.649,0.418c-0.877-0.004-1.755-0.002-2.631-0.002c-0.844,0-1.688-0.031-2.53,0.012
		c-0.592,0.031-0.675-0.203-0.568-0.715c0.431-2.055,2.066-3.227,4.146-2.938C253.275,146.669,254.338,148.239,254.084,149.696z"/>
	<path fill-rule="evenodd" clip-rule="evenodd" fill="#FFFFFF" d="M221.388,60.263c-0.289-3.286-1.933-5.633-5.033-6.868
		c-2.459-0.98-5.045-0.994-7.609-0.717c-2.507,0.271-4.826,1.15-6.51,3.139c-2.333,2.756-3.177,6.028-2.772,9.563
		c0.456,3.98,2.484,6.893,6.491,7.912c4.03,1.025,8.121,0.752,12.182-0.045c0.436-0.086,0.584-0.244,0.644-0.701
		c0.189-1.404,0.42-2.809,0.725-4.191c0.203-0.926-0.011-0.996-0.866-0.746c-2.142,0.625-4.314,1.156-6.575,1.074
		c-2.892-0.104-4.672-1.6-4.774-3.93c-0.024-0.576,0.114-0.768,0.711-0.758c2.068,0.033,4.137,0.014,6.205,0.014
		c2.103,0,4.206-0.025,6.309,0.016c0.574,0.012,0.815-0.205,0.833-0.715C221.383,62.294,221.476,61.271,221.388,60.263z
		 M213.965,60.521c-0.079,0.445-0.356,0.406-0.661,0.406c-0.878-0.004-1.756,0-2.634,0c-0.844-0.002-1.691-0.039-2.531,0.012
		c-0.612,0.035-0.658-0.238-0.564-0.723c0.403-2.068,2.186-3.297,4.252-2.92C213.177,57.543,214.214,59.136,213.965,60.521z"/>
</g>
</svg>
