<?xml version="1.0" encoding="utf-8"?>
<!-- Generator: Adobe Illustrator 16.0.0, SVG Export Plug-In . SVG Version: 6.00 Build 0)  -->
<!DOCTYPE svg PUBLIC "-//W3C//DTD SVG 1.1//EN" "http://www.w3.org/Graphics/SVG/1.1/DTD/svg11.dtd">
<svg version="1.1" id="Layer_1" xmlns="http://www.w3.org/2000/svg" xmlns:xlink="http://www.w3.org/1999/xlink" x="0px" y="0px"
	 width="360px" height="360px" viewBox="0 0 360 360" enable-background="new 0 0 360 360" xml:space="preserve">
<g>
	<path fill="#FFFFFF" d="M131.372,45.016c-0.556,0-1.063-0.106-1.52-0.32c-0.458-0.213-0.849-0.528-1.177-0.946
		c-0.328-0.417-0.582-0.934-0.76-1.55s-0.268-1.326-0.268-2.131s0.089-1.513,0.268-2.123c0.179-0.611,0.432-1.118,0.76-1.521
		c0.328-0.401,0.72-0.705,1.177-0.909c0.457-0.203,0.964-0.305,1.52-0.305c0.557,0,1.063,0.102,1.52,0.305
		c0.457,0.204,0.85,0.508,1.178,0.909c0.328,0.402,0.581,0.909,0.76,1.521c0.179,0.61,0.269,1.318,0.269,2.123
		s-0.09,1.515-0.269,2.131c-0.179,0.616-0.432,1.133-0.76,1.55c-0.328,0.418-0.721,0.733-1.178,0.946
		C132.436,44.909,131.929,45.016,131.372,45.016z M131.372,37.178c-0.199,0-0.385,0.04-0.559,0.119
		c-0.173,0.08-0.328,0.227-0.462,0.439c-0.134,0.214-0.241,0.509-0.321,0.887s-0.119,0.859-0.119,1.445
		c0,0.587,0.04,1.073,0.119,1.46c0.08,0.388,0.187,0.693,0.321,0.917s0.289,0.38,0.462,0.469c0.173,0.09,0.36,0.135,0.559,0.135
		c0.198,0,0.385-0.045,0.559-0.135c0.174-0.089,0.328-0.245,0.462-0.469c0.134-0.224,0.241-0.529,0.32-0.917
		c0.079-0.387,0.119-0.873,0.119-1.46c0-0.586-0.04-1.067-0.119-1.445s-0.186-0.673-0.32-0.887
		c-0.134-0.213-0.289-0.359-0.462-0.439C131.757,37.218,131.57,37.178,131.372,37.178z M131.372,41.261
		c-0.348,0-0.634-0.109-0.857-0.328c-0.223-0.218-0.335-0.507-0.335-0.864s0.112-0.646,0.335-0.864
		c0.224-0.218,0.509-0.327,0.857-0.327c0.348,0,0.633,0.109,0.857,0.327c0.224,0.219,0.335,0.507,0.335,0.864
		s-0.112,0.646-0.335,0.864C132.005,41.151,131.72,41.261,131.372,41.261z"/>
	<path fill="#FFFFFF" d="M140.313,45.016c-0.557,0-1.063-0.106-1.521-0.32c-0.457-0.213-0.849-0.528-1.177-0.946
		c-0.328-0.417-0.582-0.934-0.76-1.55c-0.179-0.616-0.268-1.326-0.268-2.131s0.088-1.513,0.268-2.123
		c0.179-0.611,0.432-1.118,0.76-1.521c0.328-0.401,0.72-0.705,1.177-0.909c0.457-0.203,0.963-0.305,1.521-0.305
		c0.556,0,1.062,0.102,1.519,0.305c0.458,0.204,0.85,0.508,1.178,0.909c0.328,0.402,0.582,0.909,0.76,1.521
		c0.179,0.61,0.269,1.318,0.269,2.123s-0.09,1.515-0.269,2.131c-0.178,0.616-0.432,1.133-0.76,1.55
		c-0.328,0.418-0.72,0.733-1.178,0.946C141.376,44.909,140.87,45.016,140.313,45.016z M140.313,37.178
		c-0.199,0-0.385,0.04-0.559,0.119c-0.174,0.08-0.328,0.227-0.462,0.439c-0.135,0.214-0.241,0.509-0.32,0.887
		c-0.08,0.378-0.119,0.859-0.119,1.445c0,0.587,0.039,1.073,0.119,1.46c0.08,0.388,0.186,0.693,0.32,0.917
		c0.134,0.224,0.288,0.38,0.462,0.469c0.174,0.09,0.36,0.135,0.559,0.135c0.198,0,0.384-0.045,0.558-0.135
		c0.174-0.089,0.328-0.245,0.462-0.469c0.134-0.224,0.24-0.529,0.32-0.917c0.08-0.387,0.12-0.873,0.12-1.46
		c0-0.586-0.04-1.067-0.12-1.445s-0.186-0.673-0.32-0.887c-0.134-0.213-0.288-0.359-0.462-0.439
		C140.698,37.218,140.512,37.178,140.313,37.178z M140.313,41.261c-0.348,0-0.634-0.109-0.857-0.328
		c-0.224-0.218-0.336-0.507-0.336-0.864s0.112-0.646,0.336-0.864c0.223-0.218,0.509-0.327,0.857-0.327
		c0.348,0,0.633,0.109,0.856,0.327c0.224,0.219,0.335,0.507,0.335,0.864s-0.111,0.646-0.335,0.864
		C140.946,41.151,140.661,41.261,140.313,41.261z"/>
	<path fill="#FFFFFF" d="M152.197,42.78v2.057h-6.944V42.78h2.354v-4.888h-1.923v-1.579c0.567-0.109,1.048-0.233,1.446-0.373
		c0.397-0.139,0.785-0.322,1.162-0.551h1.878v7.391H152.197z"/>
	<path fill="#FFFFFF" d="M156.898,45.016c-0.556,0-1.062-0.106-1.52-0.32c-0.457-0.213-0.85-0.528-1.177-0.946
		c-0.329-0.417-0.582-0.934-0.76-1.55c-0.179-0.616-0.269-1.326-0.269-2.131s0.089-1.513,0.269-2.123
		c0.179-0.611,0.432-1.118,0.76-1.521c0.327-0.401,0.72-0.705,1.177-0.909c0.457-0.203,0.963-0.305,1.52-0.305
		c0.557,0,1.063,0.102,1.521,0.305c0.457,0.204,0.849,0.508,1.177,0.909c0.328,0.402,0.582,0.909,0.76,1.521
		c0.178,0.61,0.269,1.318,0.269,2.123s-0.09,1.515-0.269,2.131s-0.432,1.133-0.76,1.55c-0.328,0.418-0.721,0.733-1.177,0.946
		C157.961,44.909,157.455,45.016,156.898,45.016z M156.898,37.178c-0.199,0-0.384,0.04-0.559,0.119
		c-0.173,0.08-0.328,0.227-0.461,0.439c-0.134,0.214-0.241,0.509-0.321,0.887c-0.079,0.378-0.118,0.859-0.118,1.445
		c0,0.587,0.039,1.073,0.118,1.46c0.08,0.388,0.187,0.693,0.321,0.917c0.134,0.224,0.288,0.38,0.461,0.469
		c0.174,0.09,0.36,0.135,0.559,0.135c0.199,0,0.385-0.045,0.56-0.135c0.173-0.089,0.328-0.245,0.461-0.469
		c0.134-0.224,0.241-0.529,0.32-0.917c0.08-0.387,0.12-0.873,0.12-1.46c0-0.586-0.04-1.067-0.12-1.445
		c-0.079-0.378-0.186-0.673-0.32-0.887c-0.133-0.213-0.288-0.359-0.461-0.439C157.283,37.218,157.097,37.178,156.898,37.178z
		 M156.898,41.261c-0.347,0-0.633-0.109-0.856-0.328c-0.224-0.218-0.335-0.507-0.335-0.864s0.111-0.646,0.335-0.864
		c0.223-0.218,0.509-0.327,0.856-0.327c0.348,0,0.634,0.109,0.857,0.327c0.223,0.219,0.335,0.507,0.335,0.864
		s-0.112,0.646-0.335,0.864C157.532,41.151,157.246,41.261,156.898,41.261z"/>
	<path fill="#FFFFFF" d="M169.431,42.78v2.057h-6.945V42.78h2.355v-4.888h-1.922v-1.579c0.565-0.109,1.047-0.233,1.444-0.373
		c0.397-0.139,0.786-0.322,1.163-0.551h1.877v7.391H169.431z"/>
	<path fill="#FFFFFF" d="M178.372,42.78v2.057h-6.946V42.78h2.355v-4.888h-1.923v-1.579c0.566-0.109,1.048-0.233,1.446-0.373
		c0.397-0.139,0.785-0.322,1.162-0.551h1.879v7.391H178.372z"/>
	<path fill="#FFFFFF" d="M183.396,45.016c-0.557,0-1.063-0.106-1.521-0.32c-0.456-0.213-0.849-0.528-1.177-0.946
		c-0.327-0.417-0.58-0.934-0.76-1.55c-0.179-0.616-0.268-1.326-0.268-2.131s0.089-1.513,0.268-2.123
		c0.18-0.611,0.433-1.118,0.76-1.521c0.328-0.401,0.721-0.705,1.177-0.909c0.457-0.203,0.964-0.305,1.521-0.305
		c0.556,0,1.062,0.102,1.52,0.305c0.457,0.204,0.851,0.508,1.179,0.909c0.327,0.402,0.58,0.909,0.759,1.521
		c0.179,0.61,0.269,1.318,0.269,2.123s-0.09,1.515-0.269,2.131s-0.432,1.133-0.759,1.55c-0.328,0.418-0.722,0.733-1.179,0.946
		C184.459,44.909,183.952,45.016,183.396,45.016z M183.396,37.178c-0.198,0-0.386,0.04-0.559,0.119
		c-0.173,0.08-0.328,0.227-0.462,0.439c-0.135,0.214-0.241,0.509-0.32,0.887c-0.08,0.378-0.119,0.859-0.119,1.445
		c0,0.587,0.039,1.073,0.119,1.46c0.079,0.388,0.186,0.693,0.32,0.917c0.134,0.224,0.289,0.38,0.462,0.469
		c0.173,0.09,0.36,0.135,0.559,0.135c0.199,0,0.385-0.045,0.559-0.135c0.174-0.089,0.328-0.245,0.463-0.469
		c0.134-0.224,0.239-0.529,0.319-0.917c0.08-0.387,0.119-0.873,0.119-1.46c0-0.586-0.039-1.067-0.119-1.445
		s-0.186-0.673-0.319-0.887c-0.135-0.213-0.289-0.359-0.463-0.439C183.781,37.218,183.596,37.178,183.396,37.178z M183.396,41.261
		c-0.348,0-0.633-0.109-0.856-0.328c-0.224-0.218-0.336-0.507-0.336-0.864s0.112-0.646,0.336-0.864
		c0.224-0.218,0.509-0.327,0.856-0.327c0.349,0,0.633,0.109,0.857,0.327c0.224,0.219,0.335,0.507,0.335,0.864
		s-0.111,0.646-0.335,0.864C184.029,41.151,183.745,41.261,183.396,41.261z"/>
	<path fill="#FFFFFF" d="M195.93,42.78v2.057h-6.945V42.78h2.354v-4.888h-1.922v-1.579c0.566-0.109,1.048-0.233,1.445-0.373
		c0.396-0.139,0.785-0.322,1.162-0.551h1.877v7.391H195.93z"/>
	<path fill="#FFFFFF" d="M201.278,45.016c-0.558,0-1.063-0.106-1.521-0.32c-0.457-0.213-0.85-0.528-1.177-0.946
		c-0.327-0.417-0.581-0.934-0.76-1.55c-0.18-0.616-0.269-1.326-0.269-2.131s0.089-1.513,0.269-2.123
		c0.179-0.611,0.433-1.118,0.76-1.521c0.327-0.401,0.72-0.705,1.177-0.909c0.457-0.203,0.963-0.305,1.521-0.305
		c0.557,0,1.062,0.102,1.52,0.305c0.457,0.204,0.851,0.508,1.178,0.909c0.327,0.402,0.581,0.909,0.76,1.521
		c0.18,0.61,0.269,1.318,0.269,2.123s-0.089,1.515-0.269,2.131c-0.179,0.616-0.433,1.133-0.76,1.55
		c-0.327,0.418-0.721,0.733-1.178,0.946C202.341,44.909,201.835,45.016,201.278,45.016z M201.278,37.178
		c-0.199,0-0.385,0.04-0.56,0.119c-0.174,0.08-0.327,0.227-0.461,0.439c-0.134,0.214-0.241,0.509-0.321,0.887
		c-0.079,0.378-0.118,0.859-0.118,1.445c0,0.587,0.039,1.073,0.118,1.46c0.08,0.388,0.188,0.693,0.321,0.917s0.287,0.38,0.461,0.469
		c0.175,0.09,0.36,0.135,0.56,0.135s0.384-0.045,0.56-0.135c0.173-0.089,0.327-0.245,0.461-0.469s0.241-0.529,0.319-0.917
		c0.08-0.387,0.12-0.873,0.12-1.46c0-0.586-0.04-1.067-0.12-1.445c-0.078-0.378-0.186-0.673-0.319-0.887
		c-0.134-0.213-0.288-0.359-0.461-0.439C201.662,37.218,201.478,37.178,201.278,37.178z M201.278,41.261
		c-0.348,0-0.634-0.109-0.856-0.328c-0.224-0.218-0.336-0.507-0.336-0.864s0.112-0.646,0.336-0.864
		c0.223-0.218,0.509-0.327,0.856-0.327c0.347,0,0.634,0.109,0.856,0.327c0.224,0.219,0.335,0.507,0.335,0.864
		s-0.111,0.646-0.335,0.864C201.912,41.151,201.625,41.261,201.278,41.261z"/>
	<path fill="#FFFFFF" d="M213.811,42.78v2.057h-6.944V42.78h2.354v-4.888h-1.922v-1.579c0.566-0.109,1.049-0.233,1.446-0.373
		c0.396-0.139,0.784-0.322,1.162-0.551h1.878v7.391H213.811z"/>
	<path fill="#FFFFFF" d="M219.16,45.016c-0.557,0-1.063-0.106-1.52-0.32c-0.457-0.213-0.851-0.528-1.177-0.946
		c-0.329-0.417-0.582-0.934-0.762-1.55c-0.178-0.616-0.268-1.326-0.268-2.131s0.09-1.513,0.268-2.123
		c0.18-0.611,0.433-1.118,0.762-1.521c0.326-0.401,0.72-0.705,1.177-0.909c0.456-0.203,0.963-0.305,1.52-0.305
		c0.556,0,1.062,0.102,1.52,0.305c0.457,0.204,0.849,0.508,1.178,0.909c0.327,0.402,0.58,0.909,0.76,1.521
		c0.179,0.61,0.269,1.318,0.269,2.123s-0.09,1.515-0.269,2.131c-0.18,0.616-0.433,1.133-0.76,1.55
		c-0.329,0.418-0.721,0.733-1.178,0.946C220.223,44.909,219.716,45.016,219.16,45.016z M219.16,37.178
		c-0.199,0-0.386,0.04-0.56,0.119c-0.173,0.08-0.327,0.227-0.462,0.439c-0.134,0.214-0.239,0.509-0.32,0.887
		c-0.079,0.378-0.119,0.859-0.119,1.445c0,0.587,0.04,1.073,0.119,1.46c0.081,0.388,0.187,0.693,0.32,0.917
		c0.135,0.224,0.289,0.38,0.462,0.469c0.174,0.09,0.36,0.135,0.56,0.135c0.198,0,0.385-0.045,0.558-0.135
		c0.174-0.089,0.329-0.245,0.464-0.469c0.134-0.224,0.239-0.529,0.32-0.917c0.079-0.387,0.118-0.873,0.118-1.46
		c0-0.586-0.039-1.067-0.118-1.445c-0.081-0.378-0.187-0.673-0.32-0.887c-0.135-0.213-0.29-0.359-0.464-0.439
		C219.545,37.218,219.358,37.178,219.16,37.178z M219.16,41.261c-0.349,0-0.634-0.109-0.857-0.328
		c-0.224-0.218-0.335-0.507-0.335-0.864s0.111-0.646,0.335-0.864c0.224-0.218,0.509-0.327,0.857-0.327
		c0.348,0,0.633,0.109,0.856,0.327c0.224,0.219,0.336,0.507,0.336,0.864s-0.112,0.646-0.336,0.864
		C219.793,41.151,219.508,41.261,219.16,41.261z"/>
	<path fill="#FFFFFF" d="M231.691,42.78v2.057h-6.943V42.78h2.354v-4.888h-1.922v-1.579c0.565-0.109,1.048-0.233,1.444-0.373
		c0.398-0.139,0.785-0.322,1.162-0.551h1.879v7.391H231.691z"/>
	<g>
		<path fill="#FFFFFF" d="M222.458,52.225c0-0.558,0.106-1.063,0.32-1.521s0.529-0.85,0.946-1.178s0.933-0.581,1.55-0.76
			c0.616-0.179,1.325-0.268,2.131-0.268c0.805,0,1.512,0.089,2.124,0.268c0.61,0.179,1.116,0.432,1.519,0.76
			c0.403,0.328,0.706,0.721,0.909,1.178s0.307,0.963,0.307,1.521c0,0.556-0.104,1.062-0.307,1.52s-0.506,0.849-0.909,1.177
			c-0.402,0.328-0.908,0.581-1.519,0.761c-0.612,0.179-1.319,0.268-2.124,0.268c-0.806,0-1.515-0.089-2.131-0.268
			c-0.617-0.18-1.133-0.433-1.55-0.761s-0.732-0.72-0.946-1.177S222.458,52.78,222.458,52.225z M230.295,52.225
			c0-0.199-0.039-0.386-0.118-0.56s-0.227-0.328-0.439-0.462c-0.215-0.135-0.509-0.241-0.886-0.32
			c-0.379-0.08-0.861-0.119-1.446-0.119c-0.587,0-1.073,0.039-1.461,0.119c-0.387,0.079-0.692,0.186-0.916,0.32
			c-0.224,0.134-0.38,0.288-0.469,0.462c-0.09,0.174-0.135,0.36-0.135,0.56c0,0.198,0.045,0.384,0.135,0.558
			c0.089,0.174,0.245,0.328,0.469,0.462c0.224,0.135,0.529,0.241,0.916,0.32c0.388,0.08,0.874,0.12,1.461,0.12
			c0.585,0,1.067-0.04,1.446-0.12c0.377-0.079,0.671-0.186,0.886-0.32c0.213-0.134,0.36-0.288,0.439-0.462
			S230.295,52.423,230.295,52.225z M226.214,52.225c0-0.349,0.107-0.634,0.327-0.857c0.219-0.224,0.506-0.335,0.864-0.335
			c0.357,0,0.646,0.111,0.864,0.335c0.218,0.224,0.328,0.509,0.328,0.857c0,0.347-0.11,0.633-0.328,0.855
			c-0.219,0.225-0.507,0.336-0.864,0.336c-0.358,0-0.646-0.111-0.864-0.336C226.321,52.857,226.214,52.571,226.214,52.225z"/>
		<path fill="#FFFFFF" d="M224.692,64.757h-2.056v-6.945h2.056v2.354h4.888v-1.922h1.58c0.109,0.566,0.234,1.048,0.373,1.445
			s0.322,0.785,0.552,1.162v1.878h-7.393V64.757z"/>
		<path fill="#FFFFFF" d="M222.458,70.105c0-0.557,0.106-1.063,0.32-1.52c0.214-0.458,0.529-0.85,0.946-1.178s0.933-0.581,1.55-0.76
			c0.616-0.18,1.325-0.269,2.131-0.269c0.805,0,1.512,0.089,2.124,0.269c0.61,0.179,1.116,0.432,1.519,0.76
			c0.403,0.328,0.706,0.72,0.909,1.178c0.203,0.456,0.307,0.963,0.307,1.52s-0.104,1.062-0.307,1.52s-0.506,0.85-0.909,1.178
			c-0.402,0.328-0.908,0.581-1.519,0.76c-0.612,0.179-1.319,0.269-2.124,0.269c-0.806,0-1.515-0.09-2.131-0.269
			c-0.617-0.179-1.133-0.432-1.55-0.76s-0.732-0.721-0.946-1.178S222.458,70.662,222.458,70.105z M230.295,70.105
			c0-0.199-0.039-0.385-0.118-0.559s-0.227-0.328-0.439-0.462c-0.215-0.134-0.509-0.241-0.886-0.32
			c-0.379-0.08-0.861-0.12-1.446-0.12c-0.587,0-1.073,0.04-1.461,0.12c-0.387,0.079-0.692,0.187-0.916,0.32s-0.38,0.288-0.469,0.462
			c-0.09,0.174-0.135,0.359-0.135,0.559c0,0.198,0.045,0.385,0.135,0.56c0.089,0.173,0.245,0.327,0.469,0.462
			c0.224,0.134,0.529,0.24,0.916,0.319c0.388,0.08,0.874,0.12,1.461,0.12c0.585,0,1.067-0.04,1.446-0.12
			c0.377-0.079,0.671-0.186,0.886-0.319c0.213-0.135,0.36-0.289,0.439-0.462C230.256,70.49,230.295,70.304,230.295,70.105z
			 M226.214,70.105c0-0.348,0.107-0.633,0.327-0.857c0.219-0.223,0.506-0.335,0.864-0.335c0.357,0,0.646,0.112,0.864,0.335
			c0.218,0.225,0.328,0.51,0.328,0.857s-0.11,0.633-0.328,0.856c-0.219,0.224-0.507,0.336-0.864,0.336
			c-0.358,0-0.646-0.112-0.864-0.336C226.321,70.738,226.214,70.453,226.214,70.105z"/>
		<path fill="#FFFFFF" d="M224.692,82.638h-2.056v-6.944h2.056v2.354h4.888v-1.922h1.58c0.109,0.565,0.234,1.048,0.373,1.445
			c0.139,0.396,0.322,0.785,0.552,1.162v1.878h-7.393V82.638z"/>
		<path fill="#FFFFFF" d="M222.458,87.987c0-0.557,0.106-1.063,0.32-1.521c0.214-0.456,0.529-0.85,0.946-1.177
			c0.417-0.328,0.933-0.581,1.55-0.76c0.616-0.179,1.325-0.269,2.131-0.269c0.805,0,1.512,0.09,2.124,0.269
			c0.61,0.179,1.116,0.432,1.519,0.76c0.403,0.327,0.706,0.721,0.909,1.177c0.203,0.457,0.307,0.964,0.307,1.521
			c0,0.556-0.104,1.062-0.307,1.52s-0.506,0.85-0.909,1.178c-0.402,0.327-0.908,0.581-1.519,0.76
			c-0.612,0.179-1.319,0.269-2.124,0.269c-0.806,0-1.515-0.09-2.131-0.269c-0.617-0.179-1.133-0.433-1.55-0.76
			c-0.417-0.328-0.732-0.721-0.946-1.178S222.458,88.543,222.458,87.987z M230.295,87.987c0-0.199-0.039-0.385-0.118-0.56
			c-0.079-0.173-0.227-0.328-0.439-0.461c-0.215-0.135-0.509-0.241-0.886-0.321c-0.379-0.079-0.861-0.119-1.446-0.119
			c-0.587,0-1.073,0.04-1.461,0.119c-0.387,0.08-0.692,0.187-0.916,0.321c-0.224,0.133-0.38,0.288-0.469,0.461
			c-0.09,0.175-0.135,0.36-0.135,0.56c0,0.198,0.045,0.385,0.135,0.559c0.089,0.174,0.245,0.328,0.469,0.462s0.529,0.241,0.916,0.32
			c0.388,0.079,0.874,0.119,1.461,0.119c0.585,0,1.067-0.04,1.446-0.119c0.377-0.079,0.671-0.187,0.886-0.32
			c0.213-0.134,0.36-0.288,0.439-0.462S230.295,88.186,230.295,87.987z M226.214,87.987c0-0.349,0.107-0.634,0.327-0.857
			c0.219-0.223,0.506-0.335,0.864-0.335c0.357,0,0.646,0.112,0.864,0.335c0.218,0.224,0.328,0.509,0.328,0.857
			c0,0.348-0.11,0.633-0.328,0.856c-0.219,0.224-0.507,0.336-0.864,0.336c-0.358,0-0.646-0.112-0.864-0.336
			C226.321,88.62,226.214,88.335,226.214,87.987z"/>
		<path fill="#FFFFFF" d="M224.692,100.52h-2.056v-6.944h2.056v2.354h4.888v-1.923h1.58c0.109,0.566,0.234,1.049,0.373,1.445
			c0.139,0.397,0.322,0.785,0.552,1.163v1.877h-7.393V100.52z"/>
		<path fill="#FFFFFF" d="M224.692,109.46h-2.056v-6.944h2.056v2.354h4.888v-1.922h1.58c0.109,0.566,0.234,1.048,0.373,1.445
			c0.139,0.396,0.322,0.784,0.552,1.162v1.878h-7.393V109.46z"/>
		<path fill="#FFFFFF" d="M224.692,118.4h-2.056v-6.944h2.056v2.354h4.888v-1.922h1.58c0.109,0.566,0.234,1.048,0.373,1.446
			c0.139,0.396,0.322,0.784,0.552,1.161v1.878h-7.393V118.4z"/>
		<path fill="#FFFFFF" d="M224.692,127.342h-2.056v-6.944h2.056v2.354h4.888v-1.923h1.58c0.109,0.566,0.234,1.049,0.373,1.446
			c0.139,0.396,0.322,0.784,0.552,1.161v1.878h-7.393V127.342z"/>
	</g>
	<g>
		<path fill="#FFFFFF" d="M137.184,123.42c0,0.557-0.107,1.062-0.32,1.52c-0.214,0.457-0.529,0.85-0.947,1.178
			c-0.417,0.328-0.934,0.581-1.549,0.76c-0.616,0.179-1.326,0.269-2.131,0.269s-1.513-0.09-2.124-0.269
			c-0.611-0.179-1.118-0.432-1.52-0.76c-0.402-0.328-0.706-0.721-0.91-1.178c-0.203-0.457-0.305-0.963-0.305-1.52
			c0-0.556,0.102-1.062,0.305-1.521c0.204-0.456,0.507-0.849,0.91-1.177c0.402-0.327,0.909-0.581,1.52-0.76
			c0.61-0.179,1.319-0.269,2.124-0.269s1.515,0.09,2.131,0.269c0.616,0.179,1.133,0.433,1.549,0.76
			c0.418,0.328,0.733,0.721,0.947,1.177C137.077,122.357,137.184,122.864,137.184,123.42z M129.346,123.42
			c0,0.199,0.04,0.386,0.119,0.559c0.08,0.174,0.226,0.328,0.44,0.462c0.213,0.135,0.509,0.241,0.887,0.32
			c0.377,0.08,0.859,0.12,1.445,0.12s1.073-0.04,1.46-0.12c0.388-0.079,0.693-0.186,0.917-0.32c0.224-0.134,0.38-0.288,0.469-0.462
			c0.09-0.173,0.134-0.359,0.134-0.559c0-0.198-0.044-0.385-0.134-0.56c-0.089-0.173-0.246-0.327-0.469-0.462
			c-0.224-0.134-0.529-0.24-0.917-0.319c-0.387-0.08-0.874-0.119-1.46-0.119s-1.068,0.039-1.445,0.119
			c-0.377,0.079-0.673,0.186-0.887,0.319c-0.214,0.135-0.36,0.289-0.44,0.462C129.385,123.035,129.346,123.222,129.346,123.42z
			 M133.429,123.42c0,0.348-0.109,0.634-0.328,0.857c-0.219,0.223-0.507,0.335-0.864,0.335c-0.358,0-0.646-0.112-0.864-0.335
			c-0.219-0.224-0.328-0.51-0.328-0.857s0.109-0.634,0.328-0.856c0.218-0.224,0.506-0.336,0.864-0.336
			c0.357,0,0.646,0.112,0.864,0.336C133.319,122.786,133.429,123.072,133.429,123.42z"/>
		<path fill="#FFFFFF" d="M134.949,110.888h2.057v6.944h-2.057v-2.354h-4.888v1.922h-1.579c-0.109-0.566-0.233-1.048-0.373-1.445
			s-0.322-0.785-0.551-1.162v-1.878h7.391V110.888z"/>
		<path fill="#FFFFFF" d="M137.184,105.539c0,0.556-0.107,1.062-0.32,1.52c-0.214,0.457-0.529,0.849-0.947,1.177
			c-0.417,0.328-0.934,0.581-1.549,0.76c-0.616,0.18-1.326,0.269-2.131,0.269s-1.513-0.089-2.124-0.269
			c-0.611-0.179-1.118-0.432-1.52-0.76c-0.402-0.328-0.706-0.72-0.91-1.177c-0.203-0.457-0.305-0.964-0.305-1.52
			c0-0.558,0.102-1.063,0.305-1.521c0.204-0.457,0.507-0.85,0.91-1.178c0.402-0.327,0.909-0.581,1.52-0.76
			c0.61-0.179,1.319-0.269,2.124-0.269s1.515,0.09,2.131,0.269c0.616,0.179,1.133,0.433,1.549,0.76
			c0.418,0.328,0.733,0.721,0.947,1.178C137.077,104.476,137.184,104.981,137.184,105.539z M129.346,105.539
			c0,0.198,0.04,0.384,0.119,0.559c0.08,0.173,0.226,0.327,0.44,0.462c0.213,0.134,0.509,0.24,0.887,0.32
			c0.377,0.079,0.859,0.118,1.445,0.118s1.073-0.039,1.46-0.118c0.388-0.08,0.693-0.187,0.917-0.32
			c0.224-0.135,0.38-0.289,0.469-0.462c0.09-0.175,0.134-0.36,0.134-0.559c0-0.199-0.044-0.386-0.134-0.56
			c-0.089-0.174-0.246-0.328-0.469-0.462s-0.529-0.24-0.917-0.32c-0.387-0.079-0.874-0.119-1.46-0.119s-1.068,0.04-1.445,0.119
			c-0.377,0.08-0.673,0.187-0.887,0.32c-0.214,0.134-0.36,0.288-0.44,0.462S129.346,105.34,129.346,105.539z M133.429,105.539
			c0,0.347-0.109,0.633-0.328,0.855c-0.219,0.225-0.507,0.336-0.864,0.336c-0.358,0-0.646-0.111-0.864-0.336
			c-0.219-0.223-0.328-0.509-0.328-0.855c0-0.348,0.109-0.634,0.328-0.857c0.218-0.224,0.506-0.335,0.864-0.335
			c0.357,0,0.646,0.111,0.864,0.335C133.319,104.905,133.429,105.191,133.429,105.539z"/>
		<path fill="#FFFFFF" d="M134.949,93.006h2.057v6.945h-2.057v-2.354h-4.888v1.922h-1.579c-0.109-0.566-0.233-1.049-0.373-1.445
			c-0.139-0.398-0.322-0.785-0.551-1.163v-1.877h7.391V93.006z"/>
		<path fill="#FFFFFF" d="M137.184,87.656c0,0.557-0.107,1.063-0.32,1.521c-0.214,0.457-0.529,0.85-0.947,1.177
			c-0.417,0.328-0.934,0.581-1.549,0.761c-0.616,0.179-1.326,0.268-2.131,0.268s-1.513-0.089-2.124-0.268
			c-0.611-0.18-1.118-0.433-1.52-0.761c-0.402-0.327-0.706-0.72-0.91-1.177c-0.203-0.457-0.305-0.964-0.305-1.521
			c0-0.556,0.102-1.062,0.305-1.52c0.204-0.457,0.507-0.85,0.91-1.178c0.402-0.327,0.909-0.581,1.52-0.759
			c0.61-0.179,1.319-0.269,2.124-0.269s1.515,0.09,2.131,0.269c0.616,0.178,1.133,0.432,1.549,0.759
			c0.418,0.328,0.733,0.721,0.947,1.178C137.077,86.594,137.184,87.101,137.184,87.656z M129.346,87.656
			c0,0.199,0.04,0.386,0.119,0.56s0.226,0.328,0.44,0.462c0.213,0.134,0.509,0.24,0.887,0.32c0.377,0.079,0.859,0.119,1.445,0.119
			s1.073-0.04,1.46-0.119c0.388-0.08,0.693-0.187,0.917-0.32s0.38-0.288,0.469-0.462c0.09-0.174,0.134-0.36,0.134-0.56
			c0-0.198-0.044-0.385-0.134-0.559c-0.089-0.173-0.246-0.327-0.469-0.462c-0.224-0.134-0.529-0.241-0.917-0.32
			c-0.387-0.079-0.874-0.119-1.46-0.119s-1.068,0.04-1.445,0.119s-0.673,0.187-0.887,0.32c-0.214,0.135-0.36,0.289-0.44,0.462
			C129.385,87.271,129.346,87.458,129.346,87.656z M133.429,87.656c0,0.349-0.109,0.634-0.328,0.857
			c-0.219,0.224-0.507,0.335-0.864,0.335c-0.358,0-0.646-0.111-0.864-0.335c-0.219-0.224-0.328-0.509-0.328-0.857
			c0-0.348,0.109-0.633,0.328-0.856c0.218-0.224,0.506-0.335,0.864-0.335c0.357,0,0.646,0.111,0.864,0.335
			C133.319,87.023,133.429,87.309,133.429,87.656z"/>
		<path fill="#FFFFFF" d="M134.949,75.125h2.057v6.943h-2.057v-2.354h-4.888v1.922h-1.579c-0.109-0.566-0.233-1.048-0.373-1.445
			s-0.322-0.785-0.551-1.162v-1.878h7.391V75.125z"/>
		<path fill="#FFFFFF" d="M137.184,69.775c0,0.557-0.107,1.063-0.32,1.52c-0.214,0.457-0.529,0.85-0.947,1.178
			c-0.417,0.327-0.934,0.581-1.549,0.76c-0.616,0.179-1.326,0.268-2.131,0.268s-1.513-0.089-2.124-0.268
			c-0.611-0.179-1.118-0.433-1.52-0.76c-0.402-0.328-0.706-0.721-0.91-1.178c-0.203-0.456-0.305-0.963-0.305-1.52
			s0.102-1.063,0.305-1.52c0.204-0.458,0.507-0.85,0.91-1.178c0.402-0.328,0.909-0.582,1.52-0.76c0.61-0.18,1.319-0.269,2.124-0.269
			s1.515,0.089,2.131,0.269c0.616,0.178,1.133,0.432,1.549,0.76c0.418,0.328,0.733,0.72,0.947,1.178
			C137.077,68.712,137.184,69.219,137.184,69.775z M129.346,69.775c0,0.198,0.04,0.385,0.119,0.559s0.226,0.328,0.44,0.462
			c0.213,0.134,0.509,0.241,0.887,0.32c0.377,0.08,0.859,0.119,1.445,0.119s1.073-0.039,1.46-0.119
			c0.388-0.079,0.693-0.187,0.917-0.32s0.38-0.288,0.469-0.462c0.09-0.174,0.134-0.36,0.134-0.559c0-0.199-0.044-0.385-0.134-0.559
			c-0.089-0.174-0.246-0.328-0.469-0.462s-0.529-0.241-0.917-0.32c-0.387-0.08-0.874-0.12-1.46-0.12s-1.068,0.04-1.445,0.12
			c-0.377,0.079-0.673,0.187-0.887,0.32c-0.214,0.134-0.36,0.288-0.44,0.462S129.346,69.576,129.346,69.775z M133.429,69.775
			c0,0.348-0.109,0.633-0.328,0.856c-0.219,0.224-0.507,0.336-0.864,0.336c-0.358,0-0.646-0.112-0.864-0.336
			c-0.219-0.224-0.328-0.509-0.328-0.856s0.109-0.634,0.328-0.856c0.218-0.224,0.506-0.335,0.864-0.335
			c0.357,0,0.646,0.111,0.864,0.335C133.319,69.142,133.429,69.428,133.429,69.775z"/>
		<path fill="#FFFFFF" d="M134.949,57.243h2.057v6.943h-2.057v-2.354h-4.888v1.922h-1.579c-0.109-0.566-0.233-1.048-0.373-1.445
			s-0.322-0.784-0.551-1.162V59.27h7.391V57.243z"/>
		<path fill="#FFFFFF" d="M137.184,51.894c0,0.557-0.107,1.063-0.32,1.52c-0.214,0.458-0.529,0.85-0.947,1.178
			c-0.417,0.328-0.934,0.581-1.549,0.76c-0.616,0.18-1.326,0.269-2.131,0.269s-1.513-0.089-2.124-0.269
			c-0.611-0.179-1.118-0.432-1.52-0.76c-0.402-0.328-0.706-0.72-0.91-1.178c-0.203-0.456-0.305-0.963-0.305-1.52
			c0-0.556,0.102-1.062,0.305-1.52c0.204-0.457,0.507-0.85,0.91-1.178c0.402-0.328,0.909-0.581,1.52-0.76
			c0.61-0.179,1.319-0.269,2.124-0.269s1.515,0.09,2.131,0.269c0.616,0.179,1.133,0.432,1.549,0.76
			c0.418,0.328,0.733,0.721,0.947,1.178C137.077,50.831,137.184,51.338,137.184,51.894z M129.346,51.894
			c0,0.199,0.04,0.386,0.119,0.559c0.08,0.174,0.226,0.328,0.44,0.462c0.213,0.135,0.509,0.241,0.887,0.32
			c0.377,0.08,0.859,0.12,1.445,0.12s1.073-0.04,1.46-0.12c0.388-0.079,0.693-0.186,0.917-0.32c0.224-0.134,0.38-0.288,0.469-0.462
			c0.09-0.173,0.134-0.359,0.134-0.559c0-0.198-0.044-0.385-0.134-0.559c-0.089-0.174-0.246-0.328-0.469-0.462
			c-0.224-0.135-0.529-0.241-0.917-0.32c-0.387-0.08-0.874-0.119-1.46-0.119s-1.068,0.039-1.445,0.119
			c-0.377,0.079-0.673,0.186-0.887,0.32c-0.214,0.134-0.36,0.288-0.44,0.462S129.346,51.695,129.346,51.894z M133.429,51.894
			c0,0.349-0.109,0.634-0.328,0.857c-0.219,0.224-0.507,0.335-0.864,0.335c-0.358,0-0.646-0.111-0.864-0.335
			c-0.219-0.224-0.328-0.509-0.328-0.857c0-0.348,0.109-0.633,0.328-0.856c0.218-0.224,0.506-0.335,0.864-0.335
			c0.357,0,0.646,0.111,0.864,0.335C133.319,51.261,133.429,51.546,133.429,51.894z"/>
	</g>
	<g>
		<path fill="#FFFFFF" d="M134.658,137.889v2.057h-6.944v-2.057h2.355v-4.888h-1.923v-1.58c0.566-0.108,1.048-0.232,1.445-0.372
			c0.398-0.14,0.785-0.323,1.162-0.552h1.878v7.392H134.658z"/>
		<path fill="#FFFFFF" d="M140.008,140.124c-0.557,0-1.062-0.107-1.521-0.321c-0.457-0.213-0.849-0.528-1.177-0.945
			c-0.328-0.418-0.581-0.935-0.76-1.55c-0.179-0.616-0.269-1.326-0.269-2.131s0.089-1.513,0.269-2.124s0.432-1.117,0.76-1.52
			c0.328-0.402,0.72-0.705,1.177-0.909c0.458-0.204,0.963-0.306,1.521-0.306c0.556,0,1.062,0.102,1.52,0.306s0.85,0.507,1.178,0.909
			c0.327,0.402,0.581,0.908,0.76,1.52s0.269,1.319,0.269,2.124s-0.09,1.515-0.269,2.131c-0.179,0.615-0.433,1.132-0.76,1.55
			c-0.328,0.417-0.721,0.732-1.178,0.945C141.07,140.017,140.563,140.124,140.008,140.124z M140.008,132.285
			c-0.2,0-0.385,0.04-0.559,0.12c-0.174,0.079-0.328,0.226-0.462,0.439c-0.134,0.213-0.24,0.509-0.32,0.887
			c-0.08,0.377-0.118,0.859-0.118,1.445s0.039,1.072,0.118,1.46c0.08,0.388,0.186,0.692,0.32,0.916s0.289,0.38,0.462,0.47
			s0.359,0.134,0.559,0.134c0.199,0,0.384-0.044,0.559-0.134c0.173-0.09,0.328-0.246,0.462-0.47s0.24-0.528,0.32-0.916
			s0.12-0.874,0.12-1.46s-0.04-1.068-0.12-1.445c-0.08-0.378-0.186-0.674-0.32-0.887c-0.134-0.214-0.289-0.36-0.462-0.439
			C140.392,132.325,140.207,132.285,140.008,132.285z M140.008,136.368c-0.349,0-0.633-0.109-0.857-0.327
			c-0.223-0.219-0.335-0.507-0.335-0.864c0-0.358,0.112-0.646,0.335-0.864c0.224-0.219,0.509-0.329,0.857-0.329
			c0.348,0,0.634,0.11,0.856,0.329c0.224,0.218,0.335,0.506,0.335,0.864c0,0.357-0.111,0.646-0.335,0.864
			C140.642,136.259,140.355,136.368,140.008,136.368z"/>
		<path fill="#FFFFFF" d="M152.54,137.889v2.057h-6.944v-2.057h2.355v-4.888h-1.922v-1.58c0.566-0.108,1.048-0.232,1.446-0.372
			c0.397-0.14,0.784-0.323,1.162-0.552h1.877v7.392H152.54z"/>
		<path fill="#FFFFFF" d="M157.89,140.124c-0.557,0-1.063-0.107-1.521-0.321c-0.457-0.213-0.849-0.528-1.177-0.945
			c-0.328-0.418-0.581-0.935-0.76-1.55c-0.178-0.616-0.268-1.326-0.268-2.131s0.09-1.513,0.268-2.124
			c0.179-0.611,0.433-1.117,0.76-1.52c0.328-0.402,0.72-0.705,1.177-0.909c0.458-0.204,0.964-0.306,1.521-0.306
			c0.556,0,1.062,0.102,1.52,0.306c0.456,0.204,0.85,0.507,1.177,0.909c0.328,0.402,0.581,0.908,0.76,1.52
			c0.179,0.611,0.269,1.319,0.269,2.124s-0.089,1.515-0.269,2.131c-0.179,0.615-0.432,1.132-0.76,1.55
			c-0.327,0.417-0.721,0.732-1.177,0.945C158.952,140.017,158.446,140.124,157.89,140.124z M157.89,132.285
			c-0.2,0-0.386,0.04-0.56,0.12c-0.174,0.079-0.328,0.226-0.462,0.439c-0.133,0.213-0.24,0.509-0.32,0.887
			c-0.079,0.377-0.119,0.859-0.119,1.445s0.04,1.072,0.119,1.46c0.08,0.388,0.187,0.692,0.32,0.916
			c0.134,0.224,0.288,0.38,0.462,0.47s0.36,0.134,0.56,0.134c0.198,0,0.384-0.044,0.559-0.134c0.173-0.09,0.328-0.246,0.461-0.47
			c0.135-0.224,0.241-0.528,0.321-0.916c0.079-0.388,0.119-0.874,0.119-1.46s-0.041-1.068-0.119-1.445
			c-0.08-0.378-0.186-0.674-0.321-0.887c-0.133-0.214-0.288-0.36-0.461-0.439C158.274,132.325,158.088,132.285,157.89,132.285z
			 M157.89,136.368c-0.348,0-0.634-0.109-0.857-0.327c-0.224-0.219-0.336-0.507-0.336-0.864c0-0.358,0.112-0.646,0.336-0.864
			c0.223-0.219,0.509-0.329,0.857-0.329c0.347,0,0.633,0.11,0.856,0.329c0.224,0.218,0.336,0.506,0.336,0.864
			c0,0.357-0.112,0.646-0.336,0.864C158.522,136.259,158.236,136.368,157.89,136.368z"/>
		<path fill="#FFFFFF" d="M166.83,140.124c-0.557,0-1.063-0.107-1.52-0.321c-0.457-0.213-0.849-0.528-1.177-0.945
			c-0.328-0.418-0.581-0.935-0.76-1.55c-0.178-0.616-0.268-1.326-0.268-2.131s0.09-1.513,0.268-2.124
			c0.179-0.611,0.432-1.117,0.76-1.52s0.72-0.705,1.177-0.909c0.457-0.204,0.963-0.306,1.52-0.306c0.556,0,1.063,0.102,1.52,0.306
			c0.458,0.204,0.85,0.507,1.177,0.909c0.328,0.402,0.582,0.908,0.76,1.52c0.18,0.611,0.268,1.319,0.268,2.124
			s-0.088,1.515-0.268,2.131c-0.178,0.615-0.432,1.132-0.76,1.55c-0.328,0.417-0.72,0.732-1.177,0.945
			C167.893,140.017,167.386,140.124,166.83,140.124z M166.83,132.285c-0.199,0-0.386,0.04-0.559,0.12
			c-0.174,0.079-0.328,0.226-0.462,0.439c-0.134,0.213-0.241,0.509-0.32,0.887c-0.08,0.377-0.12,0.859-0.12,1.445
			s0.04,1.072,0.12,1.46c0.079,0.388,0.186,0.692,0.32,0.916s0.288,0.38,0.462,0.47c0.173,0.09,0.36,0.134,0.559,0.134
			c0.198,0,0.385-0.044,0.558-0.134c0.174-0.09,0.328-0.246,0.462-0.47c0.135-0.224,0.241-0.528,0.321-0.916s0.119-0.874,0.119-1.46
			s-0.04-1.068-0.119-1.445c-0.08-0.378-0.186-0.674-0.321-0.887c-0.134-0.214-0.288-0.36-0.462-0.439
			C167.215,132.325,167.028,132.285,166.83,132.285z M166.83,136.368c-0.349,0-0.634-0.109-0.857-0.327
			c-0.224-0.219-0.335-0.507-0.335-0.864c0-0.358,0.111-0.646,0.335-0.864c0.223-0.219,0.508-0.329,0.857-0.329
			c0.348,0,0.633,0.11,0.856,0.329c0.224,0.218,0.336,0.506,0.336,0.864c0,0.357-0.112,0.646-0.336,0.864
			C167.463,136.259,167.178,136.368,166.83,136.368z"/>
		<path fill="#FFFFFF" d="M179.362,137.889v2.057h-6.944v-2.057h2.355v-4.888h-1.924v-1.58c0.567-0.108,1.048-0.232,1.446-0.372
			s0.785-0.323,1.162-0.552h1.879v7.392H179.362z"/>
		<path fill="#FFFFFF" d="M184.712,140.124c-0.556,0-1.062-0.107-1.52-0.321c-0.458-0.213-0.851-0.528-1.179-0.945
			c-0.327-0.418-0.581-0.935-0.76-1.55c-0.18-0.616-0.268-1.326-0.268-2.131s0.088-1.513,0.268-2.124
			c0.179-0.611,0.433-1.117,0.76-1.52c0.328-0.402,0.721-0.705,1.179-0.909c0.457-0.204,0.964-0.306,1.52-0.306
			c0.557,0,1.062,0.102,1.52,0.306c0.456,0.204,0.85,0.507,1.177,0.909c0.328,0.402,0.581,0.908,0.761,1.52
			c0.179,0.611,0.269,1.319,0.269,2.124s-0.09,1.515-0.269,2.131c-0.18,0.615-0.433,1.132-0.761,1.55
			c-0.327,0.417-0.721,0.732-1.177,0.945C185.774,140.017,185.269,140.124,184.712,140.124z M184.712,132.285
			c-0.199,0-0.385,0.04-0.559,0.12c-0.175,0.079-0.328,0.226-0.463,0.439c-0.134,0.213-0.241,0.509-0.32,0.887
			c-0.079,0.377-0.118,0.859-0.118,1.445s0.039,1.072,0.118,1.46s0.187,0.692,0.32,0.916c0.135,0.224,0.288,0.38,0.463,0.47
			c0.174,0.09,0.359,0.134,0.559,0.134c0.198,0,0.385-0.044,0.559-0.134c0.173-0.09,0.327-0.246,0.461-0.47
			c0.135-0.224,0.241-0.528,0.32-0.916c0.081-0.388,0.121-0.874,0.121-1.46s-0.04-1.068-0.121-1.445
			c-0.079-0.378-0.186-0.674-0.32-0.887c-0.134-0.214-0.288-0.36-0.461-0.439C185.097,132.325,184.91,132.285,184.712,132.285z
			 M184.712,136.368c-0.348,0-0.633-0.109-0.856-0.327c-0.225-0.219-0.336-0.507-0.336-0.864c0-0.358,0.111-0.646,0.336-0.864
			c0.224-0.219,0.509-0.329,0.856-0.329s0.633,0.11,0.857,0.329c0.222,0.218,0.333,0.506,0.333,0.864
			c0,0.357-0.111,0.646-0.333,0.864C185.345,136.259,185.06,136.368,184.712,136.368z"/>
		<path fill="#FFFFFF" d="M197.244,137.889v2.057H190.3v-2.057h2.355v-4.888h-1.925v-1.58c0.567-0.108,1.049-0.232,1.446-0.372
			s0.785-0.323,1.163-0.552h1.877v7.392H197.244z"/>
		<path fill="#FFFFFF" d="M206.184,137.889v2.057h-6.943v-2.057h2.354v-4.888h-1.922v-1.58c0.566-0.108,1.047-0.232,1.444-0.372
			s0.786-0.323,1.163-0.552h1.877v7.392H206.184z"/>
		<path fill="#FFFFFF" d="M211.534,140.124c-0.558,0-1.063-0.107-1.521-0.321c-0.457-0.213-0.849-0.528-1.177-0.945
			c-0.327-0.418-0.581-0.935-0.76-1.55c-0.179-0.616-0.269-1.326-0.269-2.131s0.09-1.513,0.269-2.124s0.433-1.117,0.76-1.52
			c0.328-0.402,0.72-0.705,1.177-0.909s0.963-0.306,1.521-0.306c0.557,0,1.062,0.102,1.521,0.306
			c0.456,0.204,0.849,0.507,1.177,0.909s0.581,0.908,0.759,1.52c0.18,0.611,0.27,1.319,0.27,2.124s-0.09,1.515-0.27,2.131
			c-0.178,0.615-0.431,1.132-0.759,1.55c-0.328,0.417-0.721,0.732-1.177,0.945C212.596,140.017,212.091,140.124,211.534,140.124z
			 M211.534,132.285c-0.199,0-0.385,0.04-0.56,0.12c-0.174,0.079-0.327,0.226-0.462,0.439c-0.133,0.213-0.241,0.509-0.319,0.887
			c-0.08,0.377-0.119,0.859-0.119,1.445s0.039,1.072,0.119,1.46c0.078,0.388,0.187,0.692,0.319,0.916
			c0.135,0.224,0.288,0.38,0.462,0.47c0.175,0.09,0.36,0.134,0.56,0.134s0.384-0.044,0.559-0.134c0.173-0.09,0.328-0.246,0.462-0.47
			s0.24-0.528,0.32-0.916c0.078-0.388,0.12-0.874,0.12-1.46s-0.042-1.068-0.12-1.445c-0.08-0.378-0.187-0.674-0.32-0.887
			c-0.134-0.214-0.289-0.36-0.462-0.439C211.918,132.325,211.733,132.285,211.534,132.285z M211.534,136.368
			c-0.349,0-0.634-0.109-0.856-0.327c-0.224-0.219-0.336-0.507-0.336-0.864c0-0.358,0.112-0.646,0.336-0.864
			c0.223-0.219,0.508-0.329,0.856-0.329c0.347,0,0.634,0.11,0.857,0.329c0.223,0.218,0.334,0.506,0.334,0.864
			c0,0.357-0.111,0.646-0.334,0.864C212.168,136.259,211.881,136.368,211.534,136.368z"/>
		<path fill="#FFFFFF" d="M220.475,140.124c-0.557,0-1.063-0.107-1.519-0.321c-0.458-0.213-0.851-0.528-1.179-0.945
			c-0.327-0.418-0.581-0.935-0.759-1.55c-0.18-0.616-0.269-1.326-0.269-2.131s0.089-1.513,0.269-2.124
			c0.178-0.611,0.432-1.117,0.759-1.52c0.328-0.402,0.721-0.705,1.179-0.909c0.455-0.204,0.962-0.306,1.519-0.306
			s1.062,0.102,1.521,0.306c0.457,0.204,0.849,0.507,1.177,0.909s0.58,0.908,0.761,1.52c0.178,0.611,0.268,1.319,0.268,2.124
			s-0.09,1.515-0.268,2.131c-0.181,0.615-0.433,1.132-0.761,1.55c-0.328,0.417-0.72,0.732-1.177,0.945
			C221.537,140.017,221.031,140.124,220.475,140.124z M220.475,132.285c-0.198,0-0.385,0.04-0.559,0.12
			c-0.174,0.079-0.328,0.226-0.462,0.439c-0.134,0.213-0.241,0.509-0.32,0.887c-0.079,0.377-0.12,0.859-0.12,1.445
			s0.041,1.072,0.12,1.46s0.187,0.692,0.32,0.916s0.288,0.38,0.462,0.47s0.36,0.134,0.559,0.134c0.199,0,0.385-0.044,0.56-0.134
			c0.173-0.09,0.327-0.246,0.461-0.47c0.135-0.224,0.24-0.528,0.32-0.916s0.12-0.874,0.12-1.46s-0.04-1.068-0.12-1.445
			c-0.08-0.378-0.186-0.674-0.32-0.887c-0.134-0.214-0.288-0.36-0.461-0.439C220.859,132.325,220.674,132.285,220.475,132.285z
			 M220.475,136.368c-0.348,0-0.633-0.109-0.856-0.327c-0.224-0.219-0.336-0.507-0.336-0.864c0-0.358,0.112-0.646,0.336-0.864
			c0.224-0.219,0.509-0.329,0.856-0.329s0.634,0.11,0.856,0.329c0.225,0.218,0.336,0.506,0.336,0.864
			c0,0.357-0.111,0.646-0.336,0.864C221.108,136.259,220.822,136.368,220.475,136.368z"/>
		<path fill="#FFFFFF" d="M233.007,137.889v2.057h-6.944v-2.057h2.355v-4.888h-1.923v-1.58c0.565-0.108,1.047-0.232,1.444-0.372
			s0.785-0.323,1.162-0.552h1.879v7.392H233.007z"/>
	</g>
	<g>
		<path fill="#FFFFFF" d="M84.697,171.637v2.056h-6.944v-2.056h2.354v-4.889h-1.922v-1.579c0.566-0.109,1.048-0.233,1.445-0.373
			c0.397-0.139,0.784-0.323,1.162-0.552h1.878v7.393H84.697z"/>
		<path fill="#FFFFFF" d="M90.047,173.871c-0.557,0-1.063-0.106-1.52-0.32c-0.457-0.213-0.85-0.529-1.177-0.946
			c-0.328-0.417-0.582-0.934-0.761-1.55c-0.179-0.616-0.268-1.326-0.268-2.131s0.089-1.513,0.268-2.124
			c0.179-0.61,0.433-1.116,0.761-1.52c0.327-0.402,0.72-0.705,1.177-0.909c0.457-0.203,0.963-0.305,1.52-0.305
			c0.556,0,1.062,0.102,1.52,0.305c0.457,0.204,0.849,0.507,1.177,0.909c0.327,0.403,0.581,0.909,0.76,1.52
			c0.179,0.611,0.268,1.319,0.268,2.124s-0.089,1.515-0.268,2.131c-0.179,0.616-0.433,1.133-0.76,1.55
			c-0.328,0.417-0.72,0.733-1.177,0.946C91.11,173.765,90.604,173.871,90.047,173.871z M90.047,166.033
			c-0.2,0-0.385,0.04-0.559,0.118c-0.174,0.08-0.328,0.227-0.462,0.44s-0.241,0.509-0.32,0.887c-0.08,0.378-0.12,0.859-0.12,1.445
			s0.04,1.072,0.12,1.461c0.079,0.387,0.186,0.692,0.32,0.916s0.288,0.38,0.462,0.469c0.173,0.09,0.359,0.135,0.559,0.135
			c0.199,0,0.384-0.045,0.559-0.135c0.173-0.089,0.328-0.245,0.461-0.469c0.134-0.224,0.241-0.529,0.32-0.916
			c0.081-0.389,0.12-0.875,0.12-1.461s-0.04-1.067-0.12-1.445c-0.079-0.378-0.186-0.673-0.32-0.887
			c-0.133-0.214-0.289-0.36-0.461-0.44C90.432,166.073,90.246,166.033,90.047,166.033z M90.047,170.116
			c-0.349,0-0.633-0.109-0.856-0.328c-0.224-0.219-0.336-0.507-0.336-0.864s0.112-0.646,0.336-0.864
			c0.223-0.219,0.508-0.328,0.856-0.328c0.348,0,0.633,0.109,0.856,0.328c0.224,0.219,0.335,0.507,0.335,0.864
			s-0.111,0.646-0.335,0.864C90.681,170.007,90.395,170.116,90.047,170.116z"/>
		<path fill="#FFFFFF" d="M102.579,171.637v2.056h-6.944v-2.056h2.354v-4.889h-1.922v-1.579c0.566-0.109,1.048-0.233,1.445-0.373
			c0.397-0.139,0.785-0.323,1.162-0.552h1.877v7.393H102.579z"/>
		<path fill="#FFFFFF" d="M107.929,173.871c-0.557,0-1.063-0.106-1.521-0.32c-0.457-0.213-0.849-0.529-1.177-0.946
			c-0.328-0.417-0.582-0.934-0.76-1.55s-0.268-1.326-0.268-2.131s0.089-1.513,0.268-2.124c0.179-0.61,0.433-1.116,0.76-1.52
			c0.328-0.402,0.72-0.705,1.177-0.909c0.457-0.203,0.964-0.305,1.521-0.305c0.556,0,1.063,0.102,1.52,0.305
			c0.457,0.204,0.85,0.507,1.178,0.909c0.328,0.403,0.581,0.909,0.76,1.52c0.179,0.611,0.268,1.319,0.268,2.124
			s-0.089,1.515-0.268,2.131c-0.179,0.616-0.432,1.133-0.76,1.55c-0.328,0.417-0.721,0.733-1.178,0.946
			C108.992,173.765,108.485,173.871,107.929,173.871z M107.929,166.033c-0.199,0-0.386,0.04-0.559,0.118
			c-0.174,0.08-0.328,0.227-0.462,0.44c-0.134,0.214-0.241,0.509-0.32,0.887c-0.08,0.378-0.119,0.859-0.119,1.445
			s0.039,1.072,0.119,1.461c0.08,0.387,0.187,0.692,0.32,0.916c0.134,0.224,0.288,0.38,0.462,0.469
			c0.173,0.09,0.36,0.135,0.559,0.135c0.198,0,0.385-0.045,0.559-0.135c0.174-0.089,0.328-0.245,0.462-0.469
			c0.135-0.224,0.241-0.529,0.32-0.916c0.079-0.389,0.119-0.875,0.119-1.461s-0.04-1.067-0.119-1.445
			c-0.08-0.378-0.186-0.673-0.32-0.887c-0.134-0.214-0.288-0.36-0.462-0.44C108.314,166.073,108.127,166.033,107.929,166.033z
			 M107.929,170.116c-0.348,0-0.633-0.109-0.857-0.328s-0.336-0.507-0.336-0.864s0.112-0.646,0.336-0.864s0.509-0.328,0.857-0.328
			c0.348,0,0.633,0.109,0.857,0.328c0.223,0.219,0.334,0.507,0.334,0.864s-0.111,0.646-0.334,0.864
			C108.562,170.007,108.276,170.116,107.929,170.116z"/>
		<path fill="#FFFFFF" d="M116.87,173.871c-0.557,0-1.063-0.106-1.521-0.32c-0.457-0.213-0.849-0.529-1.177-0.946
			c-0.328-0.417-0.581-0.934-0.759-1.55c-0.179-0.616-0.269-1.326-0.269-2.131s0.09-1.513,0.269-2.124
			c0.179-0.61,0.432-1.116,0.759-1.52c0.328-0.402,0.721-0.705,1.177-0.909c0.458-0.203,0.963-0.305,1.521-0.305
			c0.555,0,1.062,0.102,1.52,0.305c0.457,0.204,0.849,0.507,1.177,0.909c0.328,0.403,0.581,0.909,0.76,1.52
			c0.179,0.611,0.269,1.319,0.269,2.124s-0.09,1.515-0.269,2.131s-0.432,1.133-0.76,1.55c-0.328,0.417-0.72,0.733-1.177,0.946
			C117.932,173.765,117.425,173.871,116.87,173.871z M116.87,166.033c-0.199,0-0.385,0.04-0.559,0.118
			c-0.174,0.08-0.328,0.227-0.462,0.44c-0.135,0.214-0.241,0.509-0.32,0.887s-0.119,0.859-0.119,1.445s0.039,1.072,0.119,1.461
			c0.08,0.387,0.186,0.692,0.32,0.916c0.134,0.224,0.288,0.38,0.462,0.469c0.174,0.09,0.36,0.135,0.559,0.135
			c0.199,0,0.384-0.045,0.559-0.135c0.173-0.089,0.328-0.245,0.462-0.469s0.24-0.529,0.32-0.916c0.079-0.389,0.12-0.875,0.12-1.461
			s-0.041-1.067-0.12-1.445c-0.08-0.378-0.187-0.673-0.32-0.887s-0.289-0.36-0.462-0.44
			C117.254,166.073,117.068,166.033,116.87,166.033z M116.87,170.116c-0.348,0-0.634-0.109-0.857-0.328
			c-0.224-0.219-0.335-0.507-0.335-0.864s0.112-0.646,0.335-0.864c0.223-0.219,0.509-0.328,0.857-0.328
			c0.347,0,0.633,0.109,0.856,0.328c0.224,0.219,0.335,0.507,0.335,0.864s-0.111,0.646-0.335,0.864
			C117.502,170.007,117.217,170.116,116.87,170.116z"/>
		<path fill="#FFFFFF" d="M129.401,171.637v2.056h-6.944v-2.056h2.355v-4.889h-1.923v-1.579c0.566-0.109,1.048-0.233,1.446-0.373
			c0.397-0.139,0.784-0.323,1.162-0.552h1.878v7.393H129.401z"/>
		<path fill="#FFFFFF" d="M134.751,173.871c-0.556,0-1.063-0.106-1.52-0.32c-0.457-0.213-0.85-0.529-1.177-0.946
			c-0.328-0.417-0.582-0.934-0.761-1.55c-0.178-0.616-0.268-1.326-0.268-2.131s0.09-1.513,0.268-2.124
			c0.179-0.61,0.433-1.116,0.761-1.52c0.327-0.402,0.72-0.705,1.177-0.909c0.457-0.203,0.964-0.305,1.52-0.305
			c0.557,0,1.062,0.102,1.52,0.305c0.458,0.204,0.849,0.507,1.177,0.909c0.328,0.403,0.582,0.909,0.759,1.52
			c0.179,0.611,0.269,1.319,0.269,2.124s-0.09,1.515-0.269,2.131c-0.178,0.616-0.432,1.133-0.759,1.55
			c-0.328,0.417-0.72,0.733-1.177,0.946C135.813,173.765,135.308,173.871,134.751,173.871z M134.751,166.033
			c-0.199,0-0.385,0.04-0.559,0.118c-0.174,0.08-0.328,0.227-0.462,0.44c-0.133,0.214-0.24,0.509-0.319,0.887
			c-0.08,0.378-0.119,0.859-0.119,1.445s0.04,1.072,0.119,1.461c0.079,0.387,0.186,0.692,0.319,0.916
			c0.135,0.224,0.289,0.38,0.462,0.469c0.174,0.09,0.36,0.135,0.559,0.135c0.199,0,0.385-0.045,0.559-0.135
			c0.173-0.089,0.328-0.245,0.462-0.469c0.134-0.224,0.24-0.529,0.32-0.916c0.08-0.389,0.12-0.875,0.12-1.461
			s-0.041-1.067-0.12-1.445c-0.08-0.378-0.186-0.673-0.32-0.887c-0.134-0.214-0.289-0.36-0.462-0.44
			C135.136,166.073,134.95,166.033,134.751,166.033z M134.751,170.116c-0.348,0-0.633-0.109-0.856-0.328
			c-0.224-0.219-0.335-0.507-0.335-0.864s0.111-0.646,0.335-0.864c0.224-0.219,0.508-0.328,0.856-0.328s0.633,0.109,0.856,0.328
			c0.224,0.219,0.335,0.507,0.335,0.864s-0.112,0.646-0.335,0.864C135.384,170.007,135.099,170.116,134.751,170.116z"/>
		<path fill="#FFFFFF" d="M143.692,173.871c-0.557,0-1.063-0.106-1.52-0.32c-0.457-0.213-0.849-0.529-1.177-0.946
			s-0.581-0.934-0.76-1.55c-0.178-0.616-0.268-1.326-0.268-2.131s0.089-1.513,0.268-2.124c0.18-0.61,0.432-1.116,0.76-1.52
			c0.328-0.402,0.721-0.705,1.177-0.909c0.457-0.203,0.963-0.305,1.52-0.305c0.556,0,1.062,0.102,1.521,0.305
			c0.457,0.204,0.849,0.507,1.176,0.909c0.328,0.403,0.581,0.909,0.76,1.52c0.179,0.611,0.269,1.319,0.269,2.124
			s-0.09,1.515-0.269,2.131c-0.179,0.616-0.432,1.133-0.76,1.55c-0.328,0.417-0.72,0.733-1.176,0.946
			C144.754,173.765,144.248,173.871,143.692,173.871z M143.692,166.033c-0.2,0-0.386,0.04-0.559,0.118
			c-0.174,0.08-0.328,0.227-0.462,0.44c-0.134,0.214-0.241,0.509-0.32,0.887c-0.079,0.378-0.12,0.859-0.12,1.445
			s0.041,1.072,0.12,1.461c0.08,0.387,0.187,0.692,0.32,0.916c0.134,0.224,0.288,0.38,0.462,0.469
			c0.173,0.09,0.359,0.135,0.559,0.135c0.198,0,0.384-0.045,0.559-0.135c0.174-0.089,0.328-0.245,0.462-0.469
			c0.134-0.224,0.24-0.529,0.32-0.916c0.08-0.389,0.119-0.875,0.119-1.461s-0.039-1.067-0.119-1.445
			c-0.08-0.378-0.186-0.673-0.32-0.887c-0.135-0.214-0.289-0.36-0.462-0.44C144.076,166.073,143.89,166.033,143.692,166.033z
			 M143.692,170.116c-0.348,0-0.634-0.109-0.857-0.328c-0.224-0.219-0.335-0.507-0.335-0.864s0.111-0.646,0.335-0.864
			c0.223-0.219,0.509-0.328,0.857-0.328c0.347,0,0.632,0.109,0.856,0.328s0.336,0.507,0.336,0.864s-0.112,0.646-0.336,0.864
			S144.039,170.116,143.692,170.116z"/>
		<path fill="#FFFFFF" d="M156.224,171.637v2.056h-6.944v-2.056h2.355v-4.889h-1.922v-1.579c0.566-0.109,1.048-0.233,1.445-0.373
			c0.397-0.139,0.785-0.323,1.162-0.552h1.878v7.393H156.224z"/>
		<path fill="#FFFFFF" d="M165.165,171.637v2.056h-6.945v-2.056h2.354v-4.889h-1.921v-1.579c0.565-0.109,1.048-0.233,1.444-0.373
			c0.397-0.139,0.785-0.323,1.163-0.552h1.877v7.393H165.165z"/>
		<path fill="#FFFFFF" d="M170.514,173.871c-0.557,0-1.063-0.106-1.52-0.32c-0.458-0.213-0.85-0.529-1.178-0.946
			s-0.581-0.934-0.76-1.55s-0.268-1.326-0.268-2.131s0.089-1.513,0.268-2.124c0.179-0.61,0.432-1.116,0.76-1.52
			c0.328-0.402,0.72-0.705,1.178-0.909c0.457-0.203,0.962-0.305,1.52-0.305c0.556,0,1.062,0.102,1.52,0.305
			c0.458,0.204,0.849,0.507,1.177,0.909c0.329,0.403,0.582,0.909,0.761,1.52c0.178,0.611,0.268,1.319,0.268,2.124
			s-0.089,1.515-0.268,2.131c-0.179,0.616-0.433,1.133-0.761,1.55s-0.72,0.733-1.177,0.946
			C171.577,173.765,171.07,173.871,170.514,173.871z M170.514,166.033c-0.199,0-0.385,0.04-0.559,0.118
			c-0.174,0.08-0.328,0.227-0.461,0.44c-0.135,0.214-0.242,0.509-0.321,0.887c-0.08,0.378-0.119,0.859-0.119,1.445
			s0.039,1.072,0.119,1.461c0.079,0.387,0.186,0.692,0.321,0.916c0.133,0.224,0.287,0.38,0.461,0.469
			c0.174,0.09,0.36,0.135,0.559,0.135c0.199,0,0.385-0.045,0.559-0.135c0.174-0.089,0.329-0.245,0.462-0.469
			c0.134-0.224,0.24-0.529,0.319-0.916c0.081-0.389,0.12-0.875,0.12-1.461s-0.039-1.067-0.12-1.445
			c-0.079-0.378-0.185-0.673-0.319-0.887c-0.134-0.214-0.288-0.36-0.462-0.44C170.899,166.073,170.713,166.033,170.514,166.033z
			 M170.514,170.116c-0.348,0-0.633-0.109-0.857-0.328s-0.335-0.507-0.335-0.864s0.111-0.646,0.335-0.864s0.509-0.328,0.857-0.328
			s0.634,0.109,0.856,0.328c0.225,0.219,0.336,0.507,0.336,0.864s-0.111,0.646-0.336,0.864
			C171.148,170.007,170.862,170.116,170.514,170.116z"/>
		<path fill="#FFFFFF" d="M183.046,171.637v2.056h-6.944v-2.056h2.354v-4.889h-1.921v-1.579c0.566-0.109,1.047-0.233,1.445-0.373
			c0.397-0.139,0.784-0.323,1.163-0.552h1.877v7.393H183.046z"/>
		<path fill="#FFFFFF" d="M188.396,173.871c-0.558,0-1.064-0.106-1.521-0.32c-0.456-0.213-0.85-0.529-1.177-0.946
			c-0.328-0.417-0.581-0.934-0.761-1.55c-0.179-0.616-0.268-1.326-0.268-2.131s0.089-1.513,0.268-2.124
			c0.18-0.61,0.433-1.116,0.761-1.52c0.327-0.402,0.721-0.705,1.177-0.909c0.456-0.203,0.963-0.305,1.521-0.305
			c0.556,0,1.062,0.102,1.519,0.305c0.457,0.204,0.85,0.507,1.179,0.909c0.327,0.403,0.581,0.909,0.759,1.52
			c0.179,0.611,0.269,1.319,0.269,2.124s-0.09,1.515-0.269,2.131c-0.178,0.616-0.432,1.133-0.759,1.55
			c-0.329,0.417-0.722,0.733-1.179,0.946C189.458,173.765,188.952,173.871,188.396,173.871z M188.396,166.033
			c-0.2,0-0.386,0.04-0.56,0.118c-0.173,0.08-0.327,0.227-0.462,0.44c-0.134,0.214-0.24,0.509-0.321,0.887
			c-0.078,0.378-0.118,0.859-0.118,1.445s0.04,1.072,0.118,1.461c0.081,0.387,0.188,0.692,0.321,0.916
			c0.135,0.224,0.289,0.38,0.462,0.469c0.174,0.09,0.359,0.135,0.56,0.135c0.198,0,0.384-0.045,0.559-0.135
			c0.173-0.089,0.328-0.245,0.462-0.469s0.239-0.529,0.319-0.916c0.08-0.389,0.12-0.875,0.12-1.461s-0.04-1.067-0.12-1.445
			s-0.186-0.673-0.319-0.887s-0.289-0.36-0.462-0.44C188.78,166.073,188.595,166.033,188.396,166.033z M188.396,170.116
			c-0.35,0-0.634-0.109-0.857-0.328s-0.335-0.507-0.335-0.864s0.111-0.646,0.335-0.864s0.508-0.328,0.857-0.328
			c0.347,0,0.633,0.109,0.855,0.328c0.225,0.219,0.336,0.507,0.336,0.864s-0.111,0.646-0.336,0.864
			C189.029,170.007,188.743,170.116,188.396,170.116z"/>
		<path fill="#FFFFFF" d="M197.337,173.871c-0.558,0-1.064-0.106-1.521-0.32c-0.457-0.213-0.85-0.529-1.178-0.946
			s-0.581-0.934-0.758-1.55c-0.181-0.616-0.271-1.326-0.271-2.131s0.09-1.513,0.271-2.124c0.177-0.61,0.43-1.116,0.758-1.52
			c0.328-0.402,0.721-0.705,1.178-0.909c0.456-0.203,0.963-0.305,1.521-0.305c0.556,0,1.062,0.102,1.521,0.305
			c0.456,0.204,0.849,0.507,1.176,0.909c0.329,0.403,0.581,0.909,0.76,1.52c0.18,0.611,0.268,1.319,0.268,2.124
			s-0.088,1.515-0.268,2.131c-0.179,0.616-0.431,1.133-0.76,1.55c-0.327,0.417-0.72,0.733-1.176,0.946
			C198.399,173.765,197.893,173.871,197.337,173.871z M197.337,166.033c-0.2,0-0.387,0.04-0.56,0.118
			c-0.174,0.08-0.328,0.227-0.461,0.44c-0.135,0.214-0.242,0.509-0.32,0.887c-0.081,0.378-0.121,0.859-0.121,1.445
			s0.04,1.072,0.121,1.461c0.078,0.387,0.186,0.692,0.32,0.916c0.133,0.224,0.287,0.38,0.461,0.469
			c0.173,0.09,0.359,0.135,0.56,0.135c0.197,0,0.384-0.045,0.559-0.135c0.174-0.089,0.327-0.245,0.461-0.469
			c0.135-0.224,0.241-0.529,0.321-0.916c0.078-0.389,0.119-0.875,0.119-1.461s-0.041-1.067-0.119-1.445
			c-0.08-0.378-0.187-0.673-0.321-0.887c-0.134-0.214-0.287-0.36-0.461-0.44C197.721,166.073,197.534,166.033,197.337,166.033z
			 M197.337,170.116c-0.349,0-0.634-0.109-0.857-0.328s-0.335-0.507-0.335-0.864s0.111-0.646,0.335-0.864s0.509-0.328,0.857-0.328
			c0.347,0,0.632,0.109,0.855,0.328s0.337,0.507,0.337,0.864s-0.113,0.646-0.337,0.864S197.684,170.116,197.337,170.116z"/>
		<path fill="#FFFFFF" d="M209.869,171.637v2.056h-6.945v-2.056h2.355v-4.889h-1.923v-1.579c0.565-0.109,1.048-0.233,1.445-0.373
			c0.397-0.139,0.785-0.323,1.164-0.552h1.876v7.393H209.869z"/>
		<path fill="#FFFFFF" d="M215.218,173.871c-0.556,0-1.063-0.106-1.52-0.32c-0.457-0.213-0.85-0.529-1.178-0.946
			c-0.327-0.417-0.58-0.934-0.76-1.55c-0.178-0.616-0.269-1.326-0.269-2.131s0.091-1.513,0.269-2.124
			c0.18-0.61,0.433-1.116,0.76-1.52c0.328-0.402,0.721-0.705,1.178-0.909c0.456-0.203,0.964-0.305,1.52-0.305
			s1.063,0.102,1.521,0.305c0.456,0.204,0.849,0.507,1.177,0.909c0.328,0.403,0.581,0.909,0.761,1.52
			c0.178,0.611,0.268,1.319,0.268,2.124s-0.09,1.515-0.268,2.131c-0.18,0.616-0.433,1.133-0.761,1.55s-0.721,0.733-1.177,0.946
			C216.281,173.765,215.773,173.871,215.218,173.871z M215.218,166.033c-0.198,0-0.385,0.04-0.559,0.118
			c-0.173,0.08-0.328,0.227-0.462,0.44c-0.135,0.214-0.24,0.509-0.321,0.887c-0.079,0.378-0.118,0.859-0.118,1.445
			s0.039,1.072,0.118,1.461c0.081,0.387,0.187,0.692,0.321,0.916c0.134,0.224,0.289,0.38,0.462,0.469
			c0.174,0.09,0.36,0.135,0.559,0.135c0.199,0,0.386-0.045,0.559-0.135c0.174-0.089,0.327-0.245,0.463-0.469
			c0.134-0.224,0.239-0.529,0.32-0.916c0.079-0.389,0.119-0.875,0.119-1.461s-0.04-1.067-0.119-1.445
			c-0.081-0.378-0.187-0.673-0.32-0.887c-0.136-0.214-0.289-0.36-0.463-0.44C215.604,166.073,215.417,166.033,215.218,166.033z
			 M215.218,170.116c-0.348,0-0.633-0.109-0.856-0.328s-0.335-0.507-0.335-0.864s0.111-0.646,0.335-0.864s0.509-0.328,0.856-0.328
			s0.634,0.109,0.857,0.328s0.335,0.507,0.335,0.864s-0.111,0.646-0.335,0.864S215.565,170.116,215.218,170.116z"/>
		<path fill="#FFFFFF" d="M224.159,173.871c-0.557,0-1.064-0.106-1.521-0.32c-0.457-0.213-0.85-0.529-1.176-0.946
			c-0.329-0.417-0.582-0.934-0.762-1.55c-0.178-0.616-0.268-1.326-0.268-2.131s0.09-1.513,0.268-2.124
			c0.18-0.61,0.433-1.116,0.762-1.52c0.326-0.402,0.719-0.705,1.176-0.909c0.456-0.203,0.964-0.305,1.521-0.305
			c0.555,0,1.062,0.102,1.519,0.305c0.458,0.204,0.85,0.507,1.178,0.909c0.327,0.403,0.582,0.909,0.761,1.52
			c0.18,0.611,0.267,1.319,0.267,2.124s-0.087,1.515-0.267,2.131c-0.179,0.616-0.434,1.133-0.761,1.55
			c-0.328,0.417-0.72,0.733-1.178,0.946C225.221,173.765,224.714,173.871,224.159,173.871z M224.159,166.033
			c-0.199,0-0.386,0.04-0.56,0.118c-0.174,0.08-0.327,0.227-0.461,0.44c-0.136,0.214-0.241,0.509-0.32,0.887
			c-0.081,0.378-0.12,0.859-0.12,1.445s0.039,1.072,0.12,1.461c0.079,0.387,0.185,0.692,0.32,0.916
			c0.134,0.224,0.287,0.38,0.461,0.469c0.174,0.09,0.36,0.135,0.56,0.135c0.198,0,0.385-0.045,0.558-0.135
			c0.175-0.089,0.328-0.245,0.463-0.469c0.134-0.224,0.241-0.529,0.32-0.916c0.079-0.389,0.119-0.875,0.119-1.461
			s-0.04-1.067-0.119-1.445s-0.187-0.673-0.32-0.887c-0.135-0.214-0.288-0.36-0.463-0.44
			C224.544,166.073,224.357,166.033,224.159,166.033z M224.159,170.116c-0.349,0-0.634-0.109-0.857-0.328s-0.336-0.507-0.336-0.864
			s0.112-0.646,0.336-0.864s0.509-0.328,0.857-0.328c0.347,0,0.633,0.109,0.856,0.328s0.335,0.507,0.335,0.864
			s-0.111,0.646-0.335,0.864S224.506,170.116,224.159,170.116z"/>
		<path fill="#FFFFFF" d="M236.691,171.637v2.056h-6.944v-2.056h2.354v-4.889h-1.922v-1.579c0.565-0.109,1.048-0.233,1.445-0.373
			c0.396-0.139,0.783-0.323,1.161-0.552h1.878v7.393H236.691z"/>
		<path fill="#FFFFFF" d="M242.041,173.871c-0.557,0-1.063-0.106-1.521-0.32c-0.457-0.213-0.849-0.529-1.178-0.946
			c-0.327-0.417-0.581-0.934-0.759-1.55c-0.18-0.616-0.269-1.326-0.269-2.131s0.089-1.513,0.269-2.124
			c0.178-0.61,0.432-1.116,0.759-1.52c0.329-0.402,0.721-0.705,1.178-0.909c0.457-0.203,0.964-0.305,1.521-0.305
			c0.556,0,1.062,0.102,1.52,0.305c0.456,0.204,0.85,0.507,1.177,0.909c0.328,0.403,0.581,0.909,0.76,1.52
			c0.18,0.611,0.269,1.319,0.269,2.124s-0.089,1.515-0.269,2.131c-0.179,0.616-0.432,1.133-0.76,1.55
			c-0.327,0.417-0.721,0.733-1.177,0.946C243.104,173.765,242.597,173.871,242.041,173.871z M242.041,166.033
			c-0.199,0-0.386,0.04-0.56,0.118c-0.174,0.08-0.328,0.227-0.462,0.44s-0.24,0.509-0.32,0.887
			c-0.079,0.378-0.119,0.859-0.119,1.445s0.04,1.072,0.119,1.461c0.08,0.387,0.187,0.692,0.32,0.916s0.288,0.38,0.462,0.469
			c0.174,0.09,0.36,0.135,0.56,0.135c0.198,0,0.385-0.045,0.558-0.135c0.174-0.089,0.328-0.245,0.462-0.469
			c0.136-0.224,0.241-0.529,0.32-0.916c0.08-0.389,0.12-0.875,0.12-1.461s-0.04-1.067-0.12-1.445
			c-0.079-0.378-0.185-0.673-0.32-0.887c-0.134-0.214-0.288-0.36-0.462-0.44C242.426,166.073,242.239,166.033,242.041,166.033z
			 M242.041,170.116c-0.349,0-0.634-0.109-0.857-0.328s-0.335-0.507-0.335-0.864s0.111-0.646,0.335-0.864s0.509-0.328,0.857-0.328
			c0.347,0,0.632,0.109,0.856,0.328s0.336,0.507,0.336,0.864s-0.111,0.646-0.336,0.864S242.388,170.116,242.041,170.116z"/>
		<path fill="#FFFFFF" d="M250.981,173.871c-0.557,0-1.063-0.106-1.521-0.32c-0.456-0.213-0.85-0.529-1.177-0.946
			c-0.328-0.417-0.582-0.934-0.761-1.55c-0.178-0.616-0.268-1.326-0.268-2.131s0.09-1.513,0.268-2.124
			c0.179-0.61,0.433-1.116,0.761-1.52c0.327-0.402,0.721-0.705,1.177-0.909c0.457-0.203,0.964-0.305,1.521-0.305
			c0.556,0,1.062,0.102,1.52,0.305c0.456,0.204,0.85,0.507,1.178,0.909c0.327,0.403,0.581,0.909,0.759,1.52
			c0.179,0.611,0.269,1.319,0.269,2.124s-0.09,1.515-0.269,2.131c-0.178,0.616-0.432,1.133-0.759,1.55
			c-0.328,0.417-0.722,0.733-1.178,0.946C252.044,173.765,251.537,173.871,250.981,173.871z M250.981,166.033
			c-0.199,0-0.386,0.04-0.56,0.118c-0.173,0.08-0.327,0.227-0.462,0.44c-0.134,0.214-0.24,0.509-0.32,0.887
			c-0.079,0.378-0.119,0.859-0.119,1.445s0.04,1.072,0.119,1.461c0.08,0.387,0.187,0.692,0.32,0.916
			c0.135,0.224,0.289,0.38,0.462,0.469c0.174,0.09,0.36,0.135,0.56,0.135s0.385-0.045,0.558-0.135
			c0.174-0.089,0.329-0.245,0.463-0.469c0.135-0.224,0.241-0.529,0.32-0.916c0.079-0.389,0.119-0.875,0.119-1.461
			s-0.04-1.067-0.119-1.445s-0.186-0.673-0.32-0.887c-0.134-0.214-0.289-0.36-0.463-0.44
			C251.366,166.073,251.181,166.033,250.981,166.033z M250.981,170.116c-0.348,0-0.634-0.109-0.857-0.328s-0.335-0.507-0.335-0.864
			s0.111-0.646,0.335-0.864s0.51-0.328,0.857-0.328s0.632,0.109,0.856,0.328c0.224,0.219,0.336,0.507,0.336,0.864
			s-0.112,0.646-0.336,0.864C251.613,170.007,251.329,170.116,250.981,170.116z"/>
		<path fill="#FFFFFF" d="M259.923,173.871c-0.558,0-1.063-0.106-1.521-0.32c-0.457-0.213-0.85-0.529-1.178-0.946
			s-0.581-0.934-0.759-1.55c-0.179-0.616-0.27-1.326-0.27-2.131s0.091-1.513,0.27-2.124c0.178-0.61,0.431-1.116,0.759-1.52
			c0.328-0.402,0.721-0.705,1.178-0.909c0.457-0.203,0.963-0.305,1.521-0.305c0.555,0,1.062,0.102,1.521,0.305
			c0.456,0.204,0.849,0.507,1.176,0.909c0.328,0.403,0.582,0.909,0.76,1.52c0.18,0.611,0.27,1.319,0.27,2.124
			s-0.09,1.515-0.27,2.131c-0.178,0.616-0.432,1.133-0.76,1.55c-0.327,0.417-0.72,0.733-1.176,0.946
			C260.984,173.765,260.478,173.871,259.923,173.871z M259.923,166.033c-0.2,0-0.387,0.04-0.56,0.118
			c-0.174,0.08-0.327,0.227-0.462,0.44c-0.134,0.214-0.241,0.509-0.32,0.887s-0.12,0.859-0.12,1.445s0.041,1.072,0.12,1.461
			c0.079,0.387,0.187,0.692,0.32,0.916c0.135,0.224,0.288,0.38,0.462,0.469c0.173,0.09,0.359,0.135,0.56,0.135
			c0.197,0,0.384-0.045,0.559-0.135c0.174-0.089,0.327-0.245,0.461-0.469c0.135-0.224,0.241-0.529,0.321-0.916
			c0.079-0.389,0.118-0.875,0.118-1.461s-0.039-1.067-0.118-1.445c-0.08-0.378-0.187-0.673-0.321-0.887
			c-0.134-0.214-0.287-0.36-0.461-0.44C260.307,166.073,260.12,166.033,259.923,166.033z M259.923,170.116
			c-0.348,0-0.634-0.109-0.857-0.328c-0.223-0.219-0.335-0.507-0.335-0.864s0.112-0.646,0.335-0.864
			c0.224-0.219,0.51-0.328,0.857-0.328c0.347,0,0.633,0.109,0.855,0.328c0.224,0.219,0.336,0.507,0.336,0.864
			s-0.112,0.646-0.336,0.864C260.556,170.007,260.27,170.116,259.923,170.116z"/>
		<path fill="#FFFFFF" d="M268.863,173.871c-0.557,0-1.063-0.106-1.521-0.32c-0.457-0.213-0.849-0.529-1.178-0.946
			c-0.327-0.417-0.581-0.934-0.759-1.55c-0.18-0.616-0.269-1.326-0.269-2.131s0.089-1.513,0.269-2.124
			c0.178-0.61,0.432-1.116,0.759-1.52c0.329-0.402,0.721-0.705,1.178-0.909c0.457-0.203,0.964-0.305,1.521-0.305
			c0.556,0,1.062,0.102,1.52,0.305c0.456,0.204,0.85,0.507,1.177,0.909c0.328,0.403,0.581,0.909,0.761,1.52
			c0.179,0.611,0.268,1.319,0.268,2.124s-0.089,1.515-0.268,2.131c-0.18,0.616-0.433,1.133-0.761,1.55
			c-0.327,0.417-0.721,0.733-1.177,0.946C269.926,173.765,269.419,173.871,268.863,173.871z M268.863,166.033
			c-0.198,0-0.385,0.04-0.559,0.118c-0.175,0.08-0.328,0.227-0.462,0.44c-0.135,0.214-0.242,0.509-0.322,0.887
			c-0.078,0.378-0.117,0.859-0.117,1.445s0.039,1.072,0.117,1.461c0.08,0.387,0.188,0.692,0.322,0.916
			c0.134,0.224,0.287,0.38,0.462,0.469c0.174,0.09,0.36,0.135,0.559,0.135s0.385-0.045,0.559-0.135
			c0.173-0.089,0.327-0.245,0.462-0.469s0.24-0.529,0.319-0.916c0.081-0.389,0.121-0.875,0.121-1.461s-0.04-1.067-0.121-1.445
			c-0.079-0.378-0.185-0.673-0.319-0.887s-0.289-0.36-0.462-0.44C269.248,166.073,269.062,166.033,268.863,166.033z
			 M268.863,170.116c-0.348,0-0.633-0.109-0.856-0.328s-0.336-0.507-0.336-0.864s0.112-0.646,0.336-0.864s0.509-0.328,0.856-0.328
			s0.633,0.109,0.856,0.328c0.223,0.219,0.335,0.507,0.335,0.864s-0.112,0.646-0.335,0.864
			C269.496,170.007,269.211,170.116,268.863,170.116z"/>
		<path fill="#FFFFFF" d="M281.395,171.637v2.056h-6.943v-2.056h2.353v-4.889h-1.921v-1.579c0.566-0.109,1.048-0.233,1.445-0.373
			c0.396-0.139,0.785-0.323,1.163-0.552h1.876v7.393H281.395z"/>
	</g>
	<g>
		<path fill="#FFFFFF" d="M74.954,283.179c0,0.556-0.106,1.062-0.319,1.52c-0.214,0.458-0.53,0.849-0.947,1.177
			c-0.417,0.329-0.933,0.581-1.549,0.76c-0.617,0.18-1.327,0.268-2.131,0.268c-0.805,0-1.513-0.088-2.123-0.268
			c-0.611-0.179-1.118-0.431-1.521-0.76c-0.402-0.328-0.706-0.719-0.91-1.177c-0.203-0.457-0.305-0.964-0.305-1.52
			c0-0.557,0.102-1.063,0.305-1.521c0.204-0.457,0.507-0.849,0.91-1.176c0.402-0.33,0.909-0.583,1.521-0.761
			c0.61-0.179,1.318-0.27,2.123-0.27c0.804,0,1.514,0.091,2.131,0.27c0.616,0.178,1.133,0.431,1.549,0.761
			c0.417,0.327,0.733,0.719,0.947,1.176C74.847,282.115,74.954,282.622,74.954,283.179z M67.116,283.179
			c0,0.197,0.04,0.385,0.119,0.558c0.08,0.173,0.227,0.328,0.439,0.464c0.214,0.134,0.509,0.239,0.887,0.319
			c0.377,0.08,0.859,0.119,1.445,0.119s1.073-0.039,1.46-0.119c0.387-0.08,0.693-0.186,0.916-0.319
			c0.223-0.136,0.38-0.291,0.47-0.464s0.134-0.36,0.134-0.558c0-0.2-0.045-0.386-0.134-0.561c-0.089-0.171-0.247-0.325-0.47-0.462
			c-0.223-0.134-0.529-0.238-0.916-0.318c-0.388-0.081-0.875-0.12-1.46-0.12s-1.068,0.039-1.445,0.12
			c-0.378,0.08-0.673,0.185-0.887,0.318c-0.212,0.137-0.36,0.291-0.439,0.462C67.156,282.793,67.116,282.979,67.116,283.179z
			 M71.198,283.179c0,0.348-0.108,0.634-0.328,0.856c-0.218,0.225-0.506,0.334-0.864,0.334c-0.357,0-0.646-0.109-0.864-0.334
			c-0.218-0.223-0.328-0.509-0.328-0.856c0-0.349,0.11-0.635,0.328-0.857c0.219-0.225,0.507-0.336,0.864-0.336
			c0.357,0,0.646,0.111,0.864,0.336C71.09,282.544,71.198,282.83,71.198,283.179z"/>
		<path fill="#FFFFFF" d="M72.719,270.646h2.056v6.943h-2.056v-2.354h-4.888v1.922h-1.58c-0.109-0.566-0.233-1.048-0.373-1.445
			s-0.323-0.785-0.551-1.162v-1.877h7.392V270.646z"/>
		<path fill="#FFFFFF" d="M74.954,265.297c0,0.557-0.106,1.062-0.319,1.521c-0.214,0.457-0.53,0.849-0.947,1.176
			c-0.417,0.328-0.933,0.581-1.549,0.76c-0.617,0.18-1.327,0.269-2.131,0.269c-0.805,0-1.513-0.089-2.123-0.269
			c-0.611-0.179-1.118-0.432-1.521-0.76c-0.402-0.327-0.706-0.719-0.91-1.176c-0.203-0.458-0.305-0.964-0.305-1.521
			c0-0.556,0.102-1.062,0.305-1.521c0.204-0.457,0.507-0.851,0.91-1.178s0.909-0.581,1.521-0.758c0.61-0.18,1.318-0.271,2.123-0.271
			c0.804,0,1.514,0.091,2.131,0.271c0.616,0.177,1.133,0.431,1.549,0.758c0.417,0.327,0.733,0.721,0.947,1.178
			C74.847,264.234,74.954,264.741,74.954,265.297z M67.116,265.297c0,0.2,0.04,0.386,0.119,0.559
			c0.08,0.173,0.227,0.327,0.439,0.461c0.214,0.136,0.509,0.241,0.887,0.321c0.377,0.081,0.859,0.12,1.445,0.12
			s1.073-0.039,1.46-0.12c0.387-0.08,0.693-0.186,0.916-0.321c0.223-0.134,0.38-0.288,0.47-0.461s0.134-0.358,0.134-0.559
			c0-0.199-0.045-0.385-0.134-0.561c-0.089-0.173-0.247-0.327-0.47-0.461s-0.529-0.241-0.916-0.319
			c-0.388-0.08-0.875-0.119-1.46-0.119s-1.068,0.039-1.445,0.119c-0.378,0.078-0.673,0.186-0.887,0.319
			c-0.212,0.134-0.36,0.288-0.439,0.461C67.156,264.912,67.116,265.098,67.116,265.297z M71.198,265.297
			c0,0.349-0.108,0.633-0.328,0.854c-0.218,0.225-0.506,0.338-0.864,0.338c-0.357,0-0.646-0.113-0.864-0.338
			c-0.218-0.222-0.328-0.506-0.328-0.854c0-0.348,0.11-0.635,0.328-0.856c0.219-0.225,0.507-0.336,0.864-0.336
			c0.357,0,0.646,0.111,0.864,0.336C71.09,264.662,71.198,264.949,71.198,265.297z"/>
		<path fill="#FFFFFF" d="M72.719,252.765h2.056v6.944h-2.056v-2.354h-4.888v1.922h-1.58c-0.109-0.566-0.233-1.049-0.373-1.446
			c-0.139-0.396-0.323-0.785-0.551-1.162v-1.876h7.392V252.765z"/>
		<path fill="#FFFFFF" d="M74.954,247.416c0,0.556-0.106,1.062-0.319,1.52c-0.214,0.457-0.53,0.849-0.947,1.177
			c-0.417,0.327-0.933,0.58-1.549,0.76c-0.617,0.179-1.327,0.268-2.131,0.268c-0.805,0-1.513-0.089-2.123-0.268
			c-0.611-0.18-1.118-0.433-1.521-0.76c-0.402-0.328-0.706-0.72-0.91-1.177c-0.203-0.457-0.305-0.964-0.305-1.52
			c0-0.559,0.102-1.063,0.305-1.521c0.204-0.457,0.507-0.851,0.91-1.179c0.402-0.327,0.909-0.58,1.521-0.76
			c0.61-0.179,1.318-0.268,2.123-0.268c0.804,0,1.514,0.089,2.131,0.268c0.616,0.18,1.133,0.433,1.549,0.76
			c0.417,0.328,0.733,0.722,0.947,1.179C74.847,246.353,74.954,246.857,74.954,247.416z M67.116,247.416
			c0,0.197,0.04,0.385,0.119,0.558c0.08,0.173,0.227,0.328,0.439,0.462c0.214,0.134,0.509,0.24,0.887,0.321
			c0.377,0.08,0.859,0.119,1.445,0.119s1.073-0.039,1.46-0.119c0.387-0.081,0.693-0.188,0.916-0.321s0.38-0.289,0.47-0.462
			s0.134-0.36,0.134-0.558c0-0.2-0.045-0.386-0.134-0.561c-0.089-0.173-0.247-0.328-0.47-0.46c-0.223-0.136-0.529-0.242-0.916-0.321
			c-0.388-0.08-0.875-0.119-1.46-0.119s-1.068,0.039-1.445,0.119c-0.378,0.079-0.673,0.186-0.887,0.321
			c-0.212,0.132-0.36,0.287-0.439,0.46C67.156,247.03,67.116,247.216,67.116,247.416z M71.198,247.416
			c0,0.348-0.108,0.632-0.328,0.856c-0.218,0.223-0.506,0.334-0.864,0.334c-0.357,0-0.646-0.111-0.864-0.334
			c-0.218-0.225-0.328-0.509-0.328-0.856c0-0.349,0.11-0.635,0.328-0.857c0.219-0.225,0.507-0.336,0.864-0.336
			c0.357,0,0.646,0.111,0.864,0.336C71.09,246.781,71.198,247.067,71.198,247.416z"/>
		<path fill="#FFFFFF" d="M74.954,238.474c0,0.557-0.106,1.063-0.319,1.521c-0.214,0.457-0.53,0.849-0.947,1.177
			c-0.417,0.329-0.933,0.582-1.549,0.762c-0.617,0.177-1.327,0.267-2.131,0.267c-0.805,0-1.513-0.09-2.123-0.267
			c-0.611-0.18-1.118-0.433-1.521-0.762c-0.402-0.328-0.706-0.72-0.91-1.177c-0.203-0.457-0.305-0.964-0.305-1.521
			c0-0.556,0.102-1.062,0.305-1.52c0.204-0.457,0.507-0.849,0.91-1.177s0.909-0.581,1.521-0.76c0.61-0.18,1.318-0.27,2.123-0.27
			c0.804,0,1.514,0.09,2.131,0.27c0.616,0.179,1.133,0.432,1.549,0.76c0.417,0.328,0.733,0.72,0.947,1.177
			C74.847,237.411,74.954,237.918,74.954,238.474z M67.116,238.474c0,0.2,0.04,0.386,0.119,0.56c0.08,0.174,0.227,0.326,0.439,0.462
			c0.214,0.134,0.509,0.24,0.887,0.319c0.377,0.081,0.859,0.12,1.445,0.12s1.073-0.039,1.46-0.12
			c0.387-0.079,0.693-0.186,0.916-0.319c0.223-0.136,0.38-0.288,0.47-0.462s0.134-0.359,0.134-0.56c0-0.198-0.045-0.385-0.134-0.558
			c-0.089-0.174-0.247-0.328-0.47-0.463s-0.529-0.24-0.916-0.32c-0.388-0.079-0.875-0.119-1.46-0.119s-1.068,0.04-1.445,0.119
			c-0.378,0.08-0.673,0.186-0.887,0.32c-0.212,0.135-0.36,0.289-0.439,0.463C67.156,238.089,67.116,238.275,67.116,238.474z
			 M71.198,238.474c0,0.349-0.108,0.634-0.328,0.857c-0.218,0.225-0.506,0.335-0.864,0.335c-0.357,0-0.646-0.11-0.864-0.335
			c-0.218-0.224-0.328-0.509-0.328-0.857c0-0.347,0.11-0.632,0.328-0.856c0.219-0.224,0.507-0.335,0.864-0.335
			c0.357,0,0.646,0.111,0.864,0.335C71.09,237.842,71.198,238.127,71.198,238.474z"/>
		<path fill="#FFFFFF" d="M72.719,225.941h2.056v6.945h-2.056v-2.355h-4.888v1.924h-1.58c-0.109-0.567-0.233-1.049-0.373-1.446
			s-0.323-0.784-0.551-1.161v-1.879h7.392V225.941z"/>
		<path fill="#FFFFFF" d="M74.954,220.593c0,0.556-0.106,1.062-0.319,1.52c-0.214,0.458-0.53,0.85-0.947,1.179
			c-0.417,0.327-0.933,0.581-1.549,0.76c-0.617,0.179-1.327,0.268-2.131,0.268c-0.805,0-1.513-0.089-2.123-0.268
			c-0.611-0.179-1.118-0.433-1.521-0.76c-0.402-0.329-0.706-0.721-0.91-1.179c-0.203-0.457-0.305-0.964-0.305-1.52
			c0-0.557,0.102-1.063,0.305-1.521c0.204-0.456,0.507-0.849,0.91-1.177s0.909-0.582,1.521-0.76c0.61-0.179,1.318-0.269,2.123-0.269
			c0.804,0,1.514,0.09,2.131,0.269c0.616,0.178,1.133,0.432,1.549,0.76c0.417,0.328,0.733,0.721,0.947,1.177
			C74.847,219.529,74.954,220.036,74.954,220.593z M67.116,220.593c0,0.199,0.04,0.385,0.119,0.559
			c0.08,0.175,0.227,0.329,0.439,0.462c0.214,0.135,0.509,0.241,0.887,0.32c0.377,0.08,0.859,0.119,1.445,0.119
			s1.073-0.039,1.46-0.119c0.387-0.079,0.693-0.186,0.916-0.32c0.223-0.133,0.38-0.287,0.47-0.462
			c0.089-0.174,0.134-0.359,0.134-0.559s-0.045-0.386-0.134-0.559c-0.089-0.175-0.247-0.328-0.47-0.461
			c-0.223-0.136-0.529-0.241-0.916-0.321c-0.388-0.08-0.875-0.12-1.46-0.12s-1.068,0.04-1.445,0.12
			c-0.378,0.08-0.673,0.186-0.887,0.321c-0.212,0.133-0.36,0.286-0.439,0.461C67.156,220.207,67.116,220.394,67.116,220.593z
			 M71.198,220.593c0,0.348-0.108,0.633-0.328,0.856c-0.218,0.225-0.506,0.336-0.864,0.336c-0.357,0-0.646-0.111-0.864-0.336
			c-0.218-0.224-0.328-0.509-0.328-0.856c0-0.349,0.11-0.634,0.328-0.857c0.219-0.223,0.507-0.335,0.864-0.335
			c0.357,0,0.646,0.112,0.864,0.335C71.09,219.959,71.198,220.244,71.198,220.593z"/>
		<path fill="#FFFFFF" d="M72.719,208.061h2.056v6.943h-2.056v-2.354h-4.888v1.923h-1.58c-0.109-0.567-0.233-1.048-0.373-1.445
			s-0.323-0.785-0.551-1.163v-1.878h7.392V208.061z"/>
		<path fill="#FFFFFF" d="M74.954,202.711c0,0.557-0.106,1.062-0.319,1.521c-0.214,0.457-0.53,0.849-0.947,1.177
			c-0.417,0.329-0.933,0.581-1.549,0.76c-0.617,0.179-1.327,0.269-2.131,0.269c-0.805,0-1.513-0.09-2.123-0.269
			c-0.611-0.179-1.118-0.431-1.521-0.76c-0.402-0.328-0.706-0.72-0.91-1.177c-0.203-0.458-0.305-0.964-0.305-1.521
			c0-0.556,0.102-1.062,0.305-1.521c0.204-0.457,0.507-0.85,0.91-1.177s0.909-0.581,1.521-0.76c0.61-0.18,1.318-0.27,2.123-0.27
			c0.804,0,1.514,0.09,2.131,0.27c0.616,0.179,1.133,0.433,1.549,0.76c0.417,0.327,0.733,0.72,0.947,1.177
			C74.847,201.648,74.954,202.155,74.954,202.711z M67.116,202.711c0,0.199,0.04,0.385,0.119,0.56
			c0.08,0.174,0.227,0.328,0.439,0.461c0.214,0.135,0.509,0.241,0.887,0.32c0.377,0.08,0.859,0.12,1.445,0.12s1.073-0.04,1.46-0.12
			c0.387-0.079,0.693-0.186,0.916-0.32c0.223-0.133,0.38-0.287,0.47-0.461c0.089-0.175,0.134-0.36,0.134-0.56
			c0-0.197-0.045-0.385-0.134-0.56c-0.089-0.174-0.247-0.327-0.47-0.46c-0.223-0.136-0.529-0.242-0.916-0.321
			c-0.388-0.08-0.875-0.119-1.46-0.119s-1.068,0.039-1.445,0.119c-0.378,0.079-0.673,0.186-0.887,0.321
			c-0.212,0.133-0.36,0.286-0.439,0.46C67.156,202.326,67.116,202.514,67.116,202.711z M71.198,202.711
			c0,0.349-0.108,0.635-0.328,0.857c-0.218,0.223-0.506,0.335-0.864,0.335c-0.357,0-0.646-0.112-0.864-0.335
			c-0.218-0.223-0.328-0.509-0.328-0.857c0-0.347,0.11-0.634,0.328-0.856c0.219-0.224,0.507-0.335,0.864-0.335
			c0.357,0,0.646,0.111,0.864,0.335C71.09,202.077,71.198,202.364,71.198,202.711z"/>
		<path fill="#FFFFFF" d="M72.719,190.179h2.056v6.944h-2.056v-2.354h-4.888v1.922h-1.58c-0.109-0.565-0.233-1.047-0.373-1.444
			s-0.323-0.785-0.551-1.163v-1.878h7.392V190.179z"/>
		<path fill="#FFFFFF" d="M74.954,184.83c0,0.556-0.106,1.062-0.319,1.52c-0.214,0.458-0.53,0.849-0.947,1.177
			c-0.417,0.329-0.933,0.582-1.549,0.76c-0.617,0.18-1.327,0.269-2.131,0.269c-0.805,0-1.513-0.089-2.123-0.269
			c-0.611-0.178-1.118-0.431-1.521-0.76c-0.402-0.328-0.706-0.719-0.91-1.177c-0.203-0.457-0.305-0.964-0.305-1.52
			c0-0.557,0.102-1.063,0.305-1.521c0.204-0.457,0.507-0.849,0.91-1.176c0.402-0.329,0.909-0.583,1.521-0.761
			c0.61-0.18,1.318-0.269,2.123-0.269c0.804,0,1.514,0.089,2.131,0.269c0.616,0.178,1.133,0.432,1.549,0.761
			c0.417,0.327,0.733,0.719,0.947,1.176C74.847,183.767,74.954,184.273,74.954,184.83z M67.116,184.83
			c0,0.198,0.04,0.385,0.119,0.558c0.08,0.175,0.227,0.328,0.439,0.463c0.214,0.135,0.509,0.241,0.887,0.32
			c0.377,0.079,0.859,0.119,1.445,0.119s1.073-0.04,1.46-0.119c0.387-0.079,0.693-0.186,0.916-0.32s0.38-0.288,0.47-0.463
			c0.089-0.173,0.134-0.359,0.134-0.558c0-0.199-0.045-0.386-0.134-0.559c-0.089-0.174-0.247-0.327-0.47-0.462
			c-0.223-0.136-0.529-0.24-0.916-0.32c-0.388-0.081-0.875-0.12-1.46-0.12s-1.068,0.039-1.445,0.12
			c-0.378,0.08-0.673,0.185-0.887,0.32c-0.212,0.135-0.36,0.288-0.439,0.462C67.156,184.444,67.116,184.631,67.116,184.83z
			 M71.198,184.83c0,0.348-0.108,0.632-0.328,0.856c-0.218,0.224-0.506,0.335-0.864,0.335c-0.357,0-0.646-0.111-0.864-0.335
			c-0.218-0.225-0.328-0.509-0.328-0.856c0-0.349,0.11-0.634,0.328-0.857c0.219-0.224,0.507-0.336,0.864-0.336
			c0.357,0,0.646,0.112,0.864,0.336C71.09,184.196,71.198,184.481,71.198,184.83z"/>
		<path fill="#FFFFFF" d="M72.719,172.297h2.056v6.945h-2.056v-2.355h-4.888v1.923h-1.58c-0.109-0.566-0.233-1.048-0.373-1.445
			s-0.323-0.785-0.551-1.162v-1.878h7.392V172.297z"/>
		<path fill="#FFFFFF" d="M74.954,166.948c0,0.557-0.106,1.063-0.319,1.52c-0.214,0.458-0.53,0.85-0.947,1.178
			c-0.417,0.328-0.933,0.581-1.549,0.76c-0.617,0.18-1.327,0.269-2.131,0.269c-0.805,0-1.513-0.089-2.123-0.269
			c-0.611-0.179-1.118-0.432-1.521-0.76s-0.706-0.72-0.91-1.178c-0.203-0.456-0.305-0.963-0.305-1.52s0.102-1.063,0.305-1.52
			c0.204-0.457,0.507-0.85,0.91-1.178s0.909-0.581,1.521-0.76c0.61-0.179,1.318-0.269,2.123-0.269c0.804,0,1.514,0.09,2.131,0.269
			c0.616,0.179,1.133,0.432,1.549,0.76c0.417,0.328,0.733,0.721,0.947,1.178C74.847,165.885,74.954,166.392,74.954,166.948z
			 M67.116,166.948c0,0.198,0.04,0.385,0.119,0.56c0.08,0.173,0.227,0.327,0.439,0.461c0.214,0.135,0.509,0.241,0.887,0.32
			c0.377,0.08,0.859,0.12,1.445,0.12s1.073-0.04,1.46-0.12c0.387-0.079,0.693-0.186,0.916-0.32c0.223-0.134,0.38-0.288,0.47-0.461
			c0.089-0.175,0.134-0.361,0.134-0.56s-0.045-0.385-0.134-0.56c-0.089-0.173-0.247-0.327-0.47-0.462
			c-0.223-0.134-0.529-0.24-0.916-0.319c-0.388-0.079-0.875-0.119-1.46-0.119s-1.068,0.04-1.445,0.119
			c-0.378,0.079-0.673,0.186-0.887,0.319c-0.212,0.135-0.36,0.289-0.439,0.462C67.156,166.563,67.116,166.75,67.116,166.948z
			 M71.198,166.948c0,0.349-0.108,0.634-0.328,0.856c-0.218,0.224-0.506,0.336-0.864,0.336c-0.357,0-0.646-0.112-0.864-0.336
			c-0.218-0.223-0.328-0.508-0.328-0.856c0-0.348,0.11-0.633,0.328-0.856c0.219-0.225,0.507-0.336,0.864-0.336
			c0.357,0,0.646,0.111,0.864,0.336C71.09,166.315,71.198,166.601,71.198,166.948z"/>
	</g>
	<g>
		<path fill="#FFFFFF" d="M285.614,170.099h-2.055v-6.943h2.055v2.354h4.888v-1.923h1.58c0.109,0.566,0.233,1.048,0.373,1.446
			c0.139,0.396,0.323,0.784,0.552,1.162v1.877h-7.393V170.099z"/>
		<path fill="#FFFFFF" d="M283.379,175.449c0-0.558,0.107-1.063,0.321-1.521s0.529-0.85,0.947-1.178
			c0.416-0.327,0.933-0.58,1.549-0.76c0.616-0.179,1.326-0.268,2.131-0.268s1.513,0.089,2.123,0.268
			c0.611,0.18,1.118,0.433,1.521,0.76c0.402,0.328,0.705,0.721,0.909,1.178c0.203,0.457,0.305,0.963,0.305,1.521
			c0,0.556-0.102,1.062-0.305,1.52c-0.204,0.456-0.507,0.849-0.909,1.177s-0.909,0.581-1.521,0.76
			c-0.61,0.179-1.318,0.27-2.123,0.27s-1.515-0.091-2.131-0.27s-1.133-0.432-1.549-0.76c-0.418-0.328-0.733-0.721-0.947-1.177
			C283.486,176.512,283.379,176.005,283.379,175.449z M291.218,175.449c0-0.199-0.04-0.386-0.119-0.56s-0.226-0.327-0.44-0.462
			c-0.213-0.135-0.507-0.24-0.886-0.32c-0.378-0.079-0.859-0.119-1.445-0.119s-1.073,0.04-1.461,0.119
			c-0.386,0.08-0.693,0.186-0.916,0.32s-0.379,0.288-0.469,0.462s-0.134,0.36-0.134,0.56c0,0.198,0.044,0.385,0.134,0.559
			c0.09,0.173,0.246,0.328,0.469,0.461c0.223,0.135,0.53,0.241,0.916,0.321c0.388,0.079,0.875,0.119,1.461,0.119
			s1.067-0.04,1.445-0.119c0.379-0.08,0.673-0.187,0.886-0.321c0.215-0.133,0.361-0.288,0.44-0.461
			C291.178,175.834,291.218,175.647,291.218,175.449z M287.136,175.449c0-0.349,0.108-0.634,0.327-0.857
			c0.218-0.224,0.507-0.336,0.864-0.336s0.646,0.112,0.864,0.336c0.218,0.224,0.328,0.509,0.328,0.857
			c0,0.348-0.11,0.633-0.328,0.856c-0.219,0.224-0.507,0.335-0.864,0.335s-0.646-0.111-0.864-0.335
			C287.244,176.082,287.136,175.797,287.136,175.449z"/>
		<path fill="#FFFFFF" d="M283.379,184.389c0-0.556,0.107-1.062,0.321-1.52c0.214-0.456,0.529-0.85,0.947-1.177
			c0.416-0.328,0.933-0.582,1.549-0.761s1.326-0.268,2.131-0.268s1.513,0.089,2.123,0.268c0.611,0.179,1.118,0.433,1.521,0.761
			c0.402,0.327,0.705,0.721,0.909,1.177c0.203,0.457,0.305,0.964,0.305,1.52c0,0.557-0.102,1.063-0.305,1.521
			c-0.204,0.457-0.507,0.85-0.909,1.177c-0.402,0.329-0.909,0.582-1.521,0.761c-0.61,0.18-1.318,0.269-2.123,0.269
			s-1.515-0.089-2.131-0.269c-0.616-0.179-1.133-0.432-1.549-0.761c-0.418-0.327-0.733-0.72-0.947-1.177
			S283.379,184.945,283.379,184.389z M291.218,184.389c0-0.197-0.04-0.385-0.119-0.559c-0.079-0.175-0.226-0.328-0.44-0.461
			c-0.213-0.135-0.507-0.241-0.886-0.321c-0.378-0.079-0.859-0.119-1.445-0.119s-1.073,0.04-1.461,0.119
			c-0.386,0.08-0.693,0.187-0.916,0.321c-0.223,0.133-0.379,0.286-0.469,0.461c-0.09,0.174-0.134,0.361-0.134,0.559
			c0,0.199,0.044,0.386,0.134,0.56s0.246,0.327,0.469,0.461c0.223,0.136,0.53,0.242,0.916,0.322
			c0.388,0.079,0.875,0.118,1.461,0.118s1.067-0.039,1.445-0.118c0.379-0.08,0.673-0.187,0.886-0.322
			c0.215-0.134,0.361-0.287,0.44-0.461S291.218,184.588,291.218,184.389z M287.136,184.389c0-0.347,0.108-0.633,0.327-0.856
			c0.218-0.223,0.507-0.335,0.864-0.335s0.646,0.112,0.864,0.335c0.218,0.224,0.328,0.51,0.328,0.856
			c0,0.349-0.11,0.634-0.328,0.857c-0.219,0.224-0.507,0.336-0.864,0.336s-0.646-0.112-0.864-0.336
			C287.244,185.022,287.136,184.737,287.136,184.389z"/>
		<path fill="#FFFFFF" d="M285.614,196.921h-2.055v-6.943h2.055v2.354h4.888v-1.921h1.58c0.109,0.566,0.233,1.047,0.373,1.444
			c0.139,0.396,0.323,0.785,0.552,1.163v1.877h-7.393V196.921z"/>
		<path fill="#FFFFFF" d="M285.614,205.862h-2.055v-6.945h2.055v2.355h4.888v-1.922h1.58c0.109,0.565,0.233,1.047,0.373,1.444
			c0.139,0.398,0.323,0.785,0.552,1.163v1.877h-7.393V205.862z"/>
		<path fill="#FFFFFF" d="M283.379,211.212c0-0.556,0.107-1.062,0.321-1.521c0.214-0.457,0.529-0.851,0.947-1.178
			c0.416-0.328,0.933-0.581,1.549-0.759c0.616-0.18,1.326-0.27,2.131-0.27s1.513,0.09,2.123,0.27
			c0.611,0.178,1.118,0.431,1.521,0.759c0.402,0.327,0.705,0.721,0.909,1.178c0.203,0.458,0.305,0.965,0.305,1.521
			c0,0.557-0.102,1.062-0.305,1.521c-0.204,0.456-0.507,0.849-0.909,1.176c-0.402,0.328-0.909,0.582-1.521,0.76
			c-0.61,0.18-1.318,0.269-2.123,0.269s-1.515-0.089-2.131-0.269c-0.616-0.178-1.133-0.432-1.549-0.76
			c-0.418-0.327-0.733-0.72-0.947-1.176C283.486,212.274,283.379,211.769,283.379,211.212z M291.218,211.212
			c0-0.2-0.04-0.385-0.119-0.561c-0.079-0.173-0.226-0.327-0.44-0.461c-0.213-0.134-0.507-0.241-0.886-0.319
			c-0.378-0.08-0.859-0.119-1.445-0.119s-1.073,0.039-1.461,0.119c-0.386,0.078-0.693,0.186-0.916,0.319s-0.379,0.288-0.469,0.461
			c-0.09,0.176-0.134,0.36-0.134,0.561c0,0.198,0.044,0.385,0.134,0.559c0.09,0.173,0.246,0.327,0.469,0.462
			c0.223,0.133,0.53,0.24,0.916,0.32c0.388,0.078,0.875,0.119,1.461,0.119s1.067-0.041,1.445-0.119
			c0.379-0.08,0.673-0.188,0.886-0.32c0.215-0.135,0.361-0.289,0.44-0.462C291.178,211.597,291.218,211.41,291.218,211.212z
			 M287.136,211.212c0-0.348,0.108-0.635,0.327-0.856c0.218-0.225,0.507-0.336,0.864-0.336s0.646,0.111,0.864,0.336
			c0.218,0.222,0.328,0.509,0.328,0.856c0,0.347-0.11,0.634-0.328,0.856c-0.219,0.223-0.507,0.336-0.864,0.336
			s-0.646-0.113-0.864-0.336C287.244,211.846,287.136,211.559,287.136,211.212z"/>
		<path fill="#FFFFFF" d="M283.379,220.152c0-0.557,0.107-1.062,0.321-1.52c0.214-0.459,0.529-0.85,0.947-1.178
			c0.416-0.327,0.933-0.581,1.549-0.76c0.616-0.18,1.326-0.268,2.131-0.268s1.513,0.088,2.123,0.268
			c0.611,0.179,1.118,0.433,1.521,0.76c0.402,0.328,0.705,0.719,0.909,1.178c0.203,0.457,0.305,0.963,0.305,1.52
			c0,0.556-0.102,1.062-0.305,1.52c-0.204,0.457-0.507,0.85-0.909,1.178s-0.909,0.581-1.521,0.761
			c-0.61,0.177-1.318,0.268-2.123,0.268s-1.515-0.091-2.131-0.268c-0.616-0.18-1.133-0.433-1.549-0.761
			c-0.418-0.328-0.733-0.721-0.947-1.178S283.379,220.708,283.379,220.152z M291.218,220.152c0-0.199-0.04-0.385-0.119-0.559
			s-0.226-0.328-0.44-0.462c-0.213-0.135-0.507-0.241-0.886-0.321c-0.378-0.079-0.859-0.117-1.445-0.117s-1.073,0.038-1.461,0.117
			c-0.386,0.08-0.693,0.187-0.916,0.321c-0.223,0.134-0.379,0.288-0.469,0.462s-0.134,0.359-0.134,0.559s0.044,0.385,0.134,0.559
			s0.246,0.328,0.469,0.462c0.223,0.135,0.53,0.241,0.916,0.319c0.388,0.081,0.875,0.121,1.461,0.121s1.067-0.04,1.445-0.121
			c0.379-0.078,0.673-0.185,0.886-0.319c0.215-0.134,0.361-0.288,0.44-0.462S291.218,220.352,291.218,220.152z M287.136,220.152
			c0-0.349,0.108-0.633,0.327-0.857c0.218-0.223,0.507-0.335,0.864-0.335s0.646,0.112,0.864,0.335
			c0.218,0.225,0.328,0.509,0.328,0.857c0,0.348-0.11,0.634-0.328,0.856c-0.219,0.225-0.507,0.336-0.864,0.336
			s-0.646-0.111-0.864-0.336C287.244,220.786,287.136,220.5,287.136,220.152z"/>
		<path fill="#FFFFFF" d="M285.614,232.685h-2.055v-6.944h2.055v2.354h4.888v-1.922h1.58c0.109,0.566,0.233,1.048,0.373,1.444
			c0.139,0.397,0.323,0.786,0.552,1.163v1.878h-7.393V232.685z"/>
		<path fill="#FFFFFF" d="M285.614,241.624h-2.055v-6.943h2.055v2.354h4.888v-1.922h1.58c0.109,0.565,0.233,1.047,0.373,1.445
			c0.139,0.397,0.323,0.784,0.552,1.161v1.879h-7.393V241.624z"/>
		<path fill="#FFFFFF" d="M283.379,246.975c0-0.556,0.107-1.062,0.321-1.52c0.214-0.458,0.529-0.85,0.947-1.177
			c0.416-0.327,0.933-0.581,1.549-0.761c0.616-0.179,1.326-0.268,2.131-0.268s1.513,0.089,2.123,0.268
			c0.611,0.18,1.118,0.434,1.521,0.761s0.705,0.719,0.909,1.177c0.203,0.457,0.305,0.964,0.305,1.52
			c0,0.557-0.102,1.063-0.305,1.521c-0.204,0.457-0.507,0.849-0.909,1.176c-0.402,0.33-0.909,0.583-1.521,0.761
			c-0.61,0.179-1.318,0.27-2.123,0.27s-1.515-0.091-2.131-0.27c-0.616-0.178-1.133-0.431-1.549-0.761
			c-0.418-0.327-0.733-0.719-0.947-1.176S283.379,247.531,283.379,246.975z M291.218,246.975c0-0.199-0.04-0.385-0.119-0.558
			c-0.079-0.176-0.226-0.33-0.44-0.464c-0.213-0.134-0.507-0.239-0.886-0.319c-0.378-0.08-0.859-0.119-1.445-0.119
			s-1.073,0.039-1.461,0.119c-0.386,0.08-0.693,0.186-0.916,0.319s-0.379,0.288-0.469,0.464c-0.09,0.173-0.134,0.358-0.134,0.558
			c0,0.2,0.044,0.386,0.134,0.559s0.246,0.329,0.469,0.461c0.223,0.136,0.53,0.241,0.916,0.321c0.388,0.081,0.875,0.12,1.461,0.12
			s1.067-0.039,1.445-0.12c0.379-0.08,0.673-0.186,0.886-0.321c0.215-0.132,0.361-0.288,0.44-0.461S291.218,247.175,291.218,246.975
			z M287.136,246.975c0-0.348,0.108-0.635,0.327-0.856c0.218-0.223,0.507-0.336,0.864-0.336s0.646,0.113,0.864,0.336
			c0.218,0.222,0.328,0.509,0.328,0.856c0,0.349-0.11,0.633-0.328,0.857c-0.219,0.225-0.507,0.333-0.864,0.333
			s-0.646-0.108-0.864-0.333C287.244,247.607,287.136,247.323,287.136,246.975z"/>
		<path fill="#FFFFFF" d="M285.614,259.507h-2.055v-6.943h2.055v2.354h4.888v-1.922h1.58c0.109,0.566,0.233,1.048,0.373,1.443
			c0.139,0.397,0.323,0.785,0.552,1.164v1.876h-7.393V259.507z"/>
		<path fill="#FFFFFF" d="M283.379,264.856c0-0.557,0.107-1.063,0.321-1.521s0.529-0.849,0.947-1.178
			c0.416-0.328,0.933-0.579,1.549-0.759c0.616-0.179,1.326-0.27,2.131-0.27s1.513,0.091,2.123,0.27
			c0.611,0.18,1.118,0.431,1.521,0.759c0.402,0.329,0.705,0.721,0.909,1.178c0.203,0.457,0.305,0.964,0.305,1.521
			c0,0.556-0.102,1.062-0.305,1.52c-0.204,0.456-0.507,0.849-0.909,1.179c-0.402,0.327-0.909,0.581-1.521,0.76
			c-0.61,0.178-1.318,0.268-2.123,0.268s-1.515-0.09-2.131-0.268c-0.616-0.179-1.133-0.433-1.549-0.76
			c-0.418-0.33-0.733-0.723-0.947-1.179C283.486,265.919,283.379,265.412,283.379,264.856z M291.218,264.856
			c0-0.2-0.04-0.386-0.119-0.559c-0.079-0.175-0.226-0.327-0.44-0.463c-0.213-0.135-0.507-0.241-0.886-0.319
			c-0.378-0.081-0.859-0.12-1.445-0.12s-1.073,0.039-1.461,0.12c-0.386,0.078-0.693,0.185-0.916,0.319
			c-0.223,0.136-0.379,0.288-0.469,0.463c-0.09,0.173-0.134,0.358-0.134,0.559c0,0.197,0.044,0.385,0.134,0.558
			c0.09,0.176,0.246,0.328,0.469,0.462c0.223,0.136,0.53,0.241,0.916,0.321c0.388,0.078,0.875,0.119,1.461,0.119
			s1.067-0.041,1.445-0.119c0.379-0.08,0.673-0.186,0.886-0.321c0.215-0.134,0.361-0.286,0.44-0.462
			C291.178,265.241,291.218,265.054,291.218,264.856z M287.136,264.856c0-0.349,0.108-0.633,0.327-0.857
			c0.218-0.223,0.507-0.336,0.864-0.336s0.646,0.113,0.864,0.336c0.218,0.225,0.328,0.509,0.328,0.857
			c0,0.348-0.11,0.634-0.328,0.856c-0.219,0.225-0.507,0.336-0.864,0.336s-0.646-0.111-0.864-0.336
			C287.244,265.49,287.136,265.204,287.136,264.856z"/>
		<path fill="#FFFFFF" d="M285.614,277.389h-2.055v-6.944h2.055v2.354h4.888v-1.922h1.58c0.109,0.564,0.233,1.049,0.373,1.444
			c0.139,0.397,0.323,0.784,0.552,1.163v1.877h-7.393V277.389z"/>
		<path fill="#FFFFFF" d="M283.379,282.737c0-0.556,0.107-1.062,0.321-1.52c0.214-0.458,0.529-0.849,0.947-1.177
			c0.416-0.329,0.933-0.581,1.549-0.76c0.616-0.18,1.326-0.268,2.131-0.268s1.513,0.088,2.123,0.268
			c0.611,0.179,1.118,0.431,1.521,0.76c0.402,0.328,0.705,0.719,0.909,1.177c0.203,0.457,0.305,0.964,0.305,1.52
			c0,0.557-0.102,1.063-0.305,1.521c-0.204,0.457-0.507,0.851-0.909,1.178c-0.402,0.326-0.909,0.581-1.521,0.761
			c-0.61,0.177-1.318,0.268-2.123,0.268s-1.515-0.091-2.131-0.268c-0.616-0.18-1.133-0.435-1.549-0.761
			c-0.418-0.327-0.733-0.721-0.947-1.178S283.379,283.294,283.379,282.737z M291.218,282.737c0-0.197-0.04-0.385-0.119-0.558
			c-0.079-0.176-0.226-0.33-0.44-0.462c-0.213-0.134-0.507-0.241-0.886-0.321c-0.378-0.078-0.859-0.119-1.445-0.119
			s-1.073,0.041-1.461,0.119c-0.386,0.08-0.693,0.188-0.916,0.321c-0.223,0.132-0.379,0.286-0.469,0.462
			c-0.09,0.173-0.134,0.36-0.134,0.558c0,0.198,0.044,0.386,0.134,0.559c0.09,0.175,0.246,0.329,0.469,0.464
			c0.223,0.134,0.53,0.24,0.916,0.318c0.388,0.081,0.875,0.12,1.461,0.12s1.067-0.039,1.445-0.12
			c0.379-0.078,0.673-0.185,0.886-0.318c0.215-0.135,0.361-0.289,0.44-0.464C291.178,283.123,291.218,282.936,291.218,282.737z
			 M287.136,282.737c0-0.348,0.108-0.634,0.327-0.856c0.218-0.223,0.507-0.336,0.864-0.336s0.646,0.113,0.864,0.336
			c0.218,0.223,0.328,0.509,0.328,0.856c0,0.349-0.11,0.633-0.328,0.857c-0.219,0.223-0.507,0.336-0.864,0.336
			s-0.646-0.113-0.864-0.336C287.244,283.37,287.136,283.086,287.136,282.737z"/>
	</g>
	<g>
		<path fill="#FFFFFF" d="M112.425,281.854c0,0.557-0.107,1.063-0.32,1.521c-0.214,0.457-0.529,0.849-0.946,1.176
			c-0.417,0.328-0.934,0.581-1.55,0.761c-0.617,0.179-1.326,0.27-2.131,0.27c-0.804,0-1.513-0.091-2.124-0.27
			c-0.611-0.18-1.118-0.433-1.52-0.761c-0.402-0.327-0.706-0.719-0.909-1.176c-0.203-0.457-0.305-0.964-0.305-1.521
			c0-0.556,0.102-1.062,0.305-1.52c0.204-0.457,0.507-0.849,0.909-1.177c0.402-0.327,0.909-0.58,1.52-0.76
			c0.611-0.179,1.319-0.268,2.124-0.268c0.805,0,1.515,0.089,2.131,0.268c0.616,0.18,1.132,0.433,1.55,0.76
			c0.417,0.328,0.732,0.72,0.946,1.177C112.318,280.791,112.425,281.298,112.425,281.854z M104.587,281.854
			c0,0.2,0.041,0.386,0.119,0.559c0.08,0.175,0.227,0.33,0.44,0.464c0.214,0.134,0.509,0.238,0.887,0.319
			c0.377,0.08,0.859,0.119,1.445,0.119s1.073-0.039,1.46-0.119c0.387-0.081,0.693-0.186,0.916-0.319
			c0.224-0.134,0.38-0.289,0.469-0.464c0.09-0.173,0.134-0.358,0.134-0.559c0-0.199-0.044-0.385-0.134-0.558
			c-0.089-0.175-0.245-0.328-0.469-0.464c-0.223-0.132-0.529-0.238-0.916-0.319c-0.388-0.078-0.875-0.119-1.46-0.119
			s-1.068,0.041-1.445,0.119c-0.377,0.081-0.673,0.188-0.887,0.319c-0.213,0.136-0.36,0.289-0.44,0.464
			C104.627,281.469,104.587,281.654,104.587,281.854z M108.67,281.854c0,0.349-0.11,0.633-0.328,0.857
			c-0.218,0.225-0.507,0.336-0.864,0.336c-0.358,0-0.646-0.111-0.864-0.336c-0.219-0.225-0.328-0.509-0.328-0.857
			c0-0.348,0.109-0.632,0.328-0.856c0.218-0.223,0.506-0.336,0.864-0.336c0.357,0,0.646,0.113,0.864,0.336
			C108.561,281.222,108.67,281.506,108.67,281.854z"/>
		<path fill="#FFFFFF" d="M112.425,272.912c0,0.559-0.107,1.065-0.32,1.521c-0.214,0.457-0.529,0.851-0.946,1.178
			c-0.417,0.328-0.934,0.581-1.55,0.761c-0.617,0.179-1.326,0.268-2.131,0.268c-0.804,0-1.513-0.089-2.124-0.268
			c-0.611-0.18-1.118-0.433-1.52-0.761c-0.402-0.327-0.706-0.721-0.909-1.178c-0.203-0.455-0.305-0.962-0.305-1.521
			c0-0.556,0.102-1.062,0.305-1.521c0.204-0.455,0.507-0.849,0.909-1.176s0.909-0.581,1.52-0.76c0.611-0.18,1.319-0.268,2.124-0.268
			c0.805,0,1.515,0.088,2.131,0.268c0.616,0.179,1.132,0.433,1.55,0.76c0.417,0.327,0.732,0.721,0.946,1.176
			C112.318,271.85,112.425,272.356,112.425,272.912z M104.587,272.912c0,0.2,0.041,0.388,0.119,0.561
			c0.08,0.173,0.227,0.327,0.44,0.461c0.214,0.134,0.509,0.241,0.887,0.319c0.377,0.08,0.859,0.12,1.445,0.12s1.073-0.04,1.46-0.12
			c0.387-0.078,0.693-0.186,0.916-0.319c0.224-0.134,0.38-0.288,0.469-0.461c0.09-0.173,0.134-0.36,0.134-0.561
			c0-0.197-0.044-0.383-0.134-0.559c-0.089-0.173-0.245-0.327-0.469-0.461c-0.223-0.134-0.529-0.241-0.916-0.321
			c-0.388-0.078-0.875-0.117-1.46-0.117s-1.068,0.039-1.445,0.117c-0.377,0.08-0.673,0.188-0.887,0.321
			c-0.213,0.134-0.36,0.288-0.44,0.461C104.627,272.529,104.587,272.715,104.587,272.912z M108.67,272.912
			c0,0.349-0.11,0.635-0.328,0.857c-0.218,0.224-0.507,0.335-0.864,0.335c-0.358,0-0.646-0.111-0.864-0.335
			c-0.219-0.223-0.328-0.509-0.328-0.857c0-0.346,0.109-0.632,0.328-0.854c0.218-0.225,0.506-0.336,0.864-0.336
			c0.357,0,0.646,0.111,0.864,0.336C108.561,272.28,108.67,272.566,108.67,272.912z"/>
		<path fill="#FFFFFF" d="M110.19,260.382h2.057v6.944h-2.057v-2.354h-4.888v1.922h-1.58c-0.109-0.566-0.233-1.049-0.372-1.446
			c-0.14-0.397-0.323-0.785-0.552-1.162v-1.878h7.391V260.382z"/>
		<path fill="#FFFFFF" d="M112.425,255.031c0,0.558-0.107,1.064-0.32,1.52c-0.214,0.457-0.529,0.851-0.946,1.179
			c-0.417,0.327-0.934,0.58-1.55,0.758c-0.617,0.179-1.326,0.27-2.131,0.27c-0.804,0-1.513-0.091-2.124-0.27
			c-0.611-0.178-1.118-0.431-1.52-0.758c-0.402-0.328-0.706-0.722-0.909-1.179c-0.203-0.455-0.305-0.962-0.305-1.52
			c0-0.557,0.102-1.063,0.305-1.521c0.204-0.455,0.507-0.849,0.909-1.177c0.402-0.327,0.909-0.58,1.52-0.76
			c0.611-0.179,1.319-0.268,2.124-0.268c0.805,0,1.515,0.089,2.131,0.268c0.616,0.18,1.132,0.433,1.55,0.76
			c0.417,0.328,0.732,0.722,0.946,1.177C112.318,253.968,112.425,254.475,112.425,255.031z M104.587,255.031
			c0,0.199,0.041,0.385,0.119,0.558c0.08,0.175,0.227,0.33,0.44,0.464c0.214,0.134,0.509,0.24,0.887,0.319
			c0.377,0.08,0.859,0.119,1.445,0.119s1.073-0.039,1.46-0.119c0.387-0.079,0.693-0.186,0.916-0.319
			c0.224-0.134,0.38-0.289,0.469-0.464c0.09-0.173,0.134-0.358,0.134-0.558c0-0.198-0.044-0.386-0.134-0.559
			c-0.089-0.173-0.245-0.327-0.469-0.462c-0.223-0.134-0.529-0.24-0.916-0.321c-0.388-0.078-0.875-0.119-1.46-0.119
			s-1.068,0.041-1.445,0.119c-0.377,0.081-0.673,0.188-0.887,0.321c-0.213,0.135-0.36,0.289-0.44,0.462
			C104.627,254.646,104.587,254.833,104.587,255.031z M108.67,255.031c0,0.348-0.11,0.634-0.328,0.856
			c-0.218,0.225-0.507,0.336-0.864,0.336c-0.358,0-0.646-0.111-0.864-0.336c-0.219-0.223-0.328-0.509-0.328-0.856
			c0-0.349,0.109-0.633,0.328-0.855c0.218-0.225,0.506-0.336,0.864-0.336c0.357,0,0.646,0.111,0.864,0.336
			C108.561,254.398,108.67,254.683,108.67,255.031z"/>
		<path fill="#FFFFFF" d="M110.19,242.5h2.057v6.942h-2.057v-2.353h-4.888v1.922h-1.58c-0.109-0.566-0.233-1.048-0.372-1.445
			c-0.14-0.398-0.323-0.785-0.552-1.162v-1.879h7.391V242.5z"/>
		<path fill="#FFFFFF" d="M112.425,237.149c0,0.558-0.107,1.062-0.32,1.521c-0.214,0.457-0.529,0.85-0.946,1.177
			c-0.417,0.328-0.934,0.582-1.55,0.76c-0.617,0.18-1.326,0.27-2.131,0.27c-0.804,0-1.513-0.09-2.124-0.27
			c-0.611-0.178-1.118-0.432-1.52-0.76c-0.402-0.327-0.706-0.72-0.909-1.177c-0.203-0.458-0.305-0.963-0.305-1.521
			c0-0.557,0.102-1.062,0.305-1.52c0.204-0.456,0.507-0.85,0.909-1.177s0.909-0.582,1.52-0.76c0.611-0.179,1.319-0.27,2.124-0.27
			c0.805,0,1.515,0.091,2.131,0.27c0.616,0.178,1.132,0.433,1.55,0.76c0.417,0.327,0.732,0.721,0.946,1.177
			C112.318,236.088,112.425,236.593,112.425,237.149z M104.587,237.149c0,0.2,0.041,0.385,0.119,0.56
			c0.08,0.174,0.227,0.327,0.44,0.462c0.214,0.134,0.509,0.241,0.887,0.32s0.859,0.118,1.445,0.118s1.073-0.039,1.46-0.118
			c0.387-0.079,0.693-0.187,0.916-0.32c0.224-0.135,0.38-0.288,0.469-0.462c0.09-0.175,0.134-0.359,0.134-0.56
			c0-0.199-0.044-0.384-0.134-0.559c-0.089-0.173-0.245-0.327-0.469-0.461c-0.223-0.135-0.529-0.241-0.916-0.321
			c-0.388-0.078-0.875-0.12-1.46-0.12s-1.068,0.042-1.445,0.12c-0.377,0.08-0.673,0.187-0.887,0.321
			c-0.213,0.134-0.36,0.288-0.44,0.461C104.627,236.766,104.587,236.95,104.587,237.149z M108.67,237.149
			c0,0.348-0.11,0.634-0.328,0.856c-0.218,0.224-0.507,0.336-0.864,0.336c-0.358,0-0.646-0.112-0.864-0.336
			c-0.219-0.223-0.328-0.509-0.328-0.856c0-0.349,0.109-0.633,0.328-0.857c0.218-0.222,0.506-0.333,0.864-0.333
			c0.357,0,0.646,0.111,0.864,0.333C108.561,236.517,108.67,236.801,108.67,237.149z"/>
	</g>
	<g>
		<path fill="#FFFFFF" d="M247.218,237.497c0-0.556,0.107-1.062,0.319-1.52c0.214-0.457,0.529-0.849,0.946-1.178
			c0.417-0.328,0.935-0.582,1.55-0.761c0.616-0.178,1.326-0.268,2.13-0.268c0.806,0,1.515,0.09,2.125,0.268
			c0.611,0.179,1.117,0.433,1.521,0.761c0.402,0.329,0.704,0.721,0.908,1.178s0.305,0.964,0.305,1.52
			c0,0.557-0.101,1.063-0.305,1.52c-0.204,0.457-0.506,0.85-0.908,1.177c-0.403,0.329-0.909,0.582-1.521,0.761
			c-0.61,0.179-1.319,0.268-2.125,0.268c-0.804,0-1.514-0.089-2.13-0.268c-0.615-0.179-1.133-0.432-1.55-0.761
			c-0.417-0.327-0.732-0.72-0.946-1.177C247.325,238.561,247.218,238.054,247.218,237.497z M255.056,237.497
			c0-0.199-0.04-0.385-0.12-0.559c-0.079-0.174-0.226-0.329-0.439-0.463c-0.213-0.134-0.509-0.241-0.886-0.319
			c-0.378-0.08-0.86-0.119-1.447-0.119c-0.585,0-1.07,0.039-1.459,0.119c-0.388,0.078-0.692,0.186-0.916,0.319
			c-0.225,0.134-0.381,0.289-0.471,0.463c-0.088,0.174-0.133,0.359-0.133,0.559c0,0.198,0.045,0.385,0.133,0.559
			c0.09,0.173,0.246,0.328,0.471,0.462c0.224,0.135,0.528,0.24,0.916,0.321c0.389,0.078,0.874,0.119,1.459,0.119
			c0.587,0,1.069-0.041,1.447-0.119c0.377-0.081,0.673-0.187,0.886-0.321c0.214-0.134,0.36-0.289,0.439-0.462
			C255.016,237.882,255.056,237.695,255.056,237.497z M250.973,237.497c0-0.348,0.108-0.634,0.328-0.856
			c0.218-0.224,0.506-0.336,0.862-0.336c0.358,0,0.647,0.112,0.865,0.336c0.219,0.223,0.329,0.509,0.329,0.856
			s-0.11,0.633-0.329,0.857c-0.218,0.224-0.507,0.336-0.865,0.336c-0.356,0-0.645-0.112-0.862-0.336
			C251.081,238.13,250.973,237.845,250.973,237.497z"/>
		<path fill="#FFFFFF" d="M249.453,250.029h-2.058v-6.943h2.058v2.353h4.888v-1.921h1.579c0.108,0.565,0.233,1.047,0.371,1.444
			c0.141,0.397,0.322,0.785,0.553,1.162v1.879h-7.391V250.029z"/>
		<path fill="#FFFFFF" d="M247.218,255.379c0-0.557,0.107-1.062,0.319-1.521c0.214-0.457,0.529-0.851,0.946-1.178
			c0.417-0.328,0.935-0.581,1.55-0.758c0.616-0.18,1.326-0.271,2.13-0.271c0.806,0,1.515,0.091,2.125,0.271
			c0.611,0.177,1.117,0.43,1.521,0.758c0.402,0.327,0.704,0.721,0.908,1.178c0.204,0.458,0.305,0.964,0.305,1.521
			c0,0.556-0.101,1.062-0.305,1.521c-0.204,0.457-0.506,0.849-0.908,1.176c-0.403,0.329-0.909,0.581-1.521,0.76
			c-0.61,0.18-1.319,0.269-2.125,0.269c-0.804,0-1.514-0.089-2.13-0.269c-0.615-0.179-1.133-0.431-1.55-0.76
			c-0.417-0.327-0.732-0.719-0.946-1.176C247.325,256.441,247.218,255.935,247.218,255.379z M255.056,255.379
			c0-0.2-0.04-0.385-0.12-0.561c-0.079-0.173-0.226-0.327-0.439-0.461c-0.213-0.134-0.509-0.241-0.886-0.319
			c-0.378-0.08-0.86-0.12-1.447-0.12c-0.585,0-1.07,0.04-1.459,0.12c-0.388,0.078-0.692,0.186-0.916,0.319
			c-0.225,0.134-0.381,0.288-0.471,0.461c-0.088,0.176-0.133,0.36-0.133,0.561c0,0.197,0.045,0.385,0.133,0.559
			c0.09,0.173,0.246,0.327,0.471,0.463c0.224,0.132,0.528,0.239,0.916,0.319c0.389,0.078,0.874,0.119,1.459,0.119
			c0.587,0,1.069-0.041,1.447-0.119c0.377-0.08,0.673-0.188,0.886-0.319c0.214-0.136,0.36-0.29,0.439-0.463
			C255.016,255.764,255.056,255.576,255.056,255.379z M250.973,255.379c0-0.348,0.108-0.635,0.328-0.856
			c0.218-0.225,0.506-0.336,0.862-0.336c0.358,0,0.647,0.111,0.865,0.336c0.219,0.222,0.329,0.509,0.329,0.856
			s-0.11,0.633-0.329,0.856c-0.218,0.223-0.507,0.336-0.865,0.336c-0.356,0-0.645-0.113-0.862-0.336
			C251.081,256.012,250.973,255.727,250.973,255.379z"/>
		<path fill="#FFFFFF" d="M249.453,267.911h-2.058v-6.944h2.058v2.354h4.888v-1.922h1.579c0.108,0.566,0.233,1.047,0.371,1.444
			c0.141,0.397,0.322,0.785,0.553,1.162v1.878h-7.391V267.911z"/>
		<path fill="#FFFFFF" d="M249.453,276.853h-2.058v-6.945h2.058v2.354h4.888v-1.922h1.579c0.108,0.566,0.233,1.048,0.371,1.445
			c0.141,0.397,0.322,0.785,0.553,1.162v1.877h-7.391V276.853z"/>
		<path fill="#FFFFFF" d="M249.453,285.792h-2.058v-6.943h2.058v2.354h4.888v-1.924h1.579c0.108,0.568,0.233,1.048,0.371,1.446
			c0.141,0.397,0.322,0.784,0.553,1.163v1.877h-7.391V285.792z"/>
	</g>
	<text transform="matrix(1 0 0 1 63.2041 318.0117)" fill="#FFFFFF" font-family="'ShareTechMono-Regular'" font-size="28.8388">QUANTIFIED SELF</text>
</g>
</svg>
