<?xml version="1.0" encoding="utf-8"?>
<!-- Generator: Adobe Illustrator 16.0.0, SVG Export Plug-In . SVG Version: 6.00 Build 0)  -->
<!DOCTYPE svg PUBLIC "-//W3C//DTD SVG 1.1//EN" "http://www.w3.org/Graphics/SVG/1.1/DTD/svg11.dtd">
<svg version="1.1" id="Layer_1" xmlns="http://www.w3.org/2000/svg" xmlns:xlink="http://www.w3.org/1999/xlink" x="0px" y="0px"
	 width="504px" height="72px" viewBox="0 0 504 72" enable-background="new 0 0 504 72" xml:space="preserve">
<g>
	<path fill="#FFFFFF" d="M41.089,9.155c-0.13,0-0.248-0.025-0.354-0.074c-0.107-0.05-0.198-0.124-0.275-0.221
		c-0.076-0.097-0.136-0.218-0.177-0.362C40.24,8.354,40.22,8.188,40.22,8c0-0.187,0.021-0.353,0.062-0.495
		c0.041-0.143,0.101-0.261,0.177-0.355c0.077-0.093,0.168-0.165,0.275-0.212c0.106-0.047,0.225-0.071,0.354-0.071
		s0.248,0.024,0.354,0.071c0.106,0.048,0.198,0.119,0.275,0.212c0.076,0.094,0.135,0.212,0.177,0.355S41.958,7.813,41.958,8
		c0,0.188-0.021,0.354-0.062,0.498c-0.042,0.144-0.101,0.265-0.177,0.362c-0.077,0.098-0.169,0.171-0.275,0.221
		C41.337,9.13,41.219,9.155,41.089,9.155z M41.089,7.326c-0.047,0-0.09,0.009-0.131,0.028c-0.04,0.019-0.076,0.053-0.107,0.103
		s-0.057,0.119-0.075,0.207S40.748,7.864,40.748,8c0,0.138,0.009,0.251,0.027,0.341s0.044,0.162,0.075,0.214
		s0.067,0.089,0.107,0.109c0.041,0.021,0.084,0.031,0.131,0.031c0.046,0,0.09-0.01,0.13-0.031c0.041-0.021,0.077-0.057,0.108-0.109
		s0.056-0.124,0.074-0.214S41.43,8.138,41.43,8c0-0.136-0.01-0.249-0.028-0.337s-0.043-0.157-0.074-0.207s-0.067-0.084-0.108-0.103
		C41.179,7.335,41.135,7.326,41.089,7.326z M41.089,8.279c-0.082,0-0.148-0.026-0.2-0.077C40.837,8.151,40.811,8.083,40.811,8
		c0-0.083,0.026-0.15,0.078-0.201s0.118-0.077,0.2-0.077c0.081,0,0.147,0.026,0.2,0.077C41.341,7.85,41.367,7.917,41.367,8
		c0,0.083-0.026,0.151-0.078,0.202C41.236,8.253,41.17,8.279,41.089,8.279z"/>
	<path fill="#FFFFFF" d="M43.176,9.155c-0.13,0-0.248-0.025-0.355-0.074c-0.106-0.05-0.198-0.124-0.274-0.221
		c-0.076-0.097-0.136-0.218-0.177-0.362C42.326,8.354,42.306,8.188,42.306,8c0-0.187,0.021-0.353,0.063-0.495
		c0.041-0.143,0.101-0.261,0.177-0.355c0.076-0.093,0.168-0.165,0.274-0.212c0.107-0.047,0.226-0.071,0.355-0.071
		s0.247,0.024,0.354,0.071c0.106,0.048,0.198,0.119,0.274,0.212c0.077,0.094,0.136,0.212,0.178,0.355
		C44.023,7.647,44.045,7.813,44.045,8c0,0.188-0.021,0.354-0.062,0.498c-0.042,0.144-0.101,0.265-0.178,0.362
		c-0.076,0.098-0.168,0.171-0.274,0.221C43.423,9.13,43.306,9.155,43.176,9.155z M43.176,7.326c-0.047,0-0.091,0.009-0.131,0.028
		s-0.076,0.053-0.107,0.103s-0.057,0.119-0.075,0.207S42.835,7.864,42.835,8c0,0.138,0.009,0.251,0.027,0.341
		s0.044,0.162,0.075,0.214s0.067,0.089,0.107,0.109c0.04,0.021,0.084,0.031,0.131,0.031c0.046,0,0.089-0.01,0.13-0.031
		c0.04-0.021,0.076-0.057,0.108-0.109c0.031-0.052,0.056-0.124,0.074-0.214S43.517,8.138,43.517,8c0-0.136-0.01-0.249-0.028-0.337
		s-0.043-0.157-0.074-0.207c-0.032-0.05-0.068-0.084-0.108-0.103C43.265,7.335,43.222,7.326,43.176,7.326z M43.176,8.279
		c-0.082,0-0.148-0.026-0.2-0.077C42.923,8.151,42.897,8.083,42.897,8c0-0.083,0.025-0.15,0.078-0.201
		c0.052-0.051,0.118-0.077,0.2-0.077c0.081,0,0.147,0.026,0.199,0.077C43.428,7.85,43.453,7.917,43.453,8
		c0,0.083-0.025,0.151-0.078,0.202C43.323,8.253,43.257,8.279,43.176,8.279z"/>
	<path fill="#FFFFFF" d="M45.948,8.633v0.48h-1.62v-0.48h0.55V7.493h-0.449V7.124c0.133-0.025,0.245-0.054,0.338-0.087
		c0.093-0.032,0.183-0.075,0.271-0.129h0.438v1.725H45.948z"/>
	<path fill="#FFFFFF" d="M47.046,9.155c-0.13,0-0.248-0.025-0.354-0.074c-0.106-0.05-0.198-0.124-0.274-0.221
		c-0.077-0.097-0.136-0.218-0.178-0.362C46.197,8.354,46.177,8.188,46.177,8c0-0.187,0.021-0.353,0.062-0.495
		s0.101-0.261,0.178-0.355c0.076-0.093,0.168-0.165,0.274-0.212c0.106-0.047,0.225-0.071,0.354-0.071s0.248,0.024,0.354,0.071
		c0.107,0.048,0.198,0.119,0.275,0.212c0.076,0.094,0.136,0.212,0.177,0.355C47.895,7.647,47.916,7.813,47.916,8
		c0,0.188-0.021,0.354-0.063,0.498c-0.041,0.144-0.101,0.265-0.177,0.362c-0.077,0.098-0.168,0.171-0.275,0.221
		C47.294,9.13,47.176,9.155,47.046,9.155z M47.046,7.326c-0.046,0-0.09,0.009-0.13,0.028c-0.041,0.019-0.077,0.053-0.108,0.103
		s-0.056,0.119-0.074,0.207C46.714,7.751,46.705,7.864,46.705,8c0,0.138,0.009,0.251,0.028,0.341
		c0.019,0.09,0.043,0.162,0.074,0.214s0.067,0.089,0.108,0.109c0.04,0.021,0.084,0.031,0.13,0.031c0.047,0,0.09-0.01,0.131-0.031
		c0.04-0.021,0.076-0.057,0.107-0.109s0.057-0.124,0.075-0.214S47.387,8.138,47.387,8c0-0.136-0.009-0.249-0.027-0.337
		s-0.044-0.157-0.075-0.207s-0.067-0.084-0.107-0.103C47.136,7.335,47.093,7.326,47.046,7.326z M47.046,8.279
		c-0.081,0-0.147-0.026-0.199-0.077C46.794,8.151,46.768,8.083,46.768,8c0-0.083,0.026-0.15,0.079-0.201
		c0.052-0.051,0.118-0.077,0.199-0.077s0.148,0.026,0.2,0.077S47.324,7.917,47.324,8c0,0.083-0.026,0.151-0.078,0.202
		C47.194,8.253,47.127,8.279,47.046,8.279z"/>
	<path fill="#FFFFFF" d="M49.971,8.633v0.48h-1.62v-0.48h0.549V7.493h-0.448V7.124c0.132-0.025,0.244-0.054,0.337-0.087
		c0.093-0.032,0.184-0.075,0.271-0.129h0.438v1.725H49.971z"/>
	<path fill="#FFFFFF" d="M52.058,8.633v0.48h-1.621v-0.48h0.55V7.493h-0.448V7.124c0.132-0.025,0.244-0.054,0.337-0.087
		c0.093-0.032,0.184-0.075,0.271-0.129h0.438v1.725H52.058z"/>
	<path fill="#FFFFFF" d="M53.23,9.155c-0.131,0-0.248-0.025-0.355-0.074c-0.106-0.05-0.198-0.124-0.274-0.221
		c-0.076-0.097-0.136-0.218-0.177-0.362C52.382,8.354,52.361,8.188,52.361,8c0-0.187,0.021-0.353,0.062-0.495
		c0.041-0.143,0.101-0.261,0.177-0.355c0.076-0.093,0.168-0.165,0.274-0.212c0.107-0.047,0.225-0.071,0.355-0.071
		c0.13,0,0.248,0.024,0.354,0.071c0.106,0.048,0.198,0.119,0.274,0.212c0.077,0.094,0.136,0.212,0.178,0.355S54.1,7.813,54.1,8
		c0,0.188-0.021,0.354-0.062,0.498c-0.042,0.144-0.101,0.265-0.178,0.362c-0.076,0.098-0.168,0.171-0.274,0.221
		C53.479,9.13,53.36,9.155,53.23,9.155z M53.23,7.326c-0.047,0-0.09,0.009-0.131,0.028c-0.04,0.019-0.076,0.053-0.107,0.103
		s-0.057,0.119-0.075,0.207S52.89,7.864,52.89,8c0,0.138,0.009,0.251,0.027,0.341s0.044,0.162,0.075,0.214S53.06,8.644,53.1,8.665
		c0.041,0.021,0.084,0.031,0.131,0.031c0.046,0,0.09-0.01,0.13-0.031c0.041-0.021,0.077-0.057,0.108-0.109s0.056-0.124,0.074-0.214
		S53.571,8.138,53.571,8c0-0.136-0.01-0.249-0.028-0.337S53.5,7.506,53.469,7.456s-0.067-0.084-0.108-0.103
		C53.32,7.335,53.276,7.326,53.23,7.326z M53.23,8.279c-0.081,0-0.148-0.026-0.2-0.077C52.979,8.151,52.952,8.083,52.952,8
		c0-0.083,0.026-0.15,0.078-0.201s0.119-0.077,0.2-0.077s0.147,0.026,0.2,0.077C53.482,7.85,53.508,7.917,53.508,8
		c0,0.083-0.025,0.151-0.077,0.202C53.378,8.253,53.312,8.279,53.23,8.279z"/>
	<path fill="#FFFFFF" d="M56.155,8.633v0.48h-1.621v-0.48h0.55V7.493h-0.449V7.124c0.133-0.025,0.245-0.054,0.338-0.087
		c0.093-0.032,0.183-0.075,0.271-0.129h0.438v1.725H56.155z"/>
	<path fill="#FFFFFF" d="M57.403,9.155c-0.13,0-0.248-0.025-0.354-0.074c-0.106-0.05-0.198-0.124-0.275-0.221
		c-0.076-0.097-0.135-0.218-0.177-0.362C56.555,8.354,56.534,8.188,56.534,8c0-0.187,0.021-0.353,0.062-0.495
		s0.101-0.261,0.177-0.355c0.077-0.093,0.169-0.165,0.275-0.212c0.106-0.047,0.225-0.071,0.354-0.071s0.248,0.024,0.354,0.071
		c0.107,0.048,0.198,0.119,0.275,0.212c0.076,0.094,0.136,0.212,0.177,0.355C58.252,7.647,58.272,7.813,58.272,8
		c0,0.188-0.021,0.354-0.062,0.498c-0.041,0.144-0.101,0.265-0.177,0.362c-0.077,0.098-0.168,0.171-0.275,0.221
		C57.651,9.13,57.533,9.155,57.403,9.155z M57.403,7.326c-0.047,0-0.09,0.009-0.13,0.028c-0.041,0.019-0.077,0.053-0.108,0.103
		s-0.056,0.119-0.074,0.207C57.071,7.751,57.062,7.864,57.062,8c0,0.138,0.009,0.251,0.028,0.341
		c0.019,0.09,0.043,0.162,0.074,0.214s0.067,0.089,0.108,0.109c0.04,0.021,0.083,0.031,0.13,0.031c0.046,0,0.09-0.01,0.131-0.031
		c0.04-0.021,0.076-0.057,0.107-0.109s0.057-0.124,0.075-0.214S57.744,8.138,57.744,8c0-0.136-0.009-0.249-0.027-0.337
		s-0.044-0.157-0.075-0.207s-0.067-0.084-0.107-0.103C57.493,7.335,57.449,7.326,57.403,7.326z M57.403,8.279
		c-0.081,0-0.147-0.026-0.199-0.077C57.151,8.151,57.125,8.083,57.125,8c0-0.083,0.026-0.15,0.079-0.201
		c0.052-0.051,0.118-0.077,0.199-0.077s0.147,0.026,0.2,0.077C57.655,7.85,57.682,7.917,57.682,8c0,0.083-0.026,0.151-0.078,0.202
		C57.551,8.253,57.484,8.279,57.403,8.279z"/>
	<path fill="#FFFFFF" d="M60.328,8.633v0.48h-1.621v-0.48h0.55V7.493h-0.448V7.124c0.132-0.025,0.244-0.054,0.337-0.087
		c0.093-0.032,0.184-0.075,0.271-0.129h0.438v1.725H60.328z"/>
	<path fill="#FFFFFF" d="M61.577,9.155c-0.13,0-0.249-0.025-0.355-0.074c-0.106-0.05-0.198-0.124-0.274-0.221
		c-0.076-0.097-0.136-0.218-0.178-0.362C60.729,8.354,60.707,8.188,60.707,8c0-0.187,0.021-0.353,0.062-0.495
		c0.042-0.143,0.102-0.261,0.178-0.355c0.076-0.093,0.168-0.165,0.274-0.212c0.106-0.047,0.226-0.071,0.355-0.071
		c0.129,0,0.248,0.024,0.354,0.071c0.106,0.048,0.198,0.119,0.274,0.212c0.076,0.094,0.136,0.212,0.178,0.355
		C62.425,7.647,62.446,7.813,62.446,8c0,0.188-0.021,0.354-0.062,0.498c-0.042,0.144-0.102,0.265-0.178,0.362
		c-0.076,0.098-0.168,0.171-0.274,0.221C61.825,9.13,61.706,9.155,61.577,9.155z M61.577,7.326c-0.047,0-0.09,0.009-0.131,0.028
		s-0.076,0.053-0.107,0.103s-0.057,0.119-0.075,0.207S61.235,7.864,61.235,8c0,0.138,0.01,0.251,0.028,0.341
		s0.044,0.162,0.075,0.214s0.066,0.089,0.107,0.109c0.041,0.021,0.084,0.031,0.131,0.031c0.046,0,0.089-0.01,0.13-0.031
		c0.041-0.021,0.076-0.057,0.107-0.109c0.032-0.052,0.057-0.124,0.075-0.214S61.917,8.138,61.917,8c0-0.136-0.009-0.249-0.027-0.337
		s-0.043-0.157-0.075-0.207c-0.031-0.05-0.066-0.084-0.107-0.103S61.623,7.326,61.577,7.326z M61.577,8.279
		c-0.082,0-0.148-0.026-0.2-0.077C61.324,8.151,61.299,8.083,61.299,8c0-0.083,0.025-0.15,0.078-0.201
		c0.052-0.051,0.118-0.077,0.2-0.077c0.081,0,0.147,0.026,0.199,0.077C61.829,7.85,61.854,7.917,61.854,8
		c0,0.083-0.025,0.151-0.078,0.202C61.725,8.253,61.658,8.279,61.577,8.279z"/>
	<path fill="#FFFFFF" d="M64.502,8.633v0.48h-1.621v-0.48h0.549V7.493h-0.448V7.124c0.132-0.025,0.245-0.054,0.337-0.087
		c0.094-0.032,0.184-0.075,0.271-0.129h0.438v1.725H64.502z"/>
	<g>
		<path fill="#FFFFFF" d="M62.347,10.837c0-0.13,0.024-0.249,0.074-0.355s0.124-0.198,0.221-0.274
			c0.098-0.077,0.218-0.136,0.362-0.178c0.144-0.042,0.31-0.062,0.497-0.062s0.353,0.021,0.495,0.062
			c0.143,0.042,0.261,0.101,0.354,0.178c0.095,0.076,0.165,0.168,0.213,0.274c0.047,0.106,0.071,0.225,0.071,0.355
			c0,0.129-0.024,0.248-0.071,0.355c-0.048,0.106-0.118,0.198-0.213,0.274c-0.094,0.076-0.212,0.135-0.354,0.177
			c-0.143,0.042-0.308,0.062-0.495,0.062s-0.354-0.021-0.497-0.062c-0.145-0.042-0.265-0.101-0.362-0.177
			c-0.097-0.077-0.171-0.168-0.221-0.274C62.371,11.085,62.347,10.967,62.347,10.837z M64.175,10.837
			c0-0.046-0.009-0.09-0.027-0.131s-0.053-0.076-0.103-0.107s-0.118-0.056-0.207-0.075c-0.088-0.019-0.2-0.027-0.337-0.027
			s-0.251,0.009-0.341,0.027c-0.091,0.019-0.162,0.044-0.214,0.075s-0.089,0.067-0.109,0.107c-0.021,0.041-0.031,0.084-0.031,0.131
			s0.01,0.089,0.031,0.13c0.021,0.04,0.058,0.076,0.109,0.107s0.123,0.056,0.214,0.075c0.09,0.019,0.204,0.028,0.341,0.028
			s0.249-0.009,0.337-0.028c0.089-0.019,0.157-0.043,0.207-0.075s0.084-0.067,0.103-0.107
			C64.166,10.927,64.175,10.884,64.175,10.837z M63.223,10.837c0-0.082,0.025-0.148,0.077-0.2c0.051-0.052,0.117-0.078,0.201-0.078
			c0.083,0,0.15,0.026,0.201,0.078c0.052,0.052,0.077,0.119,0.077,0.2c0,0.081-0.025,0.147-0.077,0.2
			c-0.051,0.052-0.118,0.078-0.201,0.078c-0.084,0-0.15-0.026-0.201-0.078C63.248,10.985,63.223,10.918,63.223,10.837z"/>
		<path fill="#FFFFFF" d="M62.868,13.762h-0.48v-1.621h0.48v0.549h1.141v-0.449h0.368c0.025,0.132,0.055,0.245,0.087,0.337
			c0.033,0.093,0.076,0.183,0.129,0.271v0.438h-1.725V13.762z"/>
		<path fill="#FFFFFF" d="M62.347,15.01c0-0.13,0.024-0.248,0.074-0.354c0.05-0.107,0.124-0.198,0.221-0.275
			c0.098-0.076,0.218-0.136,0.362-0.177c0.144-0.042,0.31-0.062,0.497-0.062s0.353,0.021,0.495,0.062
			c0.143,0.042,0.261,0.101,0.354,0.177c0.095,0.077,0.165,0.168,0.213,0.275c0.047,0.106,0.071,0.225,0.071,0.354
			c0,0.13-0.024,0.248-0.071,0.355c-0.048,0.106-0.118,0.198-0.213,0.275c-0.094,0.076-0.212,0.135-0.354,0.177
			c-0.143,0.042-0.308,0.062-0.495,0.062s-0.354-0.021-0.497-0.062c-0.145-0.042-0.265-0.101-0.362-0.177
			c-0.097-0.077-0.171-0.168-0.221-0.275C62.371,15.258,62.347,15.141,62.347,15.01z M64.175,15.01c0-0.046-0.009-0.09-0.027-0.13
			s-0.053-0.077-0.103-0.108s-0.118-0.056-0.207-0.075c-0.088-0.019-0.2-0.027-0.337-0.027s-0.251,0.009-0.341,0.027
			c-0.091,0.019-0.162,0.043-0.214,0.075s-0.089,0.067-0.109,0.108c-0.021,0.041-0.031,0.084-0.031,0.13
			c0,0.047,0.01,0.09,0.031,0.13c0.021,0.041,0.058,0.077,0.109,0.108c0.052,0.032,0.123,0.056,0.214,0.075
			c0.09,0.019,0.204,0.028,0.341,0.028s0.249-0.01,0.337-0.028c0.089-0.019,0.157-0.043,0.207-0.075
			c0.05-0.031,0.084-0.067,0.103-0.108S64.175,15.057,64.175,15.01z M63.223,15.01c0-0.081,0.025-0.147,0.077-0.2
			c0.051-0.052,0.117-0.078,0.201-0.078c0.083,0,0.15,0.026,0.201,0.078c0.052,0.052,0.077,0.119,0.077,0.2s-0.025,0.148-0.077,0.2
			c-0.051,0.052-0.118,0.079-0.201,0.079c-0.084,0-0.15-0.026-0.201-0.079C63.248,15.158,63.223,15.091,63.223,15.01z"/>
		<path fill="#FFFFFF" d="M62.868,17.935h-0.48v-1.621h0.48v0.549h1.141v-0.448h0.368c0.025,0.132,0.055,0.245,0.087,0.337
			c0.033,0.093,0.076,0.184,0.129,0.271v0.438h-1.725V17.935z"/>
		<path fill="#FFFFFF" d="M62.347,19.184c0-0.13,0.024-0.248,0.074-0.354c0.05-0.107,0.124-0.198,0.221-0.275
			c0.098-0.077,0.218-0.136,0.362-0.177c0.144-0.042,0.31-0.062,0.497-0.062s0.353,0.021,0.495,0.062
			c0.143,0.042,0.261,0.101,0.354,0.177c0.095,0.077,0.165,0.168,0.213,0.275c0.047,0.106,0.071,0.225,0.071,0.354
			s-0.024,0.248-0.071,0.355c-0.048,0.106-0.118,0.198-0.213,0.274c-0.094,0.077-0.212,0.136-0.354,0.177
			c-0.143,0.042-0.308,0.062-0.495,0.062s-0.354-0.021-0.497-0.062c-0.145-0.042-0.265-0.101-0.362-0.177
			c-0.097-0.076-0.171-0.168-0.221-0.274C62.371,19.432,62.347,19.313,62.347,19.184z M64.175,19.184c0-0.046-0.009-0.09-0.027-0.13
			c-0.019-0.041-0.053-0.077-0.103-0.108s-0.118-0.056-0.207-0.075c-0.088-0.019-0.2-0.028-0.337-0.028s-0.251,0.009-0.341,0.028
			c-0.091,0.019-0.162,0.043-0.214,0.075s-0.089,0.067-0.109,0.108c-0.021,0.041-0.031,0.084-0.031,0.13s0.01,0.09,0.031,0.13
			c0.021,0.041,0.058,0.077,0.109,0.108s0.123,0.056,0.214,0.075c0.09,0.019,0.204,0.028,0.341,0.028s0.249-0.009,0.337-0.028
			c0.089-0.019,0.157-0.043,0.207-0.075s0.084-0.067,0.103-0.108S64.175,19.23,64.175,19.184z M63.223,19.184
			c0-0.081,0.025-0.148,0.077-0.2c0.051-0.052,0.117-0.078,0.201-0.078c0.083,0,0.15,0.026,0.201,0.078
			c0.052,0.052,0.077,0.119,0.077,0.2s-0.025,0.148-0.077,0.2c-0.051,0.052-0.118,0.078-0.201,0.078
			c-0.084,0-0.15-0.026-0.201-0.078C63.248,19.332,63.223,19.265,63.223,19.184z"/>
		<path fill="#FFFFFF" d="M62.868,22.108h-0.48v-1.621h0.48v0.549h1.141v-0.449h0.368c0.025,0.132,0.055,0.245,0.087,0.337
			c0.033,0.093,0.076,0.183,0.129,0.271v0.438h-1.725V22.108z"/>
		<path fill="#FFFFFF" d="M62.868,24.195h-0.48v-1.621h0.48v0.549h1.141v-0.449h0.368c0.025,0.133,0.055,0.245,0.087,0.338
			c0.033,0.092,0.076,0.183,0.129,0.271v0.438h-1.725V24.195z"/>
		<path fill="#FFFFFF" d="M62.868,26.281h-0.48v-1.621h0.48v0.55h1.141v-0.449h0.368c0.025,0.132,0.055,0.245,0.087,0.337
			c0.033,0.093,0.076,0.183,0.129,0.271v0.438h-1.725V26.281z"/>
		<path fill="#FFFFFF" d="M62.868,28.368h-0.48v-1.621h0.48v0.55h1.141v-0.449h0.368c0.025,0.132,0.055,0.245,0.087,0.338
			c0.033,0.092,0.076,0.183,0.129,0.271v0.438h-1.725V28.368z"/>
	</g>
	<g>
		<path fill="#FFFFFF" d="M42.445,27.453c0,0.129-0.025,0.248-0.075,0.354c-0.05,0.107-0.123,0.198-0.221,0.274
			c-0.098,0.077-0.218,0.136-0.361,0.178s-0.31,0.063-0.497,0.063c-0.188,0-0.354-0.021-0.496-0.063s-0.261-0.101-0.354-0.178
			c-0.094-0.076-0.165-0.167-0.212-0.274c-0.048-0.106-0.072-0.225-0.072-0.354c0-0.13,0.024-0.249,0.072-0.355
			c0.047-0.106,0.118-0.198,0.212-0.275c0.094-0.076,0.212-0.135,0.354-0.177c0.143-0.042,0.308-0.062,0.496-0.062
			c0.188,0,0.354,0.021,0.497,0.062c0.144,0.042,0.264,0.101,0.361,0.177c0.098,0.077,0.171,0.168,0.221,0.275
			S42.445,27.323,42.445,27.453z M40.615,27.453c0,0.046,0.01,0.09,0.028,0.13s0.053,0.076,0.103,0.107s0.119,0.057,0.207,0.075
			c0.088,0.019,0.2,0.028,0.338,0.028c0.137,0,0.25-0.009,0.34-0.028c0.091-0.018,0.162-0.043,0.214-0.075
			c0.053-0.031,0.089-0.067,0.11-0.107c0.021-0.041,0.031-0.084,0.031-0.13c0-0.047-0.011-0.09-0.031-0.13
			c-0.021-0.041-0.058-0.077-0.11-0.108c-0.052-0.031-0.123-0.056-0.214-0.075c-0.09-0.019-0.203-0.028-0.34-0.028
			c-0.138,0-0.25,0.009-0.338,0.028c-0.088,0.019-0.157,0.043-0.207,0.075s-0.084,0.067-0.103,0.108S40.615,27.406,40.615,27.453z
			 M41.568,27.453c0,0.081-0.025,0.147-0.076,0.2s-0.118,0.078-0.201,0.078c-0.084,0-0.151-0.026-0.202-0.078
			s-0.076-0.119-0.076-0.2c0-0.082,0.025-0.148,0.076-0.2s0.118-0.078,0.202-0.078c0.083,0,0.15,0.026,0.201,0.078
			S41.568,27.372,41.568,27.453z"/>
		<path fill="#FFFFFF" d="M41.924,24.528h0.479v1.621h-0.479v-0.55h-1.142v0.449h-0.368c-0.025-0.132-0.055-0.244-0.087-0.337
			c-0.032-0.093-0.075-0.183-0.129-0.271v-0.438h1.726V24.528z"/>
		<path fill="#FFFFFF" d="M42.445,23.28c0,0.13-0.025,0.248-0.075,0.354c-0.05,0.107-0.123,0.198-0.221,0.275
			s-0.218,0.136-0.361,0.177c-0.144,0.042-0.31,0.063-0.497,0.063c-0.188,0-0.354-0.021-0.496-0.063
			c-0.143-0.042-0.261-0.101-0.354-0.177s-0.165-0.168-0.212-0.275c-0.048-0.106-0.072-0.225-0.072-0.354s0.024-0.248,0.072-0.355
			c0.047-0.106,0.118-0.198,0.212-0.275c0.094-0.076,0.212-0.135,0.354-0.177c0.143-0.042,0.308-0.062,0.496-0.062
			c0.188,0,0.354,0.021,0.497,0.062c0.144,0.042,0.264,0.101,0.361,0.177c0.098,0.077,0.171,0.168,0.221,0.275
			C42.42,23.032,42.445,23.15,42.445,23.28z M40.615,23.28c0,0.046,0.01,0.09,0.028,0.13s0.053,0.077,0.103,0.108
			s0.119,0.056,0.207,0.075s0.2,0.027,0.338,0.027c0.137,0,0.25-0.009,0.34-0.027c0.091-0.019,0.162-0.043,0.214-0.075
			c0.053-0.031,0.089-0.067,0.11-0.108c0.021-0.041,0.031-0.084,0.031-0.13s-0.011-0.09-0.031-0.13
			c-0.021-0.041-0.058-0.077-0.11-0.108c-0.052-0.031-0.123-0.056-0.214-0.075c-0.09-0.019-0.203-0.028-0.34-0.028
			c-0.138,0-0.25,0.009-0.338,0.028s-0.157,0.043-0.207,0.075s-0.084,0.067-0.103,0.108S40.615,23.233,40.615,23.28z M41.568,23.28
			c0,0.081-0.025,0.147-0.076,0.2s-0.118,0.079-0.201,0.079c-0.084,0-0.151-0.026-0.202-0.079s-0.076-0.119-0.076-0.2
			s0.025-0.148,0.076-0.2c0.051-0.052,0.118-0.079,0.202-0.079c0.083,0,0.15,0.026,0.201,0.079
			C41.543,23.132,41.568,23.199,41.568,23.28z"/>
		<path fill="#FFFFFF" d="M41.924,20.355h0.479v1.621h-0.479v-0.549h-1.142v0.448h-0.368c-0.025-0.132-0.055-0.244-0.087-0.337
			s-0.075-0.184-0.129-0.271v-0.438h1.726V20.355z"/>
		<path fill="#FFFFFF" d="M42.445,19.107c0,0.129-0.025,0.248-0.075,0.354c-0.05,0.106-0.123,0.198-0.221,0.274
			c-0.098,0.077-0.218,0.136-0.361,0.177c-0.144,0.042-0.31,0.062-0.497,0.062c-0.188,0-0.354-0.021-0.496-0.062
			c-0.143-0.042-0.261-0.101-0.354-0.177c-0.094-0.076-0.165-0.168-0.212-0.274c-0.048-0.107-0.072-0.225-0.072-0.354
			c0-0.13,0.024-0.249,0.072-0.355c0.047-0.106,0.118-0.198,0.212-0.275s0.212-0.135,0.354-0.177
			c0.143-0.042,0.308-0.062,0.496-0.062c0.188,0,0.354,0.021,0.497,0.062c0.144,0.042,0.264,0.101,0.361,0.177
			s0.171,0.168,0.221,0.275S42.445,18.977,42.445,19.107z M40.615,19.107c0,0.046,0.01,0.089,0.028,0.13
			c0.019,0.041,0.053,0.076,0.103,0.107s0.119,0.056,0.207,0.075c0.088,0.018,0.2,0.027,0.338,0.027c0.137,0,0.25-0.009,0.34-0.027
			c0.091-0.019,0.162-0.044,0.214-0.075c0.053-0.031,0.089-0.067,0.11-0.107c0.021-0.041,0.031-0.084,0.031-0.13
			c0-0.047-0.011-0.09-0.031-0.131c-0.021-0.041-0.058-0.076-0.11-0.108c-0.052-0.031-0.123-0.056-0.214-0.074
			c-0.09-0.019-0.203-0.028-0.34-0.028c-0.138,0-0.25,0.009-0.338,0.028c-0.088,0.018-0.157,0.043-0.207,0.074
			c-0.05,0.032-0.084,0.067-0.103,0.108S40.615,19.06,40.615,19.107z M41.568,19.107c0,0.081-0.025,0.147-0.076,0.2
			s-0.118,0.078-0.201,0.078c-0.084,0-0.151-0.026-0.202-0.078s-0.076-0.119-0.076-0.2c0-0.082,0.025-0.148,0.076-0.201
			c0.051-0.052,0.118-0.078,0.202-0.078c0.083,0,0.15,0.026,0.201,0.078C41.543,18.958,41.568,19.025,41.568,19.107z"/>
		<path fill="#FFFFFF" d="M41.924,16.182h0.479v1.621h-0.479v-0.549h-1.142v0.449h-0.368c-0.025-0.132-0.055-0.245-0.087-0.337
			s-0.075-0.183-0.129-0.271v-0.438h1.726V16.182z"/>
		<path fill="#FFFFFF" d="M42.445,14.934c0,0.13-0.025,0.248-0.075,0.354s-0.123,0.198-0.221,0.275
			c-0.098,0.076-0.218,0.136-0.361,0.177c-0.144,0.042-0.31,0.062-0.497,0.062c-0.188,0-0.354-0.021-0.496-0.062
			c-0.143-0.042-0.261-0.101-0.354-0.177c-0.094-0.077-0.165-0.168-0.212-0.275c-0.048-0.106-0.072-0.225-0.072-0.354
			s0.024-0.248,0.072-0.355c0.047-0.107,0.118-0.198,0.212-0.275c0.094-0.076,0.212-0.136,0.354-0.177s0.308-0.062,0.496-0.062
			c0.188,0,0.354,0.021,0.497,0.062s0.264,0.101,0.361,0.177c0.098,0.077,0.171,0.168,0.221,0.275S42.445,14.804,42.445,14.934z
			 M40.615,14.934c0,0.046,0.01,0.09,0.028,0.13s0.053,0.077,0.103,0.108s0.119,0.056,0.207,0.074
			c0.088,0.019,0.2,0.028,0.338,0.028c0.137,0,0.25-0.009,0.34-0.028c0.091-0.018,0.162-0.043,0.214-0.074
			c0.053-0.031,0.089-0.067,0.11-0.108c0.021-0.041,0.031-0.084,0.031-0.13s-0.011-0.09-0.031-0.131
			c-0.021-0.041-0.058-0.076-0.11-0.108c-0.052-0.031-0.123-0.056-0.214-0.074c-0.09-0.019-0.203-0.028-0.34-0.028
			c-0.138,0-0.25,0.009-0.338,0.028c-0.088,0.018-0.157,0.043-0.207,0.074c-0.05,0.032-0.084,0.067-0.103,0.108
			S40.615,14.887,40.615,14.934z M41.568,14.934c0,0.081-0.025,0.147-0.076,0.2s-0.118,0.078-0.201,0.078
			c-0.084,0-0.151-0.026-0.202-0.078s-0.076-0.119-0.076-0.2s0.025-0.148,0.076-0.2s0.118-0.078,0.202-0.078
			c0.083,0,0.15,0.026,0.201,0.078S41.568,14.853,41.568,14.934z"/>
		<path fill="#FFFFFF" d="M41.924,12.009h0.479v1.621h-0.479v-0.55h-1.142v0.449h-0.368c-0.025-0.132-0.055-0.245-0.087-0.337
			c-0.032-0.092-0.075-0.183-0.129-0.271v-0.438h1.726V12.009z"/>
		<path fill="#FFFFFF" d="M42.445,10.76c0,0.13-0.025,0.249-0.075,0.355c-0.05,0.107-0.123,0.198-0.221,0.275
			s-0.218,0.136-0.361,0.177s-0.31,0.062-0.497,0.062c-0.188,0-0.354-0.021-0.496-0.062s-0.261-0.101-0.354-0.177
			s-0.165-0.168-0.212-0.275c-0.048-0.106-0.072-0.225-0.072-0.355c0-0.129,0.024-0.248,0.072-0.354
			c0.047-0.106,0.118-0.198,0.212-0.274c0.094-0.077,0.212-0.136,0.354-0.177c0.143-0.042,0.308-0.062,0.496-0.062
			c0.188,0,0.354,0.021,0.497,0.062c0.144,0.042,0.264,0.101,0.361,0.177c0.098,0.076,0.171,0.168,0.221,0.274
			C42.42,10.512,42.445,10.63,42.445,10.76z M40.615,10.76c0,0.047,0.01,0.09,0.028,0.131c0.019,0.041,0.053,0.076,0.103,0.108
			c0.05,0.031,0.119,0.056,0.207,0.074c0.088,0.019,0.2,0.028,0.338,0.028c0.137,0,0.25-0.009,0.34-0.028
			c0.091-0.018,0.162-0.043,0.214-0.074c0.053-0.032,0.089-0.067,0.11-0.108c0.021-0.041,0.031-0.084,0.031-0.131
			c0-0.046-0.011-0.089-0.031-0.13c-0.021-0.041-0.058-0.076-0.11-0.107c-0.052-0.031-0.123-0.056-0.214-0.075
			c-0.09-0.019-0.203-0.028-0.34-0.028c-0.138,0-0.25,0.009-0.338,0.028s-0.157,0.043-0.207,0.075s-0.084,0.067-0.103,0.107
			C40.625,10.67,40.615,10.714,40.615,10.76z M41.568,10.76c0,0.082-0.025,0.148-0.076,0.2c-0.051,0.052-0.118,0.079-0.201,0.079
			c-0.084,0-0.151-0.026-0.202-0.079c-0.051-0.052-0.076-0.119-0.076-0.2c0-0.081,0.025-0.147,0.076-0.2s0.118-0.078,0.202-0.078
			c0.083,0,0.15,0.026,0.201,0.078S41.568,10.679,41.568,10.76z"/>
	</g>
	<g>
		<path fill="#FFFFFF" d="M41.855,30.83v0.48h-1.62v-0.48h0.549v-1.141h-0.448V29.32c0.132-0.025,0.244-0.054,0.337-0.086
			c0.093-0.033,0.184-0.076,0.271-0.129h0.438v1.725H41.855z"/>
		<path fill="#FFFFFF" d="M43.104,31.351c-0.13,0-0.248-0.025-0.355-0.075c-0.106-0.05-0.197-0.124-0.274-0.221
			c-0.076-0.097-0.136-0.218-0.178-0.362c-0.041-0.144-0.062-0.309-0.062-0.497s0.021-0.353,0.062-0.496
			c0.042-0.142,0.102-0.26,0.178-0.354c0.077-0.094,0.168-0.165,0.274-0.212c0.107-0.048,0.226-0.071,0.355-0.071
			c0.129,0,0.248,0.023,0.354,0.071c0.106,0.047,0.198,0.118,0.274,0.212c0.076,0.094,0.136,0.212,0.178,0.354
			c0.042,0.143,0.062,0.308,0.062,0.496s-0.021,0.354-0.062,0.497s-0.102,0.265-0.178,0.362s-0.168,0.171-0.274,0.221
			S43.233,31.351,43.104,31.351z M43.104,29.522c-0.047,0-0.09,0.009-0.131,0.028c-0.04,0.019-0.076,0.053-0.107,0.103
			s-0.057,0.119-0.075,0.207c-0.019,0.088-0.027,0.201-0.027,0.337s0.009,0.25,0.027,0.341c0.019,0.09,0.044,0.162,0.075,0.214
			s0.067,0.088,0.107,0.109c0.041,0.021,0.084,0.031,0.131,0.031c0.046,0,0.089-0.01,0.13-0.031s0.077-0.057,0.107-0.109
			c0.031-0.052,0.057-0.124,0.075-0.214c0.019-0.091,0.028-0.204,0.028-0.341s-0.01-0.25-0.028-0.337
			c-0.019-0.088-0.044-0.157-0.075-0.207c-0.03-0.05-0.066-0.084-0.107-0.103S43.15,29.522,43.104,29.522z M43.104,30.475
			c-0.082,0-0.147-0.025-0.2-0.076c-0.053-0.051-0.078-0.118-0.078-0.202s0.025-0.151,0.078-0.202
			c0.053-0.051,0.118-0.077,0.2-0.077c0.081,0,0.147,0.025,0.199,0.077c0.053,0.051,0.078,0.118,0.078,0.202
			s-0.025,0.15-0.078,0.202C43.252,30.449,43.186,30.475,43.104,30.475z"/>
		<path fill="#FFFFFF" d="M46.029,30.83v0.48h-1.621v-0.48h0.55v-1.141h-0.449V29.32c0.133-0.025,0.245-0.054,0.338-0.086
			c0.093-0.033,0.183-0.076,0.271-0.129h0.438v1.725H46.029z"/>
		<path fill="#FFFFFF" d="M47.277,31.351c-0.13,0-0.248-0.025-0.354-0.075c-0.107-0.05-0.198-0.124-0.274-0.221
			c-0.077-0.097-0.137-0.218-0.178-0.362c-0.042-0.144-0.062-0.309-0.062-0.497s0.021-0.353,0.062-0.496
			c0.041-0.142,0.101-0.26,0.178-0.354c0.076-0.094,0.167-0.165,0.274-0.212c0.106-0.048,0.225-0.071,0.354-0.071
			s0.248,0.023,0.354,0.071c0.106,0.047,0.198,0.118,0.275,0.212c0.076,0.094,0.135,0.212,0.177,0.354
			c0.042,0.143,0.062,0.308,0.062,0.496s-0.021,0.354-0.062,0.497s-0.101,0.265-0.177,0.362c-0.077,0.097-0.169,0.171-0.275,0.221
			S47.407,31.351,47.277,31.351z M47.277,29.522c-0.047,0-0.09,0.009-0.131,0.028c-0.04,0.019-0.076,0.053-0.107,0.103
			s-0.056,0.119-0.075,0.207c-0.019,0.088-0.027,0.201-0.027,0.337s0.009,0.25,0.027,0.341c0.02,0.09,0.044,0.162,0.075,0.214
			s0.067,0.088,0.107,0.109c0.041,0.021,0.084,0.031,0.131,0.031c0.046,0,0.09-0.01,0.13-0.031c0.041-0.021,0.077-0.057,0.108-0.109
			s0.056-0.124,0.074-0.214c0.019-0.091,0.028-0.204,0.028-0.341s-0.01-0.25-0.028-0.337c-0.019-0.088-0.043-0.157-0.074-0.207
			s-0.067-0.084-0.108-0.103C47.367,29.531,47.323,29.522,47.277,29.522z M47.277,30.475c-0.081,0-0.147-0.025-0.2-0.076
			c-0.052-0.051-0.078-0.118-0.078-0.202s0.026-0.151,0.078-0.202c0.053-0.051,0.119-0.077,0.2-0.077s0.147,0.025,0.2,0.077
			c0.052,0.051,0.078,0.118,0.078,0.202s-0.026,0.15-0.078,0.202C47.425,30.449,47.358,30.475,47.277,30.475z"/>
		<path fill="#FFFFFF" d="M49.364,31.351c-0.13,0-0.249-0.025-0.354-0.075c-0.107-0.05-0.199-0.124-0.275-0.221
			s-0.136-0.218-0.177-0.362c-0.042-0.144-0.063-0.309-0.063-0.497s0.021-0.353,0.063-0.496c0.041-0.142,0.101-0.26,0.177-0.354
			c0.076-0.094,0.168-0.165,0.275-0.212c0.105-0.048,0.225-0.071,0.354-0.071s0.248,0.023,0.354,0.071
			c0.106,0.047,0.198,0.118,0.274,0.212c0.077,0.094,0.136,0.212,0.178,0.354c0.041,0.143,0.062,0.308,0.062,0.496
			s-0.021,0.354-0.062,0.497c-0.042,0.144-0.101,0.265-0.178,0.362c-0.076,0.097-0.168,0.171-0.274,0.221
			S49.494,31.351,49.364,31.351z M49.364,29.522c-0.047,0-0.091,0.009-0.131,0.028c-0.041,0.019-0.076,0.053-0.107,0.103
			s-0.057,0.119-0.075,0.207c-0.019,0.088-0.027,0.201-0.027,0.337s0.009,0.25,0.027,0.341c0.019,0.09,0.044,0.162,0.075,0.214
			s0.066,0.088,0.107,0.109c0.04,0.021,0.084,0.031,0.131,0.031c0.046,0,0.09-0.01,0.13-0.031s0.076-0.057,0.107-0.109
			c0.032-0.052,0.057-0.124,0.075-0.214c0.019-0.091,0.028-0.204,0.028-0.341s-0.01-0.25-0.028-0.337
			c-0.019-0.088-0.043-0.157-0.075-0.207c-0.031-0.05-0.067-0.084-0.107-0.103S49.41,29.522,49.364,29.522z M49.364,30.475
			c-0.082,0-0.148-0.025-0.2-0.076c-0.053-0.051-0.078-0.118-0.078-0.202s0.025-0.151,0.078-0.202
			c0.052-0.051,0.118-0.077,0.2-0.077c0.081,0,0.147,0.025,0.199,0.077c0.053,0.051,0.079,0.118,0.079,0.202
			s-0.026,0.15-0.079,0.202C49.512,30.449,49.445,30.475,49.364,30.475z"/>
		<path fill="#FFFFFF" d="M52.289,30.83v0.48h-1.621v-0.48h0.55v-1.141h-0.449V29.32c0.133-0.025,0.245-0.054,0.338-0.086
			c0.093-0.033,0.183-0.076,0.271-0.129h0.438v1.725H52.289z"/>
		<path fill="#FFFFFF" d="M53.537,31.351c-0.13,0-0.248-0.025-0.354-0.075c-0.107-0.05-0.198-0.124-0.275-0.221
			c-0.076-0.097-0.136-0.218-0.177-0.362c-0.042-0.144-0.062-0.309-0.062-0.497s0.021-0.353,0.062-0.496
			c0.041-0.142,0.101-0.26,0.177-0.354c0.077-0.094,0.168-0.165,0.275-0.212c0.106-0.048,0.225-0.071,0.354-0.071
			s0.248,0.023,0.354,0.071c0.106,0.047,0.198,0.118,0.275,0.212c0.076,0.094,0.135,0.212,0.177,0.354
			c0.042,0.143,0.062,0.308,0.062,0.496s-0.021,0.354-0.062,0.497s-0.101,0.265-0.177,0.362c-0.077,0.097-0.169,0.171-0.275,0.221
			S53.667,31.351,53.537,31.351z M53.537,29.522c-0.047,0-0.09,0.009-0.131,0.028c-0.04,0.019-0.076,0.053-0.107,0.103
			s-0.057,0.119-0.075,0.207c-0.018,0.088-0.027,0.201-0.027,0.337s0.01,0.25,0.027,0.341c0.019,0.09,0.044,0.162,0.075,0.214
			s0.067,0.088,0.107,0.109c0.041,0.021,0.084,0.031,0.131,0.031s0.09-0.01,0.13-0.031c0.041-0.021,0.077-0.057,0.108-0.109
			s0.057-0.124,0.074-0.214c0.019-0.091,0.028-0.204,0.028-0.341s-0.01-0.25-0.028-0.337c-0.018-0.088-0.043-0.157-0.074-0.207
			s-0.067-0.084-0.108-0.103C53.627,29.531,53.584,29.522,53.537,29.522z M53.537,30.475c-0.081,0-0.147-0.025-0.2-0.076
			c-0.053-0.051-0.078-0.118-0.078-0.202s0.025-0.151,0.078-0.202c0.053-0.051,0.119-0.077,0.2-0.077s0.147,0.025,0.2,0.077
			c0.052,0.051,0.078,0.118,0.078,0.202s-0.026,0.15-0.078,0.202C53.685,30.449,53.618,30.475,53.537,30.475z"/>
		<path fill="#FFFFFF" d="M56.462,30.83v0.48h-1.621v-0.48h0.55v-1.141h-0.449V29.32c0.133-0.025,0.245-0.054,0.338-0.086
			c0.093-0.033,0.184-0.076,0.271-0.129h0.438v1.725H56.462z"/>
		<path fill="#FFFFFF" d="M58.549,30.83v0.48h-1.621v-0.48h0.55v-1.141h-0.449V29.32c0.133-0.025,0.245-0.054,0.337-0.086
			c0.093-0.033,0.184-0.076,0.271-0.129h0.438v1.725H58.549z"/>
		<path fill="#FFFFFF" d="M59.797,31.351c-0.13,0-0.248-0.025-0.354-0.075c-0.107-0.05-0.198-0.124-0.275-0.221
			c-0.076-0.097-0.136-0.218-0.177-0.362c-0.042-0.144-0.062-0.309-0.062-0.497s0.021-0.353,0.062-0.496
			c0.041-0.142,0.101-0.26,0.177-0.354c0.077-0.094,0.168-0.165,0.275-0.212c0.106-0.048,0.225-0.071,0.354-0.071
			s0.248,0.023,0.354,0.071c0.107,0.047,0.198,0.118,0.275,0.212c0.076,0.094,0.136,0.212,0.177,0.354
			c0.042,0.143,0.062,0.308,0.062,0.496s-0.021,0.354-0.062,0.497c-0.041,0.144-0.101,0.265-0.177,0.362
			c-0.077,0.097-0.168,0.171-0.275,0.221C60.045,31.326,59.927,31.351,59.797,31.351z M59.797,29.522
			c-0.047,0-0.09,0.009-0.131,0.028c-0.04,0.019-0.076,0.053-0.107,0.103s-0.057,0.119-0.074,0.207
			c-0.019,0.088-0.028,0.201-0.028,0.337s0.01,0.25,0.028,0.341c0.018,0.09,0.043,0.162,0.074,0.214s0.067,0.088,0.107,0.109
			c0.041,0.021,0.084,0.031,0.131,0.031s0.09-0.01,0.131-0.031c0.04-0.021,0.076-0.057,0.107-0.109s0.056-0.124,0.074-0.214
			c0.019-0.091,0.028-0.204,0.028-0.341s-0.01-0.25-0.028-0.337c-0.019-0.088-0.043-0.157-0.074-0.207s-0.067-0.084-0.107-0.103
			C59.887,29.531,59.844,29.522,59.797,29.522z M59.797,30.475c-0.081,0-0.147-0.025-0.2-0.076
			c-0.052-0.051-0.078-0.118-0.078-0.202s0.026-0.151,0.078-0.202c0.053-0.051,0.119-0.077,0.2-0.077s0.147,0.025,0.2,0.077
			c0.052,0.051,0.078,0.118,0.078,0.202s-0.026,0.15-0.078,0.202C59.944,30.449,59.878,30.475,59.797,30.475z"/>
		<path fill="#FFFFFF" d="M61.884,31.351c-0.131,0-0.248-0.025-0.355-0.075c-0.106-0.05-0.198-0.124-0.274-0.221
			s-0.136-0.218-0.177-0.362c-0.042-0.144-0.062-0.309-0.062-0.497s0.021-0.353,0.062-0.496c0.041-0.142,0.101-0.26,0.177-0.354
			c0.076-0.094,0.168-0.165,0.274-0.212c0.107-0.048,0.225-0.071,0.355-0.071c0.13,0,0.247,0.023,0.354,0.071
			c0.106,0.047,0.198,0.118,0.274,0.212c0.077,0.094,0.136,0.212,0.178,0.354c0.042,0.143,0.062,0.308,0.062,0.496
			s-0.021,0.354-0.062,0.497s-0.101,0.265-0.178,0.362c-0.076,0.097-0.168,0.171-0.274,0.221
			C62.131,31.326,62.014,31.351,61.884,31.351z M61.884,29.522c-0.047,0-0.09,0.009-0.131,0.028
			c-0.04,0.019-0.076,0.053-0.108,0.103c-0.031,0.05-0.056,0.119-0.074,0.207c-0.019,0.088-0.027,0.201-0.027,0.337
			s0.009,0.25,0.027,0.341c0.019,0.09,0.043,0.162,0.074,0.214c0.032,0.052,0.068,0.088,0.108,0.109
			c0.041,0.021,0.084,0.031,0.131,0.031c0.046,0,0.09-0.01,0.13-0.031c0.041-0.021,0.077-0.057,0.108-0.109s0.056-0.124,0.074-0.214
			c0.019-0.091,0.027-0.204,0.027-0.341s-0.009-0.25-0.027-0.337c-0.019-0.088-0.043-0.157-0.074-0.207s-0.067-0.084-0.108-0.103
			C61.974,29.531,61.93,29.522,61.884,29.522z M61.884,30.475c-0.081,0-0.148-0.025-0.2-0.076c-0.052-0.051-0.078-0.118-0.078-0.202
			s0.026-0.151,0.078-0.202c0.052-0.051,0.119-0.077,0.2-0.077s0.147,0.025,0.199,0.077c0.053,0.051,0.079,0.118,0.079,0.202
			s-0.026,0.15-0.079,0.202C62.031,30.449,61.965,30.475,61.884,30.475z"/>
		<path fill="#FFFFFF" d="M64.809,30.83v0.48h-1.621v-0.48h0.55v-1.141h-0.449V29.32c0.133-0.025,0.245-0.054,0.338-0.086
			c0.093-0.033,0.183-0.076,0.271-0.129h0.438v1.725H64.809z"/>
	</g>
	<g>
		<path fill="#FFFFFF" d="M30.195,38.705v0.48h-1.62v-0.48h0.55v-1.141h-0.449v-0.368c0.133-0.025,0.245-0.054,0.338-0.087
			c0.092-0.032,0.183-0.076,0.271-0.129h0.438v1.725H30.195z"/>
		<path fill="#FFFFFF" d="M31.444,39.227c-0.13,0-0.248-0.024-0.354-0.074s-0.198-0.124-0.275-0.221
			c-0.076-0.098-0.135-0.218-0.177-0.362c-0.042-0.144-0.062-0.309-0.062-0.497c0-0.188,0.021-0.353,0.062-0.495
			c0.042-0.142,0.101-0.261,0.177-0.354c0.077-0.094,0.169-0.165,0.275-0.213c0.106-0.047,0.225-0.07,0.354-0.07
			s0.248,0.023,0.354,0.07c0.107,0.048,0.198,0.119,0.275,0.213c0.076,0.094,0.136,0.213,0.177,0.354
			c0.042,0.143,0.062,0.308,0.062,0.495c0,0.188-0.021,0.354-0.062,0.497c-0.041,0.145-0.101,0.265-0.177,0.362
			c-0.077,0.097-0.168,0.171-0.275,0.221C31.692,39.202,31.574,39.227,31.444,39.227z M31.444,37.398c-0.047,0-0.09,0.01-0.13,0.027
			c-0.041,0.019-0.077,0.053-0.108,0.102c-0.031,0.051-0.057,0.12-0.074,0.207c-0.019,0.089-0.028,0.201-0.028,0.338
			s0.01,0.251,0.028,0.341c0.018,0.091,0.043,0.162,0.074,0.214c0.031,0.053,0.067,0.09,0.108,0.109
			c0.04,0.021,0.083,0.031,0.13,0.031c0.046,0,0.09-0.01,0.131-0.031c0.04-0.02,0.076-0.057,0.107-0.109
			c0.031-0.052,0.056-0.123,0.075-0.214c0.018-0.09,0.027-0.204,0.027-0.341s-0.01-0.249-0.027-0.338
			c-0.02-0.087-0.044-0.156-0.075-0.207c-0.031-0.049-0.067-0.083-0.107-0.102C31.534,37.408,31.49,37.398,31.444,37.398z
			 M31.444,38.351c-0.081,0-0.147-0.024-0.2-0.076c-0.052-0.051-0.078-0.118-0.078-0.202c0-0.083,0.026-0.15,0.078-0.201
			c0.053-0.051,0.119-0.076,0.2-0.076s0.147,0.025,0.2,0.076c0.052,0.051,0.078,0.118,0.078,0.201c0,0.084-0.026,0.151-0.078,0.202
			C31.592,38.326,31.525,38.351,31.444,38.351z"/>
		<path fill="#FFFFFF" d="M34.369,38.705v0.48h-1.621v-0.48h0.55v-1.141H32.85v-0.368c0.132-0.025,0.244-0.054,0.337-0.087
			c0.093-0.032,0.184-0.076,0.271-0.129h0.438v1.725H34.369z"/>
		<path fill="#FFFFFF" d="M35.618,39.227c-0.131,0-0.249-0.024-0.355-0.074s-0.198-0.124-0.274-0.221
			c-0.077-0.098-0.136-0.218-0.178-0.362c-0.042-0.144-0.062-0.309-0.062-0.497c0-0.188,0.021-0.353,0.062-0.495
			c0.042-0.142,0.101-0.261,0.178-0.354c0.076-0.094,0.168-0.165,0.274-0.213c0.106-0.047,0.225-0.07,0.355-0.07
			c0.129,0,0.248,0.023,0.354,0.07c0.107,0.048,0.199,0.119,0.275,0.213s0.136,0.213,0.177,0.354
			c0.042,0.143,0.063,0.308,0.063,0.495c0,0.188-0.021,0.354-0.063,0.497c-0.041,0.145-0.101,0.265-0.177,0.362
			c-0.076,0.097-0.168,0.171-0.275,0.221C35.866,39.202,35.747,39.227,35.618,39.227z M35.618,37.398
			c-0.047,0-0.091,0.01-0.131,0.027c-0.041,0.019-0.076,0.053-0.107,0.102c-0.032,0.051-0.057,0.12-0.075,0.207
			c-0.019,0.089-0.028,0.201-0.028,0.338s0.01,0.251,0.028,0.341c0.019,0.091,0.043,0.162,0.075,0.214
			c0.031,0.053,0.066,0.09,0.107,0.109c0.04,0.021,0.084,0.031,0.131,0.031c0.046,0,0.089-0.01,0.13-0.031
			c0.04-0.02,0.076-0.057,0.107-0.109c0.031-0.052,0.057-0.123,0.075-0.214c0.019-0.09,0.027-0.204,0.027-0.341
			s-0.009-0.249-0.027-0.338c-0.019-0.087-0.044-0.156-0.075-0.207c-0.031-0.049-0.067-0.083-0.107-0.102
			C35.707,37.408,35.664,37.398,35.618,37.398z M35.618,38.351c-0.082,0-0.148-0.024-0.2-0.076
			c-0.053-0.051-0.079-0.118-0.079-0.202c0-0.083,0.026-0.15,0.079-0.201c0.052-0.051,0.118-0.076,0.2-0.076
			c0.081,0,0.147,0.025,0.199,0.076c0.053,0.051,0.078,0.118,0.078,0.201c0,0.084-0.025,0.151-0.078,0.202
			C35.766,38.326,35.699,38.351,35.618,38.351z"/>
		<path fill="#FFFFFF" d="M37.704,39.227c-0.13,0-0.248-0.024-0.354-0.074s-0.198-0.124-0.275-0.221
			c-0.076-0.098-0.135-0.218-0.177-0.362c-0.042-0.144-0.062-0.309-0.062-0.497c0-0.188,0.021-0.353,0.062-0.495
			c0.042-0.142,0.101-0.261,0.177-0.354c0.077-0.094,0.169-0.165,0.275-0.213c0.106-0.047,0.225-0.07,0.354-0.07
			s0.248,0.023,0.354,0.07c0.106,0.048,0.198,0.119,0.274,0.213c0.077,0.094,0.136,0.213,0.178,0.354
			c0.042,0.143,0.062,0.308,0.062,0.495c0,0.188-0.021,0.354-0.062,0.497c-0.042,0.145-0.101,0.265-0.178,0.362
			c-0.076,0.097-0.168,0.171-0.274,0.221S37.834,39.227,37.704,39.227z M37.704,37.398c-0.047,0-0.09,0.01-0.13,0.027
			c-0.041,0.019-0.077,0.053-0.108,0.102c-0.031,0.051-0.056,0.12-0.074,0.207c-0.02,0.089-0.028,0.201-0.028,0.338
			s0.009,0.251,0.028,0.341c0.019,0.091,0.043,0.162,0.074,0.214c0.031,0.053,0.067,0.09,0.108,0.109
			c0.04,0.021,0.083,0.031,0.13,0.031c0.046,0,0.09-0.01,0.131-0.031c0.04-0.02,0.076-0.057,0.107-0.109
			c0.031-0.052,0.056-0.123,0.075-0.214c0.019-0.09,0.027-0.204,0.027-0.341s-0.009-0.249-0.027-0.338
			c-0.02-0.087-0.044-0.156-0.075-0.207c-0.031-0.049-0.067-0.083-0.107-0.102C37.794,37.408,37.75,37.398,37.704,37.398z
			 M37.704,38.351c-0.081,0-0.147-0.024-0.2-0.076c-0.052-0.051-0.078-0.118-0.078-0.202c0-0.083,0.026-0.15,0.078-0.201
			c0.053-0.051,0.119-0.076,0.2-0.076s0.147,0.025,0.2,0.076c0.052,0.051,0.078,0.118,0.078,0.201c0,0.084-0.026,0.151-0.078,0.202
			C37.852,38.326,37.785,38.351,37.704,38.351z"/>
		<path fill="#FFFFFF" d="M40.629,38.705v0.48h-1.621v-0.48h0.55v-1.141h-0.448v-0.368c0.132-0.025,0.244-0.054,0.337-0.087
			c0.093-0.032,0.184-0.076,0.271-0.129h0.438v1.725H40.629z"/>
		<path fill="#FFFFFF" d="M41.877,39.227c-0.129,0-0.248-0.024-0.354-0.074s-0.198-0.124-0.274-0.221
			c-0.076-0.098-0.136-0.218-0.178-0.362c-0.041-0.144-0.062-0.309-0.062-0.497c0-0.188,0.021-0.353,0.062-0.495
			c0.042-0.142,0.102-0.261,0.178-0.354s0.168-0.165,0.274-0.213c0.106-0.047,0.226-0.07,0.354-0.07c0.13,0,0.248,0.023,0.354,0.07
			c0.107,0.048,0.198,0.119,0.275,0.213c0.076,0.094,0.136,0.213,0.178,0.354c0.041,0.143,0.062,0.308,0.062,0.495
			c0,0.188-0.021,0.354-0.062,0.497c-0.042,0.145-0.102,0.265-0.178,0.362c-0.077,0.097-0.168,0.171-0.275,0.221
			C42.125,39.202,42.007,39.227,41.877,39.227z M41.877,37.398c-0.046,0-0.09,0.01-0.13,0.027c-0.041,0.019-0.077,0.053-0.108,0.102
			c-0.03,0.051-0.056,0.12-0.074,0.207c-0.019,0.089-0.028,0.201-0.028,0.338s0.01,0.251,0.028,0.341
			c0.019,0.091,0.044,0.162,0.074,0.214c0.031,0.053,0.067,0.09,0.108,0.109c0.04,0.021,0.084,0.031,0.13,0.031
			c0.047,0,0.09-0.01,0.131-0.031c0.04-0.02,0.076-0.057,0.107-0.109c0.031-0.052,0.057-0.123,0.075-0.214
			c0.019-0.09,0.028-0.204,0.028-0.341s-0.01-0.249-0.028-0.338c-0.019-0.087-0.044-0.156-0.075-0.207
			c-0.031-0.049-0.067-0.083-0.107-0.102C41.967,37.408,41.924,37.398,41.877,37.398z M41.877,38.351
			c-0.081,0-0.147-0.024-0.199-0.076c-0.053-0.051-0.078-0.118-0.078-0.202c0-0.083,0.025-0.15,0.078-0.201
			c0.052-0.051,0.118-0.076,0.199-0.076s0.148,0.025,0.2,0.076c0.053,0.051,0.078,0.118,0.078,0.201
			c0,0.084-0.025,0.151-0.078,0.202C42.025,38.326,41.958,38.351,41.877,38.351z"/>
		<path fill="#FFFFFF" d="M43.964,39.227c-0.13,0-0.248-0.024-0.354-0.074s-0.198-0.124-0.274-0.221
			c-0.077-0.098-0.136-0.218-0.178-0.362c-0.042-0.144-0.062-0.309-0.062-0.497c0-0.188,0.021-0.353,0.062-0.495
			c0.042-0.142,0.101-0.261,0.178-0.354c0.076-0.094,0.168-0.165,0.274-0.213c0.106-0.047,0.225-0.07,0.354-0.07
			s0.248,0.023,0.354,0.07c0.107,0.048,0.198,0.119,0.274,0.213c0.077,0.094,0.136,0.213,0.178,0.354
			c0.042,0.143,0.063,0.308,0.063,0.495c0,0.188-0.021,0.354-0.063,0.497c-0.042,0.145-0.101,0.265-0.178,0.362
			c-0.076,0.097-0.167,0.171-0.274,0.221C44.212,39.202,44.094,39.227,43.964,39.227z M43.964,37.398
			c-0.046,0-0.09,0.01-0.131,0.027c-0.04,0.019-0.076,0.053-0.107,0.102c-0.031,0.051-0.056,0.12-0.075,0.207
			c-0.019,0.089-0.027,0.201-0.027,0.338s0.009,0.251,0.027,0.341c0.02,0.091,0.044,0.162,0.075,0.214
			c0.031,0.053,0.067,0.09,0.107,0.109c0.041,0.021,0.085,0.031,0.131,0.031s0.09-0.01,0.13-0.031
			c0.041-0.02,0.077-0.057,0.108-0.109c0.031-0.052,0.056-0.123,0.075-0.214c0.019-0.09,0.027-0.204,0.027-0.341
			s-0.009-0.249-0.027-0.338c-0.02-0.087-0.044-0.156-0.075-0.207c-0.031-0.049-0.067-0.083-0.108-0.102
			C44.054,37.408,44.01,37.398,43.964,37.398z M43.964,38.351c-0.081,0-0.147-0.024-0.2-0.076c-0.052-0.051-0.078-0.118-0.078-0.202
			c0-0.083,0.026-0.15,0.078-0.201c0.053-0.051,0.119-0.076,0.2-0.076s0.147,0.025,0.2,0.076c0.052,0.051,0.078,0.118,0.078,0.201
			c0,0.084-0.026,0.151-0.078,0.202C44.111,38.326,44.045,38.351,43.964,38.351z"/>
		<path fill="#FFFFFF" d="M46.889,38.705v0.48h-1.621v-0.48h0.55v-1.141h-0.448v-0.368c0.132-0.025,0.244-0.054,0.337-0.087
			c0.093-0.032,0.184-0.076,0.271-0.129h0.438v1.725H46.889z"/>
		<path fill="#FFFFFF" d="M48.976,38.705v0.48h-1.621v-0.48h0.55v-1.141h-0.448v-0.368c0.132-0.025,0.244-0.054,0.337-0.087
			c0.093-0.032,0.184-0.076,0.271-0.129h0.438v1.725H48.976z"/>
		<path fill="#FFFFFF" d="M50.224,39.227c-0.13,0-0.248-0.024-0.354-0.074s-0.198-0.124-0.275-0.221
			c-0.076-0.098-0.135-0.218-0.177-0.362c-0.042-0.144-0.062-0.309-0.062-0.497c0-0.188,0.021-0.353,0.062-0.495
			c0.042-0.142,0.101-0.261,0.177-0.354c0.077-0.094,0.169-0.165,0.275-0.213c0.106-0.047,0.225-0.07,0.354-0.07
			s0.248,0.023,0.355,0.07c0.105,0.048,0.197,0.119,0.274,0.213c0.076,0.094,0.135,0.213,0.177,0.354
			c0.042,0.143,0.062,0.308,0.062,0.495c0,0.188-0.021,0.354-0.062,0.497c-0.042,0.145-0.101,0.265-0.177,0.362
			c-0.077,0.097-0.169,0.171-0.274,0.221C50.472,39.202,50.354,39.227,50.224,39.227z M50.224,37.398
			c-0.046,0-0.09,0.01-0.131,0.027c-0.04,0.019-0.076,0.053-0.107,0.102c-0.031,0.051-0.056,0.12-0.075,0.207
			c-0.018,0.089-0.027,0.201-0.027,0.338s0.01,0.251,0.027,0.341c0.02,0.091,0.044,0.162,0.075,0.214
			c0.031,0.053,0.067,0.09,0.107,0.109c0.041,0.021,0.085,0.031,0.131,0.031c0.047,0,0.09-0.01,0.13-0.031
			c0.041-0.02,0.077-0.057,0.108-0.109c0.031-0.052,0.056-0.123,0.074-0.214c0.02-0.09,0.028-0.204,0.028-0.341
			s-0.009-0.249-0.028-0.338c-0.019-0.087-0.043-0.156-0.074-0.207c-0.031-0.049-0.067-0.083-0.108-0.102
			C50.313,37.408,50.271,37.398,50.224,37.398z M50.224,38.351c-0.081,0-0.147-0.024-0.2-0.076
			c-0.052-0.051-0.078-0.118-0.078-0.202c0-0.083,0.026-0.15,0.078-0.201c0.053-0.051,0.119-0.076,0.2-0.076s0.148,0.025,0.2,0.076
			s0.078,0.118,0.078,0.201c0,0.084-0.026,0.151-0.078,0.202C50.372,38.326,50.305,38.351,50.224,38.351z"/>
		<path fill="#FFFFFF" d="M53.148,38.705v0.48h-1.62v-0.48h0.549v-1.141h-0.448v-0.368c0.132-0.025,0.244-0.054,0.337-0.087
			c0.093-0.032,0.184-0.076,0.271-0.129h0.438v1.725H53.148z"/>
		<path fill="#FFFFFF" d="M54.396,39.227c-0.13,0-0.247-0.024-0.354-0.074c-0.106-0.05-0.198-0.124-0.274-0.221
			c-0.076-0.098-0.136-0.218-0.178-0.362c-0.042-0.144-0.062-0.309-0.062-0.497c0-0.188,0.021-0.353,0.062-0.495
			c0.042-0.142,0.102-0.261,0.178-0.354s0.168-0.165,0.274-0.213c0.107-0.047,0.225-0.07,0.354-0.07c0.131,0,0.248,0.023,0.355,0.07
			c0.106,0.048,0.198,0.119,0.274,0.213s0.136,0.213,0.178,0.354c0.041,0.143,0.062,0.308,0.062,0.495
			c0,0.188-0.021,0.354-0.062,0.497c-0.042,0.145-0.102,0.265-0.178,0.362c-0.076,0.097-0.168,0.171-0.274,0.221
			C54.645,39.202,54.527,39.227,54.396,39.227z M54.396,37.398c-0.046,0-0.09,0.01-0.13,0.027c-0.041,0.019-0.077,0.053-0.108,0.102
			c-0.031,0.051-0.056,0.12-0.074,0.207c-0.019,0.089-0.027,0.201-0.027,0.338s0.009,0.251,0.027,0.341
			c0.019,0.091,0.043,0.162,0.074,0.214c0.031,0.053,0.067,0.09,0.108,0.109c0.04,0.021,0.084,0.031,0.13,0.031
			c0.047,0,0.09-0.01,0.131-0.031c0.04-0.02,0.076-0.057,0.107-0.109c0.032-0.052,0.057-0.123,0.075-0.214
			c0.019-0.09,0.028-0.204,0.028-0.341s-0.01-0.249-0.028-0.338c-0.019-0.087-0.043-0.156-0.075-0.207
			c-0.031-0.049-0.067-0.083-0.107-0.102C54.486,37.408,54.443,37.398,54.396,37.398z M54.396,38.351
			c-0.081,0-0.147-0.024-0.199-0.076c-0.053-0.051-0.078-0.118-0.078-0.202c0-0.083,0.025-0.15,0.078-0.201
			c0.052-0.051,0.118-0.076,0.199-0.076s0.148,0.025,0.2,0.076s0.078,0.118,0.078,0.201c0,0.084-0.026,0.151-0.078,0.202
			C54.545,38.326,54.478,38.351,54.396,38.351z"/>
		<path fill="#FFFFFF" d="M56.483,39.227c-0.13,0-0.248-0.024-0.354-0.074c-0.107-0.05-0.198-0.124-0.275-0.221
			c-0.076-0.098-0.136-0.218-0.177-0.362c-0.042-0.144-0.062-0.309-0.062-0.497c0-0.188,0.021-0.353,0.062-0.495
			c0.041-0.142,0.101-0.261,0.177-0.354c0.077-0.094,0.168-0.165,0.275-0.213c0.106-0.047,0.225-0.07,0.354-0.07
			s0.248,0.023,0.354,0.07c0.106,0.048,0.198,0.119,0.275,0.213c0.076,0.094,0.136,0.213,0.177,0.354
			c0.042,0.143,0.062,0.308,0.062,0.495c0,0.188-0.021,0.354-0.062,0.497c-0.041,0.145-0.101,0.265-0.177,0.362
			c-0.077,0.097-0.169,0.171-0.275,0.221S56.613,39.227,56.483,39.227z M56.483,37.398c-0.047,0-0.09,0.01-0.131,0.027
			c-0.04,0.019-0.076,0.053-0.107,0.102c-0.031,0.051-0.057,0.12-0.075,0.207c-0.018,0.089-0.027,0.201-0.027,0.338
			s0.01,0.251,0.027,0.341c0.019,0.091,0.044,0.162,0.075,0.214c0.031,0.053,0.067,0.09,0.107,0.109
			c0.041,0.021,0.084,0.031,0.131,0.031s0.09-0.01,0.131-0.031c0.04-0.02,0.076-0.057,0.107-0.109
			c0.031-0.052,0.057-0.123,0.074-0.214c0.019-0.09,0.028-0.204,0.028-0.341s-0.01-0.249-0.028-0.338
			c-0.018-0.087-0.043-0.156-0.074-0.207c-0.031-0.049-0.067-0.083-0.107-0.102C56.573,37.408,56.53,37.398,56.483,37.398z
			 M56.483,38.351c-0.081,0-0.147-0.024-0.2-0.076c-0.052-0.051-0.078-0.118-0.078-0.202c0-0.083,0.026-0.15,0.078-0.201
			c0.053-0.051,0.119-0.076,0.2-0.076s0.147,0.025,0.2,0.076c0.052,0.051,0.078,0.118,0.078,0.201c0,0.084-0.026,0.151-0.078,0.202
			C56.631,38.326,56.564,38.351,56.483,38.351z"/>
		<path fill="#FFFFFF" d="M59.408,38.705v0.48h-1.621v-0.48h0.55v-1.141h-0.448v-0.368c0.132-0.025,0.244-0.054,0.337-0.087
			c0.093-0.032,0.184-0.076,0.271-0.129h0.438v1.725H59.408z"/>
		<path fill="#FFFFFF" d="M60.657,39.227c-0.131,0-0.248-0.024-0.355-0.074c-0.106-0.05-0.198-0.124-0.274-0.221
			c-0.076-0.098-0.136-0.218-0.178-0.362c-0.041-0.144-0.062-0.309-0.062-0.497c0-0.188,0.021-0.353,0.062-0.495
			c0.042-0.142,0.102-0.261,0.178-0.354s0.168-0.165,0.274-0.213c0.107-0.047,0.225-0.07,0.355-0.07c0.129,0,0.247,0.023,0.354,0.07
			c0.106,0.048,0.198,0.119,0.274,0.213s0.136,0.213,0.178,0.354c0.041,0.143,0.062,0.308,0.062,0.495
			c0,0.188-0.021,0.354-0.062,0.497c-0.042,0.145-0.102,0.265-0.178,0.362c-0.076,0.097-0.168,0.171-0.274,0.221
			C60.904,39.202,60.786,39.227,60.657,39.227z M60.657,37.398c-0.047,0-0.091,0.01-0.131,0.027
			c-0.041,0.019-0.077,0.053-0.108,0.102c-0.031,0.051-0.056,0.12-0.074,0.207c-0.019,0.089-0.028,0.201-0.028,0.338
			s0.01,0.251,0.028,0.341c0.019,0.091,0.043,0.162,0.074,0.214c0.031,0.053,0.067,0.09,0.108,0.109
			c0.04,0.021,0.084,0.031,0.131,0.031c0.046,0,0.089-0.01,0.13-0.031c0.041-0.02,0.076-0.057,0.108-0.109
			c0.031-0.052,0.056-0.123,0.074-0.214c0.019-0.09,0.027-0.204,0.027-0.341s-0.009-0.249-0.027-0.338
			c-0.019-0.087-0.043-0.156-0.074-0.207c-0.032-0.049-0.067-0.083-0.108-0.102C60.746,37.408,60.703,37.398,60.657,37.398z
			 M60.657,38.351c-0.082,0-0.148-0.024-0.201-0.076c-0.052-0.051-0.078-0.118-0.078-0.202c0-0.083,0.026-0.15,0.078-0.201
			c0.053-0.051,0.119-0.076,0.201-0.076c0.081,0,0.147,0.025,0.199,0.076c0.053,0.051,0.078,0.118,0.078,0.201
			c0,0.084-0.025,0.151-0.078,0.202C60.805,38.326,60.738,38.351,60.657,38.351z"/>
		<path fill="#FFFFFF" d="M62.743,39.227c-0.13,0-0.248-0.024-0.354-0.074s-0.198-0.124-0.275-0.221
			c-0.076-0.098-0.135-0.218-0.177-0.362c-0.042-0.144-0.062-0.309-0.062-0.497c0-0.188,0.021-0.353,0.062-0.495
			c0.042-0.142,0.101-0.261,0.177-0.354c0.077-0.094,0.169-0.165,0.275-0.213c0.106-0.047,0.225-0.07,0.354-0.07
			s0.248,0.023,0.354,0.07c0.107,0.048,0.198,0.119,0.275,0.213c0.076,0.094,0.136,0.213,0.177,0.354
			c0.042,0.143,0.062,0.308,0.062,0.495c0,0.188-0.021,0.354-0.062,0.497c-0.041,0.145-0.101,0.265-0.177,0.362
			c-0.077,0.097-0.168,0.171-0.275,0.221C62.991,39.202,62.873,39.227,62.743,39.227z M62.743,37.398c-0.047,0-0.09,0.01-0.13,0.027
			c-0.041,0.019-0.077,0.053-0.108,0.102c-0.031,0.051-0.057,0.12-0.074,0.207c-0.02,0.089-0.028,0.201-0.028,0.338
			s0.009,0.251,0.028,0.341c0.018,0.091,0.043,0.162,0.074,0.214c0.031,0.053,0.067,0.09,0.108,0.109
			c0.04,0.021,0.083,0.031,0.13,0.031c0.046,0,0.09-0.01,0.131-0.031c0.04-0.02,0.076-0.057,0.107-0.109
			c0.031-0.052,0.057-0.123,0.075-0.214c0.018-0.09,0.027-0.204,0.027-0.341s-0.01-0.249-0.027-0.338
			c-0.019-0.087-0.044-0.156-0.075-0.207c-0.031-0.049-0.067-0.083-0.107-0.102C62.833,37.408,62.789,37.398,62.743,37.398z
			 M62.743,38.351c-0.081,0-0.147-0.024-0.2-0.076c-0.052-0.051-0.078-0.118-0.078-0.202c0-0.083,0.026-0.15,0.078-0.201
			c0.053-0.051,0.119-0.076,0.2-0.076s0.147,0.025,0.2,0.076c0.052,0.051,0.078,0.118,0.078,0.201c0,0.084-0.026,0.151-0.078,0.202
			C62.891,38.326,62.824,38.351,62.743,38.351z"/>
		<path fill="#FFFFFF" d="M65.668,38.705v0.48h-1.621v-0.48h0.55v-1.141h-0.448v-0.368c0.132-0.025,0.244-0.054,0.337-0.087
			c0.093-0.032,0.184-0.076,0.271-0.129h0.438v1.725H65.668z"/>
		<path fill="#FFFFFF" d="M66.917,39.227c-0.131,0-0.249-0.024-0.355-0.074s-0.198-0.124-0.274-0.221
			c-0.077-0.098-0.136-0.218-0.178-0.362c-0.041-0.144-0.062-0.309-0.062-0.497c0-0.188,0.021-0.353,0.062-0.495
			c0.042-0.142,0.101-0.261,0.178-0.354c0.076-0.094,0.168-0.165,0.274-0.213c0.106-0.047,0.225-0.07,0.355-0.07
			c0.129,0,0.248,0.023,0.354,0.07c0.106,0.048,0.198,0.119,0.274,0.213s0.136,0.213,0.178,0.354
			c0.042,0.143,0.062,0.308,0.062,0.495c0,0.188-0.021,0.354-0.062,0.497c-0.042,0.145-0.102,0.265-0.178,0.362
			c-0.076,0.097-0.168,0.171-0.274,0.221S67.046,39.227,66.917,39.227z M66.917,37.398c-0.047,0-0.09,0.01-0.131,0.027
			c-0.04,0.019-0.076,0.053-0.107,0.102c-0.032,0.051-0.057,0.12-0.075,0.207c-0.019,0.089-0.028,0.201-0.028,0.338
			s0.01,0.251,0.028,0.341c0.019,0.091,0.043,0.162,0.075,0.214c0.031,0.053,0.067,0.09,0.107,0.109
			c0.041,0.021,0.084,0.031,0.131,0.031c0.046,0,0.089-0.01,0.13-0.031c0.041-0.02,0.076-0.057,0.107-0.109
			c0.032-0.052,0.057-0.123,0.075-0.214c0.019-0.09,0.027-0.204,0.027-0.341s-0.009-0.249-0.027-0.338
			c-0.019-0.087-0.043-0.156-0.075-0.207c-0.031-0.049-0.066-0.083-0.107-0.102C67.006,37.408,66.963,37.398,66.917,37.398z
			 M66.917,38.351c-0.082,0-0.148-0.024-0.2-0.076c-0.053-0.051-0.078-0.118-0.078-0.202c0-0.083,0.025-0.15,0.078-0.201
			c0.052-0.051,0.118-0.076,0.2-0.076c0.081,0,0.147,0.025,0.199,0.076c0.053,0.051,0.078,0.118,0.078,0.201
			c0,0.084-0.025,0.151-0.078,0.202C67.064,38.326,66.998,38.351,66.917,38.351z"/>
		<path fill="#FFFFFF" d="M69.003,39.227c-0.13,0-0.248-0.024-0.354-0.074s-0.198-0.124-0.275-0.221
			c-0.076-0.098-0.135-0.218-0.177-0.362c-0.042-0.144-0.062-0.309-0.062-0.497c0-0.188,0.021-0.353,0.062-0.495
			c0.042-0.142,0.101-0.261,0.177-0.354c0.077-0.094,0.169-0.165,0.275-0.213c0.106-0.047,0.225-0.07,0.354-0.07
			s0.248,0.023,0.354,0.07c0.107,0.048,0.198,0.119,0.274,0.213c0.077,0.094,0.137,0.213,0.178,0.354
			c0.042,0.143,0.063,0.308,0.063,0.495c0,0.188-0.021,0.354-0.063,0.497c-0.041,0.145-0.101,0.265-0.178,0.362
			c-0.076,0.097-0.167,0.171-0.274,0.221C69.251,39.202,69.133,39.227,69.003,39.227z M69.003,37.398c-0.047,0-0.09,0.01-0.13,0.027
			c-0.041,0.019-0.077,0.053-0.108,0.102c-0.031,0.051-0.056,0.12-0.074,0.207c-0.02,0.089-0.028,0.201-0.028,0.338
			s0.009,0.251,0.028,0.341c0.019,0.091,0.043,0.162,0.074,0.214c0.031,0.053,0.067,0.09,0.108,0.109
			c0.04,0.021,0.083,0.031,0.13,0.031s0.09-0.01,0.131-0.031c0.04-0.02,0.076-0.057,0.107-0.109
			c0.031-0.052,0.057-0.123,0.075-0.214c0.019-0.09,0.027-0.204,0.027-0.341s-0.009-0.249-0.027-0.338
			c-0.019-0.087-0.044-0.156-0.075-0.207c-0.031-0.049-0.067-0.083-0.107-0.102C69.093,37.408,69.05,37.398,69.003,37.398z
			 M69.003,38.351c-0.081,0-0.147-0.024-0.199-0.076c-0.053-0.051-0.079-0.118-0.079-0.202c0-0.083,0.026-0.15,0.079-0.201
			c0.052-0.051,0.118-0.076,0.199-0.076s0.147,0.025,0.2,0.076c0.052,0.051,0.078,0.118,0.078,0.201
			c0,0.084-0.026,0.151-0.078,0.202C69.15,38.326,69.084,38.351,69.003,38.351z"/>
		<path fill="#FFFFFF" d="M71.09,39.227c-0.13,0-0.248-0.024-0.354-0.074c-0.107-0.05-0.198-0.124-0.275-0.221
			c-0.076-0.098-0.136-0.218-0.178-0.362c-0.041-0.144-0.062-0.309-0.062-0.497c0-0.188,0.021-0.353,0.062-0.495
			c0.042-0.142,0.102-0.261,0.178-0.354c0.077-0.094,0.168-0.165,0.275-0.213c0.106-0.047,0.225-0.07,0.354-0.07
			s0.248,0.023,0.354,0.07c0.106,0.048,0.198,0.119,0.274,0.213c0.077,0.094,0.136,0.213,0.178,0.354
			c0.042,0.143,0.062,0.308,0.062,0.495c0,0.188-0.021,0.354-0.062,0.497c-0.042,0.145-0.101,0.265-0.178,0.362
			c-0.076,0.097-0.168,0.171-0.274,0.221S71.22,39.227,71.09,39.227z M71.09,37.398c-0.047,0-0.09,0.01-0.131,0.027
			c-0.04,0.019-0.076,0.053-0.107,0.102c-0.031,0.051-0.057,0.12-0.075,0.207c-0.019,0.089-0.027,0.201-0.027,0.338
			s0.009,0.251,0.027,0.341c0.019,0.091,0.044,0.162,0.075,0.214c0.031,0.053,0.067,0.09,0.107,0.109
			c0.041,0.021,0.084,0.031,0.131,0.031c0.046,0,0.09-0.01,0.13-0.031c0.041-0.02,0.077-0.057,0.108-0.109
			c0.031-0.052,0.056-0.123,0.074-0.214c0.019-0.09,0.028-0.204,0.028-0.341s-0.01-0.249-0.028-0.338
			c-0.019-0.087-0.043-0.156-0.074-0.207c-0.031-0.049-0.067-0.083-0.108-0.102C71.18,37.408,71.136,37.398,71.09,37.398z
			 M71.09,38.351c-0.081,0-0.147-0.024-0.2-0.076c-0.052-0.051-0.078-0.118-0.078-0.202c0-0.083,0.026-0.15,0.078-0.201
			c0.053-0.051,0.119-0.076,0.2-0.076s0.147,0.025,0.199,0.076c0.053,0.051,0.079,0.118,0.079,0.201
			c0,0.084-0.026,0.151-0.079,0.202C71.237,38.326,71.171,38.351,71.09,38.351z"/>
		<path fill="#FFFFFF" d="M73.176,39.227c-0.129,0-0.248-0.024-0.354-0.074s-0.198-0.124-0.274-0.221
			c-0.076-0.098-0.136-0.218-0.178-0.362c-0.041-0.144-0.062-0.309-0.062-0.497c0-0.188,0.021-0.353,0.062-0.495
			c0.042-0.142,0.102-0.261,0.178-0.354s0.168-0.165,0.274-0.213c0.106-0.047,0.226-0.07,0.354-0.07c0.13,0,0.248,0.023,0.354,0.07
			c0.107,0.048,0.198,0.119,0.275,0.213c0.076,0.094,0.136,0.213,0.178,0.354c0.042,0.143,0.062,0.308,0.062,0.495
			c0,0.188-0.021,0.354-0.062,0.497c-0.042,0.145-0.102,0.265-0.178,0.362c-0.077,0.097-0.168,0.171-0.275,0.221
			C73.424,39.202,73.306,39.227,73.176,39.227z M73.176,37.398c-0.046,0-0.09,0.01-0.13,0.027c-0.041,0.019-0.077,0.053-0.108,0.102
			c-0.031,0.051-0.056,0.12-0.074,0.207c-0.019,0.089-0.027,0.201-0.027,0.338s0.009,0.251,0.027,0.341
			c0.019,0.091,0.043,0.162,0.074,0.214c0.031,0.053,0.067,0.09,0.108,0.109c0.04,0.021,0.084,0.031,0.13,0.031
			c0.047,0,0.09-0.01,0.131-0.031c0.04-0.02,0.076-0.057,0.107-0.109c0.031-0.052,0.057-0.123,0.075-0.214
			c0.019-0.09,0.028-0.204,0.028-0.341s-0.01-0.249-0.028-0.338c-0.019-0.087-0.044-0.156-0.075-0.207
			c-0.031-0.049-0.067-0.083-0.107-0.102C73.266,37.408,73.223,37.398,73.176,37.398z M73.176,38.351
			c-0.081,0-0.147-0.024-0.199-0.076c-0.053-0.051-0.078-0.118-0.078-0.202c0-0.083,0.025-0.15,0.078-0.201
			c0.052-0.051,0.118-0.076,0.199-0.076s0.147,0.025,0.201,0.076c0.052,0.051,0.077,0.118,0.077,0.201
			c0,0.084-0.025,0.151-0.077,0.202C73.323,38.326,73.257,38.351,73.176,38.351z"/>
		<path fill="#FFFFFF" d="M76.102,38.705v0.48H74.48v-0.48h0.55v-1.141h-0.449v-0.368c0.133-0.025,0.245-0.054,0.337-0.087
			c0.094-0.032,0.184-0.076,0.271-0.129h0.438v1.725H76.102z"/>
	</g>
	<g>
		<path fill="#FFFFFF" d="M27.922,64.737c0,0.13-0.024,0.248-0.074,0.354c-0.051,0.106-0.124,0.198-0.222,0.274
			c-0.097,0.077-0.218,0.136-0.361,0.178s-0.31,0.062-0.497,0.062c-0.188,0-0.354-0.021-0.496-0.062s-0.261-0.101-0.354-0.178
			c-0.094-0.076-0.165-0.168-0.213-0.274c-0.047-0.106-0.07-0.225-0.07-0.354s0.023-0.248,0.07-0.354
			c0.048-0.107,0.119-0.198,0.213-0.274c0.094-0.077,0.212-0.136,0.354-0.178s0.308-0.063,0.496-0.063
			c0.188,0,0.354,0.021,0.497,0.063s0.265,0.101,0.361,0.178c0.098,0.076,0.171,0.167,0.222,0.274
			C27.897,64.489,27.922,64.607,27.922,64.737z M26.093,64.737c0,0.047,0.009,0.09,0.027,0.13c0.019,0.041,0.053,0.077,0.103,0.108
			s0.119,0.057,0.207,0.074c0.089,0.019,0.201,0.028,0.338,0.028s0.25-0.01,0.341-0.028c0.09-0.018,0.161-0.043,0.214-0.074
			c0.052-0.031,0.089-0.067,0.109-0.108c0.021-0.04,0.031-0.083,0.031-0.13s-0.011-0.09-0.031-0.131
			c-0.021-0.04-0.058-0.076-0.109-0.107c-0.053-0.031-0.124-0.057-0.214-0.075c-0.091-0.018-0.204-0.027-0.341-0.027
			s-0.249,0.01-0.338,0.027c-0.088,0.019-0.157,0.044-0.207,0.075s-0.084,0.067-0.103,0.107
			C26.102,64.647,26.093,64.69,26.093,64.737z M27.046,64.737c0,0.081-0.025,0.147-0.077,0.2c-0.051,0.052-0.118,0.078-0.201,0.078
			c-0.084,0-0.151-0.026-0.202-0.078c-0.051-0.053-0.076-0.119-0.076-0.2s0.025-0.147,0.076-0.2
			c0.051-0.052,0.118-0.078,0.202-0.078c0.083,0,0.15,0.026,0.201,0.078C27.021,64.59,27.046,64.656,27.046,64.737z"/>
		<path fill="#FFFFFF" d="M27.4,61.812h0.479v1.621H27.4v-0.55H26.26v0.448h-0.369c-0.025-0.133-0.054-0.245-0.087-0.337
			c-0.032-0.093-0.075-0.183-0.129-0.271v-0.438H27.4V61.812z"/>
		<path fill="#FFFFFF" d="M27.922,60.564c0,0.129-0.024,0.248-0.074,0.354c-0.051,0.106-0.124,0.198-0.222,0.274
			c-0.097,0.076-0.218,0.136-0.361,0.178c-0.144,0.041-0.31,0.062-0.497,0.062c-0.188,0-0.354-0.021-0.496-0.062
			c-0.143-0.042-0.261-0.102-0.354-0.178s-0.165-0.168-0.213-0.274c-0.047-0.106-0.07-0.226-0.07-0.354
			c0-0.13,0.023-0.248,0.07-0.354c0.048-0.107,0.119-0.198,0.213-0.275c0.094-0.076,0.212-0.136,0.354-0.178
			s0.308-0.062,0.496-0.062c0.188,0,0.354,0.021,0.497,0.062s0.265,0.102,0.361,0.178c0.098,0.077,0.171,0.168,0.222,0.275
			C27.897,60.316,27.922,60.435,27.922,60.564z M26.093,60.564c0,0.047,0.009,0.09,0.027,0.13c0.019,0.041,0.053,0.076,0.103,0.108
			c0.05,0.031,0.119,0.056,0.207,0.074c0.089,0.019,0.201,0.027,0.338,0.027s0.25-0.009,0.341-0.027
			c0.09-0.019,0.161-0.043,0.214-0.074c0.052-0.032,0.089-0.067,0.109-0.108c0.021-0.04,0.031-0.083,0.031-0.13
			s-0.011-0.09-0.031-0.131c-0.021-0.04-0.058-0.076-0.109-0.107c-0.053-0.031-0.124-0.057-0.214-0.075
			c-0.091-0.019-0.204-0.027-0.341-0.027s-0.249,0.009-0.338,0.027c-0.088,0.019-0.157,0.044-0.207,0.075s-0.084,0.067-0.103,0.107
			C26.102,60.475,26.093,60.518,26.093,60.564z M27.046,60.564c0,0.081-0.025,0.147-0.077,0.199
			c-0.051,0.053-0.118,0.078-0.201,0.078c-0.084,0-0.151-0.025-0.202-0.078c-0.051-0.052-0.076-0.118-0.076-0.199
			s0.025-0.148,0.076-0.2c0.051-0.053,0.118-0.078,0.202-0.078c0.083,0,0.15,0.025,0.201,0.078
			C27.021,60.416,27.046,60.483,27.046,60.564z"/>
		<path fill="#FFFFFF" d="M27.4,57.64h0.479v1.62H27.4v-0.549H26.26v0.448h-0.369c-0.025-0.133-0.054-0.245-0.087-0.337
			c-0.032-0.094-0.075-0.184-0.129-0.271v-0.438H27.4V57.64z"/>
		<path fill="#FFFFFF" d="M27.922,56.391c0,0.13-0.024,0.249-0.074,0.354c-0.051,0.106-0.124,0.198-0.222,0.275
			c-0.097,0.076-0.218,0.136-0.361,0.178c-0.144,0.041-0.31,0.062-0.497,0.062c-0.188,0-0.354-0.021-0.496-0.062
			c-0.143-0.042-0.261-0.102-0.354-0.178c-0.094-0.077-0.165-0.169-0.213-0.275c-0.047-0.105-0.07-0.225-0.07-0.354
			s0.023-0.248,0.07-0.354c0.048-0.106,0.119-0.198,0.213-0.274s0.212-0.136,0.354-0.178s0.308-0.062,0.496-0.062
			c0.188,0,0.354,0.021,0.497,0.062s0.265,0.102,0.361,0.178c0.098,0.076,0.171,0.168,0.222,0.274
			C27.897,56.143,27.922,56.261,27.922,56.391z M26.093,56.391c0,0.047,0.009,0.09,0.027,0.131c0.019,0.04,0.053,0.076,0.103,0.107
			s0.119,0.057,0.207,0.074c0.089,0.02,0.201,0.028,0.338,0.028s0.25-0.009,0.341-0.028c0.09-0.018,0.161-0.043,0.214-0.074
			c0.052-0.031,0.089-0.067,0.109-0.107c0.021-0.041,0.031-0.084,0.031-0.131c0-0.046-0.011-0.089-0.031-0.13
			s-0.058-0.077-0.109-0.107c-0.053-0.032-0.124-0.057-0.214-0.076c-0.091-0.018-0.204-0.026-0.341-0.026s-0.249,0.009-0.338,0.026
			c-0.088,0.02-0.157,0.044-0.207,0.076c-0.05,0.03-0.084,0.066-0.103,0.107S26.093,56.345,26.093,56.391z M27.046,56.391
			c0,0.082-0.025,0.148-0.077,0.2c-0.051,0.052-0.118,0.078-0.201,0.078c-0.084,0-0.151-0.026-0.202-0.078s-0.076-0.118-0.076-0.2
			c0-0.081,0.025-0.147,0.076-0.2c0.051-0.052,0.118-0.077,0.202-0.077c0.083,0,0.15,0.025,0.201,0.077
			C27.021,56.243,27.046,56.31,27.046,56.391z"/>
		<path fill="#FFFFFF" d="M27.922,54.304c0,0.13-0.024,0.248-0.074,0.355c-0.051,0.106-0.124,0.198-0.222,0.274
			c-0.097,0.076-0.218,0.136-0.361,0.178s-0.31,0.062-0.497,0.062c-0.188,0-0.354-0.021-0.496-0.062s-0.261-0.102-0.354-0.178
			s-0.165-0.168-0.213-0.274c-0.047-0.107-0.07-0.226-0.07-0.355s0.023-0.248,0.07-0.354c0.048-0.106,0.119-0.198,0.213-0.274
			c0.094-0.077,0.212-0.136,0.354-0.177c0.143-0.042,0.308-0.063,0.496-0.063c0.188,0,0.354,0.021,0.497,0.063
			c0.144,0.041,0.265,0.1,0.361,0.177c0.098,0.076,0.171,0.168,0.222,0.274C27.897,54.056,27.922,54.174,27.922,54.304z
			 M26.093,54.304c0,0.047,0.009,0.09,0.027,0.131c0.019,0.04,0.053,0.076,0.103,0.107s0.119,0.057,0.207,0.075
			c0.089,0.019,0.201,0.028,0.338,0.028s0.25-0.01,0.341-0.028c0.09-0.019,0.161-0.044,0.214-0.075
			c0.052-0.031,0.089-0.067,0.109-0.107c0.021-0.041,0.031-0.084,0.031-0.131c0-0.046-0.011-0.09-0.031-0.13
			c-0.021-0.041-0.058-0.077-0.109-0.108c-0.053-0.031-0.124-0.056-0.214-0.074c-0.091-0.019-0.204-0.028-0.341-0.028
			s-0.249,0.01-0.338,0.028c-0.088,0.019-0.157,0.043-0.207,0.074s-0.084,0.067-0.103,0.108
			C26.102,54.214,26.093,54.258,26.093,54.304z M27.046,54.304c0,0.081-0.025,0.148-0.077,0.2c-0.051,0.052-0.118,0.078-0.201,0.078
			c-0.084,0-0.151-0.026-0.202-0.078s-0.076-0.119-0.076-0.2s0.025-0.147,0.076-0.199c0.051-0.053,0.118-0.078,0.202-0.078
			c0.083,0,0.15,0.025,0.201,0.078C27.021,54.156,27.046,54.223,27.046,54.304z"/>
		<path fill="#FFFFFF" d="M27.4,51.38h0.479V53H27.4v-0.55H26.26v0.449h-0.369c-0.025-0.132-0.054-0.244-0.087-0.338
			c-0.032-0.092-0.075-0.183-0.129-0.271v-0.438H27.4V51.38z"/>
		<path fill="#FFFFFF" d="M27.922,50.131c0,0.13-0.024,0.248-0.074,0.354c-0.051,0.107-0.124,0.198-0.222,0.274
			c-0.097,0.077-0.218,0.136-0.361,0.179C27.121,50.98,26.955,51,26.768,51c-0.188,0-0.354-0.02-0.496-0.062
			c-0.143-0.043-0.261-0.102-0.354-0.179c-0.094-0.076-0.165-0.167-0.213-0.274c-0.047-0.106-0.07-0.225-0.07-0.354
			s0.023-0.248,0.07-0.354c0.048-0.106,0.119-0.198,0.213-0.274c0.094-0.077,0.212-0.137,0.354-0.178s0.308-0.062,0.496-0.062
			c0.188,0,0.354,0.021,0.497,0.062s0.265,0.101,0.361,0.178c0.098,0.076,0.171,0.168,0.222,0.274
			C27.897,49.883,27.922,50.001,27.922,50.131z M26.093,50.131c0,0.047,0.009,0.09,0.027,0.131c0.019,0.04,0.053,0.076,0.103,0.107
			s0.119,0.057,0.207,0.075c0.089,0.019,0.201,0.028,0.338,0.028s0.25-0.01,0.341-0.028c0.09-0.019,0.161-0.044,0.214-0.075
			c0.052-0.031,0.089-0.067,0.109-0.107c0.021-0.041,0.031-0.084,0.031-0.131c0-0.046-0.011-0.09-0.031-0.131
			c-0.021-0.04-0.058-0.076-0.109-0.107c-0.053-0.031-0.124-0.056-0.214-0.074c-0.091-0.019-0.204-0.028-0.341-0.028
			s-0.249,0.01-0.338,0.028c-0.088,0.019-0.157,0.043-0.207,0.074S26.139,49.96,26.12,50C26.102,50.041,26.093,50.085,26.093,50.131
			z M27.046,50.131c0,0.081-0.025,0.147-0.077,0.2c-0.051,0.052-0.118,0.078-0.201,0.078c-0.084,0-0.151-0.026-0.202-0.078
			c-0.051-0.053-0.076-0.119-0.076-0.2s0.025-0.147,0.076-0.199c0.051-0.053,0.118-0.079,0.202-0.079
			c0.083,0,0.15,0.026,0.201,0.079C27.021,49.983,27.046,50.05,27.046,50.131z"/>
		<path fill="#FFFFFF" d="M27.4,47.206h0.479v1.621H27.4v-0.55H26.26v0.448h-0.369c-0.025-0.131-0.054-0.244-0.087-0.337
			c-0.032-0.093-0.075-0.183-0.129-0.271V47.68H27.4V47.206z"/>
		<path fill="#FFFFFF" d="M27.922,45.958c0,0.13-0.024,0.248-0.074,0.354c-0.051,0.107-0.124,0.198-0.222,0.274
			c-0.097,0.076-0.218,0.136-0.361,0.178s-0.31,0.062-0.497,0.062c-0.188,0-0.354-0.021-0.496-0.062s-0.261-0.102-0.354-0.178
			s-0.165-0.167-0.213-0.274c-0.047-0.106-0.07-0.225-0.07-0.354s0.023-0.248,0.07-0.354c0.048-0.106,0.119-0.198,0.213-0.275
			c0.094-0.076,0.212-0.136,0.354-0.178c0.143-0.041,0.308-0.062,0.496-0.062c0.188,0,0.354,0.021,0.497,0.062
			c0.144,0.042,0.265,0.102,0.361,0.178c0.098,0.077,0.171,0.169,0.222,0.275C27.897,45.71,27.922,45.828,27.922,45.958z
			 M26.093,45.958c0,0.047,0.009,0.09,0.027,0.13c0.019,0.041,0.053,0.077,0.103,0.107c0.05,0.032,0.119,0.058,0.207,0.076
			c0.089,0.018,0.201,0.027,0.338,0.027s0.25-0.01,0.341-0.027c0.09-0.019,0.161-0.044,0.214-0.076
			c0.052-0.03,0.089-0.066,0.109-0.107c0.021-0.04,0.031-0.083,0.031-0.13s-0.011-0.09-0.031-0.131
			c-0.021-0.04-0.058-0.076-0.109-0.107c-0.053-0.031-0.124-0.056-0.214-0.074c-0.091-0.019-0.204-0.028-0.341-0.028
			s-0.249,0.01-0.338,0.028c-0.088,0.019-0.157,0.043-0.207,0.074s-0.084,0.067-0.103,0.107
			C26.102,45.868,26.093,45.911,26.093,45.958z M27.046,45.958c0,0.081-0.025,0.147-0.077,0.2c-0.051,0.052-0.118,0.077-0.201,0.077
			c-0.084,0-0.151-0.025-0.202-0.077c-0.051-0.053-0.076-0.119-0.076-0.2s0.025-0.147,0.076-0.2
			c0.051-0.052,0.118-0.078,0.202-0.078c0.083,0,0.15,0.026,0.201,0.078C27.021,45.811,27.046,45.877,27.046,45.958z"/>
		<path fill="#FFFFFF" d="M27.4,43.033h0.479v1.621H27.4v-0.55H26.26v0.448h-0.369c-0.025-0.132-0.054-0.244-0.087-0.337
			c-0.032-0.093-0.075-0.184-0.129-0.271v-0.438H27.4V43.033z"/>
		<path fill="#FFFFFF" d="M27.922,41.784c0,0.13-0.024,0.249-0.074,0.354c-0.051,0.107-0.124,0.198-0.222,0.275
			c-0.097,0.076-0.218,0.136-0.361,0.178s-0.31,0.062-0.497,0.062c-0.188,0-0.354-0.021-0.496-0.062s-0.261-0.102-0.354-0.178
			c-0.094-0.077-0.165-0.168-0.213-0.275c-0.047-0.105-0.07-0.225-0.07-0.354c0-0.129,0.023-0.248,0.07-0.354
			c0.048-0.106,0.119-0.198,0.213-0.274s0.212-0.136,0.354-0.178c0.143-0.041,0.308-0.062,0.496-0.062
			c0.188,0,0.354,0.021,0.497,0.062c0.144,0.042,0.265,0.102,0.361,0.178c0.098,0.076,0.171,0.168,0.222,0.274
			C27.897,41.536,27.922,41.655,27.922,41.784z M26.093,41.784c0,0.047,0.009,0.09,0.027,0.131c0.019,0.04,0.053,0.076,0.103,0.107
			s0.119,0.057,0.207,0.075c0.089,0.019,0.201,0.027,0.338,0.027s0.25-0.009,0.341-0.027c0.09-0.019,0.161-0.044,0.214-0.075
			c0.052-0.031,0.089-0.067,0.109-0.107c0.021-0.041,0.031-0.084,0.031-0.131c0-0.046-0.011-0.09-0.031-0.13
			c-0.021-0.041-0.058-0.076-0.109-0.107c-0.053-0.031-0.124-0.057-0.214-0.075c-0.091-0.019-0.204-0.027-0.341-0.027
			s-0.249,0.009-0.338,0.027c-0.088,0.019-0.157,0.044-0.207,0.075s-0.084,0.066-0.103,0.107
			C26.102,41.694,26.093,41.738,26.093,41.784z M27.046,41.784c0,0.082-0.025,0.147-0.077,0.201
			c-0.051,0.052-0.118,0.077-0.201,0.077c-0.084,0-0.151-0.025-0.202-0.077c-0.051-0.054-0.076-0.119-0.076-0.201
			c0-0.081,0.025-0.147,0.076-0.199c0.051-0.053,0.118-0.078,0.202-0.078c0.083,0,0.15,0.025,0.201,0.078
			C27.021,41.637,27.046,41.703,27.046,41.784z"/>
		<path fill="#FFFFFF" d="M27.4,38.859h0.479v1.621H27.4v-0.549H26.26v0.448h-0.369c-0.025-0.132-0.054-0.245-0.087-0.338
			c-0.032-0.092-0.075-0.183-0.129-0.271v-0.438H27.4V38.859z"/>
		<path fill="#FFFFFF" d="M27.922,37.611c0,0.13-0.024,0.248-0.074,0.355c-0.051,0.105-0.124,0.197-0.222,0.273
			c-0.097,0.077-0.218,0.136-0.361,0.179c-0.144,0.042-0.31,0.062-0.497,0.062c-0.188,0-0.354-0.02-0.496-0.062
			c-0.143-0.043-0.261-0.102-0.354-0.179c-0.094-0.076-0.165-0.168-0.213-0.273c-0.047-0.107-0.07-0.226-0.07-0.355
			s0.023-0.248,0.07-0.354c0.048-0.106,0.119-0.198,0.213-0.274c0.094-0.077,0.212-0.136,0.354-0.178
			c0.143-0.041,0.308-0.062,0.496-0.062c0.188,0,0.354,0.021,0.497,0.062c0.144,0.042,0.265,0.101,0.361,0.178
			c0.098,0.076,0.171,0.168,0.222,0.274C27.897,37.363,27.922,37.481,27.922,37.611z M26.093,37.611c0,0.047,0.009,0.09,0.027,0.131
			c0.019,0.04,0.053,0.076,0.103,0.107s0.119,0.057,0.207,0.074c0.089,0.02,0.201,0.029,0.338,0.029s0.25-0.01,0.341-0.029
			c0.09-0.018,0.161-0.043,0.214-0.074c0.052-0.031,0.089-0.067,0.109-0.107c0.021-0.041,0.031-0.084,0.031-0.131
			s-0.011-0.09-0.031-0.131c-0.021-0.04-0.058-0.076-0.109-0.107c-0.053-0.031-0.124-0.057-0.214-0.074
			c-0.091-0.02-0.204-0.028-0.341-0.028s-0.249,0.009-0.338,0.028c-0.088,0.018-0.157,0.043-0.207,0.074s-0.084,0.067-0.103,0.107
			C26.102,37.521,26.093,37.564,26.093,37.611z M27.046,37.611c0,0.081-0.025,0.148-0.077,0.199
			c-0.051,0.053-0.118,0.079-0.201,0.079c-0.084,0-0.151-0.026-0.202-0.079c-0.051-0.051-0.076-0.118-0.076-0.199
			s0.025-0.147,0.076-0.199c0.051-0.053,0.118-0.079,0.202-0.079c0.083,0,0.15,0.026,0.201,0.079
			C27.021,37.464,27.046,37.53,27.046,37.611z"/>
	</g>
	<g>
		<path fill="#FFFFFF" d="M77.086,38.347h-0.48v-1.62h0.48v0.549h1.141v-0.448h0.369c0.025,0.132,0.054,0.244,0.086,0.337
			c0.033,0.094,0.076,0.184,0.13,0.271v0.438h-1.726V38.347z"/>
		<path fill="#FFFFFF" d="M76.564,39.595c0-0.13,0.024-0.247,0.074-0.354c0.05-0.106,0.124-0.198,0.222-0.274
			c0.097-0.077,0.218-0.136,0.361-0.177c0.144-0.042,0.31-0.062,0.497-0.062s0.354,0.021,0.495,0.062
			c0.143,0.041,0.261,0.1,0.354,0.177c0.095,0.076,0.166,0.168,0.213,0.274c0.048,0.107,0.071,0.225,0.071,0.354
			c0,0.131-0.023,0.248-0.071,0.355c-0.047,0.106-0.118,0.198-0.213,0.275c-0.094,0.076-0.212,0.135-0.354,0.177
			c-0.142,0.042-0.308,0.062-0.495,0.062s-0.354-0.021-0.497-0.062s-0.265-0.101-0.361-0.177c-0.098-0.077-0.172-0.169-0.222-0.275
			C76.589,39.843,76.564,39.726,76.564,39.595z M78.393,39.595c0-0.046-0.009-0.09-0.026-0.13c-0.019-0.041-0.054-0.077-0.104-0.108
			s-0.118-0.056-0.207-0.074c-0.088-0.019-0.2-0.027-0.337-0.027s-0.25,0.009-0.341,0.027s-0.161,0.043-0.214,0.074
			c-0.052,0.031-0.089,0.067-0.109,0.108c-0.021,0.04-0.031,0.084-0.031,0.13c0,0.047,0.01,0.091,0.031,0.131
			c0.021,0.04,0.058,0.076,0.109,0.108c0.053,0.031,0.123,0.056,0.214,0.074s0.204,0.028,0.341,0.028s0.249-0.01,0.337-0.028
			c0.089-0.019,0.157-0.043,0.207-0.074c0.05-0.032,0.085-0.068,0.104-0.108C78.384,39.686,78.393,39.642,78.393,39.595z
			 M77.44,39.595c0-0.081,0.025-0.147,0.077-0.199c0.051-0.053,0.118-0.079,0.201-0.079c0.084,0,0.151,0.026,0.201,0.079
			c0.051,0.052,0.077,0.118,0.077,0.199s-0.026,0.148-0.077,0.2c-0.05,0.053-0.117,0.079-0.201,0.079
			c-0.083,0-0.15-0.026-0.201-0.079C77.466,39.743,77.44,39.676,77.44,39.595z"/>
		<path fill="#FFFFFF" d="M76.564,41.682c0-0.129,0.024-0.248,0.074-0.354s0.124-0.198,0.222-0.274
			c0.097-0.076,0.218-0.136,0.361-0.178s0.31-0.062,0.497-0.062s0.354,0.021,0.495,0.062c0.143,0.042,0.261,0.102,0.354,0.178
			c0.095,0.076,0.166,0.168,0.213,0.274c0.048,0.106,0.071,0.226,0.071,0.354c0,0.13-0.023,0.248-0.071,0.354
			c-0.047,0.106-0.118,0.198-0.213,0.275c-0.094,0.076-0.212,0.136-0.354,0.178c-0.142,0.041-0.308,0.062-0.495,0.062
			s-0.354-0.021-0.497-0.062c-0.144-0.042-0.265-0.102-0.361-0.178c-0.098-0.077-0.172-0.169-0.222-0.275
			S76.564,41.812,76.564,41.682z M78.393,41.682c0-0.046-0.009-0.09-0.026-0.13c-0.019-0.041-0.054-0.077-0.104-0.107
			c-0.05-0.031-0.118-0.058-0.207-0.075c-0.088-0.019-0.2-0.027-0.337-0.027s-0.25,0.009-0.341,0.027
			c-0.091,0.018-0.161,0.044-0.214,0.075c-0.052,0.03-0.089,0.066-0.109,0.107c-0.021,0.04-0.031,0.084-0.031,0.13
			c0,0.047,0.01,0.09,0.031,0.131c0.021,0.04,0.058,0.076,0.109,0.107c0.053,0.031,0.123,0.057,0.214,0.074
			c0.091,0.019,0.204,0.028,0.341,0.028s0.249-0.01,0.337-0.028c0.089-0.018,0.157-0.043,0.207-0.074s0.085-0.067,0.104-0.107
			C78.384,41.771,78.393,41.729,78.393,41.682z M77.44,41.682c0-0.081,0.025-0.147,0.077-0.2c0.051-0.052,0.118-0.077,0.201-0.077
			c0.084,0,0.151,0.025,0.201,0.077c0.051,0.053,0.077,0.119,0.077,0.2s-0.026,0.147-0.077,0.2c-0.05,0.053-0.117,0.078-0.201,0.078
			c-0.083,0-0.15-0.025-0.201-0.078C77.466,41.829,77.44,41.763,77.44,41.682z"/>
		<path fill="#FFFFFF" d="M77.086,44.606h-0.48v-1.621h0.48v0.55h1.141v-0.448h0.369c0.025,0.132,0.054,0.245,0.086,0.337
			c0.033,0.093,0.076,0.184,0.13,0.271v0.438h-1.726V44.606z"/>
		<path fill="#FFFFFF" d="M77.086,46.693h-0.48v-1.621h0.48v0.55h1.141v-0.449h0.369c0.025,0.133,0.054,0.245,0.086,0.338
			c0.033,0.093,0.076,0.184,0.13,0.271v0.438h-1.726V46.693z"/>
		<path fill="#FFFFFF" d="M76.564,47.941c0-0.13,0.024-0.247,0.074-0.354c0.05-0.106,0.124-0.198,0.222-0.275
			c0.097-0.076,0.218-0.135,0.361-0.177s0.31-0.062,0.497-0.062s0.354,0.021,0.495,0.062c0.143,0.042,0.261,0.101,0.354,0.177
			c0.095,0.077,0.166,0.169,0.213,0.275c0.048,0.107,0.071,0.225,0.071,0.354c0,0.131-0.023,0.248-0.071,0.355
			c-0.047,0.106-0.118,0.198-0.213,0.274c-0.094,0.077-0.212,0.136-0.354,0.177c-0.142,0.042-0.308,0.062-0.495,0.062
			s-0.354-0.021-0.497-0.062c-0.144-0.041-0.265-0.1-0.361-0.177c-0.098-0.076-0.172-0.168-0.222-0.274
			C76.589,48.189,76.564,48.072,76.564,47.941z M78.393,47.941c0-0.046-0.009-0.09-0.026-0.13c-0.019-0.041-0.054-0.077-0.104-0.108
			s-0.118-0.056-0.207-0.074c-0.088-0.019-0.2-0.028-0.337-0.028s-0.25,0.01-0.341,0.028s-0.161,0.043-0.214,0.074
			c-0.052,0.031-0.089,0.067-0.109,0.108c-0.021,0.04-0.031,0.084-0.031,0.13c0,0.047,0.01,0.091,0.031,0.131
			c0.021,0.041,0.058,0.076,0.109,0.108c0.053,0.031,0.123,0.056,0.214,0.074s0.204,0.027,0.341,0.027s0.249-0.009,0.337-0.027
			c0.089-0.019,0.157-0.043,0.207-0.074c0.05-0.032,0.085-0.067,0.104-0.108C78.384,48.032,78.393,47.988,78.393,47.941z
			 M77.44,47.941c0-0.08,0.025-0.147,0.077-0.199c0.051-0.053,0.118-0.079,0.201-0.079c0.084,0,0.151,0.026,0.201,0.079
			c0.051,0.052,0.077,0.119,0.077,0.199c0,0.082-0.026,0.148-0.077,0.2c-0.05,0.053-0.117,0.079-0.201,0.079
			c-0.083,0-0.15-0.026-0.201-0.079C77.466,48.09,77.44,48.023,77.44,47.941z"/>
		<path fill="#FFFFFF" d="M76.564,50.028c0-0.13,0.024-0.248,0.074-0.354s0.124-0.198,0.222-0.274
			c0.097-0.077,0.218-0.136,0.361-0.179c0.144-0.041,0.31-0.062,0.497-0.062s0.354,0.021,0.495,0.062
			c0.143,0.043,0.261,0.102,0.354,0.179c0.095,0.076,0.166,0.168,0.213,0.274c0.048,0.106,0.071,0.225,0.071,0.354
			s-0.023,0.248-0.071,0.354c-0.047,0.107-0.118,0.198-0.213,0.274c-0.094,0.077-0.212,0.136-0.354,0.178
			c-0.142,0.042-0.308,0.062-0.495,0.062s-0.354-0.021-0.497-0.062s-0.265-0.101-0.361-0.178c-0.098-0.076-0.172-0.167-0.222-0.274
			C76.589,50.276,76.564,50.158,76.564,50.028z M78.393,50.028c0-0.047-0.009-0.09-0.026-0.131c-0.019-0.04-0.054-0.076-0.104-0.107
			s-0.118-0.057-0.207-0.074c-0.088-0.019-0.2-0.028-0.337-0.028s-0.25,0.01-0.341,0.028c-0.091,0.018-0.161,0.043-0.214,0.074
			c-0.052,0.031-0.089,0.067-0.109,0.107c-0.021,0.041-0.031,0.084-0.031,0.131s0.01,0.09,0.031,0.13
			c0.021,0.041,0.058,0.077,0.109,0.108c0.053,0.031,0.123,0.057,0.214,0.075c0.091,0.018,0.204,0.027,0.341,0.027
			s0.249-0.01,0.337-0.027c0.089-0.019,0.157-0.044,0.207-0.075s0.085-0.067,0.104-0.108C78.384,50.118,78.393,50.075,78.393,50.028
			z M77.44,50.028c0-0.081,0.025-0.147,0.077-0.2c0.051-0.052,0.118-0.078,0.201-0.078c0.084,0,0.151,0.026,0.201,0.078
			c0.051,0.053,0.077,0.119,0.077,0.2s-0.026,0.147-0.077,0.2c-0.05,0.052-0.117,0.077-0.201,0.077c-0.083,0-0.15-0.025-0.201-0.077
			C77.466,50.176,77.44,50.109,77.44,50.028z"/>
		<path fill="#FFFFFF" d="M77.086,52.953h-0.48v-1.621h0.48v0.55h1.141v-0.448h0.369c0.025,0.132,0.054,0.245,0.086,0.337
			c0.033,0.093,0.076,0.183,0.13,0.271v0.438h-1.726V52.953z"/>
		<path fill="#FFFFFF" d="M77.086,55.039h-0.48v-1.62h0.48v0.55h1.141V53.52h0.369c0.025,0.132,0.054,0.245,0.086,0.338
			c0.033,0.093,0.076,0.183,0.13,0.271v0.438h-1.726V55.039z"/>
		<path fill="#FFFFFF" d="M76.564,56.288c0-0.13,0.024-0.248,0.074-0.354c0.05-0.107,0.124-0.198,0.222-0.275
			c0.097-0.076,0.218-0.135,0.361-0.177s0.31-0.062,0.497-0.062s0.354,0.021,0.495,0.062c0.143,0.042,0.261,0.101,0.354,0.177
			c0.095,0.077,0.166,0.168,0.213,0.275c0.048,0.106,0.071,0.225,0.071,0.354s-0.023,0.248-0.071,0.354
			c-0.047,0.106-0.118,0.198-0.213,0.275c-0.094,0.076-0.212,0.136-0.354,0.177c-0.142,0.042-0.308,0.063-0.495,0.063
			s-0.354-0.021-0.497-0.063c-0.144-0.041-0.265-0.101-0.361-0.177c-0.098-0.077-0.172-0.169-0.222-0.275
			S76.564,56.418,76.564,56.288z M78.393,56.288c0-0.047-0.009-0.09-0.026-0.13c-0.019-0.041-0.054-0.077-0.104-0.108
			s-0.118-0.056-0.207-0.075c-0.088-0.019-0.2-0.027-0.337-0.027s-0.25,0.009-0.341,0.027c-0.091,0.02-0.161,0.044-0.214,0.075
			c-0.052,0.031-0.089,0.067-0.109,0.108c-0.021,0.04-0.031,0.083-0.031,0.13c0,0.046,0.01,0.09,0.031,0.131
			c0.021,0.04,0.058,0.076,0.109,0.107c0.053,0.031,0.123,0.056,0.214,0.074c0.091,0.02,0.204,0.028,0.341,0.028
			s0.249-0.009,0.337-0.028c0.089-0.019,0.157-0.043,0.207-0.074s0.085-0.067,0.104-0.107
			C78.384,56.378,78.393,56.334,78.393,56.288z M77.44,56.288c0-0.081,0.025-0.147,0.077-0.2c0.051-0.052,0.118-0.078,0.201-0.078
			c0.084,0,0.151,0.026,0.201,0.078c0.051,0.053,0.077,0.119,0.077,0.2s-0.026,0.147-0.077,0.199
			c-0.05,0.054-0.117,0.079-0.201,0.079c-0.083,0-0.15-0.025-0.201-0.079C77.466,56.436,77.44,56.369,77.44,56.288z"/>
		<path fill="#FFFFFF" d="M77.086,59.213h-0.48v-1.621h0.48v0.55h1.141v-0.448h0.369c0.025,0.132,0.054,0.244,0.086,0.338
			c0.033,0.092,0.076,0.183,0.13,0.271v0.438h-1.726V59.213z"/>
		<path fill="#FFFFFF" d="M76.564,60.462c0-0.13,0.024-0.248,0.074-0.355s0.124-0.198,0.222-0.274
			c0.097-0.076,0.218-0.136,0.361-0.178s0.31-0.062,0.497-0.062s0.354,0.021,0.495,0.062c0.143,0.042,0.261,0.102,0.354,0.178
			c0.095,0.076,0.166,0.167,0.213,0.274c0.048,0.107,0.071,0.226,0.071,0.355c0,0.129-0.023,0.248-0.071,0.354
			c-0.047,0.105-0.118,0.198-0.213,0.274c-0.094,0.076-0.212,0.136-0.354,0.178c-0.142,0.041-0.308,0.062-0.495,0.062
			s-0.354-0.021-0.497-0.062c-0.144-0.042-0.265-0.102-0.361-0.178c-0.098-0.076-0.172-0.169-0.222-0.274
			C76.589,60.71,76.564,60.591,76.564,60.462z M78.393,60.462c0-0.047-0.009-0.09-0.026-0.131c-0.019-0.04-0.054-0.076-0.104-0.107
			s-0.118-0.057-0.207-0.076c-0.088-0.019-0.2-0.027-0.337-0.027s-0.25,0.009-0.341,0.027c-0.091,0.02-0.161,0.045-0.214,0.076
			c-0.052,0.031-0.089,0.067-0.109,0.107c-0.021,0.041-0.031,0.084-0.031,0.131c0,0.046,0.01,0.09,0.031,0.13
			c0.021,0.041,0.058,0.076,0.109,0.107c0.053,0.031,0.123,0.056,0.214,0.075c0.091,0.019,0.204,0.027,0.341,0.027
			s0.249-0.009,0.337-0.027c0.089-0.02,0.157-0.044,0.207-0.075s0.085-0.066,0.104-0.107C78.384,60.552,78.393,60.508,78.393,60.462
			z M77.44,60.462c0-0.081,0.025-0.148,0.077-0.201c0.051-0.052,0.118-0.077,0.201-0.077c0.084,0,0.151,0.025,0.201,0.077
			c0.051,0.053,0.077,0.12,0.077,0.201s-0.026,0.147-0.077,0.199c-0.05,0.053-0.117,0.078-0.201,0.078
			c-0.083,0-0.15-0.025-0.201-0.078C77.466,60.609,77.44,60.543,77.44,60.462z"/>
		<path fill="#FFFFFF" d="M77.086,63.386h-0.48v-1.62h0.48v0.549h1.141v-0.448h0.369c0.025,0.132,0.054,0.244,0.086,0.338
			c0.033,0.092,0.076,0.183,0.13,0.271v0.438h-1.726V63.386z"/>
		<path fill="#FFFFFF" d="M76.564,64.635c0-0.13,0.024-0.248,0.074-0.354c0.05-0.107,0.124-0.198,0.222-0.275
			c0.097-0.076,0.218-0.135,0.361-0.178c0.144-0.041,0.31-0.062,0.497-0.062s0.354,0.021,0.495,0.062
			c0.143,0.043,0.261,0.102,0.354,0.178c0.095,0.077,0.166,0.168,0.213,0.275c0.048,0.106,0.071,0.225,0.071,0.354
			s-0.023,0.248-0.071,0.354c-0.047,0.106-0.118,0.198-0.213,0.274c-0.094,0.077-0.212,0.136-0.354,0.178
			c-0.142,0.041-0.308,0.062-0.495,0.062s-0.354-0.021-0.497-0.062c-0.144-0.042-0.265-0.101-0.361-0.178
			c-0.098-0.076-0.172-0.168-0.222-0.274S76.564,64.765,76.564,64.635z M78.393,64.635c0-0.047-0.009-0.09-0.026-0.131
			c-0.019-0.04-0.054-0.076-0.104-0.107s-0.118-0.057-0.207-0.075c-0.088-0.019-0.2-0.027-0.337-0.027s-0.25,0.009-0.341,0.027
			s-0.161,0.044-0.214,0.075c-0.052,0.031-0.089,0.067-0.109,0.107c-0.021,0.041-0.031,0.084-0.031,0.131
			c0,0.046,0.01,0.09,0.031,0.13c0.021,0.041,0.058,0.077,0.109,0.108c0.053,0.031,0.123,0.056,0.214,0.074s0.204,0.028,0.341,0.028
			s0.249-0.01,0.337-0.028c0.089-0.019,0.157-0.043,0.207-0.074s0.085-0.067,0.104-0.108C78.384,64.725,78.393,64.681,78.393,64.635
			z M77.44,64.635c0-0.081,0.025-0.147,0.077-0.2c0.051-0.052,0.118-0.078,0.201-0.078c0.084,0,0.151,0.026,0.201,0.078
			c0.051,0.053,0.077,0.119,0.077,0.2s-0.026,0.147-0.077,0.199c-0.05,0.053-0.117,0.079-0.201,0.079
			c-0.083,0-0.15-0.026-0.201-0.079C77.466,64.782,77.44,64.716,77.44,64.635z"/>
	</g>
	<g>
		<path fill="#FFFFFF" d="M36.667,64.429c0,0.13-0.024,0.247-0.075,0.354c-0.05,0.106-0.123,0.198-0.221,0.274
			c-0.097,0.077-0.218,0.136-0.361,0.177c-0.144,0.042-0.31,0.063-0.497,0.063c-0.188,0-0.354-0.021-0.496-0.063
			c-0.143-0.041-0.261-0.1-0.354-0.177c-0.094-0.076-0.165-0.168-0.212-0.274c-0.048-0.107-0.071-0.225-0.071-0.354
			c0-0.131,0.023-0.248,0.071-0.355c0.047-0.106,0.118-0.198,0.212-0.274c0.094-0.077,0.212-0.136,0.354-0.178
			s0.308-0.062,0.496-0.062c0.188,0,0.354,0.021,0.497,0.062s0.265,0.101,0.361,0.178c0.098,0.076,0.171,0.168,0.221,0.274
			C36.643,64.181,36.667,64.298,36.667,64.429z M34.838,64.429c0,0.046,0.009,0.09,0.027,0.13c0.02,0.041,0.053,0.077,0.103,0.108
			s0.119,0.056,0.207,0.074s0.2,0.027,0.338,0.027c0.137,0,0.25-0.009,0.341-0.027c0.09-0.019,0.161-0.043,0.214-0.074
			c0.052-0.031,0.089-0.067,0.109-0.108c0.021-0.04,0.031-0.084,0.031-0.13c0-0.047-0.011-0.09-0.031-0.131
			c-0.021-0.04-0.058-0.076-0.109-0.107c-0.053-0.032-0.124-0.057-0.214-0.075c-0.091-0.019-0.204-0.028-0.341-0.028
			c-0.138,0-0.25,0.01-0.338,0.028s-0.157,0.043-0.207,0.075c-0.05,0.031-0.083,0.067-0.103,0.107
			C34.847,64.339,34.838,64.382,34.838,64.429z M35.791,64.429c0,0.081-0.026,0.147-0.077,0.199
			c-0.051,0.053-0.118,0.079-0.201,0.079c-0.084,0-0.151-0.026-0.202-0.079c-0.051-0.052-0.076-0.118-0.076-0.199
			s0.025-0.148,0.076-0.2s0.118-0.079,0.202-0.079c0.083,0,0.15,0.027,0.201,0.079S35.791,64.348,35.791,64.429z"/>
		<path fill="#FFFFFF" d="M36.667,62.342c0,0.129-0.024,0.248-0.075,0.354c-0.05,0.107-0.123,0.198-0.221,0.274
			c-0.097,0.076-0.218,0.136-0.361,0.178s-0.31,0.062-0.497,0.062c-0.188,0-0.354-0.021-0.496-0.062s-0.261-0.102-0.354-0.178
			s-0.165-0.167-0.212-0.274c-0.048-0.106-0.071-0.226-0.071-0.354c0-0.13,0.023-0.249,0.071-0.354
			c0.047-0.106,0.118-0.198,0.212-0.275c0.094-0.076,0.212-0.136,0.354-0.178c0.143-0.041,0.308-0.062,0.496-0.062
			c0.188,0,0.354,0.021,0.497,0.062c0.144,0.042,0.265,0.102,0.361,0.178c0.098,0.077,0.171,0.169,0.221,0.275
			C36.643,62.093,36.667,62.212,36.667,62.342z M34.838,62.342c0,0.046,0.009,0.09,0.027,0.13c0.02,0.041,0.053,0.077,0.103,0.107
			c0.05,0.031,0.119,0.058,0.207,0.076c0.088,0.018,0.2,0.026,0.338,0.026c0.137,0,0.25-0.009,0.341-0.026
			c0.09-0.019,0.161-0.045,0.214-0.076c0.052-0.03,0.089-0.066,0.109-0.107c0.021-0.04,0.031-0.084,0.031-0.13
			c0-0.047-0.011-0.09-0.031-0.131c-0.021-0.04-0.058-0.076-0.109-0.107c-0.053-0.031-0.124-0.057-0.214-0.074
			c-0.091-0.02-0.204-0.028-0.341-0.028c-0.138,0-0.25,0.009-0.338,0.028c-0.088,0.018-0.157,0.043-0.207,0.074
			s-0.083,0.067-0.103,0.107C34.847,62.252,34.838,62.295,34.838,62.342z M35.791,62.342c0,0.081-0.026,0.147-0.077,0.2
			c-0.051,0.052-0.118,0.077-0.201,0.077c-0.084,0-0.151-0.025-0.202-0.077c-0.051-0.053-0.076-0.119-0.076-0.2
			s0.025-0.147,0.076-0.2s0.118-0.078,0.202-0.078c0.083,0,0.15,0.025,0.201,0.078S35.791,62.261,35.791,62.342z"/>
		<path fill="#FFFFFF" d="M36.146,59.417h0.479v1.621h-0.479v-0.55h-1.141v0.448h-0.369c-0.025-0.132-0.055-0.245-0.087-0.337
			c-0.032-0.093-0.075-0.184-0.128-0.271V59.89h1.725V59.417z"/>
		<path fill="#FFFFFF" d="M36.667,58.168c0,0.13-0.024,0.249-0.075,0.354c-0.05,0.107-0.123,0.198-0.221,0.275
			c-0.097,0.076-0.218,0.136-0.361,0.178s-0.31,0.062-0.497,0.062c-0.188,0-0.354-0.021-0.496-0.062s-0.261-0.102-0.354-0.178
			c-0.094-0.077-0.165-0.168-0.212-0.275c-0.048-0.105-0.071-0.225-0.071-0.354c0-0.129,0.023-0.248,0.071-0.354
			c0.047-0.106,0.118-0.198,0.212-0.274s0.212-0.136,0.354-0.178c0.143-0.041,0.308-0.062,0.496-0.062
			c0.188,0,0.354,0.021,0.497,0.062c0.144,0.042,0.265,0.102,0.361,0.178c0.098,0.076,0.171,0.168,0.221,0.274
			C36.643,57.92,36.667,58.039,36.667,58.168z M34.838,58.168c0,0.047,0.009,0.09,0.027,0.131c0.02,0.04,0.053,0.076,0.103,0.107
			s0.119,0.057,0.207,0.075c0.088,0.018,0.2,0.027,0.338,0.027c0.137,0,0.25-0.01,0.341-0.027c0.09-0.019,0.161-0.044,0.214-0.075
			c0.052-0.031,0.089-0.067,0.109-0.107c0.021-0.041,0.031-0.084,0.031-0.131c0-0.046-0.011-0.09-0.031-0.13
			c-0.021-0.041-0.058-0.076-0.109-0.107c-0.053-0.031-0.124-0.057-0.214-0.075c-0.091-0.019-0.204-0.027-0.341-0.027
			c-0.138,0-0.25,0.009-0.338,0.027s-0.157,0.044-0.207,0.075s-0.083,0.066-0.103,0.107C34.847,58.078,34.838,58.122,34.838,58.168z
			 M35.791,58.168c0,0.082-0.026,0.147-0.077,0.201c-0.051,0.052-0.118,0.077-0.201,0.077c-0.084,0-0.151-0.025-0.202-0.077
			c-0.051-0.054-0.076-0.119-0.076-0.201c0-0.081,0.025-0.147,0.076-0.2c0.051-0.052,0.118-0.077,0.202-0.077
			c0.083,0,0.15,0.025,0.201,0.077C35.765,58.021,35.791,58.087,35.791,58.168z"/>
		<path fill="#FFFFFF" d="M36.146,55.244h0.479v1.62h-0.479v-0.549h-1.141v0.448h-0.369c-0.025-0.133-0.055-0.245-0.087-0.338
			c-0.032-0.092-0.075-0.183-0.128-0.271v-0.438h1.725V55.244z"/>
		<path fill="#FFFFFF" d="M36.667,53.995c0,0.13-0.024,0.248-0.075,0.354c-0.05,0.107-0.123,0.198-0.221,0.274
			c-0.097,0.077-0.218,0.136-0.361,0.179c-0.144,0.041-0.31,0.062-0.497,0.062c-0.188,0-0.354-0.021-0.496-0.062
			c-0.143-0.043-0.261-0.102-0.354-0.179c-0.094-0.076-0.165-0.167-0.212-0.274c-0.048-0.106-0.071-0.225-0.071-0.354
			s0.023-0.248,0.071-0.354c0.047-0.107,0.118-0.198,0.212-0.274c0.094-0.077,0.212-0.136,0.354-0.178s0.308-0.062,0.496-0.062
			c0.188,0,0.354,0.021,0.497,0.062s0.265,0.101,0.361,0.178c0.098,0.076,0.171,0.167,0.221,0.274
			C36.643,53.747,36.667,53.865,36.667,53.995z M34.838,53.995c0,0.047,0.009,0.09,0.027,0.131c0.02,0.04,0.053,0.076,0.103,0.107
			s0.119,0.057,0.207,0.074c0.088,0.019,0.2,0.028,0.338,0.028c0.137,0,0.25-0.01,0.341-0.028c0.09-0.018,0.161-0.043,0.214-0.074
			c0.052-0.031,0.089-0.067,0.109-0.107c0.021-0.041,0.031-0.084,0.031-0.131s-0.011-0.09-0.031-0.131
			c-0.021-0.04-0.058-0.076-0.109-0.107c-0.053-0.031-0.124-0.057-0.214-0.075c-0.091-0.018-0.204-0.027-0.341-0.027
			c-0.138,0-0.25,0.01-0.338,0.027c-0.088,0.019-0.157,0.044-0.207,0.075s-0.083,0.067-0.103,0.107
			C34.847,53.905,34.838,53.948,34.838,53.995z M35.791,53.995c0,0.081-0.026,0.147-0.077,0.2c-0.051,0.052-0.118,0.078-0.201,0.078
			c-0.084,0-0.151-0.026-0.202-0.078c-0.051-0.053-0.076-0.119-0.076-0.2s0.025-0.147,0.076-0.2
			c0.051-0.052,0.118-0.077,0.202-0.077c0.083,0,0.15,0.025,0.201,0.077C35.765,53.848,35.791,53.914,35.791,53.995z"/>
	</g>
	<g>
		<path fill="#FFFFFF" d="M68.125,54.076c0-0.13,0.024-0.248,0.074-0.354c0.05-0.107,0.123-0.198,0.221-0.274
			c0.098-0.077,0.218-0.136,0.362-0.178c0.144-0.042,0.31-0.062,0.497-0.062s0.353,0.021,0.495,0.062
			c0.144,0.042,0.261,0.101,0.354,0.178c0.095,0.076,0.165,0.167,0.213,0.274c0.047,0.106,0.071,0.225,0.071,0.354
			s-0.024,0.248-0.071,0.354c-0.048,0.106-0.118,0.198-0.213,0.274c-0.094,0.077-0.211,0.137-0.354,0.178
			c-0.143,0.042-0.308,0.062-0.495,0.062s-0.354-0.021-0.497-0.062c-0.145-0.041-0.265-0.101-0.362-0.178
			c-0.098-0.076-0.171-0.168-0.221-0.274S68.125,54.206,68.125,54.076z M69.954,54.076c0-0.047-0.01-0.09-0.028-0.131
			c-0.019-0.04-0.053-0.076-0.103-0.107s-0.119-0.057-0.207-0.074c-0.088-0.019-0.2-0.028-0.337-0.028s-0.251,0.01-0.341,0.028
			c-0.09,0.018-0.162,0.043-0.214,0.074s-0.089,0.067-0.109,0.107c-0.021,0.041-0.031,0.084-0.031,0.131s0.01,0.09,0.031,0.131
			c0.021,0.04,0.058,0.076,0.109,0.107s0.124,0.057,0.214,0.074c0.09,0.019,0.204,0.028,0.341,0.028s0.249-0.01,0.337-0.028
			c0.088-0.018,0.157-0.043,0.207-0.074s0.084-0.067,0.103-0.107C69.944,54.166,69.954,54.123,69.954,54.076z M69.001,54.076
			c0-0.081,0.025-0.147,0.077-0.2c0.05-0.052,0.117-0.078,0.201-0.078c0.083,0,0.15,0.026,0.202,0.078
			c0.051,0.053,0.076,0.119,0.076,0.2s-0.025,0.147-0.076,0.2c-0.052,0.052-0.119,0.078-0.202,0.078
			c-0.084,0-0.151-0.026-0.201-0.078C69.026,54.224,69.001,54.157,69.001,54.076z"/>
		<path fill="#FFFFFF" d="M68.646,57.001h-0.479V55.38h0.479v0.55h1.142v-0.448h0.368c0.025,0.132,0.055,0.245,0.087,0.337
			c0.033,0.093,0.075,0.183,0.129,0.271v0.438h-1.726V57.001z"/>
		<path fill="#FFFFFF" d="M68.125,58.249c0-0.129,0.024-0.248,0.074-0.354s0.123-0.198,0.221-0.274s0.218-0.136,0.362-0.178
			c0.144-0.042,0.31-0.062,0.497-0.062s0.353,0.021,0.495,0.062c0.144,0.042,0.261,0.102,0.354,0.178
			c0.095,0.076,0.165,0.168,0.213,0.274c0.047,0.106,0.071,0.226,0.071,0.354c0,0.13-0.024,0.248-0.071,0.354
			c-0.048,0.107-0.118,0.198-0.213,0.275c-0.094,0.076-0.211,0.136-0.354,0.178c-0.143,0.041-0.308,0.062-0.495,0.062
			s-0.354-0.021-0.497-0.062c-0.145-0.042-0.265-0.102-0.362-0.178c-0.098-0.077-0.171-0.168-0.221-0.275
			C68.149,58.497,68.125,58.379,68.125,58.249z M69.954,58.249c0-0.047-0.01-0.09-0.028-0.13c-0.019-0.041-0.053-0.077-0.103-0.108
			s-0.119-0.056-0.207-0.074s-0.2-0.027-0.337-0.027s-0.251,0.009-0.341,0.027s-0.162,0.043-0.214,0.074s-0.089,0.067-0.109,0.108
			c-0.021,0.04-0.031,0.083-0.031,0.13s0.01,0.09,0.031,0.131c0.021,0.04,0.058,0.076,0.109,0.107s0.124,0.057,0.214,0.075
			c0.09,0.018,0.204,0.027,0.341,0.027s0.249-0.01,0.337-0.027c0.088-0.019,0.157-0.044,0.207-0.075s0.084-0.067,0.103-0.107
			C69.944,58.339,69.954,58.296,69.954,58.249z M69.001,58.249c0-0.081,0.025-0.147,0.077-0.2c0.05-0.052,0.117-0.077,0.201-0.077
			c0.083,0,0.15,0.025,0.202,0.077c0.051,0.053,0.076,0.119,0.076,0.2s-0.025,0.148-0.076,0.201
			c-0.052,0.051-0.119,0.077-0.202,0.077c-0.084,0-0.151-0.026-0.201-0.077C69.026,58.397,69.001,58.33,69.001,58.249z"/>
		<path fill="#FFFFFF" d="M68.646,61.174h-0.479v-1.621h0.479v0.55h1.142v-0.448h0.368c0.025,0.133,0.055,0.245,0.087,0.338
			c0.033,0.092,0.075,0.183,0.129,0.271v0.438h-1.726V61.174z"/>
		<path fill="#FFFFFF" d="M68.646,63.261h-0.479v-1.62h0.479v0.549h1.142v-0.448h0.368c0.025,0.132,0.055,0.244,0.087,0.337
			c0.033,0.093,0.075,0.184,0.129,0.271v0.438h-1.726V63.261z"/>
		<path fill="#FFFFFF" d="M68.646,65.348h-0.479v-1.621h0.479v0.549h1.142v-0.448h0.368c0.025,0.133,0.055,0.245,0.087,0.338
			c0.033,0.093,0.075,0.183,0.129,0.271v0.438h-1.726V65.348z"/>
	</g>
	<g>
		<path fill="#FFFFFF" d="M122.4,50.016h-1.823c-2.644,0-4.672-0.646-6.084-1.938c-1.413-1.291-2.12-3.228-2.12-5.811V25.859
			c0-2.583,0.707-4.52,2.12-5.812c1.413-1.291,3.441-1.937,6.084-1.937h1.823c2.644,0,4.672,0.646,6.085,1.937
			c1.413,1.292,2.119,3.229,2.119,5.812v16.409c0,1.793-0.35,3.297-1.048,4.512l3.328,3.327l-2.598,2.599l-3.51-3.51
			C125.591,49.742,124.132,50.016,122.4,50.016z M125.591,22.577c-0.699-0.668-1.611-1.003-2.734-1.003h-2.735
			c-1.125,0-2.036,0.335-2.735,1.003c-0.699,0.669-1.048,1.474-1.048,2.416v18.14c0,0.942,0.349,1.748,1.048,2.416
			c0.699,0.669,1.61,1.003,2.735,1.003h2.735c1.124,0,2.035-0.334,2.734-1.003c0.699-0.668,1.048-1.474,1.048-2.416v-18.14
			C126.639,24.051,126.29,23.246,125.591,22.577z"/>
		<path fill="#FFFFFF" d="M152.733,48.078c-1.413,1.292-3.441,1.938-6.085,1.938h-1.139c-2.644,0-4.672-0.646-6.085-1.938
			c-1.413-1.291-2.119-3.228-2.119-5.811V18.11h3.965v25.022c0,0.942,0.349,1.748,1.048,2.416c0.698,0.669,1.61,1.003,2.734,1.003
			h2.051c1.124,0,2.035-0.334,2.735-1.003c0.698-0.668,1.048-1.474,1.048-2.416V18.11h3.965v24.157
			C154.853,44.851,154.146,46.787,152.733,48.078z"/>
		<path fill="#FFFFFF" d="M166.292,41.948l-1.778,8.067h-4.056l7.703-31.905h5.242l7.566,31.905h-4.057l-1.732-8.067H166.292z
			 M174.451,38.529l-3.738-17.411l-3.692,17.411H174.451z"/>
		<path fill="#FFFFFF" d="M190.312,50.016h-3.692V18.11h6.472l7.202,28.532V18.11h3.692v31.905h-6.518l-7.156-28.532V50.016z"/>
		<path fill="#FFFFFF" d="M217.933,50.016V21.574h-7.247V18.11h18.459v3.464h-7.247v28.441H217.933z"/>
		<path fill="#FFFFFF" d="M242.544,46.688V21.438h-4.102V18.11h12.169v3.327h-4.102v25.251h4.102v3.327h-12.169v-3.327H242.544z"/>
		<path fill="#FFFFFF" d="M275.771,32.331v3.327h-10.118v14.357h-3.965V18.11h15.224v3.327h-11.259v10.894H275.771z"/>
		<path fill="#FFFFFF" d="M291.77,46.688V21.438h-4.103V18.11h12.17v3.327h-4.102v25.251h4.102v3.327h-12.17v-3.327H291.77z"/>
		<path fill="#FFFFFF" d="M325.999,18.11v3.327h-11.258v10.438h10.118v3.327h-10.118v11.486h11.258v3.327h-15.224V18.11H325.999z"/>
		<path fill="#FFFFFF" d="M349.768,48.375c-1.201,1.094-3.184,1.641-5.948,1.641h-9.39V18.11h8.843c2.734,0,4.801,0.555,6.198,1.664
			c1.397,1.11,2.097,2.925,2.097,5.447v17.594C351.567,45.428,350.967,47.281,349.768,48.375z M346.69,22.417
			c-0.608-0.592-1.413-0.889-2.416-0.889h-5.879v25.069h5.834c1.154,0,2.005-0.266,2.552-0.798c0.548-0.531,0.821-1.375,0.821-2.53
			V24.811C347.603,23.808,347.298,23.01,346.69,22.417z"/>
		<path fill="#FFFFFF" d="M397.807,48.078c-1.413,1.292-3.441,1.938-6.085,1.938h-6.472v-3.464h6.928
			c1.124,0,2.035-0.334,2.734-1.003c0.699-0.668,1.049-1.474,1.049-2.416v-4.74c0-0.911-0.236-1.647-0.707-2.21
			s-1.178-0.844-2.119-0.844h-1.367c-2.249,0-4.026-0.661-5.333-1.982c-1.307-1.322-1.96-3.243-1.96-5.766v-1.732
			c0-2.583,0.707-4.52,2.12-5.812c1.412-1.291,3.44-1.937,6.084-1.937h6.519v3.464h-6.974c-1.125,0-2.036,0.335-2.735,1.003
			c-0.699,0.669-1.048,1.474-1.048,2.416v3.464c0,0.942,0.303,1.725,0.911,2.347c0.607,0.623,1.397,0.934,2.37,0.934h1.367
			c2.157,0,3.836,0.624,5.037,1.869c1.2,1.246,1.8,3.13,1.8,5.651v3.009C399.926,44.851,399.22,46.787,397.807,48.078z"/>
		<path fill="#FFFFFF" d="M424.447,18.11v3.327h-11.258v10.438h10.118v3.327h-10.118v11.486h11.258v3.327h-15.224V18.11H424.447z"/>
		<path fill="#FFFFFF" d="M438.349,18.11v28.441h10.164v3.464h-14.13V18.11H438.349z"/>
		<path fill="#FFFFFF" d="M472.669,32.331v3.327h-10.118v14.357h-3.966V18.11h15.224v3.327h-11.258v10.894H472.669z"/>
	</g>
</g>
</svg>
