<?xml version="1.0" encoding="utf-8"?>
<!-- Generator: Adobe Illustrator 16.0.0, SVG Export Plug-In . SVG Version: 6.00 Build 0)  -->
<!DOCTYPE svg PUBLIC "-//W3C//DTD SVG 1.0//EN" "http://www.w3.org/TR/2001/REC-SVG-20010904/DTD/svg10.dtd">
<svg version="1.0" id="Layer_1" xmlns="http://www.w3.org/2000/svg" xmlns:xlink="http://www.w3.org/1999/xlink" x="0px" y="0px"
	 width="598px" height="394px" viewBox="0 0 598 394" enable-background="new 0 0 598 394" xml:space="preserve">
<path fill="#D3BB5B" d="M359.87,284.303c-0.609-0.774-1.577-1.163-2.55-1.023c-0.578,0.083-1.308,0.225-2.252,0.432
	c-0.878,0.192-1.951,0.446-3.146,0.745c0.458-1.052,0.844-2.146,1.189-3.283c0.561-1.873,1.028-3.864,1.514-5.975
	c0.245-1.06-0.155-2.162-1.023-2.82c-0.869-0.655-2.038-0.737-2.994-0.213c-4.291,2.367-7.497,3.869-10.271,4.852
	c-2.339,0.825-4.389,1.297-6.645,1.616c-2.645-2.493-5.613-4.412-8.795-5.725c-3.593-1.49-7.442-2.215-11.374-2.215
	c-4.703,0.004-9.526,1.034-14.239,3.021l0,0c-2.291,0.966-4.42,2.398-6.346,4.147c-2.887,2.632-5.321,5.982-7.062,9.718
	c-1.74,3.735-2.79,7.862-2.792,12.04c0,0.44,0.016,0.882,0.037,1.318c-0.074-0.021-0.142-0.036-0.214-0.057
	c-5.003-1.326-12.706-3.952-20.354-7.362c-3.135-1.392-7.471-4.174-11.7-7.758c-4.242-3.577-8.415-7.972-11.431-12.541
	c-0.456-0.69-1.195-1.137-2.019-1.22c-0.822-0.083-1.638,0.206-2.224,0.79c-1.312,1.306-2.421,2.516-3.373,3.723
	c-1.425,1.806-2.481,3.632-3.195,5.62c-0.717,1.99-1.091,4.091-1.319,6.494c-0.156,1.622-0.259,3.365-0.259,5.167
	c0.008,3.974,0.495,8.234,2.199,12.098c-1.298,0.155-2.332,1.208-2.421,2.534c-0.071,1.036-0.106,2.054-0.106,3.049
	c-0.005,8.965,2.854,16.26,7.339,21.325c0.437,0.498,0.894,0.96,1.362,1.414c-0.001,0.023-0.006,0.04-0.006,0.064
	c-0.005,0.182-0.007,0.357-0.007,0.536c-0.002,3.419,0.884,6.631,2.383,9.471c2.25,4.269,5.825,7.728,9.947,10.253
	c1.52,0.931,3.117,1.732,4.762,2.404c-6.932,2.21-12.646,2.72-17.354,2.723c-2.091,0-3.988-0.103-5.722-0.206
	c-1.734-0.106-3.304-0.22-4.778-0.22c-0.352,0-0.697,0.01-1.038,0.022c-0.828,0.037-1.585,0.438-2.079,1.102
	c-0.495,0.661-0.667,1.502-0.472,2.305c0.815,3.321,2.787,6.339,5.51,9.006c4.101,3.994,9.949,7.29,16.974,9.643
	c7.024,2.345,15.234,3.733,24.048,3.733c12.848,0,26.993-2.956,40.483-10.292c12.326-6.72,22.58-17.722,28.745-29.986
	c2.128-4.241,4.455-9.724,6.267-15.548c1.812-5.827,3.127-11.975,3.131-17.652c0-1.927-0.159-3.801-0.514-5.593
	c1.56-1.123,2.952-2.214,4.212-3.32c2.497-2.191,4.468-4.454,6.105-6.997c1.641-2.545,2.953-5.341,4.26-8.641
	C360.633,286.106,360.482,285.075,359.87,284.303z M348.25,296.622c-1.811,1.896-4.114,3.768-7.242,5.906
	c-0.987,0.677-1.429,1.916-1.082,3.064c0.514,1.712,0.767,3.744,0.767,5.981c0.006,4.813-1.172,10.534-2.881,16.013
	c-1.708,5.482-3.938,10.737-5.933,14.713c-5.638,11.257-15.227,21.521-26.45,27.619c-12.607,6.854-25.841,9.618-37.851,9.618
	c-10.979,0.006-20.924-2.325-28.283-5.854c-3.679-1.758-6.706-3.812-8.891-5.952c-0.964-0.942-1.75-1.894-2.383-2.842
	c0.341,0.023,0.688,0.041,1.053,0.067c1.76,0.107,3.787,0.218,6.056,0.218c6.941,0.007,16.153-1.064,27.495-6.267
	c1.134-0.522,1.776-1.73,1.567-2.961c-0.204-1.227-1.202-2.163-2.444-2.285c-2.504-0.25-5.107-0.931-7.576-1.981
	c-3.704-1.571-7.088-3.985-9.476-6.896c-1.194-1.455-2.143-3.032-2.79-4.7c-0.123-0.307-0.219-0.619-0.319-0.932
	c0.695,0.276,1.391,0.529,2.091,0.729c2.243,0.647,4.3,0.892,6.857,0.913c0.021,0.003-0.145,0.023-0.145,0.023v0.488
	c0,0,0.439,0,0.449,0c1.513,0,2.755-1.46,2.774-2.975c0.021-1.511-1.188-2.889-2.701-2.918c-4.601-0.084-9.218-2.227-12.738-6.203
	c-3.06-3.464-5.301-8.405-5.834-14.773c0.859,0.148,1.758,0.219,2.787,0.312c1.352,0.118,2.924,0.23,4.815,0.442
	c1.414,0.158,2.714-0.789,3.006-2.18c0.29-1.391-0.526-2.78-1.884-3.199c-1.744-0.543-3.066-1.337-4.144-2.331
	c-0.807-0.747-1.48-1.615-2.043-2.601c-0.845-1.48-1.439-3.228-1.809-5.129c-0.374-1.897-0.524-3.938-0.524-5.96
	c0-1.589,0.09-3.159,0.234-4.644c0.136-1.429,0.32-2.626,0.576-3.674c0.392-1.571,0.913-2.805,1.783-4.163
	c0.453-0.706,1.015-1.444,1.702-2.245c3.077,4.046,6.739,7.757,10.458,10.898c4.577,3.862,9.188,6.867,13.016,8.586
	c5.294,2.357,10.565,4.341,15.075,5.819c2.254,0.742,4.317,1.355,6.106,1.831c1.791,0.477,3.296,0.812,4.512,0.995
	c0.913,0.136,1.825-0.188,2.445-0.869c0.621-0.683,0.858-1.621,0.639-2.516c-0.334-1.36-0.497-2.765-0.497-4.199
	c-0.007-4.324,1.495-8.891,3.905-12.688c1.2-1.896,2.619-3.6,4.146-4.993c1.528-1.388,3.166-2.469,4.78-3.146l0,0
	c4.103-1.73,8.202-2.586,12.096-2.586c3.26,0,6.373,0.596,9.268,1.792c2.894,1.199,5.569,2.996,7.947,5.453
	c0.038,0.041,0.083,0.069,0.122,0.105c0.073,0.069,0.146,0.134,0.227,0.193c0.07,0.053,0.148,0.096,0.221,0.141
	c0.077,0.048,0.155,0.091,0.235,0.131c0.084,0.04,0.165,0.07,0.248,0.101c0.085,0.029,0.168,0.058,0.256,0.081
	c0.087,0.023,0.174,0.035,0.26,0.048c0.088,0.013,0.172,0.025,0.264,0.029c0.098,0.005,0.194,0.001,0.293-0.004
	c0.055-0.001,0.108,0.005,0.164-0.001c3.078-0.35,5.963-0.938,9.15-2.067c1.734-0.614,3.56-1.389,5.572-2.354
	c-0.356,1.153-0.736,2.183-1.164,3.045c-0.529,1.076-1.11,1.917-1.802,2.596c-0.692,0.678-1.499,1.219-2.615,1.66
	c-1.378,0.539-2.08,2.064-1.599,3.464c0.483,1.396,1.978,2.163,3.393,1.739c3.398-1.019,6.523-1.863,9.011-2.488
	c-0.099,0.185-0.191,0.383-0.287,0.565C351.42,292.809,350.063,294.729,348.25,296.622z"/>
<path fill="#D3BB5B" d="M104.403,98.206c-0.222-1.355-1.161-2.489-2.447-2.961c-7.846-2.864-18.215-5.701-29.343-5.707
	c-8.729-0.002-17.979,1.778-26.576,6.792l0,0c-4.329,2.516-7.74,5.698-10.338,9.28c-3.91,5.38-5.992,11.571-7.165,17.856
	c-0.945,5.083-1.302,10.262-1.493,15.284c-2.242,0.051-4.782,0.067-7.095,0.067c-2.023,0-3.874-0.012-5.221-0.025
	c-0.674-0.007-1.216-0.012-1.596-0.018c-0.378-0.008-0.579-0.009-0.583-0.009c-1.016-0.015-2.011,0.386-2.736,1.097
	c-0.724,0.718-1.135,1.711-1.128,2.729l0.15,25.281c0.015,2.107,1.719,3.96,3.822,3.96c0.001,0,1.015,0,2.655,0
	c3.724,0,10.672-0.159,16.012-0.054c0.791,17.368,0.978,43.396,0.978,63.59c0,8.516-0.036,15.934-0.065,21.279
	c-0.019,2.664-0.033,4.784-0.047,6.252c-0.012,1.468-0.021,2.255-0.021,2.26c-0.009,1.014,0.389,1.993,1.109,2.716
	c0.719,0.719,1.7,1.12,2.717,1.115l33.84-0.17c1.017-0.004,1.976-0.41,2.689-1.138c0.716-0.724,1.107-1.687,1.097-2.706
	c0,0-0.177-20.809-0.386-43.256c-0.177-19.302-0.374-39.786-0.486-49.328c2.088-0.036,4.521-0.05,6.886-0.048
	c2.765,0,5.457,0.018,7.454,0.034c0.995,0.007,1.822,0.017,2.394,0.023c0.577,0.007,0.898,0.012,0.898,0.012
	c1.018,0.012,1.997-0.383,2.722-1.096c0.726-0.713,1.135-1.686,1.137-2.702l0.043-23.42c0.002-1.016-0.397-2.322-1.119-3.038
	c-0.718-0.716-1.686-1.448-2.705-1.448c0,0-0.456,0-1.264,0c-0.81,0-1.961,0.345-3.343,0.345c-4.246,0-10.667,0.149-15.747,0.064
	c0.091-2.598,0.325-4.807,0.708-6.765c0.37-1.907,0.876-3.45,1.475-4.724c0.45-0.951,0.951-1.704,1.487-2.334
	c0.813-0.941,1.695-1.579,2.83-2.053c1.133-0.47,2.556-0.75,4.381-0.753c3.238-0.009,7.687,0.948,13.259,3.103
	c0.041,0.015,0.086,0.021,0.129,0.036c0.045,0.016,0.081,0.042,0.127,0.055c0.08,0.025,0.162,0.028,0.244,0.045
	c0.129,0.032,0.256,0.062,0.382,0.078c0.125,0.015,0.248,0.019,0.367,0.024c0.126,0.001,0.25,0.005,0.376-0.003
	c0.125-0.01,0.245-0.026,0.362-0.048c0.122-0.02,0.243-0.043,0.361-0.074c0.115-0.03,0.229-0.072,0.341-0.113
	c0.117-0.042,0.232-0.088,0.342-0.143c0.107-0.052,0.208-0.113,0.312-0.175c0.104-0.064,0.21-0.135,0.311-0.209
	c0.096-0.069,0.183-0.147,0.27-0.228c0.095-0.088,0.186-0.175,0.267-0.267c0.082-0.092,0.153-0.188,0.229-0.286
	c0.074-0.102,0.147-0.204,0.213-0.312c0.062-0.107,0.117-0.226,0.173-0.343c0.035-0.077,0.081-0.145,0.112-0.226
	c0.019-0.045,0.024-0.09,0.041-0.137c0.012-0.041,0.039-0.078,0.05-0.121c0.769-2.532,2.088-6.777,3.22-11.257
	c0.565-2.247,1.089-4.553,1.477-6.777c0.386-2.227,0.646-4.354,0.649-6.336C104.592,99.904,104.541,99.054,104.403,98.206z
	 M72.484,118.78c-1.885,0.973-3.528,2.349-4.842,4.002c-1.979,2.491-3.253,5.543-4.053,9.018c-0.8,3.481-1.143,7.427-1.143,11.876
	c0,0.454,0.004,0.916,0.01,1.384c0.034,2.033,1.654,3.122,3.687,3.188c5.414,0.175,14.284-0.355,19.705-0.355
	c0.282,0,0.548,0,0.813,0l-0.029,16.311c-1.945-0.015-4.434,0.25-7.001,0.25c-4.053,0-8.25,0.174-10.929,0.307
	c-2.053,0.103-3.646,1.873-3.617,3.928c0.103,6.503,0.333,30.63,0.539,53.069c0.103,11.222,0.198,22.053,0.271,30.059
	c0.032,3.887,0.062,7.113,0.081,9.4l-26.165,0.137c0.041-5.043,0.097-14.614,0.097-26.079c0-21.675-0.206-50.054-1.159-67.589
	c-0.106-1.973-1.69-3.526-3.664-3.596c-5.155-0.183-13.721-0.216-18.661-0.218l-0.105-17.454c1.078,0.006,2.318,0.015,3.63,0.015
	c3.721-0.004,7.987-0.041,11.001-0.217c1.973-0.112,3.534-1.724,3.583-3.696c0.207-8.01,0.662-16.139,2.791-23.054
	c1.06-3.462,2.518-6.613,4.531-9.382c2.019-2.768,4.583-5.177,8.017-7.179l0,0c7.214-4.2,15.024-5.752,22.745-5.755
	c8.79-0.007,17.387,2.054,24.342,4.411c-0.055,1.19-0.232,2.656-0.509,4.248c-0.514,2.942-1.343,6.29-2.188,9.352
	c-0.388,1.405-0.776,2.74-1.143,3.972c-4.49-1.456-8.487-2.237-12.134-2.245C77.883,116.883,75,117.469,72.484,118.78z"/>
<g>
	<g>
		<path fill="#D3BB5B" d="M582.055,166.017c-0.815-14.906,1.643-29.893,0.23-44.76c-1.302-13.698-19.859-14.151-29.789-14.073
			c-12.157,0.089-24.434-0.433-36.692-0.689c-0.373-0.037-0.742-0.08-1.115-0.1c-0.202-0.005-0.461,0.023-0.738,0.067
			c-9.265-0.168-18.515-0.159-27.684,0.448c-9.222,0.615-18.574,3.875-19.323,14.169c-0.003,0.055,0.04,0.079,0.044,0.13
			c-0.011,0.063-0.062,0.118-0.062,0.185c1.101,28.798,0.138,57.425,0.288,86.197c0.092,17.409,20.536,14.158,33.044,14.236
			c21.413,0.141,43.508,2.004,64.818-0.584c10.244-1.243,18.558-6.978,18.393-18.219
			C583.286,190.688,582.731,178.341,582.055,166.017z M547.757,134.303c0.081-3.145,0.491-6.276,0.538-9.416
			c0-0.023,0.021-0.037,0.025-0.064c0.007-0.073-0.004-0.128,0.007-0.199c0.158-1.062,2.979-1.558,3.747-1.578
			c4.304-0.098,13.359-2.719,14.812,3.215c0.903,3.692,1.938,11.762-1.883,14.295c-3.811,2.531-11.609,2.806-15.527,0.323
			C547.469,139.607,547.702,136.369,547.757,134.303z M503.285,181.139c-0.025-0.041-0.055-0.075-0.077-0.116
			c-0.021-0.039-0.036-0.077-0.059-0.114C503.194,180.979,503.237,181.061,503.285,181.139z M523.385,149.705
			c15.905,1.5,26.866,19.752,15.707,32.942c-8.96,10.589-24.202,6.048-30.535-4.337
			C502.539,168.436,511.021,149.569,523.385,149.705z M557.607,219.478c-5.635,0.316-11.326-0.028-16.969,0.014
			c-16.339,0.132-32.662-0.257-49.002-0.338c-12.167-0.064-19.273-4.475-18.895-17.063c0.273-9.075,0.438-18.148,0.515-27.226
			c0.06-7.186,0-14.369-0.113-21.552c9.544,0.065,19.086,0.224,28.624,0.386c-2.735,3.58-4.829,7.807-6.14,12.504
			c-5.319,19.089,13.155,31.636,30.032,30.692c14.018-0.791,28.188-10.751,29.877-25.186c0.762-6.486-1.001-12.234-4.302-16.954
			c8.599,0.181,17.165,0.008,25.757-1.571c-0.022,13.702,0.46,27.341,0.821,41.09C578.183,208.449,580.886,218.175,557.607,219.478z
			"/>
	</g>
</g>
<g>
	<path fill="#D3BB5B" d="M327.924,66.955h-1.054V46.931c0-19.762-16.073-35.835-35.835-35.835S255.2,27.169,255.2,46.931v20.024
		h-1.055c-6.85,0-12.384,5.534-12.384,12.386v47.164c0,6.851,5.534,12.383,12.384,12.383h73.779c6.851,0,12.384-5.532,12.384-12.383
		V79.341C340.308,72.489,334.775,66.955,327.924,66.955z M261.788,46.931c0-16.074,13.175-29.248,29.248-29.248
		c16.073,0,29.248,13.174,29.248,29.248v20.024h-58.495V46.931z M333.984,126.505c0,3.426-2.634,6.061-6.06,6.061h-73.779
		c-3.425,0-6.059-2.635-6.059-6.061V79.341c0-3.427,2.634-6.062,6.059-6.062h73.779c3.425,0,6.06,2.635,6.06,6.062V126.505z
		 M298.939,97.257c0,2.635-1.054,4.744-3.162,6.324c-0.527,0.527-0.79,1.054-0.79,1.581c0,3.425,0,6.588,0,10.013l0,0
		c0,1.317-0.527,2.635-1.844,3.426c-2.899,1.58-5.798-0.528-5.798-3.426l0,0c0-3.425,0-6.588,0-10.013
		c0-0.79-0.262-1.054-0.79-1.581c-3.163-2.107-3.952-6.06-2.635-9.486c1.581-3.161,5.006-5.27,8.433-4.479
		C296.041,90.406,298.675,93.569,298.939,97.257z M224.108,101.736h-27.14c-1.581-7.115-7.905-12.384-15.282-12.384
		c-8.696,0-15.809,7.116-15.809,15.81c0,8.696,7.113,15.81,15.809,15.81c7.641,0,13.965-5.27,15.282-12.385h27.14
		c1.844,0,3.162-1.317,3.162-3.161C227.534,103.054,225.953,101.736,224.108,101.736z M181.687,114.121
		c-5.006,0-9.223-4.215-9.223-9.222c0-5.007,4.216-9.223,9.223-9.223s9.222,4.216,9.222,9.223
		C190.908,109.905,186.693,114.121,181.687,114.121z M400.383,89.352c-7.641,0-13.965,5.27-15.283,12.384h-27.139
		c-1.844,0-3.163,1.317-3.163,3.163c0,1.844,1.318,3.161,3.163,3.161h27.139c1.582,7.115,7.905,12.384,15.283,12.384
		c8.696,0,15.81-7.114,15.81-15.81C415.93,96.203,409.079,89.352,400.383,89.352z M400.383,114.121
		c-5.006,0-9.222-4.215-9.222-9.222c0-5.007,4.216-9.223,9.222-9.223s9.222,4.216,9.222,9.223
		C409.605,109.905,405.39,114.121,400.383,114.121z"/>
	<path fill="#D3BB5B" d="M287.609,157.564v27.139c-7.115,1.582-12.384,7.904-12.384,15.283c0,8.695,7.115,15.81,15.81,15.81
		c8.695,0,15.81-7.114,15.81-15.81c0-7.641-5.27-13.965-12.384-15.283v-27.139c0-1.844-1.317-3.162-3.162-3.162
		C288.927,154.139,287.609,155.721,287.609,157.564z M299.994,199.986c0,5.007-4.216,9.221-9.223,9.221
		c-5.006,0-9.222-4.214-9.222-9.221s4.215-9.223,9.222-9.223C295.777,190.764,299.994,194.979,299.994,199.986z"/>
</g>
</svg>
