<?xml version="1.0" encoding="utf-8"?>
<!-- Generator: Adobe Illustrator 16.0.0, SVG Export Plug-In . SVG Version: 6.00 Build 0)  -->
<!DOCTYPE svg PUBLIC "-//W3C//DTD SVG 1.0//EN" "http://www.w3.org/TR/2001/REC-SVG-20010904/DTD/svg10.dtd">
<svg version="1.0" id="Layer_1" xmlns="http://www.w3.org/2000/svg" xmlns:xlink="http://www.w3.org/1999/xlink" x="0px" y="0px"
	 width="400px" height="400px" viewBox="0 0 400 400" enable-background="new 0 0 400 400" xml:space="preserve">
<g>
	<path fill-rule="evenodd" clip-rule="evenodd" fill="#D3BB5B" d="M202.409,365.406c-1.032-0.53-1.119-1.202-1.119-2.17
		c0.011-52.738,0.011-105.476,0.011-158.21c0-0.242-0.057-0.503,0.012-0.722c0.168-0.52,0.258-1.146,0.61-1.521
		c7.308-7.862,14.634-15.706,22.006-23.506c0.451-0.48,1.302-0.837,1.974-0.842c7.446-0.06,14.895-0.023,22.346-0.056
		c0.848-0.001,1.251,0.24,1.572,1.055c1.793,4.556,6.007,6.98,10.846,6.325c5.698-0.778,9.462-6.221,8.288-11.981
		c-1.136-5.563-6.883-9.138-12.346-7.569c-4.601,1.317-6.987,4.542-7.504,9.234c-7.145,0-14.289,0-21.583,0
		c0.257-0.312,0.37-0.463,0.503-0.602c12.417-13.274,24.834-26.552,37.27-39.807c0.715-0.763,0.986-1.532,0.979-2.57
		c-0.037-7.159,0.023-14.32-0.055-21.479c-0.015-1.475,0.445-2.526,1.408-3.596c7.008-7.811,13.963-15.67,20.936-23.514
		c2.92-3.278,5.845-6.555,8.743-9.8c5.788,2.345,10.825,1.052,13.632-3.416c2.562-4.089,1.842-9.496-1.691-12.709
		c-3.621-3.303-9.015-3.544-12.923-0.569c-1.967,1.496-3.22,3.479-3.689,5.887c-0.655,3.371,0.239,6.386,2.464,8.987
		c-3.874,4.374-7.821,8.514-11.391,12.958c-2.034,2.537-4.189,3.589-7.465,3.352c-4.325-0.312-8.69-0.076-13.058-0.076
		c-0.112-0.77-0.212-1.432-0.326-2.09c-0.95-5.453-6.519-9.165-11.907-7.927c-4.792,1.099-7.962,5.071-7.914,9.917
		c0.04,4.713,3.269,8.691,7.848,9.672c4.719,1.011,9.287-1.268,11.304-5.746c0.37-0.815,0.796-1.032,1.617-1.026
		c4.013,0.033,8.032,0.015,12.049,0.015c0.649,0,1.305,0,2.248,0c-0.519,0.629-0.816,0.994-1.126,1.341
		c-4.203,4.739-8.391,9.493-12.635,14.194c-0.67,0.744-0.926,1.465-0.924,2.444c0.036,7.451,0.041,14.903-0.012,22.353
		c-0.002,0.685-0.322,1.521-0.784,2.022c-3.11,3.438-6.308,6.81-9.477,10.197c-14.997,16.034-29.987,32.063-44.985,48.093
		c-2.196,2.345-4.401,4.685-6.762,7.199c0-19.295,0-38.313,0-57.458c0.623,0,1.145,0,1.671,0c6.484,0,12.965-0.052,19.45,0.034
		c1.575,0.022,2.704-0.473,3.841-1.511c4.73-4.29,9.543-8.479,14.306-12.73c0.565-0.499,0.971-0.642,1.74-0.276
		c6.854,3.252,14.372-1.543,14.342-9.116c-0.017-4.075-1.964-7.053-5.537-8.827c-3.631-1.811-7.279-1.471-10.503,1.02
		c-3.204,2.478-4.573,5.86-3.682,9.874c0.372,1.689,1.271,3.263,1.979,5.012c-4.855,4.309-9.863,8.78-14.92,13.202
		c-0.414,0.361-1.131,0.524-1.708,0.528c-6.577,0.036-13.162,0.024-19.742,0.02c-0.416,0-0.831-0.055-1.335-0.095
		c0-5.92,0.024-11.724-0.021-17.521c-0.009-0.975,0.326-1.583,1.039-2.208c9.903-8.727,19.793-17.47,29.638-26.254
		c0.493-0.44,0.858-1.288,0.875-1.954c0.072-4.254,0.1-8.515,0.002-12.77c-0.037-1.694,0.337-2.876,1.655-4.139
		c5.274-5.05,10.376-10.286,15.502-15.492c0.677-0.683,1.144-0.859,2.065-0.346c1.939,1.077,4.047,1.437,6.293,1.054
		c3.976-0.672,7.146-3.527,8.143-7.496c0.974-3.851-0.521-7.986-3.753-10.422c-3.134-2.356-7.714-2.601-11.07-0.61
		c-4.845,2.87-6.783,9.496-2.979,14.678c-5.264,5.271-10.516,10.517-15.736,15.742c0-8.873,0-17.886,0-26.884
		c6.037-1.959,9.128-6.193,8.341-11.385c-0.75-4.966-4.902-8.609-9.909-8.697c-4.814-0.082-9.166,3.59-9.947,8.485
		c-0.368,2.303,0.015,4.528,1.198,6.574c1.648,2.856,4.208,4.402,7.353,4.999c0.025,0.258,0.061,0.399,0.061,0.541
		c0.002,15.047,0.013,30.093-0.031,45.141c-0.004,0.565-0.403,1.271-0.841,1.661c-6.923,6.188-13.876,12.335-20.831,18.488
		c-2.264,2.002-4.538,3.993-6.97,6.136c0-30.89,0-61.528,0-92.217c0.282-0.075,0.505-0.137,0.73-0.195
		c4.521-1.142,7.569-4.762,7.827-9.297c0.244-4.412-2.521-8.416-6.9-10.003c-0.3-0.108-0.573-0.288-0.857-0.433
		c-1.451,0-2.902,0-4.353,0c-1.662,0.938-3.596,1.588-4.933,2.861c-5.649,5.351-3.082,14.681,4.489,16.839
		c0.412,0.116,1.046,0.542,1.05,0.833c0.066,4.435,0.047,8.87,0.047,13.516c-0.591-0.325-1.008-0.534-1.4-0.776
		c-5.497-3.33-10.974-6.686-16.494-9.977c-0.907-0.541-1.098-0.982-0.802-2.036c2.127-7.522-4.337-14.258-11.97-12.539
		c-4.684,1.059-8.142,5.85-7.625,10.591c0.561,5.213,4.696,9.046,9.745,9.147c3.221,0.065,5.797-1.237,7.987-3.488
		c6.616,4.013,13.194,7.982,19.727,12.02c0.447,0.274,0.797,1.066,0.805,1.622c0.059,4.692,0.035,9.387,0.035,14.08
		c0,0.708,0,1.416,0,2.178c-3.121,0-6.054,0-8.962,0c-1.199-6.454-4.895-9.713-10.773-9.576c-4.562,0.107-8.721,3.952-9.323,8.618
		c-0.646,4.936,2.466,9.691,7.22,11.029c4.011,1.128,10.094-0.138,12.541-7.073c3.068,0,6.143,0,9.169,0c0,11.227,0,22.352,0,33.595
		c-0.4-0.217-0.652-0.347-0.895-0.494c-14.043-8.52-28.086-17.038-42.105-25.595c-0.41-0.249-0.752-0.965-0.764-1.472
		c-0.07-2.997-0.034-5.999-0.034-8.997c0-3.184,0-6.368,0-9.514c5.917-1.853,9.177-5.982,8.576-10.741
		c-0.664-5.266-4.363-8.967-9.309-9.307c-4.828-0.333-9.173,2.783-10.382,7.504c-0.584,2.263-0.429,4.509,0.553,6.65
		c1.521,3.318,4.252,5.114,7.616,5.865c0,5.962,0,11.771,0,17.789c-10.732-6.514-21.268-12.91-31.798-19.303
		c1.328-2.48,1.919-4.837,1.381-7.45c-0.844-4.104-4.229-7.439-8.201-7.94c-4.795-0.605-8.887,1.603-10.791,5.815
		c-1.737,3.851-0.758,8.583,2.37,11.437c3.283,2.99,8.076,3.582,11.803,1.249c1.218-0.759,2.016-0.698,3.186,0.011
		c25.912,15.775,51.852,31.511,77.798,47.227c0.868,0.525,1.144,1.105,1.144,2.082c-0.023,24.095-0.019,48.188-0.023,72.282
		c0,0.457-0.054,0.904-0.095,1.52c-0.539-0.351-0.899-0.572-1.247-0.814c-25.545-17.956-51.088-35.915-76.653-53.84
		c-1.059-0.743-1.343-1.515-1.008-2.674c0.145-0.04,0.279-0.104,0.42-0.104c6.143-0.008,12.285-0.021,18.435,0.007
		c0.436,0,0.946,0.194,1.305,0.461c4.465,3.314,8.928,6.639,13.339,10.023c0.35,0.271,0.606,1.065,0.486,1.505
		c-2.044,7.659,4.025,13.338,10.121,13.009c5.531-0.301,10.087-5.325,9.504-10.979c-0.584-5.687-6.006-9.92-11.441-8.968
		c-2.524,0.439-4.625,1.605-6.333,3.588c-4.524-3.397-8.955-6.724-13.503-10.134c4.373-4.155,8.603-8.174,12.803-12.169
		c5.329,3.182,10.904,1.416,13.708-2.436c2.949-4.042,2.476-9.68-1.068-13.117c-3.563-3.449-9.229-3.769-13.145-0.746
		c-4.376,3.381-4.983,8.5-1.665,14.454c-4.299,4.075-8.598,8.177-12.947,12.224c-0.357,0.335-1.05,0.425-1.587,0.429
		c-5.469,0.029-10.938,0.019-16.403,0.019c-0.667,0-1.328,0-2.071,0c0-7.064,0-13.953,0-20.83c6.552-1.536,8.948-6.766,8.357-11.374
		c-0.628-4.897-4.809-8.523-9.781-8.601c-5.095-0.081-9.35,3.531-10.113,8.574c-0.799,5.287,2.333,9.507,8.522,11.472
		c0,2.914,0,5.833,0,8.799c-3.691,0-7.274-0.043-10.849,0.038c-0.681,0.018-1.475,0.379-1.988,0.835
		c-2.435,2.135-4.785,4.361-7.305,6.683c-5.505-2.335-10.528-1.137-13.417,3.501c-2.576,4.126-1.781,9.596,1.851,12.801
		c3.692,3.264,9.332,3.365,13.045,0.24c4.228-3.559,4.706-8.663,1.263-14.452c1.568-1.637,3.257-3.229,4.739-4.995
		c1.198-1.427,2.535-1.997,4.381-1.835c1.777,0.151,3.577,0.031,5.367,0.031c0.996,0,1.984,0,3.03,0
		c0,4.777,0.035,9.322-0.02,13.864c-0.012,1.076,0.285,1.727,1.199,2.364c26.436,18.538,52.843,37.12,79.28,55.651
		c1.119,0.784,1.523,1.577,1.521,2.94c-0.037,61.154-0.032,122.311-0.032,183.467c0,0.337,0.078,0.702-0.019,1.004
		c-0.137,0.409-0.316,0.934-0.643,1.127c-1.849,1.108-2.618,2.715-2.604,4.835c0.043,4.4,0.137,8.81-0.025,13.213
		c-0.103,2.812,0.668,4.973,3.204,6.362c0.968,0,1.938,0,2.905,0c2.09-0.983,3.384-2.532,3.399-4.932
		c0.015-4.983,0.021-9.97-0.008-14.949C204.683,367.865,204.058,366.249,202.409,365.406z M259.156,171.885
		c2.227,0,4.028,1.826,4.011,4.061c-0.017,2.096-1.897,3.97-3.978,3.981c-2.201,0.009-3.983-1.836-3.963-4.099
		C255.247,173.637,256.991,171.883,259.156,171.885z M302.51,61.299c2.147,0.052,3.918,1.864,3.922,4.016
		c0,2.223-1.847,4.05-4.054,4.01c-2.172-0.033-3.895-1.796-3.895-3.995C298.481,63.101,300.328,61.25,302.51,61.299z
		 M253.092,92.281c-2.199,0.034-4.085-1.818-4.085-4.009c0-2.15,1.793-3.92,3.975-3.936c2.091-0.011,4.007,1.654,4.064,3.54
		C257.117,90.311,255.388,92.245,253.092,92.281z M246.763,114.245c2.277-0.005,4.005,1.743,3.976,4.03
		c-0.024,2.227-1.727,3.912-3.934,3.912c-2.274-0.002-4.043-1.77-4.008-4.015C242.828,115.993,244.591,114.25,246.763,114.245z
		 M256.726,45.308c2.209-0.012,4.048,1.851,4.014,4.066c-0.027,2.158-1.85,3.978-3.978,3.982c-2.142,0.005-4.116-1.98-4.063-4.089
		C252.753,47.163,254.629,45.316,256.726,45.308z M227.36,34.171c0.013-2.143,1.833-4,3.935-4.024
		c2.17-0.026,4.017,1.843,4.01,4.072c-0.012,2.166-1.77,3.981-3.911,4.024C229.249,38.288,227.349,36.371,227.36,34.171z
		 M170.181,26.432c-2.182-0.006-3.979-1.772-4.006-3.917c-0.023-2.207,1.796-4.024,4.033-4.024c2.171,0,3.956,1.743,4.011,3.904
		C174.277,24.553,172.387,26.439,170.181,26.432z M179.425,63.251c-2.269,0.017-4.051-1.776-4.02-4.042
		c0.036-2.197,1.794-3.917,4.012-3.902c2.216,0.018,3.936,1.751,3.94,3.965C183.361,61.475,181.617,63.238,179.425,63.251z
		 M111.259,46.385c-2.106-0.089-3.946-2.012-3.911-4.086c0.032-2.132,1.864-3.95,3.992-3.96c2.212-0.006,4.068,1.851,4.037,4.044
		C115.343,44.565,113.386,46.474,111.259,46.385z M149.127,39.329c0.037-2.221,1.915-4.038,4.113-3.979
		c2.116,0.062,3.96,1.954,3.936,4.041c-0.03,2.146-2.031,4.073-4.15,3.998C150.874,43.31,149.101,41.46,149.127,39.329z
		 M163.046,127.651c2.214-0.027,4.062,1.838,4.03,4.066c-0.034,2.214-1.767,3.885-4.021,3.876c-2.256-0.006-3.926-1.685-3.926-3.948
		C159.129,129.412,160.829,127.677,163.046,127.651z M160.254,90.599c2.128,0.025,3.937,1.839,3.963,3.978
		c0.027,2.244-1.763,4.073-3.985,4.073c-2.133,0-3.934-1.808-3.954-3.958C156.258,92.449,158.076,90.58,160.254,90.599z
		 M91.34,122.187c-2.206-0.002-3.912-1.711-3.921-3.925c-0.007-2.305,1.715-4.038,3.988-4.017c2.183,0.02,3.947,1.776,3.96,3.936
		C95.383,120.426,93.604,122.19,91.34,122.187z M113.891,83.01c0-2.232,1.853-4.071,4.035-4.023
		c2.147,0.056,3.912,1.875,3.909,4.031c-0.005,2.165-1.782,3.987-3.914,4.019C115.719,87.066,113.894,85.242,113.891,83.01z
		 M195.876,13.93c0.026-2.167,1.792-3.901,3.979-3.913c2.223-0.012,4.003,1.665,4.067,3.829c0.062,2.156-1.814,4.094-3.986,4.114
		C197.742,17.981,195.849,16.1,195.876,13.93z"/>
	<path fill-rule="evenodd" clip-rule="evenodd" fill="#D3BB5B" d="M175.981,365.267c-1.314-0.511-1.491-1.252-1.486-2.462
		c0.023-41.756,0.016-83.516,0.033-125.272c0-0.961-0.135-1.705-0.955-2.398c-17.825-15.095-35.617-30.225-53.416-45.353
		c-1.712-1.454-3.408-2.921-5.165-4.434c4.513-3.591,8.873-7.044,13.202-10.527c0.6-0.484,1.02-0.453,1.646-0.035
		c2.508,1.681,5.274,2.075,8.18,1.33c4.82-1.239,7.823-5.868,7.249-11.099c-0.519-4.656-4.716-8.454-9.489-8.584
		c-5.128-0.136-9.352,3.29-10.269,8.195c-0.507,2.719,0.203,5.141,1.518,7.522c-4.775,3.796-9.493,7.545-14.266,11.331
		c-10.338-8.792-20.59-17.511-31.145-26.49c0.887,0,1.35,0,1.82,0c7.598,0,15.198,0.022,22.791-0.033
		c0.673-0.007,1.496-0.351,2.005-0.807c2.24-1.992,4.41-4.06,6.558-6.153c0.55-0.535,0.958-0.591,1.61-0.215
		c2.086,1.195,4.311,1.568,6.707,1.141c5.229-0.93,8.784-5.717,8.186-11.1c-0.576-5.114-5.163-8.972-10.396-8.735
		c-5.325,0.237-9.492,4.489-9.593,9.739c-0.046,2.406,0.728,4.532,2.151,6.545c-2.193,2.067-4.307,4.119-6.487,6.081
		c-0.45,0.401-1.172,0.69-1.771,0.69c-8.607,0.046-17.226,0.046-25.836,0c-0.65-0.006-1.425-0.306-1.932-0.729
		c-5.703-4.785-11.352-9.636-17.042-14.433c-0.771-0.644-1.104-1.292-1.101-2.318c0.038-13.016,0.02-26.034,0.02-39.047
		c0-0.517,0-1.031,0-1.669c0.711,0,1.229,0,1.757,0c4.451,0,8.904-0.056,13.352,0.034c1.284,0.028,2.011-0.413,2.704-1.434
		c1.979-2.915,4.071-5.751,6.104-8.595c6.232,1.338,10.998-0.781,12.935-5.696c1.802-4.585,0.12-9.724-4.03-12.302
		c-4.131-2.568-9.602-1.763-12.791,1.887c-3.75,4.275-3.325,8.969,1.346,14.769c-1.784,2.511-3.606,5.01-5.364,7.558
		c-0.49,0.713-1.009,0.998-1.887,0.983c-4.014-0.047-8.032-0.021-12.047-0.021c-0.658,0-1.316,0-2.07,0
		c0-5.453-0.02-10.721,0.043-15.985c0-0.305,0.6-0.765,0.991-0.882c4.322-1.259,7.15-4.698,7.442-9.145
		c0.343-5.148-3.361-9.777-8.409-10.515c-5.241-0.767-10.313,2.679-11.337,7.698C46.954,69.64,49.95,74.8,55.073,76.148
		c1.132,0.294,1.42,0.702,1.415,1.816c-0.038,12.29-0.022,24.579-0.022,36.871c0,0.467-0.043,0.935-0.074,1.52
		c-5.836,0-11.585,0.01-17.335-0.021c-0.319,0-0.721-0.253-0.944-0.515c-4.414-5.069-8.804-10.151-13.219-15.263
		c0.257-0.339,0.498-0.634,0.716-0.946c2.54-3.562,2.876-7.321,0.773-11.168c-1.945-3.555-5.843-5.471-9.872-4.937
		c-4.121,0.549-6.959,2.809-8.274,6.739c-1.323,3.926-0.456,7.498,2.521,10.371c2.971,2.874,6.564,3.585,10.444,2.156
		c1.111-0.412,1.685-0.249,2.423,0.617c4.197,4.933,8.474,9.803,12.682,14.731c0.653,0.768,1.323,1.089,2.342,1.081
		c4.7-0.052,9.392-0.021,14.083-0.021c1.194,0,2.395,0,3.613,0c0,5.297,0,10.437,0,15.68c-0.638,0-1.163,0-1.688,0
		c-6.388,0-12.774-0.021-19.158,0.028c-0.6,0.002-1.354,0.244-1.767,0.649c-2.637,2.628-5.146,5.389-7.804,7.991
		c-2.342,2.286-4.827,4.427-7.324,6.703c-3.734-2.412-8.53-1.759-11.633,0.713c-1.882,1.506-2.905,3.55-3.66,5.767
		c0,1.453,0,2.902,0,4.352c0.208,0.467,0.437,0.927,0.623,1.397c1.51,3.786,5.153,6.298,9.236,6.36
		c3.978,0.058,7.721-2.365,9.28-6.044c1.532-3.6,0.973-6.979-1.188-10.141c0.113-0.172,0.172-0.308,0.274-0.404
		c4.449-4.638,8.889-9.29,13.39-13.879c0.435-0.443,1.264-0.692,1.909-0.694c6.046-0.052,12.091-0.034,18.139-0.034
		c0.46,0,0.927,0,1.391,0c-0.106,0.159-0.208,0.316-0.313,0.474c0.577,0.788,1.048,1.685,1.748,2.334
		c1.555,1.445,3.24,2.759,4.854,4.139c2.233,1.906,4.462,3.822,6.785,5.816c-2.748,2.577-5.376,5.052-8.022,7.518
		c-0.24,0.224-0.528,0.399-0.777,0.581c-5.497-3.158-10.736-2.518-14.114,1.688c-3.056,3.81-2.87,9.494,0.437,13.035
		c3.458,3.704,8.889,4.329,13.063,1.504c4.491-3.041,5.465-8.144,2.642-14.109c2.968-2.764,5.958-5.549,8.981-8.366
		c22.096,18.792,44.076,37.484,66.366,56.44c-8.867,0-17.234,0.016-25.603-0.031c-0.481,0-1.058-0.394-1.439-0.76
		c-2.283-2.23-4.523-4.502-6.784-6.759c-2.453-2.451-4.909-4.906-7.359-7.35c4.104-4.948,2.921-10.771-0.089-13.816
		c-3.552-3.595-8.929-4.182-12.958-1.376c-4.026,2.801-5.474,8.071-3.404,12.475c1.02,2.175,2.613,3.819,4.797,4.835
		c3.196,1.492,6.36,1.167,9.246-0.239c2.859,2.858,5.591,5.586,8.322,8.315c-0.031,0.021-0.137,0.126-0.258,0.178
		c-6.675,2.659-13.347,5.338-20.043,7.942c-0.442,0.166-1.22-0.088-1.644-0.407c-4.031-3.003-8.022-6.059-12.024-9.104
		c-2.296-1.753-4.591-3.506-6.879-5.256c2.339-3.538,2.961-6.145,2.209-9.102c-1.446-5.684-7.184-8.962-12.681-7.243
		c-5.496,1.722-8.449,7.599-6.512,12.973c1.972,5.48,8.123,8.125,13.526,5.722c0.983-0.435,1.547-0.242,2.295,0.332
		c6.488,4.965,13.011,9.885,19.489,14.86c0.738,0.57,1.308,0.675,2.194,0.318c7.025-2.825,14.077-5.584,21.119-8.382
		c0.481-0.188,0.905-0.522,1.498-0.875c1.427,1.442,3.026,2.988,4.539,4.61c0.684,0.737,1.416,0.981,2.411,0.974
		c9.337-0.032,18.677-0.038,28.014,0.018c0.777,0.008,1.723,0.344,2.313,0.842c9.388,7.919,18.724,15.902,28.106,23.823
		c0.93,0.794,1.313,1.563,1.311,2.802c-0.033,41.459-0.03,82.922-0.03,124.381c0,0.289,0.073,0.605-0.016,0.861
		c-0.16,0.46-0.315,1.002-0.665,1.291c-1.322,1.099-1.935,2.454-1.914,4.172c0.023,4.499,0.136,9.001-0.043,13.496
		c-0.113,2.833,0.665,4.971,3.218,6.345c0.968,0,1.933,0,2.9,0c1.759-0.953,3.248-2.136,3.257-4.368
		c0.022-5.372,0.03-10.742-0.003-16.113C178.419,367.316,177.572,365.878,175.981,365.267z M135.388,162.481
		c2.171,0.01,3.964,1.766,3.996,3.914c0.038,2.175-1.833,4.028-4.05,4.022c-2.133-0.006-3.964-1.809-3.996-3.932
		C131.304,164.309,133.158,162.472,135.388,162.481z M121.383,137.05c2.14,0.052,3.913,1.871,3.922,4.019
		c0.015,2.215-1.832,4.058-4.034,4.03c-2.133-0.03-3.901-1.843-3.906-3.999C117.36,138.869,119.208,137.005,121.383,137.05z
		 M86.819,72.492c2.214-0.016,4.069,1.833,4.058,4.03c-0.012,2.135-1.812,3.906-3.991,3.913c-2.261,0.009-4.062-1.77-4.038-3.989
		C82.868,74.308,84.684,72.501,86.819,72.492z M17.653,97.474c-2.112-0.037-3.908-1.879-3.921-4.027
		c-0.007-2.215,1.841-4.08,4.019-4.041c2.151,0.033,3.917,1.832,3.926,3.995C21.684,95.614,19.813,97.509,17.653,97.474z
		 M13.227,162.807c-2.175-0.03-3.889-1.797-3.901-4.007c-0.008-2.209,1.681-3.985,3.846-4.041c2.196-0.055,4.086,1.781,4.098,3.986
		C17.279,160.908,15.362,162.834,13.227,162.807z M57.76,70.51c-2.147-0.03-3.939-1.828-3.948-3.962
		c-0.004-2.233,1.813-4.007,4.065-3.979c2.164,0.027,3.956,1.814,3.969,3.956C61.85,68.714,59.982,70.54,57.76,70.51z
		 M54.33,170.421c-2.136-0.003-3.973-1.809-3.992-3.933c-0.022-2.19,1.813-4.007,4.051-4.003c2.162,0.006,3.968,1.766,3.995,3.914
		C58.415,168.578,56.556,170.421,54.33,170.421z M89.555,190.871c-2.163,0.055-4.085-1.835-4.088-4.015
		c-0.005-2.116,1.816-3.984,3.93-4.022c2.173-0.048,4.102,1.836,4.108,4.002C93.505,188.937,91.662,190.82,89.555,190.871z
		 M54.373,194.527c-2.245,0.004-4.081-1.829-4.035-4.026c0.047-2.16,1.842-3.915,4.004-3.917c2.236-0.006,4.087,1.848,4.042,4.034
		C58.333,192.79,56.551,194.527,54.373,194.527z"/>
	<path fill-rule="evenodd" clip-rule="evenodd" fill="#D3BB5B" d="M231.441,365.402c-1.048-0.529-1.12-1.203-1.12-2.172
		c0.012-33.188,0.012-66.379,0.012-99.566c0-8.177-0.012-16.355,0.026-24.533c0-0.608,0.195-1.393,0.606-1.789
		c8.069-7.856,16.188-15.669,24.306-23.484c13.924-13.424,27.858-26.839,41.789-40.263c9.852-9.494,19.695-19.001,29.565-28.485
		c0.676-0.646,0.989-1.29,0.984-2.248c-0.036-10.889-0.036-21.774,0.005-32.661c0.006-0.762,0.242-1.629,0.655-2.272
		c3.329-5.264,6.727-10.493,10.11-15.727c1.119-1.733,2.248-3.455,3.349-5.149c6.854,2.097,11.401-1.486,13.092-5.437
		c1.911-4.458,0.277-9.737-3.817-12.355c-4.229-2.704-9.679-1.914-13.018,1.895c-3.651,4.158-3.244,9.146,1.251,14.506
		c-4.369,6.759-8.752,13.544-13.21,20.442c-3.334-3.695-6.505-7.209-9.688-10.744c0.318-0.403,0.596-0.731,0.854-1.081
		c2.527-3.41,2.648-8.017,0.296-11.544c-2.333-3.513-6.594-5.188-10.629-4.19c-5.763,1.425-9.032,7.177-7.263,12.771
		c1.756,5.567,7.8,8.432,13.287,6.233c0.923-0.371,1.423-0.265,2.08,0.475c2.931,3.34,5.961,6.597,8.877,9.955
		c0.513,0.586,0.887,1.513,0.893,2.283c0.056,10.452,0.056,20.899-0.006,31.351c0,0.753-0.423,1.685-0.959,2.225
		c-3.278,3.282-6.632,6.488-10.004,9.682c-0.376,0.352-0.988,0.627-1.498,0.631c-6.146,0.042-12.287,0.033-18.432,0.014
		c-0.408-0.002-0.944-0.065-1.196-0.321c-2.571-2.602-5.097-5.253-7.614-7.871c4.029-5.069,2.766-10.986-0.698-14.17
		c-3.55-3.262-9.12-3.541-12.92-0.559c-3.961,3.108-5.063,8.568-2.585,12.905c1.216,2.137,2.996,3.651,5.325,4.46
		c2.986,1.042,5.88,0.691,8.667-0.833c2.634,2.74,5.243,5.39,7.77,8.123c0.759,0.822,1.531,1.128,2.629,1.117
		c5.132-0.052,10.259-0.024,15.386-0.018c0.405,0,0.811,0.051,1.487,0.103c-3.369,3.232-6.542,6.264-9.694,9.309
		c-15.698,15.143-31.385,30.291-47.109,45.405c-0.491,0.47-1.33,0.806-2.014,0.811c-5.853,0.064-11.709,0.035-17.562,0.03
		c-0.418,0-0.836-0.051-1.272-0.077c-0.033-0.349-0.063-0.59-0.087-0.825c-0.772-6.342-7.154-10.388-13.144-8.338
		c-4.471,1.533-7.232,5.77-6.827,10.46c0.394,4.445,3.954,8.249,8.394,8.962c4.56,0.728,9.017-1.688,10.795-6.02
		c0.477-1.158,1.074-1.43,2.227-1.415c4.742,0.063,9.483,0.026,14.227,0.028c0.389,0.004,0.781,0.06,1.175,0.091
		c0.074,0.138,0.151,0.276,0.228,0.408c-0.363,0.244-0.765,0.444-1.076,0.744c-6.559,6.294-13.086,12.624-19.68,18.886
		c-0.898,0.854-1.167,1.715-1.167,2.899c0.023,41.419,0.021,82.835,0.021,124.25c0,0.433,0.082,0.895-0.022,1.296
		c-0.111,0.409-0.31,0.934-0.646,1.127c-1.842,1.108-2.612,2.713-2.593,4.835c0.038,4.4,0.132,8.81-0.03,13.213
		c-0.104,2.809,0.672,4.973,3.204,6.362c0.97,0,1.939,0,2.906,0c2.09-0.985,3.389-2.532,3.394-4.938
		c0.02-4.979,0.025-9.964-0.005-14.947C233.713,367.86,233.089,366.242,231.441,365.402z M345.61,73.675
		c2.128,0.007,3.93,1.826,3.969,3.979c0.028,2.146-1.724,3.986-3.885,4.063c-2.133,0.078-4.123-1.833-4.159-3.979
		C341.501,75.615,343.455,73.662,345.61,73.675z M309.1,92.281c-2.179-0.02-3.938-1.818-3.931-4.014
		c0.008-2.232,1.706-3.919,3.963-3.931c2.258-0.007,3.961,1.661,3.973,3.897C313.116,90.532,311.365,92.308,309.1,92.281z
		 M277.501,143.142c-2.283-0.018-3.975-1.764-3.934-4.061c0.044-2.168,1.825-3.897,4.001-3.884c2.223,0.013,3.995,1.85,3.94,4.093
		C281.461,141.499,279.727,143.161,277.501,143.142z M222.341,216.883c-2.277-0.02-3.985-1.784-3.933-4.076
		c0.047-2.192,1.805-3.886,4.004-3.871c2.266,0.024,3.989,1.805,3.938,4.086C226.3,215.232,224.57,216.899,222.341,216.883z"/>
	<path fill-rule="evenodd" clip-rule="evenodd" fill="#D3BB5B" d="M396.094,119.701c-1.471-4.133-5.234-6.697-9.731-6.617
		c-4.301,0.077-8.101,2.876-9.29,7.016c-1.13,3.948-0.158,7.427,2.772,10.384c-3.308,4.114-6.598,8.169-9.828,12.267
		c-0.537,0.681-1.073,0.945-1.937,0.938c-5.996-0.036-11.998-0.016-17.994-0.025c-0.424,0-0.843-0.046-1.28-0.076
		c-0.041-0.28-0.093-0.467-0.093-0.649c-0.003-6.294,0.02-12.583-0.032-18.871c-0.015-1.053,0.589-1.13,1.298-1.333
		c4.986-1.427,8.145-6.427,7.121-11.438c-0.843-4.106-3.339-6.873-7.406-7.893c-4.053-1.016-7.621,0.146-10.246,3.431
		c-2.657,3.32-3.004,7.035-1.1,10.864c1.53,3.073,4.174,4.716,7.545,5.403c0,0.569,0,1.1,0,1.625c0,11.127-0.021,22.256,0.02,33.382
		c0.007,1.206-0.312,2.037-1.213,2.874c-10.014,9.254-19.982,18.551-29.962,27.838c-20.599,19.174-41.185,38.35-61.803,57.497
		c-0.842,0.789-1.217,1.562-1.217,2.737c0.038,13.353,0.026,26.706,0.026,40.061c0,24.578-0.002,49.155,0.012,73.735
		c0,1.017-0.102,1.741-1.171,2.307c-1.573,0.832-2.214,2.367-2.214,4.129c-0.009,4.985-0.021,9.972,0,14.951
		c0.017,2.962,1.93,4.988,4.671,5.004c2.773,0.021,4.747-1.927,4.774-4.898c0.059-5.027,0.038-10.062,0.005-15.091
		c-0.007-1.755-0.67-3.278-2.245-4.129c-0.936-0.514-1.081-1.134-1.081-2.083c0.02-37.592,0.023-75.179-0.003-112.771
		c0-1.054,0.274-1.779,1.062-2.512c13.931-12.921,27.821-25.881,41.756-38.797c0.527-0.493,1.423-0.831,2.146-0.838
		c10.549-0.049,21.096-0.018,31.646-0.068c0.729-0.005,1.607-0.316,2.178-0.785c4.456-3.641,8.849-7.355,13.268-11.046
		c3.1-2.598,6.208-5.192,9.283-7.759c5.464,3.675,11.063,1.982,13.979-1.534c3.128-3.775,3.059-9.324-0.19-13.042
		c-3.179-3.64-8.697-4.462-12.782-1.903c-4.795,3.003-5.821,7.769-3.03,14.519c-0.178,0.134-0.412,0.295-0.634,0.48
		c-7.049,5.892-14.086,11.799-21.163,17.66c-0.462,0.384-1.204,0.6-1.82,0.602c-9.143,0.042-18.289,0.031-27.427,0.024
		c-0.395,0-0.785-0.071-1.389-0.129c0.658-0.616,1.122-1.041,1.578-1.468c14.967-13.94,29.938-27.874,44.877-41.845
		c0.477-0.452,0.825-1.298,0.839-1.97c0.077-3.916,0.042-7.836,0.044-11.752c0-0.511,0.044-1.011,0.069-1.587
		c6.943,0,13.714-0.017,20.481,0.024c0.968,0.007,1.599-0.288,2.193-1.04c3.297-4.175,6.66-8.299,9.954-12.474
		c0.562-0.711,0.981-0.863,1.903-0.538c5.538,1.971,11.421-1.142,13.036-6.806c0.084-0.312,0.225-0.609,0.342-0.911
		c0-1.163,0-2.323,0-3.484C396.491,120.76,396.284,120.233,396.094,119.701z M362.14,176.495c2.111,0.025,3.956,1.876,3.982,3.99
		c0.022,2.141-1.953,4.121-4.07,4.083c-2.157-0.038-4.045-2.012-3.979-4.161C358.138,178.29,360.03,176.471,362.14,176.495z
		 M347.204,117.134c-2.119-0.018-3.934-1.844-3.959-3.991c-0.023-2.209,1.821-4.065,4.019-4.051
		c2.165,0.013,3.904,1.763,3.928,3.969C351.219,115.302,349.401,117.156,347.204,117.134z M386.524,127.094
		c-2.238-0.102-3.925-1.952-3.843-4.221c0.079-2.15,1.96-3.915,4.083-3.825c2.235,0.101,3.935,1.953,3.853,4.207
		C390.544,125.377,388.61,127.192,386.524,127.094z"/>
</g>
</svg>
