<?xml version="1.0" encoding="utf-8"?>
<!-- Generator: Adobe Illustrator 16.0.0, SVG Export Plug-In . SVG Version: 6.00 Build 0)  -->
<!DOCTYPE svg PUBLIC "-//W3C//DTD SVG 1.1//EN" "http://www.w3.org/Graphics/SVG/1.1/DTD/svg11.dtd">
<svg version="1.1" id="Layer_1" xmlns="http://www.w3.org/2000/svg" xmlns:xlink="http://www.w3.org/1999/xlink" x="0px" y="0px"
	 width="360px" height="373.429px" viewBox="0 0 360 373.429" enable-background="new 0 0 360 373.429" xml:space="preserve">
<g>
	<g>
		<g>
			<polygon fill="#FFFFFF" points="346.518,370.429 341.174,370.429 341.174,202.571 18.834,202.571 18.834,370.429 13.482,370.429 
				13.482,197.227 346.518,197.227 			"/>
		</g>
		<g>
			<polygon fill="#FFFFFF" points="70.486,303.067 75.829,303.115 75.175,369.937 69.831,369.884 			"/>
		</g>
		<g>
			
				<rect x="287.211" y="303.062" transform="matrix(1 0.0091 -0.0091 1 3.0865 -2.6346)" fill="#FFFFFF" width="5.344" height="66.827"/>
		</g>
	</g>
	<g enable-background="new    ">
		<path fill="#FFFFFF" d="M119.053,56.74c2.641,0,4.905,0.943,6.792,2.83c1.886,1.886,2.83,4.15,2.83,6.791v40.562
			c0,2.705-0.929,5-2.783,6.886c-1.855,1.887-4.136,2.83-6.839,2.83c-2.705,0-5-0.943-6.886-2.83
			c-1.887-1.886-2.83-4.181-2.83-6.886V66.361c0-2.641,0.943-4.905,2.83-6.791C114.054,57.683,116.349,56.74,119.053,56.74z
			 M197.158,20.329c6.728,3.459,12.104,8.286,16.13,14.479c4.023,6.194,6.037,12.97,6.037,20.328h-87.254
			c0-7.358,2.012-14.134,6.037-20.328c4.023-6.193,9.433-11.021,16.225-14.479l-6.698-12.357c-0.44-0.816-0.283-1.445,0.472-1.887
			c0.817-0.377,1.446-0.188,1.887,0.566l6.792,12.451c5.974-2.641,12.294-3.962,18.96-3.962c6.665,0,12.985,1.321,18.96,3.962
			l6.791-12.451c0.439-0.755,1.069-0.943,1.887-0.566c0.756,0.441,0.912,1.07,0.473,1.887L197.158,20.329z M219.042,58.532v62.823
			c0,2.894-1.007,5.346-3.019,7.357c-2.014,2.014-4.434,3.019-7.264,3.019h-7.074v21.413c0,2.703-0.943,4.999-2.83,6.886
			s-4.183,2.83-6.886,2.83c-2.704,0-4.999-0.943-6.886-2.83s-2.83-4.183-2.83-6.886v-21.413h-13.018v21.413
			c0,2.703-0.943,4.999-2.83,6.886c-1.886,1.887-4.183,2.83-6.886,2.83c-2.641,0-4.905-0.943-6.792-2.83
			c-1.886-1.887-2.83-4.183-2.83-6.886l-0.094-21.413h-6.98c-2.893,0-5.346-1.005-7.358-3.019c-2.013-2.012-3.019-4.464-3.019-7.357
			V58.532H219.042z M153.295,38.298c0.691,0.724,1.54,1.085,2.547,1.085c1.005,0,1.87-0.361,2.594-1.085
			c0.722-0.723,1.085-1.588,1.085-2.594s-0.363-1.871-1.085-2.595c-0.724-0.722-1.589-1.085-2.594-1.085
			c-1.007,0-1.856,0.363-2.547,1.085c-0.693,0.724-1.038,1.589-1.038,2.595S152.602,37.576,153.295,38.298z M193.055,38.298
			c0.722,0.724,1.587,1.085,2.594,1.085c1.006,0,1.854-0.361,2.547-1.085c0.691-0.723,1.037-1.588,1.037-2.594
			s-0.346-1.871-1.037-2.595c-0.693-0.722-1.541-1.085-2.547-1.085c-1.007,0-1.872,0.363-2.594,1.085
			c-0.725,0.724-1.085,1.589-1.085,2.595S192.33,37.576,193.055,38.298z M242.152,66.361v40.562c0,2.705-0.943,5-2.83,6.886
			c-1.887,1.887-4.183,2.83-6.886,2.83c-2.642,0-4.905-0.943-6.792-2.83c-1.887-1.886-2.83-4.181-2.83-6.886V66.361
			c0-2.703,0.943-4.983,2.83-6.839c1.887-1.854,4.15-2.782,6.792-2.782c2.703,0,4.999,0.929,6.886,2.782
			C241.209,61.377,242.152,63.658,242.152,66.361z"/>
	</g>
</g>
</svg>
