<?xml version="1.0" encoding="utf-8"?>
<!-- Generator: Adobe Illustrator 16.0.0, SVG Export Plug-In . SVG Version: 6.00 Build 0)  -->
<!DOCTYPE svg PUBLIC "-//W3C//DTD SVG 1.1//EN" "http://www.w3.org/Graphics/SVG/1.1/DTD/svg11.dtd">
<svg version="1.1" id="Layer_1" xmlns="http://www.w3.org/2000/svg" xmlns:xlink="http://www.w3.org/1999/xlink" x="0px" y="0px"
	 width="360px" height="373.429px" viewBox="0 0 360 373.429" enable-background="new 0 0 360 373.429" xml:space="preserve">
<g>
	<g>
		<g>
			<polygon fill="#FFFFFF" points="347.712,372.505 342.324,372.505 342.324,203.449 17.676,203.449 17.676,372.505 12.288,372.505 
				12.288,198.064 347.712,198.064 			"/>
		</g>
		<g>
			<polygon fill="#FFFFFF" points="69.695,304.664 75.074,304.712 74.417,372.009 69.041,371.953 			"/>
		</g>
		<g>
			<polygon fill="#FFFFFF" points="288.297,304.664 293.682,304.712 293.021,372.015 287.646,371.958 			"/>
		</g>
	</g>
	<g enable-background="new    ">
		<path fill="#FFFFFF" d="M254.748,123.92c0,7.538-2.676,13.982-8.027,19.334c-5.354,5.352-11.797,8.027-19.334,8.027h-18.24V93.519
			h19.286l2.851-21.281h-22.137V58.653c0-3.421,0.887-6.048,2.66-7.886c1.772-1.836,4.812-2.755,9.121-2.755l12.54-0.096V28.25
			c-6.081-0.569-11.78-0.854-17.101-0.854c-8.615,0-15.52,2.55-20.711,7.647c-5.195,5.1-7.791,12.241-7.791,21.424v15.771h-21.281
			v21.281h21.281v57.763h-51.683c-7.538,0-13.982-2.676-19.333-8.027c-5.353-5.352-8.028-11.796-8.028-19.334V32.716
			c0-7.537,2.675-13.98,8.028-19.334c5.352-5.352,11.795-8.027,19.333-8.027h91.204c7.537,0,13.98,2.676,19.334,8.027
			c5.352,5.354,8.027,11.797,8.027,19.334V123.92z"/>
	</g>
</g>
</svg>
