<?xml version="1.0" encoding="utf-8"?>
<!-- Generator: Adobe Illustrator 16.0.0, SVG Export Plug-In . SVG Version: 6.00 Build 0)  -->
<!DOCTYPE svg PUBLIC "-//W3C//DTD SVG 1.1//EN" "http://www.w3.org/Graphics/SVG/1.1/DTD/svg11.dtd">
<svg version="1.1" id="Layer_1" xmlns="http://www.w3.org/2000/svg" xmlns:xlink="http://www.w3.org/1999/xlink" x="0px" y="0px"
	 width="360px" height="373.429px" viewBox="0 0 360 373.429" enable-background="new 0 0 360 373.429" xml:space="preserve">
<g>
	<g>
		<polygon fill="#FFFFFF" points="353.334,369.406 347.748,369.406 347.748,194.089 11.08,194.089 11.08,369.406 5.494,369.406 
			5.494,188.507 353.334,188.507 		"/>
	</g>
	<g>
		
			<rect x="64.681" y="299.058" transform="matrix(1 0.0096 -0.0096 1 3.2158 -0.6336)" fill="#FFFFFF" width="5.583" height="69.799"/>
	</g>
	<g>
		
			<rect x="291.363" y="299.062" transform="matrix(1 0.0096 -0.0096 1 3.2258 -2.8138)" fill="#FFFFFF" width="5.584" height="69.804"/>
	</g>
	<g enable-background="new    ">
		<path fill="#FFFFFF" d="M99.021,28.589h16.841v15.204H99.099v18.712H80.854v-55.2h37.268V22.82H99.021V28.589z"/>
		<path fill="#FFFFFF" d="M164.201,42.39c0,0.676-0.013,1.364-0.039,2.065c-0.027,0.702-0.065,1.287-0.117,1.755h-27.601
			c0.051,0.729,0.299,1.378,0.741,1.949c0.441,0.572,0.987,1.065,1.637,1.481c0.649,0.416,1.377,0.729,2.183,0.936
			c0.806,0.208,1.624,0.312,2.456,0.312c1.663,0,3.053-0.299,4.171-0.896c1.117-0.597,1.961-1.26,2.534-1.988l12.787,6.472
			c-1.82,2.963-4.458,5.302-7.914,7.017c-3.458,1.716-7.473,2.573-12.046,2.573c-2.963,0-5.848-0.468-8.654-1.403
			s-5.29-2.326-7.446-4.172c-2.158-1.844-3.886-4.145-5.185-6.899c-1.3-2.755-1.949-5.951-1.949-9.59
			c0-3.379,0.597-6.433,1.793-9.161c1.195-2.729,2.819-5.041,4.873-6.939c2.053-1.896,4.47-3.365,7.251-4.405
			c2.78-1.039,5.756-1.56,8.927-1.56c3.222,0,6.159,0.56,8.81,1.677c2.651,1.118,4.924,2.678,6.822,4.678
			c1.896,2.002,3.365,4.38,4.405,7.134C163.681,36.179,164.201,39.167,164.201,42.39z M148.686,36.542
			c0-1.455-0.534-2.651-1.599-3.587c-1.066-0.936-2.508-1.403-4.327-1.403c-1.976,0-3.508,0.546-4.6,1.638
			c-1.091,1.092-1.715,2.21-1.871,3.353H148.686z"/>
		<path fill="#FFFFFF" d="M213.32,42.39c0,0.676-0.014,1.364-0.039,2.065c-0.027,0.702-0.066,1.287-0.117,1.755h-27.601
			c0.052,0.729,0.299,1.378,0.741,1.949c0.44,0.572,0.986,1.065,1.637,1.481c0.649,0.416,1.377,0.729,2.184,0.936
			c0.805,0.208,1.623,0.312,2.455,0.312c1.664,0,3.054-0.299,4.172-0.896c1.117-0.597,1.961-1.26,2.533-1.988l12.787,6.472
			c-1.82,2.963-4.457,5.302-7.914,7.017c-3.457,1.716-7.473,2.573-12.045,2.573c-2.963,0-5.848-0.468-8.654-1.403
			s-5.29-2.326-7.446-4.172c-2.158-1.844-3.886-4.145-5.185-6.899c-1.3-2.755-1.949-5.951-1.949-9.59
			c0-3.379,0.597-6.433,1.793-9.161c1.195-2.729,2.819-5.041,4.873-6.939c2.053-1.896,4.47-3.365,7.251-4.405
			c2.78-1.039,5.756-1.56,8.927-1.56c3.223,0,6.16,0.56,8.811,1.677c2.65,1.118,4.924,2.678,6.822,4.678
			c1.896,2.002,3.365,4.38,4.405,7.134C212.8,36.179,213.32,39.167,213.32,42.39z M197.805,36.542c0-1.455-0.533-2.651-1.599-3.587
			s-2.509-1.403-4.327-1.403c-1.977,0-3.508,0.546-4.6,1.638s-1.716,2.21-1.871,3.353H197.805z"/>
		<path fill="#FFFFFF" d="M219.635,3.562h18.4v58.943h-18.4V3.562z"/>
		<path fill="#FFFFFF" d="M279.824,49.485c0,2.756-0.582,5.068-1.746,6.939c-1.166,1.871-2.639,3.365-4.424,4.482
			c-1.785,1.118-3.738,1.923-5.859,2.417s-4.141,0.741-6.059,0.741c-3.535,0-7.006-0.507-10.408-1.521
			c-3.406-1.014-6.355-2.456-8.85-4.327l8.811-10.214c1.246,1.144,2.715,2.066,4.404,2.768c1.689,0.702,3.314,1.053,4.873,1.053
			c0.623,0,1.209-0.117,1.754-0.351c0.547-0.234,0.818-0.663,0.818-1.286c0-0.676-0.48-1.209-1.441-1.599
			c-0.963-0.39-2.639-0.87-5.029-1.442c-1.299-0.312-2.625-0.767-3.977-1.364s-2.586-1.391-3.703-2.378s-2.041-2.195-2.768-3.626
			c-0.729-1.429-1.092-3.131-1.092-5.106c0-2.651,0.586-4.912,1.754-6.783c1.17-1.871,2.652-3.392,4.445-4.562
			c1.793-1.169,3.742-2.026,5.848-2.572c2.104-0.546,4.092-0.819,5.963-0.819c3.17,0,6.316,0.468,9.436,1.403
			c3.117,0.937,5.926,2.236,8.42,3.898l-8.42,10.058c-1.301-0.83-2.625-1.48-3.977-1.948c-1.354-0.468-2.678-0.702-3.977-0.702
			c-0.885,0-1.611,0.117-2.184,0.351c-0.572,0.234-0.857,0.689-0.857,1.364c0,0.521,0.322,0.924,0.971,1.209
			c0.646,0.286,2.135,0.663,4.465,1.131c1.602,0.312,3.168,0.793,4.695,1.442c1.527,0.65,2.898,1.481,4.115,2.494
			c1.217,1.014,2.188,2.249,2.912,3.704C279.461,45.794,279.824,47.51,279.824,49.485z"/>
	</g>
	<g enable-background="new    ">
		<path fill="#FFFFFF" d="M71.048,84.115h15.694v32.892h15.367v13.405H71.048V84.115z"/>
		<path fill="#FFFFFF" d="M142.783,113.083c0,2.966-0.535,5.603-1.602,7.913c-1.069,2.311-2.507,4.262-4.316,5.853
			c-1.81,1.592-3.902,2.801-6.278,3.629c-2.376,0.827-4.872,1.242-7.487,1.242c-2.573,0-5.046-0.415-7.422-1.242
			c-2.376-0.828-4.458-2.037-6.245-3.629c-1.788-1.591-3.215-3.542-4.283-5.853c-1.069-2.311-1.602-4.947-1.602-7.913
			c0-2.92,0.533-5.525,1.602-7.814c1.067-2.288,2.495-4.217,4.283-5.787c1.787-1.569,3.869-2.756,6.245-3.563
			c2.375-0.806,4.849-1.21,7.422-1.21c2.616,0,5.111,0.404,7.487,1.21c2.375,0.808,4.468,1.994,6.278,3.563
			c1.809,1.57,3.247,3.499,4.316,5.787C142.249,107.557,142.783,110.163,142.783,113.083z M123.1,107.459
			c-1.657,0-2.998,0.566-4.021,1.7c-1.025,1.134-1.537,2.463-1.537,3.988c0,1.613,0.523,2.987,1.569,4.12
			c1.046,1.134,2.397,1.7,4.054,1.7c1.656,0,3.008-0.566,4.054-1.7c1.046-1.133,1.569-2.507,1.569-4.12
			c0-1.525-0.534-2.854-1.602-3.988C126.119,108.026,124.756,107.459,123.1,107.459z"/>
		<path fill="#FFFFFF" d="M148.341,96.016h14.713v3.792h0.131c0.869-1.264,2.162-2.364,3.878-3.302
			c1.717-0.938,3.685-1.406,5.902-1.406c2.39,0,4.378,0.437,5.965,1.308c1.586,0.873,2.847,1.995,3.781,3.368
			c0.934,1.373,1.586,2.91,1.956,4.61s0.555,3.399,0.555,5.1v20.926h-15.105v-18.31c0-1.743-0.273-2.964-0.817-3.662
			c-0.546-0.696-1.363-1.046-2.452-1.046c-1.003,0-1.821,0.403-2.452,1.21c-0.633,0.807-0.948,1.973-0.948,3.498v18.31h-15.105
			V96.016z"/>
		<path fill="#FFFFFF" d="M227.791,113.541c0,0.567-0.012,1.145-0.033,1.733c-0.022,0.588-0.055,1.078-0.098,1.471h-23.148
			c0.043,0.611,0.25,1.155,0.621,1.635c0.369,0.48,0.827,0.895,1.373,1.242c0.545,0.35,1.154,0.611,1.83,0.785
			c0.676,0.175,1.363,0.262,2.061,0.262c1.395,0,2.561-0.251,3.498-0.752s1.646-1.057,2.125-1.668l10.725,5.428
			c-1.526,2.485-3.738,4.446-6.637,5.886c-2.9,1.438-6.268,2.157-10.104,2.157c-2.484,0-4.904-0.393-7.258-1.177
			c-2.354-0.785-4.438-1.95-6.246-3.498s-3.259-3.477-4.348-5.788c-1.09-2.31-1.635-4.991-1.635-8.043
			c0-2.833,0.5-5.395,1.504-7.684c1.002-2.288,2.364-4.228,4.087-5.819c1.722-1.591,3.749-2.822,6.081-3.694
			s4.828-1.309,7.488-1.309c2.701,0,5.165,0.47,7.389,1.406c2.223,0.938,4.13,2.246,5.722,3.924
			c1.591,1.679,2.822,3.673,3.694,5.983S227.791,110.838,227.791,113.541z M214.777,108.636c0-1.22-0.447-2.224-1.34-3.008
			c-0.895-0.785-2.104-1.178-3.63-1.178c-1.657,0-2.942,0.458-3.858,1.374c-0.915,0.915-1.438,1.854-1.568,2.812H214.777z"/>
		<path fill="#FFFFFF" d="M233.087,80.975h15.433v49.437h-15.433V80.975z"/>
		<path fill="#FFFFFF" d="M265.39,129.045l-13.929-33.029h16.74l5.101,18.113h0.262l4.512-18.113h16.152l-14.125,36.488
			c-0.828,2.135-1.766,4.043-2.812,5.722c-1.046,1.678-2.268,3.105-3.662,4.283c-1.396,1.177-3.041,2.07-4.937,2.681
			c-1.896,0.61-4.11,0.916-6.638,0.916c-0.785,0-1.592-0.034-2.42-0.099c-0.828-0.066-1.624-0.154-2.387-0.264
			c-0.763-0.11-1.471-0.22-2.125-0.328c-0.653-0.11-1.199-0.23-1.635-0.361l1.896-12.484c0.566,0.218,1.253,0.402,2.06,0.556
			c0.807,0.152,1.537,0.229,2.19,0.229c1.656,0,2.888-0.338,3.695-1.012c0.806-0.675,1.405-1.534,1.798-2.578L265.39,129.045z"/>
	</g>
</g>
</svg>
