<?xml version="1.0" encoding="utf-8"?>
<!-- Generator: Adobe Illustrator 16.0.0, SVG Export Plug-In . SVG Version: 6.00 Build 0)  -->
<!DOCTYPE svg PUBLIC "-//W3C//DTD SVG 1.1//EN" "http://www.w3.org/Graphics/SVG/1.1/DTD/svg11.dtd">
<svg version="1.1" id="Layer_1" xmlns="http://www.w3.org/2000/svg" xmlns:xlink="http://www.w3.org/1999/xlink" x="0px" y="0px"
	 width="360px" height="373.429px" viewBox="0 0 360 373.429" enable-background="new 0 0 360 373.429" xml:space="preserve">
<g>
	<g>
		<polygon fill="#FFFFFF" points="342.539,370.88 337.318,370.88 337.318,207.035 22.682,207.035 22.682,370.88 17.461,370.88 
			17.461,201.817 342.539,201.817 		"/>
	</g>
	<g>
		
			<rect x="72.773" y="305.131" transform="matrix(1 0.0099 -0.0099 1 3.3545 -0.7312)" fill="#FFFFFF" width="5.217" height="65.232"/>
	</g>
	<g>
		
			<rect x="284.622" y="305.136" transform="matrix(0.9999 0.0101 -0.0101 0.9999 3.4274 -2.885)" fill="#FFFFFF" width="5.219" height="65.236"/>
	</g>
	<g enable-background="new    ">
		<path fill="#FFFFFF" d="M58.701,16.483h22.907v48.011h22.431V84.06H58.701V16.483z"/>
		<path fill="#FFFFFF" d="M109.574,19.346c0-1.527,0.301-2.974,0.907-4.343c0.604-1.368,1.432-2.561,2.481-3.579
			c1.05-1.018,2.274-1.829,3.675-2.435c1.399-0.604,2.895-0.906,4.486-0.906c1.527,0,2.959,0.303,4.295,0.906
			c1.336,0.605,2.529,1.417,3.58,2.435c1.05,1.019,1.876,2.211,2.481,3.579c0.604,1.369,0.907,2.815,0.907,4.343
			c0,1.591-0.303,3.07-0.907,4.438c-0.605,1.369-1.432,2.546-2.481,3.531c-1.05,0.987-2.243,1.766-3.58,2.339
			c-1.336,0.572-2.768,0.858-4.295,0.858c-1.591,0-3.087-0.286-4.486-0.858c-1.4-0.573-2.625-1.352-3.675-2.339
			c-1.05-0.985-1.877-2.162-2.481-3.531C109.875,22.417,109.574,20.937,109.574,19.346z M109.956,33.854h22.048V84.06h-22.048
			V33.854z"/>
		<path fill="#FFFFFF" d="M164.265,62.203V84.06h-22.049V11.901h22.049V53.04h0.286l11.931-19.186h25.581l-16.227,22.621
			l16.131,27.585h-25.676l-11.74-21.857H164.265z"/>
		<path fill="#FFFFFF" d="M256.85,59.434c0,0.828-0.016,1.671-0.047,2.529c-0.033,0.859-0.08,1.575-0.145,2.148h-33.787
			c0.062,0.892,0.365,1.687,0.906,2.386c0.539,0.701,1.207,1.305,2.004,1.813c0.795,0.51,1.686,0.892,2.674,1.146
			c0.984,0.255,1.986,0.382,3.006,0.382c2.035,0,3.736-0.365,5.105-1.098c1.369-0.73,2.402-1.542,3.104-2.434l15.652,7.922
			c-2.229,3.627-5.457,6.49-9.688,8.59c-4.232,2.101-9.148,3.15-14.746,3.15c-3.627,0-7.16-0.573-10.596-1.719
			c-3.436-1.145-6.475-2.847-9.114-5.106c-2.642-2.258-4.758-5.073-6.348-8.446c-1.591-3.372-2.386-7.286-2.386-11.74
			c0-4.136,0.73-7.875,2.195-11.216c1.463-3.341,3.451-6.171,5.965-8.494c2.514-2.322,5.473-4.119,8.877-5.394
			c3.402-1.271,7.047-1.908,10.928-1.908c3.945,0,7.541,0.685,10.787,2.052c3.244,1.369,6.027,3.278,8.352,5.727
			c2.322,2.45,4.119,5.361,5.393,8.733C256.213,51.832,256.85,55.49,256.85,59.434z M237.855,52.276
			c0-1.781-0.652-3.245-1.957-4.391s-3.07-1.718-5.297-1.718c-2.418,0-4.295,0.668-5.631,2.004s-2.1,2.705-2.291,4.104H237.855z"/>
		<path fill="#FFFFFF" d="M305.623,68.121c0,3.373-0.713,6.204-2.139,8.494c-1.426,2.291-3.23,4.121-5.414,5.488
			c-2.186,1.369-4.576,2.354-7.172,2.959c-2.6,0.604-5.072,0.907-7.42,0.907c-4.326,0-8.574-0.621-12.742-1.861
			c-4.168-1.241-7.777-3.007-10.832-5.298l10.785-12.503c1.527,1.4,3.324,2.529,5.393,3.388c2.066,0.859,4.057,1.289,5.965,1.289
			c0.764,0,1.48-0.144,2.148-0.43s1.002-0.812,1.002-1.575c0-0.826-0.588-1.479-1.766-1.956c-1.178-0.478-3.23-1.065-6.156-1.767
			c-1.592-0.382-3.215-0.938-4.867-1.67c-1.656-0.73-3.166-1.702-4.535-2.911c-1.369-1.208-2.498-2.688-3.389-4.438
			c-0.891-1.749-1.336-3.833-1.336-6.252c0-3.245,0.717-6.013,2.148-8.304s3.244-4.152,5.439-5.584s4.582-2.481,7.16-3.149
			c2.576-0.668,5.01-1.002,7.301-1.002c3.881,0,7.732,0.572,11.549,1.718c3.818,1.146,7.254,2.736,10.309,4.772l-10.309,12.312
			c-1.59-1.017-3.213-1.813-4.867-2.386c-1.656-0.573-3.277-0.859-4.867-0.859c-1.084,0-1.975,0.144-2.674,0.43
			c-0.701,0.286-1.049,0.844-1.049,1.67c0,0.637,0.395,1.131,1.188,1.479c0.791,0.351,2.613,0.812,5.465,1.384
			c1.963,0.382,3.879,0.972,5.75,1.767c1.867,0.796,3.547,1.813,5.037,3.054c1.488,1.241,2.678,2.753,3.564,4.534
			C305.18,63.603,305.623,65.703,305.623,68.121z"/>
	</g>
	<g enable-background="new    ">
		<path fill="#FFFFFF" d="M70.049,125.367h-0.09v12.689H59.564v-31.857h10.35v11.744h0.09l8.504-11.744h12.599l-11.969,14.578
			l12.554,17.279H78.553L70.049,125.367z"/>
		<path fill="#FFFFFF" d="M118.015,126.132c0,2.04-0.368,3.854-1.103,5.444c-0.735,1.59-1.725,2.933-2.97,4.027
			c-1.245,1.095-2.685,1.928-4.319,2.497c-1.636,0.569-3.353,0.855-5.152,0.855c-1.771,0-3.473-0.286-5.107-0.855
			c-1.635-0.569-3.067-1.402-4.297-2.497c-1.23-1.095-2.213-2.438-2.947-4.027c-0.735-1.59-1.103-3.404-1.103-5.444
			c0-2.01,0.367-3.803,1.103-5.378c0.734-1.574,1.717-2.902,2.947-3.981c1.229-1.08,2.662-1.897,4.297-2.453
			c1.635-0.555,3.337-0.832,5.107-0.832c1.8,0,3.517,0.277,5.152,0.832c1.634,0.556,3.074,1.373,4.319,2.453
			c1.245,1.079,2.234,2.407,2.97,3.981C117.647,122.33,118.015,124.123,118.015,126.132z M104.471,122.262
			c-1.141,0-2.063,0.391-2.768,1.17c-0.705,0.78-1.057,1.695-1.057,2.745c0,1.109,0.36,2.055,1.08,2.835
			c0.72,0.78,1.649,1.17,2.79,1.17c1.14,0,2.07-0.39,2.79-1.17c0.72-0.78,1.08-1.726,1.08-2.835c0-1.05-0.368-1.965-1.102-2.745
			C106.548,122.653,105.611,122.262,104.471,122.262z"/>
		<path fill="#FFFFFF" d="M136.328,138.056v-12.419c0-1.199-0.15-2.07-0.45-2.61c-0.3-0.54-0.795-0.81-1.485-0.81
			c-0.51,0-0.998,0.24-1.462,0.72c-0.465,0.48-0.697,1.335-0.697,2.565v12.554h-10.395v-23.668h10.125v2.609h0.09
			c0.299-0.39,0.667-0.772,1.103-1.147c0.435-0.375,0.929-0.72,1.485-1.035c0.555-0.314,1.177-0.569,1.867-0.765
			c0.69-0.194,1.44-0.293,2.25-0.293c1.56,0,2.909,0.278,4.05,0.833c1.14,0.556,2.04,1.417,2.7,2.587
			c0.78-0.959,1.739-1.77,2.88-2.43c1.14-0.659,2.58-0.99,4.32-0.99c1.68,0,3.067,0.331,4.162,0.99
			c1.095,0.66,1.964,1.485,2.61,2.475c0.645,0.99,1.095,2.063,1.35,3.218c0.255,1.155,0.383,2.228,0.383,3.217v14.399h-10.395v-12.6
			c0-1.289-0.157-2.151-0.472-2.587c-0.315-0.435-0.803-0.652-1.462-0.652c-0.601,0-1.11,0.277-1.53,0.832
			c-0.42,0.556-0.63,1.373-0.63,2.453v12.554H136.328z"/>
		<path fill="#FFFFFF" d="M193.159,126.132c0,1.56-0.231,3.09-0.696,4.589c-0.464,1.501-1.145,2.843-2.043,4.027
			c-0.898,1.186-2.02,2.138-3.367,2.857s-2.902,1.08-4.668,1.08c-1.467,0-2.859-0.277-4.176-0.832
			c-1.318-0.555-2.32-1.312-3.008-2.272h-0.09v2.475h-9.355v-34.018h10.395v12.239h0.09c0.688-0.811,1.6-1.433,2.737-1.867
			c1.137-0.435,2.273-0.653,3.411-0.653c1.765,0,3.32,0.36,4.667,1.08c1.346,0.721,2.468,1.665,3.366,2.835
			c0.896,1.17,1.577,2.49,2.041,3.96C192.928,123.102,193.159,124.602,193.159,126.132z M183.529,126.132
			c0-1.05-0.33-1.965-0.989-2.745c-0.661-0.78-1.62-1.17-2.88-1.17c-1.23,0-2.213,0.39-2.947,1.17
			c-0.736,0.78-1.103,1.695-1.103,2.745c0,1.109,0.367,2.055,1.103,2.834c0.734,0.781,1.717,1.17,2.947,1.17
			c1.26,0,2.219-0.382,2.88-1.147C183.199,128.224,183.529,127.272,183.529,126.132z"/>
		<path fill="#FFFFFF" d="M222.047,138.056h-10.125v-2.609h-0.09c-0.6,0.87-1.492,1.627-2.677,2.271
			c-1.186,0.646-2.542,0.968-4.072,0.968c-1.681,0-3.06-0.292-4.14-0.877s-1.943-1.351-2.588-2.295
			c-0.645-0.945-1.096-2.01-1.35-3.195c-0.255-1.185-0.383-2.362-0.383-3.532v-14.398h10.395v12.509c0,1.2,0.189,2.04,0.568,2.52
			c0.379,0.48,0.946,0.72,1.703,0.72c0.697,0,1.266-0.276,1.705-0.832c0.438-0.555,0.658-1.356,0.658-2.407v-12.509h10.395V138.056z
			"/>
		<path fill="#FFFFFF" d="M239.686,138.957c-2.01,0-3.854-0.301-5.534-0.9c-1.681-0.6-3.136-1.455-4.365-2.564
			c-1.23-1.109-2.189-2.445-2.88-4.005s-1.035-3.314-1.035-5.265c0-1.92,0.353-3.668,1.058-5.242
			c0.705-1.575,1.688-2.917,2.947-4.027c1.26-1.109,2.737-1.965,4.433-2.564c1.694-0.601,3.532-0.9,5.512-0.9
			c0.811,0,1.627,0.067,2.453,0.202c0.824,0.136,1.619,0.323,2.385,0.562c0.765,0.241,1.469,0.511,2.114,0.811
			c0.645,0.3,1.192,0.63,1.643,0.989l-5.175,7.47c-0.359-0.405-0.832-0.716-1.417-0.934c-0.585-0.217-1.147-0.326-1.688-0.326
			c-0.511,0-1.006,0.083-1.485,0.247c-0.479,0.166-0.907,0.421-1.282,0.766s-0.683,0.765-0.922,1.26
			c-0.241,0.495-0.36,1.073-0.36,1.732c0,0.66,0.119,1.237,0.36,1.732c0.239,0.495,0.547,0.899,0.922,1.215
			c0.375,0.314,0.803,0.556,1.282,0.72c0.479,0.165,0.975,0.248,1.485,0.248c0.6,0,1.185-0.113,1.755-0.338
			c0.569-0.225,1.035-0.532,1.395-0.923l5.22,7.259c-0.99,0.776-2.272,1.433-3.847,1.97
			C243.083,138.688,241.425,138.957,239.686,138.957z"/>
		<path fill="#FFFFFF" d="M267.428,113.757c1.646,0,3.014,0.301,4.105,0.9c1.091,0.601,1.959,1.372,2.602,2.317
			s1.091,2.002,1.346,3.172c0.254,1.17,0.381,2.34,0.381,3.51v14.399h-10.394v-12.6c0-1.199-0.188-2.039-0.562-2.52
			c-0.376-0.479-0.938-0.72-1.688-0.72c-0.601,0-1.141,0.263-1.62,0.787c-0.48,0.525-0.72,1.357-0.72,2.498v12.554h-10.395v-34.018
			h10.395v12.959h0.09c0.598-0.87,1.45-1.627,2.557-2.272C264.632,114.081,265.933,113.757,267.428,113.757z"/>
		<path fill="#FFFFFF" d="M293.006,123.027c0-0.72-0.248-1.252-0.743-1.597s-1.147-0.518-1.957-0.518
			c-0.961,0-1.867,0.202-2.723,0.607c-0.854,0.404-1.612,0.877-2.272,1.417l-5.174-5.13c1.439-1.379,3.149-2.444,5.129-3.194
			c1.98-0.75,4.02-1.125,6.12-1.125c2.25,0,4.109,0.315,5.579,0.945s2.633,1.5,3.487,2.609c0.855,1.11,1.455,2.4,1.8,3.87
			s0.518,3.03,0.518,4.68v12.464h-9.404v-1.89h-0.09c-0.601,0.899-1.455,1.545-2.564,1.935c-1.11,0.39-2.19,0.585-3.24,0.585
			c-0.93,0-1.883-0.135-2.857-0.405c-0.975-0.27-1.86-0.704-2.654-1.305c-0.796-0.6-1.448-1.379-1.958-2.34
			c-0.51-0.96-0.765-2.145-0.765-3.555c0-1.649,0.428-2.992,1.282-4.027c0.855-1.035,1.942-1.845,3.263-2.43
			c1.319-0.585,2.797-0.982,4.432-1.192s3.232-0.315,4.793-0.315V123.027z M293.096,128.247c-1.53,0-2.761,0.165-3.69,0.495
			s-1.395,0.945-1.395,1.845c0,0.331,0.074,0.607,0.225,0.833c0.15,0.225,0.345,0.412,0.585,0.562s0.502,0.263,0.788,0.337
			c0.284,0.075,0.547,0.112,0.787,0.112c0.99,0,1.784-0.314,2.385-0.944c0.6-0.63,0.9-1.44,0.9-2.43v-0.811H293.096z"/>
	</g>
</g>
</svg>
