<?xml version="1.0" encoding="utf-8"?>
<!-- Generator: Adobe Illustrator 16.0.0, SVG Export Plug-In . SVG Version: 6.00 Build 0)  -->
<!DOCTYPE svg PUBLIC "-//W3C//DTD SVG 1.1//EN" "http://www.w3.org/Graphics/SVG/1.1/DTD/svg11.dtd">
<svg version="1.1" id="Layer_1" xmlns="http://www.w3.org/2000/svg" xmlns:xlink="http://www.w3.org/1999/xlink" x="0px" y="0px"
	 width="360px" height="373.429px" viewBox="0 0 360 373.429" enable-background="new 0 0 360 373.429" xml:space="preserve">
<g>
	<g>
		<polygon fill="#FFFFFF" points="354.642,365.406 349.043,365.406 349.043,189.654 11.542,189.654 11.542,365.406 5.942,365.406 
			5.942,184.058 354.642,184.058 		"/>
	</g>
	<g>
		
			<rect x="65.281" y="294.917" transform="matrix(0.9999 0.0101 -0.0101 0.9999 3.342 -0.6721)" fill="#FFFFFF" width="5.597" height="69.963"/>
	</g>
	<g>
		
			<rect x="292.546" y="294.922" transform="matrix(0.9999 0.0101 -0.0101 0.9999 3.3543 -2.9725)" fill="#FFFFFF" width="5.596" height="69.967"/>
	</g>
	<g enable-background="new    ">
		<path fill="#FFFFFF" d="M109.02,52.704H94.498L82.819,9.862h15.249l4.599,24.084h0.242l4.962-24.084h15.067l5.385,24.084h0.242
			l4.659-24.084h14.765l-11.92,42.842h-14.523L115.495,28.5h-0.242L109.02,52.704z"/>
		<path fill="#FFFFFF" d="M165.9,32.493c0-0.968-0.333-1.684-0.998-2.147c-0.666-0.464-1.543-0.696-2.632-0.696
			c-1.292,0-2.511,0.272-3.661,0.817c-1.149,0.544-2.169,1.18-3.056,1.905l-6.958-6.897c1.936-1.855,4.235-3.288,6.898-4.297
			c2.663-1.008,5.405-1.513,8.229-1.513c3.025,0,5.526,0.424,7.503,1.271c1.976,0.847,3.54,2.018,4.689,3.509
			c1.15,1.493,1.956,3.229,2.42,5.204c0.463,1.978,0.696,4.075,0.696,6.293v16.762h-12.646v-2.541h-0.121
			c-0.808,1.21-1.957,2.078-3.449,2.602c-1.493,0.523-2.945,0.786-4.357,0.786c-1.25,0-2.532-0.181-3.842-0.544
			c-1.312-0.363-2.501-0.947-3.57-1.755c-1.069-0.807-1.947-1.855-2.632-3.146c-0.687-1.291-1.029-2.884-1.029-4.78
			c0-2.219,0.575-4.024,1.725-5.416s2.611-2.48,4.387-3.268c1.774-0.786,3.761-1.32,5.96-1.604c2.198-0.281,4.347-0.424,6.444-0.424
			V32.493z M166.021,39.512c-2.057,0-3.712,0.223-4.962,0.666c-1.25,0.444-1.875,1.271-1.875,2.48c0,0.444,0.1,0.817,0.302,1.119
			c0.202,0.303,0.463,0.556,0.787,0.757c0.323,0.202,0.675,0.354,1.059,0.454c0.383,0.101,0.735,0.151,1.059,0.151
			c1.331,0,2.399-0.424,3.207-1.271c0.806-0.847,1.21-1.936,1.21-3.268v-1.089H166.021z"/>
		<path fill="#FFFFFF" d="M184.778,20.875h13.614v3.509h0.121c0.805-1.169,2.001-2.188,3.59-3.056
			c1.588-0.867,3.409-1.301,5.461-1.301c2.211,0,4.051,0.403,5.52,1.21c1.467,0.808,2.635,1.846,3.5,3.116
			c0.863,1.271,1.467,2.693,1.809,4.267c0.343,1.573,0.514,3.146,0.514,4.72v19.363h-13.979V35.76c0-1.612-0.252-2.742-0.756-3.389
			c-0.505-0.645-1.262-0.968-2.27-0.968c-0.928,0-1.685,0.374-2.269,1.119c-0.585,0.747-0.878,1.826-0.878,3.237v16.943h-13.978
			V20.875z"/>
		<path fill="#FFFFFF" d="M238.935,53.55c-4.276,0-7.442-0.917-9.5-2.753c-2.058-1.835-3.086-4.689-3.086-8.562V30.859h-4.478
			v-9.983h4.417v-7.141h13.554v7.141h6.898v9.983h-6.898v8.472c0,1.534,0.334,2.572,0.999,3.116
			c0.665,0.545,1.583,0.817,2.753,0.817c0.443,0,0.908-0.04,1.393-0.121c0.484-0.08,0.867-0.161,1.148-0.242v9.561
			c-0.725,0.322-1.744,0.584-3.055,0.787C241.768,53.45,240.387,53.55,238.935,53.55z"/>
		<path fill="#FFFFFF" d="M276.572,42.598c0,2.139-0.453,3.934-1.355,5.386c-0.904,1.452-2.049,2.612-3.434,3.479
			c-1.385,0.868-2.9,1.492-4.547,1.876c-1.646,0.383-3.215,0.574-4.703,0.574c-2.744,0-5.436-0.394-8.078-1.18
			c-2.643-0.787-4.932-1.906-6.867-3.358l6.838-7.927c0.967,0.888,2.107,1.604,3.418,2.148c1.311,0.544,2.572,0.816,3.781,0.816
			c0.484,0,0.939-0.091,1.361-0.272c0.424-0.182,0.637-0.514,0.637-0.998c0-0.523-0.373-0.938-1.119-1.24
			c-0.748-0.303-2.049-0.676-3.904-1.12c-1.008-0.242-2.037-0.595-3.086-1.059c-1.049-0.463-2.006-1.079-2.873-1.846
			c-0.869-0.766-1.584-1.704-2.148-2.813c-0.566-1.109-0.848-2.43-0.848-3.964c0-2.057,0.453-3.812,1.361-5.265
			c0.908-1.452,2.057-2.632,3.449-3.539c1.393-0.908,2.904-1.573,4.539-1.997c1.633-0.424,3.176-0.636,4.629-0.636
			c2.459,0,4.9,0.363,7.322,1.09c2.42,0.726,4.598,1.734,6.535,3.025l-6.535,7.806c-1.01-0.645-2.039-1.149-3.088-1.513
			s-2.078-0.545-3.086-0.545c-0.686,0-1.25,0.091-1.693,0.272c-0.445,0.182-0.666,0.535-0.666,1.059c0,0.404,0.25,0.717,0.752,0.938
			c0.504,0.222,1.658,0.515,3.467,0.877c1.244,0.242,2.459,0.616,3.645,1.12c1.184,0.505,2.248,1.149,3.193,1.936
			c0.943,0.787,1.697,1.746,2.26,2.875C276.291,39.735,276.572,41.066,276.572,42.598z"/>
	</g>
	<g enable-background="new    ">
		<path fill="#FFFFFF" d="M93.589,98.419c0-6,1.059-11.437,3.177-16.308c2.118-4.871,5.012-9.036,8.683-12.495
			c3.67-3.458,7.995-6.124,12.972-7.995c4.977-1.87,10.288-2.807,15.937-2.807c5.788,0,11.259,0.937,16.413,2.807
			c5.153,1.871,9.459,4.395,12.919,7.571L148.23,87.83c-1.413-1.834-3.177-3.229-5.295-4.183s-4.484-1.43-7.095-1.43
			c-2.118,0-4.095,0.371-5.93,1.112c-1.836,0.741-3.441,1.818-4.818,3.229c-1.376,1.413-2.454,3.124-3.229,5.136
			c-0.778,2.013-1.165,4.254-1.165,6.725c0,2.472,0.406,4.678,1.218,6.618c0.811,1.942,1.906,3.619,3.283,5.03
			c1.377,1.413,2.982,2.488,4.818,3.229c1.835,0.741,3.776,1.112,5.824,1.112c2.894,0,5.382-0.6,7.465-1.801
			c2.082-1.199,3.723-2.61,4.924-4.235l15.46,18.531c-3.389,3.389-7.555,6.089-12.496,8.101c-4.942,2.013-10.555,3.019-16.837,3.019
			c-5.649,0-10.96-0.953-15.937-2.859s-9.302-4.606-12.972-8.101c-3.671-3.495-6.565-7.659-8.683-12.496
			C94.648,109.734,93.589,104.349,93.589,98.419z"/>
		<path fill="#FFFFFF" d="M196.942,100.538c0-1.694-0.583-2.947-1.747-3.76c-1.165-0.811-2.701-1.218-4.606-1.218
			c-2.261,0-4.395,0.477-6.407,1.43c-2.012,0.953-3.795,2.065-5.347,3.336l-12.178-12.072c3.389-3.246,7.413-5.753,12.072-7.519
			c4.659-1.764,9.459-2.647,14.402-2.647c5.294,0,9.67,0.742,13.13,2.225c3.458,1.482,6.194,3.53,8.207,6.142
			c2.012,2.612,3.423,5.648,4.235,9.106c0.811,3.46,1.219,7.132,1.219,11.013v29.333h-22.133v-4.447h-0.211
			c-1.414,2.117-3.426,3.637-6.037,4.553c-2.611,0.917-5.153,1.377-7.623,1.377c-2.189,0-4.432-0.317-6.725-0.953
			c-2.295-0.635-4.378-1.658-6.248-3.07c-1.871-1.412-3.407-3.247-4.606-5.507c-1.201-2.259-1.8-5.047-1.8-8.365
			c0-3.882,1.006-7.042,3.018-9.478c2.012-2.436,4.57-4.342,7.678-5.719c3.105-1.377,6.582-2.312,10.43-2.806
			c3.848-0.493,7.607-0.741,11.278-0.741V100.538z M197.154,112.821c-3.601,0-6.496,0.389-8.684,1.165
			c-2.189,0.777-3.283,2.224-3.283,4.342c0,0.777,0.176,1.43,0.53,1.959c0.353,0.529,0.811,0.971,1.376,1.323
			c0.564,0.354,1.182,0.619,1.854,0.795c0.67,0.177,1.287,0.265,1.854,0.265c2.33,0,4.199-0.741,5.612-2.225
			c1.411-1.482,2.118-3.388,2.118-5.718v-1.906H197.154z"/>
		<path fill="#FFFFFF" d="M229.98,80.206h23.508v6.354h0.213c1.199-2.258,2.98-4.13,5.346-5.612s5.137-2.224,8.314-2.224
			c1.904,0,3.457,0.177,4.658,0.529l-1.906,20.756c-0.777-0.212-1.641-0.371-2.594-0.477c-0.953-0.106-1.818-0.159-2.594-0.159
			c-3.178,0-5.719,0.918-7.625,2.753c-1.906,1.837-2.859,4.096-2.859,6.777v27.003H229.98V80.206z"/>
	</g>
</g>
</svg>
