<?xml version="1.0" encoding="utf-8"?>
<!-- Generator: Adobe Illustrator 16.0.0, SVG Export Plug-In . SVG Version: 6.00 Build 0)  -->
<!DOCTYPE svg PUBLIC "-//W3C//DTD SVG 1.1//EN" "http://www.w3.org/Graphics/SVG/1.1/DTD/svg11.dtd">
<svg version="1.1" id="Layer_1" xmlns="http://www.w3.org/2000/svg" xmlns:xlink="http://www.w3.org/1999/xlink" x="0px" y="0px"
	 width="360px" height="373.429px" viewBox="0 0 360 373.429" enable-background="new 0 0 360 373.429" xml:space="preserve">
<g>
	<g>
		<g>
			<polygon fill="#FFFFFF" points="347.188,369.917 341.823,369.917 341.823,201.384 18.181,201.384 18.181,369.917 12.812,369.917 
				12.812,196.02 347.188,196.02 			"/>
		</g>
		<g>
			
				<rect x="69.716" y="302.292" transform="matrix(1 0.0095 -0.0095 1 3.1861 -0.6711)" fill="#FFFFFF" width="5.358" height="67.098"/>
		</g>
		<g>
			
				<rect x="287.629" y="302.289" transform="matrix(1 0.0093 -0.0093 1 3.1328 -2.6827)" fill="#FFFFFF" width="5.361" height="67.103"/>
		</g>
	</g>
	<g enable-background="new    ">
		<path fill="#FFFFFF" d="M173.637,16.696V79.11h-64.592V25.599L173.637,16.696z M173.637,87.065v61.656l-64.592-8.902V87.065
			H173.637z M266.642,3.911V79.11H180.74V15.75L266.642,3.911z M266.642,87.065v74.442l-85.901-11.839V87.065H266.642z"/>
	</g>
</g>
</svg>
