<?xml version="1.0" encoding="utf-8"?>
<!-- Generator: Adobe Illustrator 16.0.0, SVG Export Plug-In . SVG Version: 6.00 Build 0)  -->
<!DOCTYPE svg PUBLIC "-//W3C//DTD SVG 1.0//EN" "http://www.w3.org/TR/2001/REC-SVG-20010904/DTD/svg10.dtd">
<svg version="1.0" id="Layer_1" xmlns="http://www.w3.org/2000/svg" xmlns:xlink="http://www.w3.org/1999/xlink" x="0px" y="0px"
	 width="485.076px" height="70.667px" viewBox="0 0 485.076 70.667" enable-background="new 0 0 485.076 70.667"
	 xml:space="preserve">
<g>
	<path fill="#FFFFFF" d="M35.155,54.498c-1.354-2.098-2.71-4.195-4.061-6.293c-4.118-6.4-8.224-12.805-12.364-19.188
		c-0.352-0.543-0.337-0.88,0.026-1.394C24.12,20.017,29.465,12.4,34.795,4.772c0.333-0.477,0.681-0.632,1.244-0.631
		c8.952,0.016,17.904,0.017,26.856-0.004c0.644-0.002,0.869,0.141,0.858,0.832c-0.041,2.907-0.039,5.817-0.001,8.725
		c0.008,0.672-0.174,0.845-0.843,0.844c-8.867-0.022-17.734,0-26.601-0.04c-0.894-0.004-1.046,0.258-1.027,1.07
		c0.055,2.342,0.045,4.688,0.002,7.031c-0.012,0.638,0.157,0.783,0.788,0.783c8.895-0.022,17.791-0.004,26.686-0.038
		c0.832-0.003,1.016,0.213,1,1.019c-0.054,2.852-0.047,5.704-0.003,8.557c0.01,0.698-0.22,0.817-0.854,0.816
		c-8.896-0.019-17.791-0.006-26.686-0.03c-0.719-0.001-0.94,0.132-0.936,0.907c0.037,6.606,0.021,13.215,0.021,19.82
		C35.252,54.455,35.204,54.477,35.155,54.498z"/>
	<path fill="#FFFFFF" d="M100.442,50.584c-3.098-3.711-6.136-7.354-9.326-11.175c0,3.003-0.004,5.757,0.002,8.513
		c0.002,0.814-0.259,1.844,0.136,2.385c0.339,0.461,1.438,0.387,2.207,0.508c0.598,0.094,0.844,0.354,0.793,0.996
		c-0.065,0.812-0.032,1.637-0.008,2.455c0.013,0.428-0.111,0.598-0.57,0.598c-4.038-0.016-8.076-0.016-12.115,0
		c-0.428,0-0.523-0.16-0.514-0.547c0.02-0.902,0.02-1.807,0-2.711c-0.01-0.4,0.071-0.6,0.534-0.652
		c0.95-0.104,1.886-0.361,2.836-0.424c0.635-0.039,0.695-0.295,0.694-0.826c-0.018-4.801-0.01-9.602-0.01-14.402
		c0-2.231-0.02-4.463,0.014-6.693c0.008-0.542-0.161-0.731-0.685-0.784c-0.923-0.095-1.839-0.263-2.76-0.384
		c-0.418-0.058-0.651-0.192-0.628-0.689c0.042-0.901,0.03-1.808,0.004-2.711c-0.012-0.4,0.105-0.531,0.519-0.53
		c4.038,0.014,8.076,0.014,12.115-0.001c0.45-0.002,0.583,0.145,0.568,0.582c-0.029,0.903-0.024,1.809,0,2.711
		c0.011,0.414-0.118,0.612-0.55,0.67c-0.668,0.086-1.327,0.249-1.995,0.346c-0.385,0.057-0.599,0.161-0.597,0.623
		c0.019,3.184,0.01,6.368,0.01,9.813c3.146-3.569,6.143-6.966,9.168-10.398c-0.797-0.309-1.827-0.007-2.19-0.632
		c-0.32-0.553-0.09-1.428-0.093-2.163c-0.004-1.542-0.001-1.542,1.521-1.542c3.501,0.001,7.003,0.011,10.505-0.011
		c0.529-0.003,0.752,0.101,0.715,0.685c-0.051,0.844-0.041,1.694-0.002,2.539c0.023,0.506-0.141,0.733-0.654,0.728
		c-1.753-0.017-2.888,0.953-3.995,2.226c-2.5,2.87-5.132,5.628-7.737,8.406c-0.357,0.382-0.343,0.577-0.01,0.953
		c3.256,3.672,6.498,7.357,9.726,11.055c0.351,0.402,0.743,0.52,1.247,0.566c2.089,0.199,2.088,0.215,2.088,2.107
		c0,2.084,0,2.084-2.104,2.084c-3.445,0-6.89-0.014-10.335,0.014c-0.601,0.004-0.868-0.1-0.814-0.773
		c0.065-0.814,0.055-1.639,0.001-2.455c-0.033-0.506,0.145-0.699,0.619-0.76C99.293,50.814,99.806,50.699,100.442,50.584z"/>
	<path fill="#FFFFFF" d="M190.818,35.246c2.38-3.379,5.506-4.362,9.185-3.786c3.067,0.48,4.861,2.508,5.095,5.635
		c0.308,4.114,0.09,8.238,0.115,12.356c0.004,0.752,0.125,1.102,0.951,1.129c0.723,0.023,1.437,0.256,2.161,0.357
		c0.403,0.055,0.588,0.199,0.575,0.639c-0.029,0.902-0.027,1.807-0.002,2.711c0.013,0.447-0.154,0.576-0.59,0.576
		c-2.823-0.016-5.646-0.029-8.469,0.006c-0.652,0.01-0.645-0.316-0.645-0.783c0.008-4.656,0.005-9.315,0.005-13.974
		c0-0.311,0-0.621-0.019-0.932c-0.148-2.387-1.767-3.455-4.045-2.649c-1.929,0.682-2.902,2.238-3.562,4.037
		c-0.359,0.98-0.523,2.014-0.521,3.065c0.004,2.033,0.011,4.067-0.006,6.101c-0.004,0.471,0.02,0.742,0.634,0.801
		c0.913,0.082,2.124-0.064,2.624,0.6c0.425,0.566,0.13,1.68,0.136,2.551c0.009,1.17,0.001,1.17-1.153,1.17
		c-3.727,0-7.453-0.014-11.18,0.014c-0.597,0.004-0.786-0.158-0.745-0.752c0.051-0.729,0.08-1.475-0.006-2.199
		c-0.09-0.748,0.239-0.99,0.894-1.07c0.727-0.088,1.446-0.293,2.172-0.312c0.635-0.021,0.692-0.289,0.691-0.82
		c-0.015-7.821-0.02-15.643,0.005-23.461c0.002-0.646-0.227-0.82-0.804-0.862c-0.842-0.062-1.677-0.226-2.519-0.285
		c-0.434-0.03-0.584-0.164-0.569-0.605c0.03-0.846,0.041-1.694-0.008-2.539c-0.029-0.528,0.186-0.667,0.665-0.715
		c2.78-0.286,5.567-0.394,8.361-0.389c0.616,0,0.834,0.229,0.825,0.895c-0.046,3.472-0.018,6.944-0.046,10.416
		C191.015,33.116,190.899,34.06,190.818,35.246z"/>
	<path fill="#FFFFFF" d="M247.369,23.518c3.275,0,6.551,0.014,9.825-0.015c0.597-0.005,0.827,0.088,0.812,0.764
		c-0.05,2.201-0.037,4.404-0.006,6.606c0.008,0.555-0.147,0.727-0.703,0.705c-1.043-0.044-2.091-0.03-3.134-0.005
		c-0.494,0.012-0.78-0.062-0.805-0.665c-0.03-0.698-0.226-1.39-0.293-2.089c-0.035-0.373-0.188-0.478-0.528-0.476
		c-1.75,0.006-3.501,0.016-5.251-0.005c-0.433-0.004-0.509,0.176-0.506,0.555c0.011,2.512,0.013,5.025-0.002,7.54
		c-0.002,0.396,0.105,0.537,0.519,0.53c1.412-0.023,2.823-0.016,4.235-0.005c0.344,0.003,0.461-0.1,0.526-0.465
		c0.371-2.082,0.386-2.079,2.456-2.079c1.899,0,1.899,0,1.899,1.876c0,2.373-0.017,4.744,0.012,7.116
		c0.008,0.563-0.167,0.743-0.721,0.71c-0.731-0.044-1.477-0.084-2.199,0.008c-0.888,0.113-1.163-0.301-1.299-1.077
		c-0.263-1.489-0.292-1.484-1.774-1.483c-1.018,0.001-2.034,0.013-3.049-0.006c-0.403-0.009-0.612,0.055-0.607,0.542
		c0.022,2.624,0.021,5.251,0,7.876c-0.004,0.43,0.155,0.486,0.529,0.531c0.978,0.113,1.945,0.32,2.922,0.439
		c0.464,0.057,0.62,0.234,0.604,0.695c-0.032,0.875-0.027,1.75-0.003,2.625c0.012,0.426-0.103,0.596-0.564,0.596
		c-4.349-0.016-8.696-0.016-13.043,0c-0.452,0-0.588-0.158-0.576-0.592c0.025-0.902,0.022-1.807,0.003-2.709
		c-0.008-0.387,0.125-0.545,0.517-0.596c0.949-0.129,1.887-0.391,2.836-0.43c0.709-0.029,0.73-0.338,0.726-0.879
		c-0.02-2.455-0.007-4.912-0.007-7.369c0-4.488-0.025-8.978,0.022-13.467c0.008-0.802-0.272-0.994-0.986-1.039
		c-0.84-0.056-1.672-0.233-2.507-0.351c-0.419-0.06-0.636-0.233-0.61-0.716c0.043-0.787,0.057-1.581,0-2.369
		c-0.047-0.654,0.138-0.855,0.824-0.848C240.763,23.538,244.065,23.518,247.369,23.518z"/>
	<path fill="#FFFFFF" d="M323.094,35.486c1.178-1.752,2.672-3.057,4.685-3.71c1.758-0.571,3.554-0.646,5.341-0.226
		c2.608,0.614,4.257,2.627,4.488,5.475c0.318,3.946,0.078,7.9,0.138,11.852c0.023,1.588,0.004,1.588,1.625,1.77
		c2.109,0.234,2.109,0.234,2.107,2.309c-0.001,1.898-0.001,1.9-1.88,1.9c-2.344,0-4.688-0.021-7.031,0.012
		c-0.597,0.01-0.753-0.162-0.75-0.752c0.025-4.516,0.017-9.036,0.009-13.555c-0.001-0.533-0.04-1.072-0.111-1.602
		c-0.295-2.257-1.821-3.205-3.986-2.441c-2.018,0.712-3.023,2.347-3.666,4.254c-0.329,0.966-0.452,1.975-0.451,2.998
		c0.001,1.976,0.019,3.953-0.011,5.93c-0.009,0.539,0.073,0.809,0.698,0.84c0.726,0.035,1.446,0.219,2.169,0.34
		c0.383,0.062,0.56,0.25,0.543,0.68c-0.036,0.902-0.026,1.809-0.003,2.711c0.01,0.43-0.122,0.594-0.577,0.592
		c-4.094-0.014-8.188-0.014-12.283,0.002c-0.455,0-0.584-0.162-0.573-0.596c0.024-0.902,0.019-1.807,0-2.709
		c-0.007-0.387,0.127-0.545,0.521-0.596c1.033-0.135,2.055-0.344,3.089-0.465c0.363-0.043,0.47-0.143,0.469-0.502
		c-0.01-4.376-0.011-8.754,0-13.13c0.001-0.429-0.135-0.59-0.569-0.627c-1.011-0.082-2.015-0.238-3.025-0.322
		c-0.366-0.029-0.491-0.146-0.484-0.505c0.016-0.932,0.02-1.863-0.002-2.797c-0.008-0.364,0.149-0.506,0.483-0.539
		c2.922-0.286,5.847-0.463,8.786-0.383c0.498,0.014,0.444,0.337,0.429,0.638C323.216,33.375,323.241,34.42,323.094,35.486z"/>
	<path fill="#FFFFFF" d="M122.451,35.483c2.305-3.428,5.52-4.642,9.466-4.021c3.004,0.476,4.772,2.496,5.063,5.584
		c0.268,2.847,0.081,5.699,0.128,8.547c0.023,1.356,0.024,2.712-0.005,4.067c-0.012,0.549,0.028,0.857,0.729,0.881
		c0.808,0.025,1.605,0.275,2.413,0.387c0.44,0.059,0.626,0.219,0.607,0.693c-0.037,0.873-0.034,1.75,0,2.625
		c0.018,0.494-0.174,0.619-0.641,0.617c-2.796-0.016-5.591-0.033-8.386,0.008c-0.672,0.01-0.636-0.322-0.635-0.775
		c0.006-4.49,0.008-8.979-0.001-13.47c0-0.562-0.039-1.129-0.113-1.685c-0.299-2.251-1.833-3.188-4.002-2.413
		c-2.016,0.719-3.013,2.354-3.652,4.264c-0.325,0.968-0.447,1.976-0.447,2.998c0,2.005,0.016,4.011-0.011,6.015
		c-0.006,0.49,0.114,0.674,0.633,0.727c0.894,0.094,2.039-0.045,2.587,0.551c0.555,0.602,0.157,1.725,0.171,2.615
		c0.023,1.363,0.136,1.15-1.172,1.152c-3.812,0.01-7.625-0.008-11.436,0.02c-0.615,0.004-0.863-0.129-0.815-0.789
		c0.058-0.814,0.028-1.637,0.007-2.455c-0.01-0.402,0.086-0.613,0.539-0.666c1.005-0.123,2-0.33,3.006-0.453
		c0.363-0.045,0.539-0.092,0.538-0.527c-0.017-4.376-0.016-8.753-0.003-13.13c0.001-0.448-0.173-0.57-0.588-0.608
		c-0.982-0.084-1.958-0.255-2.941-0.314c-0.468-0.028-0.563-0.202-0.552-0.614c0.023-0.848,0.044-1.698-0.005-2.542
		c-0.032-0.537,0.208-0.688,0.672-0.727c2.812-0.23,5.625-0.427,8.45-0.355c0.529,0.014,0.611,0.234,0.585,0.666
		C122.575,33.394,122.592,34.44,122.451,35.483z"/>
	<path fill="#FFFFFF" d="M460.667,35.64c0.455-0.685,0.837-1.228,1.296-1.713c2.342-2.468,6.56-3.39,9.692-2.07
		c2.383,1.004,3.45,2.99,3.535,5.415c0.137,3.978,0.067,7.961,0.084,11.941c0.005,1.199,0.003,1.195,1.207,1.383
		c0.667,0.104,1.328,0.25,1.997,0.338c0.44,0.059,0.626,0.23,0.606,0.703c-0.033,0.873-0.031,1.752,0.002,2.625
		c0.021,0.508-0.194,0.605-0.651,0.602c-2.795-0.016-5.59-0.029-8.386,0.008c-0.623,0.008-0.675-0.256-0.674-0.756
		c0.014-4.602,0.009-9.205,0.003-13.808c-0.002-0.45-0.035-0.901-0.088-1.348c-0.265-2.24-1.825-3.21-3.979-2.436
		c-2.183,0.786-3.181,2.584-3.789,4.657c-0.269,0.922-0.354,1.884-0.356,2.846c-0.003,1.893,0.018,3.785-0.012,5.674
		c-0.008,0.533,0.054,0.812,0.692,0.832c0.698,0.02,1.39,0.203,2.085,0.316c0.437,0.07,0.673,0.242,0.64,0.771
		c-0.058,0.898-0.033,1.807-0.01,2.709c0.01,0.404-0.131,0.535-0.536,0.535c-4.095-0.012-8.188-0.016-12.282-0.002
		c-0.461,0.002-0.58-0.174-0.568-0.598c0.022-0.875,0.028-1.752-0.003-2.627c-0.017-0.461,0.145-0.639,0.606-0.693
		c0.978-0.117,1.945-0.32,2.924-0.436c0.379-0.043,0.525-0.119,0.522-0.537c-0.016-4.378-0.016-8.756,0-13.133
		c0.003-0.458-0.182-0.564-0.589-0.6c-0.982-0.084-1.958-0.24-2.942-0.312c-0.406-0.029-0.53-0.155-0.52-0.553
		c0.023-0.874,0.035-1.751-0.004-2.624c-0.021-0.478,0.165-0.659,0.606-0.696c2.867-0.247,5.736-0.445,8.619-0.357
		c0.46,0.013,0.488,0.243,0.467,0.596C460.792,33.349,460.737,34.404,460.667,35.64z"/>
	<path fill="#FFFFFF" d="M303.222,50.828c-1.408,2.449-3.315,3.826-5.833,4.299c-1.538,0.287-3.089,0.289-4.606-0.158
		c-2.363-0.693-3.872-2.604-4.146-5.217c-0.29-2.762-0.08-5.53-0.131-8.293c-0.028-1.496-0.022-2.993,0.002-4.489
		c0.008-0.482-0.104-0.704-0.638-0.739c-0.87-0.055-1.732-0.237-2.602-0.302c-0.42-0.03-0.51-0.188-0.501-0.567
		c0.022-0.902,0.031-1.808-0.003-2.71c-0.018-0.498,0.204-0.615,0.645-0.648c2.757-0.204,5.513-0.375,8.281-0.316
		c0.655,0.013,0.788,0.208,0.785,0.818c-0.024,4.518-0.017,9.035-0.009,13.553c0.001,0.562,0.041,1.126,0.099,1.687
		c0.208,1.996,1.618,2.975,3.577,2.482c1.893-0.475,2.979-1.824,3.739-3.508c0.542-1.201,0.778-2.473,0.793-3.78
		c0.024-1.977-0.005-3.952,0.015-5.93c0.004-0.485-0.04-0.78-0.647-0.802c-0.728-0.026-1.449-0.217-2.177-0.27
		c-0.413-0.03-0.601-0.112-0.582-0.578c0.036-0.93,0.021-1.863,0.005-2.793c-0.006-0.357,0.033-0.543,0.482-0.576
		c2.702-0.202,5.401-0.353,8.114-0.308c0.632,0.012,0.728,0.242,0.727,0.793c-0.017,5.675-0.001,11.35-0.022,17.026
		c-0.003,0.576,0.101,0.871,0.736,0.904c0.814,0.047,1.622,0.205,2.436,0.264c0.465,0.031,0.63,0.195,0.61,0.672
		c-0.036,0.844-0.035,1.693,0,2.539c0.02,0.477-0.076,0.66-0.615,0.721c-2.728,0.312-5.463,0.307-8.2,0.314
		c-0.405,0-0.547-0.119-0.521-0.525C303.108,53.293,303.153,52.193,303.222,50.828z"/>
	<path fill="#FFFFFF" d="M403.022,23.077c0,2.691,0.024,5.287-0.018,7.881c-0.009,0.678,0.186,0.855,0.845,0.832
		c1.382-0.052,2.768,0.004,4.151-0.025c0.467-0.009,0.641,0.104,0.625,0.604c-0.035,1.156-0.039,2.316,0.001,3.473
		c0.019,0.522-0.195,0.59-0.639,0.582c-1.468-0.022-2.937,0.008-4.406-0.017c-0.438-0.008-0.571,0.115-0.568,0.562
		c0.018,3.444,0.006,6.891,0.016,10.334c0.002,0.338,0.07,0.676,0.136,1.006c0.268,1.363,0.924,1.914,2.321,1.984
		c0.795,0.039,1.585-0.039,2.353-0.217c0.452-0.104,0.587-0.053,0.616,0.432c0.072,1.182,0.208,2.359,0.312,3.539
		c0.029,0.324,0.111,0.627-0.401,0.736c-2.338,0.492-4.687,0.742-7.052,0.312c-2.486-0.453-3.734-1.881-4.065-4.395
		c-0.166-1.266-0.158-2.533-0.158-3.803c0-3.247-0.014-6.495,0.012-9.744c0.006-0.57-0.106-0.798-0.726-0.754
		c-0.844,0.058-1.695-0.015-2.542,0.022c-0.522,0.023-0.748-0.092-0.721-0.68c0.049-1.101,0.037-2.203,0.004-3.304
		c-0.017-0.509,0.121-0.701,0.658-0.676c0.901,0.042,1.809-0.015,2.711,0.021c0.485,0.019,0.62-0.146,0.615-0.625
		c-0.027-1.92,0.003-3.841-0.02-5.761c-0.007-0.515,0.067-0.784,0.667-0.923C399.494,24.073,401.213,23.564,403.022,23.077z"/>
	<path fill="#FFFFFF" d="M213.262,43.08c0-2.197-0.037-4.034,0.02-5.867c0.021-0.699-0.22-0.848-0.849-0.812
		c-0.845,0.05-1.694-0.006-2.54,0.021c-0.416,0.014-0.604-0.066-0.59-0.544c0.035-1.187,0.032-2.372,0.001-3.559
		c-0.012-0.471,0.178-0.563,0.594-0.552c0.903,0.024,1.808-0.021,2.71,0.018c0.523,0.023,0.675-0.145,0.667-0.668
		c-0.03-1.918,0.001-3.839-0.021-5.759c-0.005-0.496,0.101-0.739,0.65-0.865c1.507-0.344,3.003-0.746,4.484-1.192
		c0.63-0.189,0.823-0.125,0.811,0.585c-0.04,2.344,0.014,4.688-0.033,7.031c-0.014,0.723,0.216,0.901,0.903,0.874
		c1.326-0.053,2.655,0.021,3.98-0.033c0.658-0.026,0.813,0.197,0.784,0.812c-0.048,1.042-0.053,2.091,0.002,3.133
		c0.032,0.626-0.201,0.739-0.768,0.725c-1.439-0.039-2.879-0.008-4.319-0.016c-0.347-0.004-0.585,0.015-0.573,0.48
		c0.091,3.695-0.177,7.396,0.157,11.088c0.152,1.682,0.911,2.291,2.619,2.316c0.74,0.012,1.471-0.068,2.18-0.238
		c0.413-0.102,0.467,0.006,0.494,0.367c0.096,1.264,0.209,2.529,0.345,3.791c0.04,0.367-0.1,0.494-0.432,0.564
		c-2.532,0.537-5.079,0.801-7.628,0.191c-2.152-0.514-3.297-2.178-3.517-4.809C213.184,47.684,213.302,45.2,213.262,43.08z"/>
	<path fill="#FFFFFF" d="M6.205,28.533c5.217,8.674,10.434,17.349,15.729,26.154c-0.423,0-0.692,0-0.961,0
		c-4.711,0-9.423-0.012-14.135,0.01c-0.583,0.002-0.842-0.076-0.839-0.766c0.027-8.351,0.02-16.703,0.021-25.055
		c0-0.101,0-0.201,0-0.302C6.081,28.562,6.143,28.548,6.205,28.533z"/>
	<path fill="#FFFFFF" d="M420.952,41.071c0.001,2.877,0.013,5.755-0.011,8.634c-0.004,0.525,0.05,0.793,0.687,0.83
		c0.836,0.051,1.659,0.289,2.494,0.406c0.414,0.059,0.578,0.219,0.565,0.648c-0.026,0.902-0.029,1.807,0,2.709
		c0.015,0.465-0.185,0.562-0.603,0.562c-4.204-0.012-8.408-0.012-12.612-0.002c-0.387,0-0.566-0.1-0.558-0.521
		c0.022-0.93,0.02-1.861-0.002-2.791c-0.009-0.393,0.144-0.539,0.526-0.592c0.975-0.131,1.941-0.336,2.919-0.443
		c0.42-0.047,0.568-0.145,0.568-0.59c-0.017-4.346-0.017-8.691,0-13.036c0.002-0.487-0.188-0.614-0.64-0.65
		c-0.953-0.077-1.901-0.24-2.855-0.31c-0.402-0.028-0.53-0.145-0.519-0.546c0.027-0.874,0.033-1.751-0.001-2.622
		c-0.021-0.465,0.137-0.664,0.593-0.703c2.979-0.264,5.958-0.438,8.951-0.364c0.615,0.017,0.492,0.401,0.492,0.747
		C420.953,35.315,420.951,38.193,420.952,41.071z"/>
	<path fill="#FFFFFF" d="M152.076,41.113c0,2.881,0.011,5.762-0.01,8.643c-0.003,0.5,0.076,0.73,0.66,0.773
		c0.865,0.064,1.717,0.301,2.581,0.418c0.398,0.057,0.513,0.221,0.504,0.6c-0.021,0.934-0.023,1.865,0.001,2.797
		c0.011,0.424-0.166,0.518-0.551,0.516c-4.237-0.01-8.473-0.008-12.709,0.002c-0.356,0-0.507-0.094-0.5-0.475
		c0.02-0.959,0.019-1.92,0-2.881c-0.006-0.35,0.109-0.49,0.466-0.537c1.033-0.139,2.056-0.348,3.09-0.463
		c0.412-0.047,0.503-0.188,0.502-0.568c-0.011-4.35-0.014-8.698,0.003-13.047c0.002-0.5-0.209-0.615-0.646-0.652
		c-0.982-0.086-1.958-0.237-2.942-0.315c-0.36-0.028-0.485-0.117-0.476-0.489c0.025-0.93,0.032-1.864-0.002-2.796
		c-0.016-0.423,0.184-0.539,0.532-0.572c3.008-0.28,6.021-0.45,9.043-0.37c0.572,0.014,0.448,0.377,0.449,0.691
		C152.078,35.296,152.076,38.205,152.076,41.113z"/>
	<path fill="#FFFFFF" d="M6.155,4.233c0.164-0.027,0.328-0.077,0.492-0.077c4.822-0.004,9.646-0.007,14.468,0.001
		c0.205,0.001,0.474-0.124,0.608,0.125c0.093,0.174-0.098,0.308-0.184,0.44c-4.015,6.119-8.034,12.237-12.055,18.354
		c-0.029,0.045-0.079,0.078-0.119,0.117c-0.167,0.034-0.376,0.059-0.438,0.219c-0.32,0.824-1.247,0.785-1.804,1.285
		c-0.324,0.29-0.637,0.021-0.73-0.376c-0.137-0.58-0.148-1.173-0.148-1.766c0.002-5.301-0.01-10.603,0.013-15.902
		C6.261,5.844,6.108,5.044,6.155,4.233z"/>
	<path fill="#FFFFFF" d="M145.428,24.736c0.017-2.024,1.648-3.606,3.702-3.591c2.077,0.016,3.673,1.595,3.669,3.625
		c-0.005,2.022-1.619,3.577-3.711,3.574C146.989,28.341,145.412,26.786,145.428,24.736z"/>
	<path fill="#FFFFFF" d="M417.931,21.146c2.069-0.006,3.708,1.559,3.729,3.559c0.021,2.035-1.612,3.635-3.723,3.642
		c-2.043,0.006-3.725-1.623-3.701-3.587C414.26,22.774,415.919,21.152,417.931,21.146z"/>
	<path fill="#FFFFFF" d="M6.155,4.233C6.47,5.033,6.503,5.864,6.5,6.715c-0.014,4.952-0.012,9.905-0.002,14.859
		c0.002,0.865-0.102,1.738,0.132,2.601c0.045,0.165-0.124,0.411,0.148,0.485c0.223,0.062,0.347-0.148,0.48-0.285
		c0.267-0.271,0.359-0.705,0.981-0.481c0.328,0.117,0.353-0.595,0.623-0.87c0.345-0.35,0.443-0.202,0.502,0.172
		c-0.335,0.511-0.67,1.022-1.005,1.533c-0.091,0.01-0.21-0.049-0.264,0.039c-0.025,0.04,0.109,0.081,0.15,0.144
		c-0.296,0.448-0.592,0.896-0.888,1.347c-0.564,0.026-0.708,0.33-0.546,0.832c-0.215,0.349-0.429,0.694-0.657,1.062
		c-0.232-0.198-0.135-0.404-0.135-0.579c-0.007-7.548-0.008-15.097,0-22.645C6.023,4.698,5.886,4.42,6.155,4.233z"/>
	<path fill="#FFFFFF" d="M6.812,27.09c-0.021-0.019-0.057-0.035-0.059-0.055c-0.032-0.29-0.507-0.477-0.294-0.767
		c0.224-0.304,0.594-0.109,0.899-0.011C7.177,26.536,6.995,26.812,6.812,27.09z"/>
	<path fill="#FFFFFF" d="M8.247,24.911c-0.205,0.013-0.424,0.245-0.605-0.028c-0.029-0.044,0.004-0.179,0.051-0.213
		c0.231-0.163,0.466-0.184,0.668,0.059C8.323,24.79,8.285,24.851,8.247,24.911z"/>
	<path fill="#FFFFFF" d="M175.069,50.877c-1.488-0.369-3.014-0.379-4.538-0.428c-1.462-0.043-2.938-0.023-4.377-0.344
		c-0.784-0.176-1.17-0.758-1.023-1.404c0.166-0.734,0.788-1.186,1.522-1.117c1.44,0.135,2.878,0.107,4.298-0.168
		c2.192-0.422,4.209-1.267,5.487-3.18c1.621-2.429,2.151-5.03,0.546-7.802c0.838,0,1.623-0.02,2.405,0.007
		c0.408,0.015,0.537-0.125,0.53-0.529c-0.021-1.186-0.033-2.373,0.004-3.558c0.016-0.528-0.221-0.591-0.657-0.588
		c-2.146,0.017-4.292,0.017-6.438,0.003c-0.448-0.003-0.907-0.039-1.341-0.142c-2.27-0.536-4.547-0.533-6.781,0.08
		c-3.322,0.91-5.666,2.93-6.366,6.41c-0.654,3.249,0.01,6.122,2.973,8.096c0.03,0.021,0.027,0.091,0.038,0.136
		c-2.962,1.604-3.632,5.727-0.389,7.619c-0.162,0.119-0.321,0.236-0.479,0.354c-2.207,1.656-3.336,3.787-2.841,6.594
		c0.46,2.6,2.189,4.088,4.573,4.812c4.042,1.234,8.071,1.068,11.989-0.545c1.909-0.787,3.509-2.018,4.66-3.779
		C181.649,57.145,179.826,52.061,175.069,50.877z M168.077,35.589c2.578,0.008,4.148,1.553,4.145,4.079
		c-0.003,2.462-1.541,3.894-4.185,3.896c-2.662,0-4.207-1.413-4.222-3.867C163.8,37.238,165.52,35.579,168.077,35.589z
		 M172.844,60.691c-1.915,1.475-5.899,1.68-7.956,0.41c-1.24-0.766-1.753-2.102-1.344-3.5c0.512-1.752,1.673-2.607,3.486-2.58
		c0.423,0.006,0.845,0.002,1.382,0.002c0.927,0.061,1.972,0.082,3.003,0.211c1.246,0.156,2.269,0.703,2.646,2.014
		C174.428,58.521,173.938,59.85,172.844,60.691z"/>
	<path fill="#FFFFFF" d="M368.025,51.4c0.038-0.598-0.249-0.713-0.743-0.746c-0.731-0.051-1.457-0.172-2.188-0.219
		c-0.669-0.045-0.903-0.287-0.9-1.027c0.033-9.178,0.008-18.356,0.045-27.535c0.004-0.864-0.324-1.022-1.042-1.021
		c-2.652,0.006-5.298,0.15-7.944,0.333c-0.812,0.055-1.119,0.353-1.02,1.186c0.083,0.695,0.034,1.409,0.009,2.115
		c-0.013,0.408,0.075,0.587,0.546,0.615c0.956,0.056,1.903,0.219,2.858,0.313c0.471,0.045,0.67,0.214,0.652,0.737
		c-0.043,1.24-0.014,2.484-0.014,3.727c0,1.574,0,1.574-1.601,1.487c-0.226-0.013-0.451-0.021-0.677-0.03
		c-5.663-0.216-10.041,2.497-11.854,7.445c-1.303,3.551-1.348,7.188-0.281,10.798c0.963,3.258,3.056,5.354,6.568,5.713
		c3.406,0.348,6.23-0.658,8.124-3.684c0.089-0.145,0.152-0.307,0.31-0.344c-0.072,0.998-0.134,2.012-0.222,3.02
		c-0.041,0.469,0.105,0.635,0.603,0.635c2.738,0,5.473-0.023,8.199-0.348c0.444-0.053,0.575-0.213,0.565-0.629
		C367.998,53.094,367.971,52.244,368.025,51.4z M357.94,45.763c-0.379,1.382-0.947,2.651-2.027,3.634
		c-1.99,1.814-4.992,1.193-5.847-1.342c-1.019-3.021-0.986-6.11,0.282-9.074c0.981-2.292,3.354-3.296,6.266-2.839
		c1.671,0.263,1.671,0.263,1.671,1.957c0,0.789,0,1.578,0.001,2.369C358.255,42.238,358.418,44.021,357.94,45.763z"/>
	<path fill="#FFFFFF" d="M392.758,51.344c0.015-0.475-0.16-0.648-0.623-0.68c-0.76-0.049-1.514-0.18-2.272-0.23
		c-0.681-0.043-0.917-0.297-0.91-1.035c0.043-3.756,0.064-7.513-0.012-11.267c-0.07-3.413-1.877-5.664-5.181-6.402
		c-4.052-0.907-8.067-0.477-12.037,0.605c-0.316,0.088-0.393,0.242-0.393,0.533c0.007,1.948,0.01,3.896-0.003,5.846
		c-0.002,0.364,0.114,0.495,0.482,0.485c0.733-0.021,1.472-0.057,2.2,0.007c0.813,0.069,1.279-0.125,1.272-1.048
		c-0.004-0.501,0.132-1.004,0.208-1.505c0.043-0.292,0.131-0.495,0.484-0.588c1.463-0.378,2.938-0.576,4.433-0.282
		c1.232,0.242,2.102,0.944,2.412,2.203c0.19,0.77,0.2,1.562,0.195,2.356c-0.001,0.368-0.119,0.486-0.485,0.485
		c-1.3-0.005-2.592,0.124-3.872,0.338c-2.385,0.393-4.669,1.058-6.586,2.627c-3.007,2.46-3.287,7.373-0.521,9.9
		c1.905,1.74,4.237,1.852,6.607,1.422c2.361-0.424,4.183-1.719,5.415-3.826c-0.099,1.076-0.037,2.121-0.061,3.164
		c-0.008,0.305,0.062,0.457,0.415,0.457c2.794,0.004,5.586,0.016,8.369-0.33c0.372-0.047,0.467-0.184,0.461-0.527
		C392.739,53.15,392.729,52.246,392.758,51.344z M378.666,50.768c-1.875,0.289-3.337-0.9-3.29-2.682
		c-0.001-1.184,0.634-1.968,1.638-2.459c1.773-0.867,3.688-0.948,5.616-0.941c0.301,0,0.381,0.143,0.379,0.416
		C382.981,47.498,381.641,50.309,378.666,50.768z"/>
	<path fill="#FFFFFF" d="M282.886,39.758c-0.562-4.044-3.046-6.961-6.882-8.012c-1.481-0.407-2.998-0.512-4.524-0.411
		c-3.916,0.259-7.088,1.922-9.067,5.349c-2.522,4.367-2.503,8.967-0.605,13.564c0.744,1.805,2.105,3.164,3.903,3.936
		c3.768,1.613,7.607,1.695,11.255-0.23c4.459-2.355,6.06-6.424,6.152-10.854C283.062,41.72,283.022,40.738,282.886,39.758z
		 M275.73,48.109c-1.023,1.541-2.498,2.227-4.335,2.111c-1.999-0.127-3.429-1.111-4.084-3.01c-0.871-2.523-0.952-5.103,0.019-7.614
		c1.158-2.996,4.566-4.184,7.172-2.58c1.419,0.873,1.939,2.291,2.246,3.811c0.155,0.772,0.252,1.562,0.202,2.188
		C276.968,44.932,276.721,46.621,275.73,48.109z"/>
	<path fill="#FFFFFF" d="M448.057,37.347c-1.019-2.869-3.066-4.712-6.022-5.543c-1.514-0.424-3.048-0.562-4.604-0.47
		c-4.121,0.244-7.396,2.015-9.378,5.684c-2.267,4.194-2.248,8.602-0.522,12.975c0.953,2.418,2.848,3.934,5.318,4.725
		c1.355,0.432,2.747,0.602,4.165,0.572c5.289,0.152,9.557-2.947,11.148-7.66C449.319,44.198,449.262,40.74,448.057,37.347z
		 M441.829,47.684c-0.98,1.783-2.51,2.635-4.519,2.543c-2.188-0.102-3.642-1.246-4.28-3.338c-0.71-2.323-0.757-4.672,0.014-6.986
		c0.941-2.824,3.624-4.188,6.392-3.307c1.263,0.404,2.085,1.274,2.62,2.466c0.603,1.345,0.665,2.781,0.774,4.153
		C442.752,44.804,442.586,46.31,441.829,47.684z"/>
</g>
</svg>
