<?xml version="1.0" encoding="utf-8"?>
<!-- Generator: Adobe Illustrator 16.0.0, SVG Export Plug-In . SVG Version: 6.00 Build 0)  -->
<!DOCTYPE svg PUBLIC "-//W3C//DTD SVG 1.0//EN" "http://www.w3.org/TR/2001/REC-SVG-20010904/DTD/svg10.dtd">
<svg version="1.0" id="Layer_1" xmlns="http://www.w3.org/2000/svg" xmlns:xlink="http://www.w3.org/1999/xlink" x="0px" y="0px"
	 width="960px" height="400px" viewBox="0 0 960 400" enable-background="new 0 0 960 400" xml:space="preserve">
<g>
	<g>
		<g>
			<path fill="#D3BB5B" d="M247.318,386.41c0-22.703,0-45.407,0-68.11c0-14.573,0-29.147,0-43.72c0-4.065,0-8.131,0-12.196
				c0-4.16-1.092-7.318-4.771-9.946c-16.956-12.111-33.912-24.223-50.868-36.334c-8.879-6.343-17.296,8.309-8.521,14.576
				c17.153,12.252,34.305,24.504,51.458,36.756c-1.394-2.43-2.787-4.858-4.181-7.288c0,42.088,0,84.175,0,126.263
				C230.437,397.297,247.318,397.297,247.318,386.41L247.318,386.41z"/>
		</g>
	</g>
	<g>
		<g>
			<path fill="#D3BB5B" d="M692.297,386.41c0-42.088,0-84.175,0-126.263c-1.394,2.43-2.787,4.858-4.181,7.288
				c17.469-12.477,34.937-24.954,52.404-37.432c8.775-6.268,0.359-20.919-8.52-14.576c-9.14,6.527-18.278,13.056-27.418,19.584
				c-6.041,4.314-12.082,8.63-18.122,12.944c-3.47,2.479-9.558,5.635-10.744,9.947c-0.661,2.404-0.301,5.332-0.301,7.779
				c0,5.108,0,10.218,0,15.326c0,15.419,0,30.837,0,46.255c0,19.716,0,39.431,0,59.146
				C675.416,397.297,692.297,397.297,692.297,386.41L692.297,386.41z"/>
		</g>
	</g>
	<g>
		<g>
			<path fill="#D3BB5B" d="M475.05,385.92c0-46.242,0-92.484,0-138.727c0-0.307,0-0.613,0-0.92c0-10.887-16.882-10.887-16.882,0
				c0,46.242,0,92.484,0,138.727c0,0.307,0,0.613,0,0.92C458.168,396.807,475.05,396.807,475.05,385.92L475.05,385.92z"/>
		</g>
	</g>
	<path fill="#D3BB5B" stroke="#D3BB5B" stroke-width="5.0647" stroke-miterlimit="10" d="M551.426,14.961
		c-10.779-5.45-21.844-8.159-32.652-8.159c-19.729,0-38.581,9.013-53.173,26.822c-14.59-17.8-33.446-26.822-53.176-26.822
		c-10.808,0-21.873,2.709-32.649,8.159c-38.745,21.934-57.199,71.959-38.207,124.355c24.058,69.611,111.329,102.186,124.032,106.43
		c12.704-4.244,99.975-36.818,124.031-106.43C608.623,86.92,590.167,36.895,551.426,14.961z M503.414,118.974l-0.011-0.009
		c1.679-1.224,2.627-3.379,2.266-5.625c-0.504-3.111-3.323-5.218-6.312-4.696c-0.833,0.151-1.58,0.486-2.232,0.955l0,0
		c-0.664,0.484-16.46,12.158-29.115,34.117c-1.405,2.449-2.706,4.932-3.928,7.429c-3.339-4.645-5.5-10.138-6.229-16.048
		c-1.125-9.045,1.188-18.01,6.511-25.237c10.487-14.246,29.815-22.396,44.18-26.73c7.654-2.308,14.771-3.8,20.197-4.739
		c0.514,5.601,0.945,12.991,0.804,21.174c-0.281,15.745-2.836,37.539-13.404,51.875c-6.237,8.485-15.705,13.349-25.977,13.349
		c-6.35,0-12.428-1.888-17.721-5.467c1.414-3.145,2.996-6.247,4.748-9.313C488.614,129.993,503.267,119.084,503.414,118.974z
		 M446.617,129.983c-2.121-2.559-3.542-4.225-3.678-4.377c-0.938-1.098-2.272-1.819-3.782-1.904
		c-3.028-0.184-5.612,2.23-5.781,5.393c-0.088,1.576,0.449,3.042,1.389,4.141c0.112,0.126,5.758,6.733,11.586,14.139
		c3.382,4.282,5.839,7.58,7.622,10.102c-2.617,1.057-5.419,1.619-8.304,1.619c-6.247,0-12.092-2.565-16.46-7.235
		c-7.019-7.506-11.924-20.275-14.173-36.927c-0.683-5.082-1.028-9.834-1.182-13.792c5.091,0.343,11.62,1.081,18.437,2.588
		c7.251,1.62,13.611,3.859,18.896,6.634C448.215,116.576,446.713,123.293,446.617,129.983z M586.162,100.545
		c-0.306,11.469-2.595,23.151-6.784,34.72l-0.027,0.086l-0.031,0.074c-5.011,14.49-13.546,28.416-25.372,41.406
		c-9.91,10.874-22.174,21.146-36.434,30.531c-20.502,13.489-40.012,21.764-49.505,25.395c-6.191-21.985-6.096-42.972,0.272-62.675
		c6.81,4.134,14.373,6.155,21.881,6.155c13.104,0,26.065-6.13,34.676-17.819c23.968-32.549,13.352-92.87,13.352-92.87
		s-55.993,4.578-80.885,35.225c-18.959-10.471-43.796-11.377-51.803-11.377c-1.669,0-2.601,0.042-2.601,0.042
		s-2.9,47.583,18.461,70.424c6.656,7.119,15.481,10.691,24.307,10.691c3.951,0,7.901-0.723,11.659-2.163
		c-1.63,5.406-2.867,10.917-3.67,16.507c-2.079,14.534-1.325,29.606,2.241,44.928c-10.511-4.436-26.058-11.832-42.215-22.462
		c-14.261-9.381-26.523-19.656-36.432-30.528c-11.828-12.988-20.373-26.918-25.375-41.405l-0.034-0.077l-0.023-0.083
		c-4.191-11.572-6.48-23.25-6.786-34.721c-0.296-10.853,1.173-21.333,4.369-31.151c3.1-9.542,7.742-18.212,13.796-25.776
		c6.022-7.52,13.282-13.742,21.576-18.471c9.13-4.578,18.429-6.899,27.647-6.899c8.296,0,16.301,1.894,23.801,5.625
		c7.79,3.874,14.872,9.659,21.039,17.197l8.337,10.173l8.326-10.173c6.176-7.538,13.257-13.323,21.045-17.197
		c7.499-3.731,15.506-5.625,23.801-5.625c9.221,0,18.519,2.322,27.646,6.899c8.297,4.729,15.557,10.951,21.578,18.471
		c6.056,7.564,10.695,16.234,13.795,25.776C584.987,79.214,586.46,89.694,586.162,100.545z"/>
	<path fill="#D3BB5B" stroke="#D3BB5B" stroke-width="8.5136" stroke-miterlimit="10" d="M189.825,131.042v79.233
		c0,4.841-1.984,9.239-5.176,12.431v0.017c-3.188,3.191-7.593,5.172-12.445,5.172H48.25c-4.851,0-9.254-1.98-12.45-5.172
		c-3.19-3.189-5.169-7.595-5.169-12.447v-79.233h-12.73c-2.173,0-4.206-0.667-5.894-1.857c-1.684-1.187-2.996-2.886-3.731-4.951
		c-0.726-2.038-0.783-4.167-0.231-6.153c0.556-1.996,1.706-3.802,3.388-5.176l41.672-34.069L96.362,43.47
		c4.07-3.325,8.967-4.991,13.866-4.991c4.896,0,9.791,1.666,13.86,4.991l16.531,13.512v-4.344c0-2.105,0.857-4.012,2.239-5.395
		c1.382-1.381,3.292-2.237,5.394-2.237h25.768c2.106,0,4.018,0.858,5.397,2.237c1.379,1.378,2.238,3.29,2.238,5.395v37.892
		l27.368,22.376c1.676,1.374,2.83,3.181,3.385,5.173c0.554,1.987,0.499,4.114-0.231,6.154c-0.733,2.065-2.051,3.764-3.731,4.951
		c-1.686,1.187-3.719,1.856-5.892,1.856h-12.728V131.042z M181.061,210.271v-82.445c0-1.514,0.626-2.901,1.638-3.913l-0.01-0.008
		c1.004-1,2.393-1.625,3.921-1.625h15.946c0.34,0,0.635-0.09,0.86-0.249c0.226-0.157,0.407-0.4,0.516-0.705
		c0.117-0.33,0.133-0.647,0.056-0.916c-0.068-0.255-0.241-0.507-0.513-0.728l-28.543-23.338l0.005-0.007
		c-0.651-0.534-1.16-1.183-1.506-1.918c-0.353-0.747-0.538-1.539-0.538-2.365V53.773h-23.516v9.985c0,1.061-0.301,2.074-0.862,2.955
		c-0.563,0.888-1.346,1.602-2.306,2.056h-0.016c-0.977,0.465-2.021,0.624-3.038,0.502v-0.003c-1.018-0.123-1.992-0.536-2.819-1.215
		h-0.017l-21.775-17.798c-2.45-2.005-5.389-3.008-8.318-3.008c-2.93,0-5.87,1.003-8.321,3.008L58.65,85.614l-41.672,34.067
		c-0.265,0.22-0.442,0.473-0.514,0.729c-0.072,0.268-0.057,0.586,0.061,0.917c0.107,0.303,0.29,0.545,0.515,0.704
		c0.224,0.158,0.519,0.247,0.861,0.247h15.946c1.528,0,2.919,0.624,3.919,1.625c1.004,1.005,1.627,2.392,1.627,3.921v82.447
		c0,2.436,0.999,4.645,2.605,6.253c1.604,1.608,3.821,2.608,6.252,2.608h123.954c2.431,0,4.644-1,6.252-2.608l0.008,0.01
		C180.064,214.929,181.061,212.713,181.061,210.271z"/>
	<g>
		<path fill="#D3BB5B" d="M791.609,42.688c-15.004,0-27.312,12.262-27.312,27.111v5.368h-27.022
			c-14.908,0-27.219,12.26-27.219,27.111v80.947c0,14.849,12.217,27.107,27.118,27.107v40.528c0,3.258,2.115,6.32,5,7.568
			c2.981,1.245,6.64,0.482,8.944-1.82l46.45-46.274h75.204c7.31,0,14.042-2.871,18.946-7.565l21.541,21.456
			c2.312,2.205,5.964,2.972,8.943,1.726c2.888-1.243,5.004-4.311,5.004-7.472v-40.621c14.908,0,27.117-12.263,27.117-27.108V69.798
			c0-14.849-12.309-27.111-27.217-27.111H791.609z M791.609,58.97h135.503c6.255,0,10.965,4.695,10.965,10.828v80.951
			c0,6.226-4.71,10.917-10.965,10.917h-8.077c-4.23,0-8.176,3.835-8.176,8.141v29.031l-11.252-11.211
			c0.288-1.438,0.483-2.969,0.483-4.406v-80.947c0-14.85-12.312-27.112-27.313-27.112h-92.134v-5.366
			C780.644,63.668,785.359,58.97,791.609,58.97L791.609,58.97z M737.275,91.354h135.502c6.253,0,10.963,4.694,10.963,10.92v80.951
			c0,6.226-4.71,10.918-10.963,10.918h-78.573c-2.117,0-4.229,0.864-5.766,2.303l-34.909,34.87V202.19
			c0-4.21-3.944-8.048-8.178-8.048h-8.076c-6.25,0-10.965-4.693-10.965-10.918v-80.951
			C726.311,96.048,731.021,91.354,737.275,91.354L737.275,91.354z"/>
	</g>
</g>
</svg>
