<?xml version="1.0" encoding="utf-8"?>
<!-- Generator: Adobe Illustrator 16.0.0, SVG Export Plug-In . SVG Version: 6.00 Build 0)  -->
<!DOCTYPE svg PUBLIC "-//W3C//DTD SVG 1.0//EN" "http://www.w3.org/TR/2001/REC-SVG-20010904/DTD/svg10.dtd">
<svg version="1.0" id="Layer_1" xmlns="http://www.w3.org/2000/svg" xmlns:xlink="http://www.w3.org/1999/xlink" x="0px" y="0px"
	 width="360px" height="80px" viewBox="0 0 360 80" enable-background="new 0 0 360 80" xml:space="preserve">
<g>
	<path fill-rule="evenodd" clip-rule="evenodd" fill="none" stroke="#D3BB5B" stroke-width="2.2487" stroke-miterlimit="10" d="
		M355.5,67.526c0,3.803-3.081,6.886-6.883,6.886H11.385c-3.803,0-6.885-3.083-6.885-6.886V12.471c0-3.8,3.082-6.883,6.885-6.883
		h337.232c3.802,0,6.883,3.083,6.883,6.883V67.526z"/>
	<g>
		<path fill="#D3BB5B" d="M124.137,23.698h13.472c1.438,0,2.765,0.19,3.982,0.566c1.217,0.377,2.27,0.933,3.16,1.665
			c0.889,0.734,1.583,1.646,2.081,2.744c0.499,1.096,0.748,2.355,0.748,3.779c0,0.811-0.146,1.611-0.438,2.401
			c-0.292,0.789-0.697,1.522-1.216,2.198c-0.52,0.677-1.136,1.278-1.847,1.806c-0.711,0.525-1.487,0.932-2.327,1.216
			c0.355,0.158,0.715,0.382,1.078,0.673c0.363,0.293,0.705,0.647,1.025,1.067c0.32,0.421,0.612,0.897,0.875,1.431
			c0.263,0.534,0.473,1.106,0.63,1.719l1.793,7.045h2.797l0.043,4.058h-6.298l-2.413-9.844c-0.441-1.764-1.113-3.063-2.017-3.895
			c-0.904-0.834-2.139-1.25-3.705-1.25h-4.163v11.315h3.245v3.673h-10.504v-3.673h3.075V27.392h-3.075V23.698z M131.396,27.392
			v10.185h6.213c0.812,0,1.556-0.106,2.231-0.319c0.676-0.214,1.26-0.534,1.75-0.961c0.491-0.427,0.875-0.958,1.153-1.591
			c0.277-0.633,0.416-1.37,0.416-2.209c0-1.609-0.484-2.861-1.452-3.758c-0.969-0.897-2.505-1.347-4.612-1.347H131.396z"/>
		<path fill="#D3BB5B" d="M171.172,29.678c-0.456-0.627-0.958-1.106-1.505-1.442c-0.548-0.334-1.149-0.589-1.804-0.768
			c-0.654-0.179-1.309-0.267-1.964-0.267c-1.082,0-2.028,0.124-2.839,0.372c-0.812,0.249-1.484,0.587-2.018,1.014
			c-0.534,0.428-0.936,0.927-1.206,1.495c-0.271,0.569-0.406,1.167-0.406,1.794c0,0.939,0.167,1.697,0.502,2.273
			c0.334,0.577,0.758,1.04,1.27,1.389c0.513,0.348,1.079,0.622,1.698,0.821c0.619,0.2,1.213,0.398,1.783,0.599l4.312,1.409
			c1.295,0.412,2.438,0.883,3.427,1.407c0.989,0.527,1.818,1.15,2.488,1.87c0.668,0.718,1.177,1.547,1.526,2.485
			c0.349,0.939,0.523,2.029,0.523,3.268c0,1.339-0.274,2.577-0.822,3.716c-0.549,1.137-1.313,2.127-2.296,2.967
			c-0.981,0.84-2.153,1.498-3.512,1.975c-1.359,0.478-2.85,0.716-4.473,0.716c-1.665,0-3.089-0.19-4.27-0.564
			c-1.182-0.378-2.175-0.884-2.979-1.519c-0.804-0.632-1.448-1.354-1.932-2.165c-0.484-0.812-0.861-1.646-1.131-2.5h-1.623v-3.672
			h5.38c0,1.58,0.167,2.698,0.502,3.354c0.334,0.654,0.801,1.198,1.398,1.634c0.598,0.434,1.31,0.761,2.135,0.982
			c0.825,0.221,1.736,0.329,2.733,0.329c0.968,0,1.839-0.113,2.615-0.341c0.776-0.229,1.438-0.56,1.985-0.992
			c0.548-0.436,0.968-0.961,1.26-1.581c0.292-0.618,0.438-1.32,0.438-2.104c0-0.867-0.182-1.604-0.544-2.209
			c-0.363-0.604-0.83-1.122-1.398-1.549c-0.569-0.428-1.192-0.774-1.868-1.045c-0.676-0.271-1.328-0.505-1.954-0.705l-4.675-1.324
			c-1.025-0.312-1.961-0.712-2.808-1.196c-0.847-0.482-1.573-1.073-2.178-1.771s-1.071-1.513-1.398-2.445
			c-0.328-0.933-0.491-2.01-0.491-3.233c0-1.239,0.242-2.399,0.726-3.48c0.483-1.082,1.196-2.028,2.135-2.839
			c0.94-0.812,2.089-1.449,3.448-1.91c1.359-0.463,2.914-0.695,4.665-0.695c1.153,0,2.217,0.135,3.192,0.404
			c0.975,0.272,1.857,0.653,2.647,1.144c0.79,0.489,1.487,1.081,2.092,1.771c0.604,0.69,1.114,1.448,1.527,2.274h1.601v3.673h-5.231
			C171.855,31.243,171.627,30.303,171.172,29.678z"/>
		<path fill="#D3BB5B" d="M199.674,23.698h10.504v3.693h-2.796l-10.483,28.675h-5.871l-10.334-28.675h-2.861v-3.693h10.505v3.693
			h-2.818l8.305,24.959l8.903-24.959h-3.054V23.698z"/>
		<path fill="#D3BB5B" d="M212.806,23.698h13.087c1.452,0,2.787,0.19,4.003,0.566c1.217,0.377,2.27,0.933,3.16,1.665
			c0.889,0.734,1.58,1.646,2.07,2.744c0.491,1.096,0.737,2.355,0.737,3.779c0,1.18-0.242,2.294-0.726,3.341
			c-0.484,1.046-1.168,1.961-2.05,2.743c-0.883,0.782-1.94,1.402-3.171,1.857c-1.231,0.455-2.601,0.684-4.11,0.684h-5.743v11.315
			h3.245v3.673h-10.504v-3.673h3.074V27.392h-3.074V23.698z M220.065,27.392v10.185h5.828c0.812,0,1.556-0.109,2.231-0.33
			s1.26-0.545,1.751-0.972c0.491-0.428,0.875-0.961,1.152-1.602c0.278-0.641,0.416-1.381,0.416-2.22
			c0-1.596-0.483-2.837-1.451-3.728c-0.968-0.889-2.513-1.334-4.633-1.334H220.065z"/>
	</g>
</g>
</svg>
